<?xml version="1.0" encoding="utf-8"?><svg xmlns="http://www.w3.org/2000/svg" preserveAspectRatio="xMidYMid" width="47.69" height="47.69" viewBox="-10 -10 47.69 47.69"><defs><style>.dcls-1{fill:#6c7177;fill-rule:evenodd}</style></defs><path d="M13.845 27.677C6.217 27.677.01 21.47.01 13.843.01 6.215 6.218.01 13.846.01c7.627 0 13.832 6.205 13.832 13.833s-6.205 13.834-13.832 13.834zm0-25.667C7.32 2.01 2.01 7.318 2.01 13.843s5.31 11.834 11.835 11.834c6.524 0 11.832-5.31 11.832-11.834 0-6.525-5.308-11.833-11.832-11.833zm2.134 13.13h-3.14v1.87h3.07a1 1 0 0 1 0 2h-3.07v.458a1 1 0 0 1-2 0v-.458H9.705a1 1 0 0 1 0-2h1.133v-1.87H9.676a1 1 0 0 1 0-2h1.162V9.26c-.006-.037-.024-.07-.024-.11a1 1 0 0 1 1-1h4.163c1.833 0 3.326 1.568 3.326 3.495 0 1.926-1.493 3.494-3.327 3.494zm0-4.99h-3.14v2.99h3.14c.73 0 1.326-.67 1.326-1.495 0-.824-.596-1.495-1.327-1.495z" class="dcls-1"/></svg>