<?xml version="1.0" encoding="utf-8"?><svg xmlns="http://www.w3.org/2000/svg" preserveAspectRatio="xMidYMid" width="44" height="52" viewBox="-10 -10 44 52"><defs><style>.fcls-1{fill:#6c7177;fill-rule:evenodd}</style></defs><path d="M22.085 18.505L14.1 30.855A2.497 2.497 0 0 1 12 32c-.88 0-1.656-.456-2.1-1.145l-7.985-12.35A11.95 11.95 0 0 1 0 12C0 5.372 5.373 0 12 0s12 5.373 12 12c0 2.397-.704 4.63-1.915 6.505zM12 3c-4.963 0-9 4.036-9 9 0 1.738.496 3.424 1.435 4.877L12 28.58l7.565-11.704A8.958 8.958 0 0 0 21 12c0-4.964-4.038-9-9-9zm0 14a5 5 0 0 1 0-10 5 5 0 0 1 0 10zm0-7c-1.103 0-2 .897-2 2 0 1.102.897 2 2 2s2-.898 2-2c0-1.103-.897-2-2-2z" class="fcls-1"/></svg>