<?xml version="1.0" encoding="utf-8"?><svg xmlns="http://www.w3.org/2000/svg" preserveAspectRatio="xMidYMid" width="48" height="49" viewBox="-10 -10 48 49"><defs><style>.ecls-1{fill:#6c7177;fill-rule:evenodd}</style></defs><path d="M27 29H1a1 1 0 0 1-1-1V16a1 1 0 0 1 1-1h4V4a1 1 0 0 1 1-1h4V1a1 1 0 0 1 1-1h6a1 1 0 0 1 1 1v2h4a1 1 0 0 1 1 1v11h4a1 1 0 0 1 1 1v12a1 1 0 0 1-1 1zm-1-12h-4a1 1 0 0 1-1-1V5h-4a1 1 0 0 1-1-1V2h-4v2a1 1 0 0 1-1 1H7v11a1 1 0 0 1-1 1H2v10h9v-3h6v3h9V17zm-9 3h2v2h-2v-2zm0-4h2v2h-2v-2zm0-4h2v2h-2v-2zm0-4h2v2h-2V8zm6 14h-2v-2h2v2zm-10-2h2v2h-2v-2zm0-4h2v2h-2v-2zm0-4h2v2h-2v-2zm0-4h2v2h-2V8zM9 20h2v2H9v-2zm0-4h2v2H9v-2zm0-4h2v2H9v-2zm0-4h2v2H9V8zM5 20h2v2H5v-2z" class="ecls-1"/></svg>