<?xml version="1.0" encoding="utf-8"?><svg xmlns="http://www.w3.org/2000/svg" preserveAspectRatio="xMidYMid" width="50.09" height="48.34" viewBox="-10 -10 50.09 48.34"><defs><style>.ccls-1{fill:#6c7177;fill-rule:evenodd}</style></defs><path d="M30.02 8.4l.05 17.355c0 1.49-1.632 2.602-3.017 2.602H2.923c-1.385 0-2.935-1.113-2.935-2.602V8.357l.003-.018.003-.04c.052-1.398 1.16-2.943 2.597-2.943h6.63c.165-2.98 3.048-5.364 6.597-5.364 3.548 0 6.43 2.385 6.597 5.364h4.972c1.435 0 2.575 1.542 2.627 2.94a.245.245 0 0 1 .007.06c0 .01.083.018.083.027 0 .007-.084.012-.084.016zM15.816 1.993c-2.437 0-4.42 1.49-4.595 3.364h9.19c-.176-1.875-2.158-3.364-4.595-3.364zm12.17 6.47v-.01a1.07 1.07 0 0 1-.004-.1c-.026-.505-.447-.996-.597-.996H2.59c-.15 0-.54.492-.566.998 0 .033 0 .065-.004.097v17.302c0 .21.45.603.904.603h24.13c.454 0 .934-.392.934-.602V8.465zm-5 12.894h-16a1 1 0 0 1 0-2h16a1 1 0 0 1 0 2zm0-4h-16a1 1 0 0 1 0-2h16a1 1 0 0 1 0 2zm0-4h-16a1 1 0 0 1 0-2h16a1 1 0 0 1 0 2z" class="ccls-1"/></svg>