<?xml version="1.0" encoding="utf-8"?><svg xmlns="http://www.w3.org/2000/svg" preserveAspectRatio="xMidYMid" width="49" height="49" viewBox="-10 -10 49 49"><defs><style>.bcls-1{fill:#6c7177;fill-rule:evenodd}</style></defs><path d="M24.752 29.012H17a1 1 0 0 1 0-2h7.752A2.25 2.25 0 0 0 27 24.764v-7.752h-1.767a3.856 3.856 0 0 1-3.836 4.205 3.856 3.856 0 0 1-3.837-4.205H17a1 1 0 0 1 0-2h1.886a1 1 0 0 1 .88 1.475 1.854 1.854 0 0 0 1.63 2.73 1.854 1.854 0 0 0 1.633-2.73 1 1 0 0 1 .878-1.475H28a1 1 0 0 1 1 1v8.752a4.253 4.253 0 0 1-4.248 4.248zm3.248-16a1 1 0 0 1-1-1V4.26a2.25 2.25 0 0 0-2.248-2.248H17V3.53c2.24-.204 4.206 1.594 4.205 3.835 0 2.243-1.97 4.042-4.205 3.837v.81a1 1 0 0 1-2 0V9.877a1 1 0 0 1 1.475-.88 1.855 1.855 0 0 0 2.73-1.632 1.855 1.855 0 0 0-2.73-1.63A1 1 0 0 1 15 4.854V1.01a1 1 0 0 1 1-1h8.752A4.252 4.252 0 0 1 29 4.26v7.752a1 1 0 0 1-1 1zm-15 16H4.248A4.253 4.253 0 0 1 0 24.764v-7.752a1 1 0 0 1 2 0v7.752a2.25 2.25 0 0 0 2.248 2.248H12v-1.517c-2.232.206-4.205-1.594-4.205-3.837 0-2.242 1.97-4.036 4.205-3.836v-.81a1 1 0 0 1 2 0v2.135a1 1 0 0 1-1.475.88 1.854 1.854 0 0 0-2.73 1.63 1.855 1.855 0 0 0 2.73 1.632 1 1 0 0 1 1.475.88v3.842a1 1 0 0 1-1 1zm0-16a1 1 0 0 1-1 1h-1.886a1 1 0 0 1-.88-1.475 1.854 1.854 0 0 0-1.63-2.73 1.855 1.855 0 0 0-1.633 2.728 1 1 0 0 1-.878 1.476H1a1 1 0 0 1-1-1V4.26A4.252 4.252 0 0 1 4.248.01H12a1 1 0 0 1 0 2H4.248A2.25 2.25 0 0 0 2 4.26v7.752h1.767a3.856 3.856 0 0 1 3.836-4.205 3.856 3.856 0 0 1 3.836 4.204H12a1 1 0 0 1 1 1z" class="bcls-1"/></svg>