<svg xmlns="http://www.w3.org/2000/svg" xmlns:xlink="http://www.w3.org/1999/xlink" preserveAspectRatio="xMidYMid" width="19.719" height="18" viewBox="0 0 19.719 18">
  <defs>
    <style>
      .cls-1 {
        fill: #951a37;
        fill-rule: evenodd;
      }
    </style>
  </defs>
  <path d="M19.435,4.907 L16.235,8.107 C16.040,8.303 15.784,8.400 15.528,8.400 C15.272,8.400 15.016,8.303 14.821,8.107 C14.431,7.717 14.431,7.084 14.821,6.693 L16.515,5.000 L13.129,5.000 C9.767,5.000 6.929,7.726 6.929,11.000 C6.929,11.553 6.481,12.000 5.928,12.000 C5.376,12.000 4.929,11.553 4.929,11.000 C4.929,6.566 8.607,3.000 13.129,3.000 L16.114,3.000 L14.821,1.707 C14.431,1.316 14.431,0.683 14.821,0.293 C15.212,-0.098 15.845,-0.098 16.235,0.293 L19.435,3.493 C19.826,3.884 19.826,4.516 19.435,4.907 ZM4.929,5.000 L1.991,5.000 L1.991,16.000 L15.991,16.000 L15.991,11.000 C15.991,10.447 16.376,10.000 16.929,10.000 C17.481,10.000 17.991,10.447 17.991,11.000 L17.991,16.000 C17.991,17.102 17.031,18.000 15.929,18.000 L1.928,18.000 C0.826,18.000 0.004,17.102 0.004,16.000 L0.004,5.200 C0.004,4.098 0.826,3.013 1.928,3.013 L4.929,3.013 C5.481,3.013 5.928,3.447 5.928,4.000 C5.928,4.553 5.481,5.000 4.929,5.000 Z" class="cls-1"/>
</svg>
