<svg xmlns="http://www.w3.org/2000/svg" xmlns:xlink="http://www.w3.org/1999/xlink" preserveAspectRatio="xMidYMid" width="15.062" height="18" viewBox="0 0 15.062 18">
  <defs>
    <style>
      .cls-1 {
        fill: #fff;
        fill-rule: evenodd;
      }
    </style>
  </defs>
  <path d="M15.077,9.000 C15.077,12.451 12.846,15.536 9.653,16.502 C9.556,16.532 9.459,16.546 9.363,16.546 C8.933,16.546 8.537,16.267 8.406,15.835 C8.246,15.307 8.545,14.748 9.073,14.588 C11.430,13.875 13.077,11.577 13.077,9.000 C13.077,6.849 11.963,5.049 10.210,4.121 L10.607,4.916 C10.854,5.410 10.654,6.011 10.160,6.258 C10.016,6.330 9.864,6.364 9.714,6.364 C9.346,6.364 8.993,6.161 8.818,5.811 L7.364,2.902 C7.117,2.408 7.317,1.807 7.811,1.560 L10.720,0.105 C11.216,-0.141 11.814,0.059 12.062,0.553 C12.309,1.046 12.109,1.647 11.615,1.894 L10.900,2.252 C13.415,3.485 15.077,6.022 15.077,9.000 ZM5.989,3.411 C3.632,4.126 1.985,6.424 1.985,9.000 C1.985,11.152 3.099,12.953 4.853,13.880 L4.455,13.083 C4.208,12.589 4.408,11.989 4.902,11.741 C5.395,11.494 5.997,11.696 6.244,12.189 L7.698,15.098 C7.945,15.592 7.745,16.193 7.251,16.440 L4.341,17.894 C4.198,17.966 4.045,18.000 3.895,18.000 C3.528,18.000 3.175,17.798 3.000,17.447 C2.753,16.953 2.953,16.352 3.447,16.105 L4.160,15.749 C1.646,14.516 -0.015,11.978 -0.015,9.000 C-0.015,5.550 2.215,2.465 5.409,1.497 C5.941,1.337 6.496,1.637 6.656,2.165 C6.816,2.693 6.517,3.251 5.989,3.411 Z" class="cls-1"/>
</svg>
