<svg xmlns="http://www.w3.org/2000/svg" xmlns:xlink="http://www.w3.org/1999/xlink" preserveAspectRatio="xMidYMid" width="24" height="24" viewBox="0 0 24 24">
  <defs>
    <style>
      .cls-1 {
        fill: #282828;
        fill-rule: evenodd;
      }
    </style>
  </defs>
  <path d="M23.913,0.608 C23.927,0.641 23.935,0.674 23.945,0.708 C23.970,0.788 23.984,0.869 23.988,0.953 C23.990,0.991 23.992,1.027 23.990,1.064 C23.984,1.153 23.964,1.238 23.935,1.324 C23.925,1.352 23.922,1.380 23.910,1.407 C23.906,1.415 23.906,1.424 23.902,1.431 L13.383,23.431 C13.217,23.779 12.866,24.000 12.481,24.000 C12.477,24.000 12.473,24.000 12.470,24.000 C12.080,23.995 11.729,23.765 11.569,23.410 L7.998,15.480 L0.516,11.342 C0.182,11.157 -0.018,10.798 0.001,10.417 C0.020,10.036 0.254,9.698 0.604,9.548 L22.604,0.081 C22.610,0.079 22.617,0.079 22.623,0.077 C22.651,0.065 22.680,0.063 22.709,0.054 C22.796,0.027 22.882,0.010 22.971,0.007 C23.007,0.006 23.042,0.010 23.079,0.012 C23.164,0.019 23.245,0.037 23.325,0.065 C23.358,0.076 23.390,0.085 23.422,0.100 C23.530,0.150 23.631,0.214 23.717,0.303 C23.718,0.303 23.718,0.304 23.719,0.304 C23.719,0.304 23.719,0.304 23.719,0.304 C23.720,0.305 23.720,0.305 23.721,0.306 C23.807,0.395 23.867,0.499 23.913,0.608 ZM12.508,20.625 L19.700,5.585 L9.973,14.996 L12.508,20.625 ZM8.609,13.533 L18.383,4.076 L3.269,10.579 L8.609,13.533 Z" class="cls-1"/>
</svg>
