<?xml version="1.0" encoding="utf-8"?><svg xmlns="http://www.w3.org/2000/svg" preserveAspectRatio="xMidYMid" width="26.94" height="36" viewBox="-10 -10 26.94 36"><defs><style>.acls-1{fill:#fff;fill-rule:evenodd}</style></defs><path d="M1.422 5.09H.71a.723.723 0 0 0-.712.728v1.454c0 .4.32.728.712.728h.712v7.272c0 .4.32.728.712.728h1.424a.722.722 0 0 0 .712-.728V8h1.424c.392 0 .79-.318.885-.706l.365-1.498c.095-.388-.147-.706-.54-.706H4.27V2.91h2.136V0H4.27C2.134 0 1.422 1.44 1.422 2.91v2.18z" class="acls-1"/></svg>