<?xml version="1.0" encoding="utf-8"?><svg xmlns="http://www.w3.org/2000/svg" preserveAspectRatio="xMidYMid" width="52" height="52" viewBox="-10 -10 52 52"><defs><style>.hcls-1{fill:#fff;fill-rule:evenodd}</style></defs><path d="M16 32C7.163 32 0 24.837 0 16S7.163 0 16 0c8.836 0 16 7.163 16 16s-7.164 16-16 16zm9.16-10.845l-3.993-2.05c-.16-.08-.357-.008-.432.06l-.467.428c-1.15 1.054-2.935 1.295-4.325.58a9.557 9.557 0 0 1-4.147-4.14 3.81 3.81 0 0 1 .58-4.315l.427-.464a.383.383 0 0 0 .06-.433L10.81 6.838a1.54 1.54 0 0 0-2.302-.525l-1.214.924a3.345 3.345 0 0 0-1.155 3.69c2.24 6.9 7.667 12.463 14.52 14.884 1.2.425 2.613.1 3.505-.802l1.39-1.405a1.53 1.53 0 0 0-.396-2.448z" class="hcls-1"/></svg>