<?xml version="1.0" encoding="utf-8"?><svg xmlns="http://www.w3.org/2000/svg" preserveAspectRatio="xMidYMid" width="37.81" height="36.88" viewBox="-10 -10 37.81 36.88"><defs><style>.gcls-1{fill:#fff;fill-rule:evenodd}</style></defs><path d="M17.485 10.37a.986.986 0 0 1-1.398-.06l-.26-.286v6.128c0 .398-.773.724-1.168.724H12.5c-.395 0-.63-.326-.63-.724V11.81c0-.4-.413-.906-.808-.906H6.746c-.395 0-.81.507-.81.905v4.342c0 .398-.233.724-.63.724H3.15c-.396 0-1.17-.326-1.17-.724v-6.128l-.26.286a.985.985 0 0 1-1.397.06 1 1 0 0 1-.06-1.406L8.174.278c.375-.41 1.083-.41 1.458 0l7.913 8.686a1 1 0 0 1-.06 1.407z" class="gcls-1"/></svg>