<svg xmlns="http://www.w3.org/2000/svg" xmlns:xlink="http://www.w3.org/1999/xlink" preserveAspectRatio="xMidYMid" width="223" height="98.219" viewBox="0 0 223 98.219">
  <defs>
    <style>
      .cls-1 {
        fill: #951a37;
        fill-rule: evenodd;
      }
    </style>
  </defs>
  <path d="M124.309,85.000 C117.306,93.122 111.270,98.231 111.270,98.231 C111.270,98.231 105.234,93.122 98.232,85.000 L-0.000,85.000 L-0.000,-0.000 L223.000,-0.000 L223.000,85.000 L124.309,85.000 ZM112.029,67.006 L113.379,67.006 L113.379,63.117 L117.917,63.117 L117.917,67.006 L119.267,67.006 L119.267,58.309 L117.917,58.309 L117.917,61.928 L113.379,61.928 L113.379,58.309 L112.029,58.309 L112.029,67.006 ZM102.788,67.006 L107.397,67.006 C109.180,67.006 110.134,65.781 110.134,64.341 C110.134,62.919 109.198,61.676 107.397,61.676 L104.139,61.676 L104.139,58.309 L102.788,58.309 L102.788,67.006 ZM43.976,65.673 L42.878,65.673 L42.878,54.996 L41.383,54.996 L41.383,65.673 L34.361,65.673 L34.361,54.996 L32.867,54.996 L32.867,67.006 L42.481,67.006 L42.481,69.221 L43.976,69.221 L43.976,65.673 ZM53.709,62.757 C53.709,60.146 52.161,58.093 49.532,58.093 C47.047,58.093 45.247,60.128 45.247,62.649 C45.247,65.367 47.101,67.222 49.676,67.222 C51.098,67.222 52.269,66.754 53.133,65.890 L52.485,65.007 C51.801,65.709 50.792,66.106 49.802,66.106 C47.929,66.106 46.777,64.737 46.669,63.099 L53.709,63.099 L53.709,62.757 ZM63.123,58.309 L61.772,58.309 L61.772,61.928 L57.235,61.928 L57.235,58.309 L55.885,58.309 L55.885,67.006 L57.235,67.006 L57.235,63.117 L61.772,63.117 L61.772,67.006 L63.123,67.006 L63.123,58.309 ZM71.283,58.309 L64.873,58.309 L64.873,59.498 L67.394,59.498 L67.394,67.006 L68.744,67.006 L68.744,59.498 L71.283,59.498 L71.283,58.309 ZM77.311,58.093 C76.087,58.093 75.006,58.723 74.376,59.606 L74.376,58.309 L73.026,58.309 L73.026,70.319 L74.376,70.319 L74.376,65.691 C75.078,66.664 76.123,67.222 77.311,67.222 C79.598,67.222 81.182,65.457 81.182,62.649 C81.182,59.822 79.598,58.093 77.311,58.093 ZM90.118,61.028 C90.118,58.921 88.588,58.093 86.751,58.093 C85.329,58.093 84.213,58.561 83.276,59.534 L83.907,60.470 C84.681,59.642 85.527,59.264 86.571,59.264 C87.832,59.264 88.768,59.930 88.768,61.100 L88.768,62.667 C88.066,61.856 87.076,61.478 85.887,61.478 C84.411,61.478 82.844,62.396 82.844,64.341 C82.844,66.232 84.411,67.222 85.887,67.222 C87.058,67.222 88.048,66.808 88.768,66.016 L88.768,67.006 L90.118,67.006 L90.118,61.028 ZM100.090,58.309 L94.041,58.309 L93.483,62.595 C93.140,65.169 92.636,66.106 91.826,66.106 L91.826,67.222 C93.501,67.222 94.437,65.998 94.833,62.757 L95.229,59.498 L98.740,59.498 L98.740,67.006 L100.090,67.006 L100.090,58.309 ZM113.000,12.000 C106.372,12.000 101.000,17.373 101.000,23.999 C101.000,26.397 101.703,28.630 102.915,30.505 L110.899,42.855 C111.344,43.543 112.118,43.999 113.000,43.999 C113.881,43.999 114.656,43.543 115.101,42.855 L123.085,30.505 C124.296,28.630 125.000,26.397 125.000,23.999 C125.000,17.373 119.627,12.000 113.000,12.000 ZM126.574,61.676 L123.315,61.676 L123.315,58.309 L121.965,58.309 L121.965,67.006 L126.574,67.006 C128.357,67.006 129.311,65.781 129.311,64.341 C129.311,62.919 128.375,61.676 126.574,61.676 ZM132.084,58.309 L130.733,58.309 L130.733,67.006 L132.084,67.006 L132.084,58.309 ZM140.892,55.158 C140.334,55.969 139.451,56.455 138.407,56.455 C137.345,56.455 136.480,55.951 135.904,55.158 L135.238,55.734 C135.976,56.707 137.129,57.319 138.407,57.319 C139.703,57.319 140.838,56.707 141.558,55.734 L140.892,55.158 ZM142.026,58.309 L140.694,58.309 L136.138,64.953 L136.138,58.309 L134.788,58.309 L134.788,67.006 L136.084,67.006 L140.676,60.236 L140.676,67.006 L142.026,67.006 L142.026,58.309 ZM153.167,58.093 C150.520,58.093 148.863,60.128 148.863,62.649 C148.863,65.169 150.520,67.222 153.167,67.222 C155.813,67.222 157.470,65.169 157.470,62.649 C157.470,60.128 155.813,58.093 153.167,58.093 ZM168.526,58.093 C167.535,58.093 166.671,58.723 166.167,59.606 L166.167,54.996 L164.817,54.996 L164.817,59.624 C164.240,58.651 163.394,58.093 162.440,58.093 C160.603,58.093 159.307,59.858 159.307,62.667 C159.307,65.493 160.603,67.222 162.440,67.222 C163.430,67.222 164.312,66.592 164.817,65.709 L164.817,70.319 L166.167,70.319 L166.167,65.691 C166.725,66.664 167.571,67.222 168.526,67.222 C170.362,67.222 171.659,65.457 171.659,62.649 C171.659,59.822 170.362,58.093 168.526,58.093 ZM181.262,58.309 L179.929,58.309 L175.374,64.953 L175.374,58.309 L174.024,58.309 L174.024,67.006 L175.320,67.006 L179.911,60.236 L179.911,67.006 L181.262,67.006 L181.262,58.309 ZM187.886,59.300 C188.787,59.300 189.525,59.642 190.101,60.434 L191.001,59.606 C190.335,58.741 189.399,58.093 187.814,58.093 C185.222,58.093 183.475,60.074 183.475,62.649 C183.475,65.241 185.222,67.222 187.814,67.222 C189.399,67.222 190.335,66.574 191.001,65.709 L190.101,64.881 C189.525,65.655 188.787,66.016 187.886,66.016 C186.032,66.016 184.879,64.575 184.879,62.649 C184.879,60.722 186.032,59.300 187.886,59.300 ZM168.148,66.016 C167.337,66.016 166.527,65.367 166.167,64.611 L166.167,60.686 C166.527,59.930 167.337,59.300 168.148,59.300 C169.498,59.300 170.290,60.722 170.290,62.649 C170.290,64.575 169.498,66.016 168.148,66.016 ZM162.818,66.016 C161.468,66.016 160.675,64.593 160.675,62.667 C160.675,60.740 161.468,59.300 162.818,59.300 C163.646,59.300 164.456,59.948 164.817,60.704 L164.817,64.629 C164.456,65.385 163.646,66.016 162.818,66.016 ZM153.167,66.016 C151.312,66.016 150.268,64.431 150.268,62.649 C150.268,60.884 151.312,59.300 153.167,59.300 C155.021,59.300 156.048,60.884 156.048,62.649 C156.048,64.431 155.021,66.016 153.167,66.016 ZM126.430,65.818 L123.315,65.818 L123.315,62.865 L126.430,62.865 C127.420,62.865 127.925,63.495 127.925,64.341 C127.925,65.205 127.402,65.818 126.430,65.818 ZM113.000,40.579 L105.435,28.877 C104.496,27.424 104.000,25.738 104.000,23.999 C104.000,19.036 108.037,15.000 113.000,15.000 C117.962,15.000 122.000,19.036 122.000,23.999 C122.000,25.738 121.504,27.424 120.565,28.876 L113.000,40.579 ZM113.000,18.999 C110.238,18.999 108.000,21.238 108.000,23.999 C108.000,26.761 110.238,28.999 113.000,28.999 C115.761,28.999 118.000,26.761 118.000,23.999 C118.000,21.238 115.761,18.999 113.000,18.999 ZM113.000,26.000 C111.897,26.000 111.000,25.102 111.000,23.999 C111.000,22.897 111.897,21.999 113.000,21.999 C114.103,21.999 115.000,22.897 115.000,23.999 C115.000,25.102 114.103,26.000 113.000,26.000 ZM86.373,66.250 C85.113,66.250 84.231,65.457 84.231,64.359 C84.231,63.243 85.113,62.451 86.373,62.451 C87.328,62.451 88.246,62.811 88.768,63.531 L88.768,65.169 C88.246,65.890 87.328,66.250 86.373,66.250 ZM76.969,66.016 C75.906,66.016 74.844,65.367 74.376,64.611 L74.376,60.686 C74.844,59.930 75.906,59.300 76.969,59.300 C78.715,59.300 79.760,60.722 79.760,62.649 C79.760,64.575 78.715,66.016 76.969,66.016 ZM49.514,59.210 C51.495,59.210 52.359,60.812 52.377,62.108 L46.669,62.108 C46.741,60.776 47.659,59.210 49.514,59.210 ZM108.748,64.341 C108.748,65.205 108.226,65.818 107.253,65.818 L104.139,65.818 L104.139,62.865 L107.253,62.865 C108.244,62.865 108.748,63.495 108.748,64.341 Z" class="cls-1"/>
</svg>
