<svg xmlns="http://www.w3.org/2000/svg" xmlns:xlink="http://www.w3.org/1999/xlink" preserveAspectRatio="xMidYMid" width="223" height="98.219" viewBox="0 0 223 98.219">
  <defs>
    <style>
      .cls-1 {
        fill: #951a37;
        fill-rule: evenodd;
      }
    </style>
  </defs>
  <path d="M124.309,85.000 C117.306,93.122 111.270,98.231 111.270,98.231 C111.270,98.231 105.234,93.122 98.232,85.000 L-0.000,85.000 L-0.000,-0.000 L223.000,-0.000 L223.000,85.000 L124.309,85.000 ZM106.927,67.222 C108.601,67.222 109.537,65.998 109.934,62.757 L110.330,59.498 L113.841,59.498 L113.841,67.006 L115.191,67.006 L115.191,58.309 L109.141,58.309 L108.583,62.595 C108.241,65.169 107.737,66.106 106.927,66.106 L106.927,67.222 ZM28.875,65.673 L27.777,65.673 L27.777,54.996 L20.431,54.996 L19.692,61.028 C19.188,65.097 18.378,65.709 16.937,65.799 L16.937,69.221 L18.432,69.221 L18.432,67.006 L27.381,67.006 L27.381,69.221 L28.875,69.221 L28.875,65.673 ZM34.449,58.093 C31.802,58.093 30.146,60.128 30.146,62.649 C30.146,65.169 31.802,67.222 34.449,67.222 C37.096,67.222 38.752,65.169 38.752,62.649 C38.752,60.128 37.096,58.093 34.449,58.093 ZM48.195,58.309 L40.957,58.309 L40.957,67.006 L42.307,67.006 L42.307,59.498 L46.844,59.498 L46.844,67.006 L48.195,67.006 L48.195,58.309 ZM54.702,58.093 C52.056,58.093 50.399,60.128 50.399,62.649 C50.399,65.169 52.056,67.222 54.702,67.222 C57.349,67.222 59.006,65.169 59.006,62.649 C59.006,60.128 57.349,58.093 54.702,58.093 ZM68.218,58.309 L62.168,58.309 L61.610,62.595 C61.268,65.169 60.763,66.106 59.953,66.106 L59.953,67.222 C61.628,67.222 62.564,65.998 62.960,62.757 L63.356,59.498 L66.867,59.498 L66.867,67.006 L68.218,67.006 L68.218,58.309 ZM78.153,58.309 L76.803,58.309 L76.803,61.928 L72.266,61.928 L72.266,58.309 L70.915,58.309 L70.915,67.006 L72.266,67.006 L72.266,63.117 L76.803,63.117 L76.803,67.006 L78.153,67.006 L78.153,58.309 ZM88.089,58.309 L86.757,58.309 L82.201,64.953 L82.201,58.309 L80.851,58.309 L80.851,67.006 L82.147,67.006 L86.739,60.236 L86.739,67.006 L88.089,67.006 L88.089,58.309 ZM96.250,58.309 L89.840,58.309 L89.840,59.498 L92.360,59.498 L92.360,67.006 L93.711,67.006 L93.711,59.498 L96.250,59.498 L96.250,58.309 ZM97.308,62.649 C97.308,65.367 99.162,67.222 101.737,67.222 C103.160,67.222 104.330,66.754 105.194,65.890 L104.546,65.007 C103.862,65.709 102.853,66.106 101.863,66.106 C99.991,66.106 98.838,64.737 98.730,63.099 L105.770,63.099 L105.770,62.757 C105.770,60.146 104.222,58.093 101.593,58.093 C99.108,58.093 97.308,60.128 97.308,62.649 ZM113.000,12.000 C106.372,12.000 101.000,17.373 101.000,23.999 C101.000,26.397 101.703,28.630 102.915,30.505 L110.899,42.855 C111.344,43.543 112.118,43.999 113.000,43.999 C113.881,43.999 114.656,43.543 115.101,42.855 L123.085,30.505 C124.296,28.630 125.000,26.397 125.000,23.999 C125.000,17.373 119.627,12.000 113.000,12.000 ZM122.498,61.676 L119.239,61.676 L119.239,58.309 L117.889,58.309 L117.889,67.006 L122.498,67.006 C124.281,67.006 125.235,65.781 125.235,64.341 C125.235,62.919 124.299,61.676 122.498,61.676 ZM134.368,58.309 L133.017,58.309 L133.017,61.928 L128.480,61.928 L128.480,58.309 L127.130,58.309 L127.130,67.006 L128.480,67.006 L128.480,63.117 L133.017,63.117 L133.017,67.006 L134.368,67.006 L134.368,58.309 ZM141.675,61.676 L138.416,61.676 L138.416,58.309 L137.065,58.309 L137.065,67.006 L141.675,67.006 C143.457,67.006 144.412,65.781 144.412,64.341 C144.412,62.919 143.475,61.676 141.675,61.676 ZM147.184,58.309 L145.834,58.309 L145.834,67.006 L147.184,67.006 L147.184,58.309 ZM155.992,55.158 C155.434,55.969 154.552,56.455 153.508,56.455 C152.445,56.455 151.581,55.951 151.005,55.158 L150.339,55.734 C151.077,56.707 152.229,57.319 153.508,57.319 C154.804,57.319 155.938,56.707 156.659,55.734 L155.992,55.158 ZM157.127,58.309 L155.794,58.309 L151.239,64.953 L151.239,58.309 L149.888,58.309 L149.888,67.006 L151.185,67.006 L155.776,60.236 L155.776,67.006 L157.127,67.006 L157.127,58.309 ZM168.267,58.093 C165.621,58.093 163.964,60.128 163.964,62.649 C163.964,65.169 165.621,67.222 168.267,67.222 C170.914,67.222 172.571,65.169 172.571,62.649 C172.571,60.128 170.914,58.093 168.267,58.093 ZM183.626,58.093 C182.636,58.093 181.772,58.723 181.268,59.606 L181.268,54.996 L179.917,54.996 L179.917,59.624 C179.341,58.651 178.495,58.093 177.540,58.093 C175.704,58.093 174.408,59.858 174.408,62.667 C174.408,65.493 175.704,67.222 177.540,67.222 C178.531,67.222 179.413,66.592 179.917,65.709 L179.917,70.319 L181.268,70.319 L181.268,65.691 C181.826,66.664 182.672,67.222 183.626,67.222 C185.463,67.222 186.759,65.457 186.759,62.649 C186.759,59.822 185.463,58.093 183.626,58.093 ZM196.362,58.309 L195.030,58.309 L190.475,64.953 L190.475,58.309 L189.124,58.309 L189.124,67.006 L190.421,67.006 L195.012,60.236 L195.012,67.006 L196.362,67.006 L196.362,58.309 ZM202.987,59.300 C203.887,59.300 204.625,59.642 205.202,60.434 L206.102,59.606 C205.436,58.741 204.499,58.093 202.915,58.093 C200.322,58.093 198.576,60.074 198.576,62.649 C198.576,65.241 200.322,67.222 202.915,67.222 C204.499,67.222 205.436,66.574 206.102,65.709 L205.202,64.881 C204.625,65.655 203.887,66.016 202.987,66.016 C201.132,66.016 199.980,64.575 199.980,62.649 C199.980,60.722 201.132,59.300 202.987,59.300 ZM183.248,66.016 C182.438,66.016 181.628,65.367 181.268,64.611 L181.268,60.686 C181.628,59.930 182.438,59.300 183.248,59.300 C184.599,59.300 185.391,60.722 185.391,62.649 C185.391,64.575 184.599,66.016 183.248,66.016 ZM177.919,66.016 C176.568,66.016 175.776,64.593 175.776,62.667 C175.776,60.740 176.568,59.300 177.919,59.300 C178.747,59.300 179.557,59.948 179.917,60.704 L179.917,64.629 C179.557,65.385 178.747,66.016 177.919,66.016 ZM168.267,66.016 C166.413,66.016 165.368,64.431 165.368,62.649 C165.368,60.884 166.413,59.300 168.267,59.300 C170.122,59.300 171.148,60.884 171.148,62.649 C171.148,64.431 170.122,66.016 168.267,66.016 ZM141.531,65.818 L138.416,65.818 L138.416,62.865 L141.531,62.865 C142.521,62.865 143.025,63.495 143.025,64.341 C143.025,65.205 142.503,65.818 141.531,65.818 ZM122.354,65.818 L119.239,65.818 L119.239,62.865 L122.354,62.865 C123.344,62.865 123.848,63.495 123.848,64.341 C123.848,65.205 123.326,65.818 122.354,65.818 ZM113.000,40.579 L105.435,28.877 C104.496,27.424 104.000,25.738 104.000,23.999 C104.000,19.036 108.037,15.000 113.000,15.000 C117.962,15.000 122.000,19.036 122.000,23.999 C122.000,25.738 121.504,27.424 120.565,28.876 L113.000,40.579 ZM113.000,18.999 C110.238,18.999 108.000,21.238 108.000,23.999 C108.000,26.761 110.238,28.999 113.000,28.999 C115.761,28.999 118.000,26.761 118.000,23.999 C118.000,21.238 115.761,18.999 113.000,18.999 ZM113.000,26.000 C111.897,26.000 111.000,25.102 111.000,23.999 C111.000,22.897 111.897,21.999 113.000,21.999 C114.103,21.999 115.000,22.897 115.000,23.999 C115.000,25.102 114.103,26.000 113.000,26.000 ZM104.438,62.108 L98.730,62.108 C98.802,60.776 99.721,59.210 101.575,59.210 C103.556,59.210 104.420,60.812 104.438,62.108 ZM54.702,66.016 C52.848,66.016 51.803,64.431 51.803,62.649 C51.803,60.884 52.848,59.300 54.702,59.300 C56.557,59.300 57.583,60.884 57.583,62.649 C57.583,64.431 56.557,66.016 54.702,66.016 ZM34.449,66.016 C32.595,66.016 31.550,64.431 31.550,62.649 C31.550,60.884 32.595,59.300 34.449,59.300 C36.304,59.300 37.330,60.884 37.330,62.649 C37.330,64.431 36.304,66.016 34.449,66.016 ZM21.169,61.136 L21.763,56.329 L26.282,56.329 L26.282,65.673 L19.332,65.673 C20.214,65.007 20.863,63.675 21.169,61.136 Z" class="cls-1"/>
</svg>
