<?xml version="1.0" encoding="utf-8"?>
<!-- Generated by IcoMoon.io -->
<!DOCTYPE svg PUBLIC "-//W3C//DTD SVG 1.1//EN" "http://www.w3.org/Graphics/SVG/1.1/DTD/svg11.dtd">
<svg version="1.1" xmlns="http://www.w3.org/2000/svg" xmlns:xlink="http://www.w3.org/1999/xlink" width="32" height="32" viewBox="0 0 32 32">
<path d="M27.948 16.005h-0.006v10.576c0 0.234-0.189 0.423-0.423 0.423h-22.867c-0.234 0-0.423-0.19-0.423-0.423v-10.577c-0.695-0.006-1.259-0.572-1.259-1.269v-5.493c0-0.7 0.57-1.27 1.27-1.27h7.189c0.179-1.55 1.373-2.975 2.807-2.975h3.716c1.447 0 2.642 1.415 2.811 2.975h7.186c0.7 0 1.27 0.57 1.27 1.27v5.493c0 0.7-0.57 1.27-1.27 1.27zM5.075 26.157h22.020v-10.152h-2.96v1.258c0 0.7-0.57 1.27-1.27 1.27h-1.704c-0.701 0-1.27-0.57-1.27-1.27v-1.258h-7.608v1.695c0 0.467-0.38 0.847-0.847 0.847h-2.551c-0.467 0-0.847-0.38-0.847-0.847v-1.695h-2.964v10.152zM20.738 15.158h2.55v-1.276c0-0.233-0.19-0.423-0.423-0.423h-1.704c-0.234 0-0.423 0.19-0.423 0.423v1.276zM20.738 16.005v1.258c0 0.233 0.19 0.423 0.423 0.423h1.704c0.234 0 0.423-0.19 0.423-0.423v-1.258h-2.55zM8.886 16.005v1.695h2.551l-0-1.695h-2.551zM11.437 15.158v-1.7h-2.551v1.7h2.551zM17.952 5.843h-3.716c-0.956 0-1.78 1.039-1.949 2.129h7.618c-0.155-1.103-0.969-2.129-1.953-2.129zM28.372 9.242c0-0.233-0.19-0.423-0.423-0.423h-23.709c-0.234 0-0.423 0.19-0.423 0.423v5.493c0 0.233 0.19 0.423 0.423 0.423h0.41c0.001 0 0.001-0 0.002-0h3.387v-1.7c0-0.467 0.155-0.847 0.622-0.847h2.776c0.466 0 0.847 0.38 0.847 0.847v1.7h7.608v-1.276c0-0.7 0.49-1.27 1.191-1.27h1.783c0.7 0 1.27 0.57 1.27 1.27v1.276h3.383c0.001 0 0.001 0 0.002 0h0.428c0.234 0 0.423-0.19 0.423-0.423v-5.493z"></path>
</svg>
