<?xml version="1.0" encoding="utf-8"?>
<!-- Generated by IcoMoon.io -->
<!DOCTYPE svg PUBLIC "-//W3C//DTD SVG 1.1//EN" "http://www.w3.org/Graphics/SVG/1.1/DTD/svg11.dtd">
<svg version="1.1" xmlns="http://www.w3.org/2000/svg" xmlns:xlink="http://www.w3.org/1999/xlink" width="32" height="32" viewBox="0 0 32 32">
<path d="M29.722 10.702l0.048 15.922c0 1.366-1.498 2.387-2.769 2.387h-22.137c-1.272 0-2.694-1.021-2.694-2.387v-15.962c0-0.005 0.003-0.011 0.003-0.016 0.001-0.012 0.001-0.023 0.002-0.036 0.048-1.283 1.065-2.7 2.383-2.7h6.083c0.151-2.733 2.796-4.921 6.052-4.921s5.9 2.188 6.052 4.921h4.562c1.317 0 2.362 1.415 2.41 2.697 0.006 0.025 0.006 0.039 0.006 0.055 0 0.008 0.076 0.016 0.076 0.025 0 0.006-0.077 0.011-0.077 0.015zM16.692 4.824c-2.236 0-4.054 1.366-4.216 3.086h8.43c-0.161-1.72-1.979-3.086-4.215-3.086zM27.858 10.76c0-0.004-0.001-0.007-0.001-0.011-0.003-0.030-0.004-0.060-0.004-0.090-0.024-0.464-0.41-0.915-0.548-0.915h-22.749c-0.138 0-0.495 0.451-0.519 0.916 0 0.030-0.001 0.060-0.004 0.089 0 0.004-0.001 0.007-0.001 0.011v15.864c0 0.193 0.413 0.552 0.83 0.552h22.137c0.417 0 0.858-0.36 0.858-0.552v-15.864zM23.271 22.589h-14.679c-0.507 0-0.918-0.411-0.918-0.918s0.41-0.918 0.918-0.918h14.679c0.507 0 0.918 0.411 0.918 0.918s-0.41 0.918-0.918 0.918zM23.271 18.919h-14.679c-0.507 0-0.918-0.411-0.918-0.918s0.41-0.918 0.918-0.918h14.679c0.507 0 0.918 0.411 0.918 0.918s-0.41 0.918-0.918 0.918zM23.271 15.249h-14.679c-0.507 0-0.918-0.411-0.918-0.918s0.41-0.918 0.918-0.918h14.679c0.507 0 0.918 0.411 0.918 0.918s-0.41 0.918-0.918 0.918z"></path>
</svg>
