<?xml version="1.0" encoding="utf-8"?>
<!-- Generated by IcoMoon.io -->
<!DOCTYPE svg PUBLIC "-//W3C//DTD SVG 1.1//EN" "http://www.w3.org/Graphics/SVG/1.1/DTD/svg11.dtd">
<svg version="1.1" xmlns="http://www.w3.org/2000/svg" xmlns:xlink="http://www.w3.org/1999/xlink" width="32" height="32" viewBox="0 0 32 32">
<path d="M25.851 25.343h-3.631c-0.286 0-0.519-0.232-0.519-0.519v-3.647c0-0.286 0.232-0.519 0.519-0.519h3.631c0.286 0 0.519 0.232 0.519 0.519v3.647c0 0.286-0.232 0.519-0.519 0.519zM25.332 21.696h-2.593v2.61h2.593v-2.61zM26.331 18.125c-0.101 0.102-0.234 0.152-0.367 0.152s-0.265-0.050-0.367-0.152l-1.392-1.392-1.392 1.392c-0.101 0.102-0.234 0.152-0.367 0.152s-0.265-0.050-0.367-0.152c-0.203-0.202-0.203-0.53 0-0.733l1.392-1.392-1.392-1.392c-0.203-0.202-0.203-0.53 0-0.733s0.53-0.202 0.733 0l1.392 1.392 1.392-1.392c0.202-0.202 0.53-0.202 0.733 0s0.202 0.531 0 0.733l-1.392 1.392 1.392 1.392c0.202 0.203 0.202 0.531 0 0.733zM29.481 30h-26.963c-0.287 0-0.519-0.232-0.519-0.519v-12.896c0-0.286 0.232-0.519 0.519-0.519s0.518 0.232 0.518 0.519v12.377h25.926l0.001-22.291h-4.663v1.707c0 0.932-0.921 1.691-1.853 1.691s-1.788-0.759-1.788-1.691v-1.707h-1.729c-0.286 0-0.519-0.232-0.519-0.519s0.232-0.519 0.519-0.519h1.729v-1.945c0-0.932 0.856-1.69 1.788-1.69s1.853 0.758 1.853 1.69v1.945h5.181c0.287 0 0.519 0.232 0.519 0.519v23.328c0 0.286-0.232 0.519-0.519 0.519zM23.263 3.69c0-0.36-0.456-0.653-0.816-0.653s-0.751 0.293-0.751 0.653v4.689c0 0.36 0.39 0.654 0.751 0.654s0.816-0.293 0.816-0.654v-4.689zM18.125 25.159c-0.102 0.101-0.234 0.151-0.367 0.151s-0.265-0.050-0.367-0.151l-1.392-1.392-1.392 1.392c-0.101 0.101-0.234 0.151-0.367 0.151s-0.265-0.050-0.367-0.151c-0.202-0.203-0.202-0.531 0-0.734l1.392-1.392-1.392-1.392c-0.202-0.203-0.202-0.531 0-0.734s0.531-0.202 0.733 0l1.392 1.392 1.392-1.392c0.202-0.202 0.53-0.202 0.733 0s0.202 0.531 0 0.734l-1.392 1.392 1.392 1.392c0.202 0.203 0.202 0.531 0 0.734zM18.125 18.125c-0.102 0.102-0.234 0.152-0.367 0.152s-0.265-0.050-0.367-0.152l-1.392-1.392-1.392 1.392c-0.101 0.102-0.234 0.152-0.367 0.152s-0.265-0.050-0.367-0.152c-0.202-0.202-0.202-0.53 0-0.733l3.517-3.517c0.202-0.202 0.53-0.202 0.733 0s0.202 0.531 0 0.733l-1.392 1.392 1.392 1.392c0.202 0.203 0.202 0.531 0 0.733zM5.669 20.908c0.203-0.202 0.531-0.202 0.733 0l1.392 1.392 1.392-1.392c0.202-0.202 0.53-0.202 0.733 0s0.203 0.531 0 0.734l-1.392 1.392 1.392 1.392c0.203 0.203 0.203 0.531 0 0.734-0.101 0.101-0.234 0.151-0.367 0.151s-0.265-0.050-0.367-0.151l-1.392-1.392-1.392 1.392c-0.101 0.101-0.234 0.151-0.367 0.151s-0.265-0.050-0.367-0.151c-0.203-0.203-0.203-0.531 0-0.734l1.392-1.392-1.392-1.392c-0.203-0.203-0.203-0.531 0-0.734zM9.552 17.104c-4.164 0-7.552-3.387-7.552-7.552s3.388-7.552 7.552-7.552 7.552 3.388 7.552 7.552c0 4.165-3.388 7.552-7.552 7.552zM9.552 3.037c-3.593 0-6.516 2.923-6.516 6.515s2.923 6.515 6.516 6.515c3.592 0 6.515-2.922 6.515-6.515s-2.923-6.515-6.515-6.515zM9.768 10.329c-0.055 0-0.108-0.023-0.158-0.054-0.020 0.003-0.038 0.012-0.059 0.012h-4.689c-0.286 0-0.519-0.232-0.519-0.519s0.232-0.519 0.519-0.519h4.387v-4.388c0-0.286 0.232-0.518 0.519-0.518s0.519 0.232 0.519 0.518v4.689c0 0.286-0.232 0.778-0.519 0.778z"></path>
</svg>
