<?xml version="1.0" encoding="utf-8"?>
<!-- Generated by IcoMoon.io -->
<!DOCTYPE svg PUBLIC "-//W3C//DTD SVG 1.1//EN" "http://www.w3.org/Graphics/SVG/1.1/DTD/svg11.dtd">
<svg version="1.1" xmlns="http://www.w3.org/2000/svg" xmlns:xlink="http://www.w3.org/1999/xlink" width="32" height="32" viewBox="0 0 32 32">
<path d="M28.505 30h-25.103c-0.534 0-0.966-0.433-0.966-0.965v-11.586c0-0.533 0.432-0.965 0.966-0.965h3.862v-10.621c0-0.533 0.432-0.966 0.966-0.966h3.862v-1.931c0-0.533 0.432-0.966 0.966-0.966h5.793c0.534 0 0.965 0.433 0.965 0.966v1.931h3.862c0.534 0 0.965 0.433 0.965 0.966v10.621h3.862c0.534 0 0.965 0.433 0.965 0.965v11.586c0 0.533-0.432 0.965-0.965 0.965zM27.539 18.414h-3.862c-0.534 0-0.965-0.433-0.965-0.965v-10.621h-3.862c-0.534 0-0.965-0.433-0.965-0.966v-1.931h-3.862v1.931c0 0.533-0.432 0.966-0.966 0.966h-3.862v10.621c0 0.533-0.432 0.965-0.966 0.965h-3.862v9.655h8.69v-2.897h5.793v2.897h8.69v-9.655zM18.85 21.31h1.931v1.931h-1.931v-1.931zM18.85 17.448h1.931v1.931h-1.931v-1.931zM18.85 13.586h1.931v1.931h-1.931v-1.931zM18.85 9.724h1.931v1.931h-1.931v-1.931zM24.643 23.241h-1.931v-1.931h1.931v1.931zM14.988 21.31h1.931v1.931h-1.931v-1.931zM14.988 17.448h1.931v1.931h-1.931v-1.931zM14.988 13.586h1.931v1.931h-1.931v-1.931zM14.988 9.724h1.931v1.931h-1.931v-1.931zM11.126 21.31h1.931v1.931h-1.931v-1.931zM11.126 17.448h1.931v1.931h-1.931v-1.931zM11.126 13.586h1.931v1.931h-1.931v-1.931zM11.126 9.724h1.931v1.931h-1.931v-1.931zM7.264 21.31h1.931v1.931h-1.931v-1.931z"></path>
</svg>
