<?xml version="1.0" encoding="utf-8"?>
<!-- Generated by IcoMoon.io -->
<!DOCTYPE svg PUBLIC "-//W3C//DTD SVG 1.1//EN" "http://www.w3.org/Graphics/SVG/1.1/DTD/svg11.dtd">
<svg version="1.1" xmlns="http://www.w3.org/2000/svg" xmlns:xlink="http://www.w3.org/1999/xlink" width="32" height="32" viewBox="0 0 32 32">
<path d="M26.392 24.459c-1.364 0-2.515-0.879-2.947-2.097-1.595 3.466-4.341 5.995-7.585 6.786h7.731c0.241 0 0.437 0.195 0.437 0.437s-0.196 0.437-0.437 0.437h-20.114c-0.241 0-0.437-0.196-0.437-0.437s0.196-0.437 0.437-0.437h8.030c-5.162-1.259-9.068-6.911-9.068-13.75 0-0.057 0.001-0.114 0.003-0.17l0.002-0.088c0.004-0.239 0.198-0.429 0.437-0.429h21.604c0.237 0 0.431 0.189 0.437 0.427l0.002 0.078c0.002 0.061 0.003 0.121 0.003 0.183 0 1.159-0.121 2.28-0.332 3.355 0.51-0.358 1.128-0.572 1.797-0.572 1.731 0 3.139 1.408 3.139 3.139s-1.408 3.139-3.139 3.139zM3.313 15.585c0.079 7.205 4.7 12.954 10.369 12.954s10.291-5.749 10.37-12.954h-20.739zM26.392 19.056c-1.249 0-2.265 1.016-2.265 2.265s1.016 2.265 2.265 2.265c1.249 0 2.265-1.016 2.265-2.265s-1.016-2.265-2.265-2.265zM17.298 7.489c0.129-0.301 0.214-0.501 0.328-1.108 0.221-1.176-0.841-2.167-0.886-2.208-0.178-0.164-0.454-0.151-0.617 0.026s-0.151 0.454 0.027 0.617c0.007 0.007 0.749 0.71 0.618 1.403-0.096 0.514-0.155 0.652-0.272 0.927-0.086 0.202-0.204 0.478-0.374 0.987-0.4 1.194 0.224 2.024 0.61 2.297 0.076 0.054 0.163 0.080 0.249 0.080 0.135 0 0.268-0.064 0.354-0.181 0.141-0.194 0.097-0.466-0.094-0.609-0.060-0.045-0.574-0.461-0.29-1.309 0.16-0.476 0.265-0.723 0.35-0.922zM13.787 9.828c-0.084-0.379 0.166-2.593 0.603-4.773 0.429-2.148-0.216-2.812-0.35-2.923-0.186-0.154-0.472-0.14-0.626 0.046s-0.14 0.451 0.045 0.606c0.004 0.004 0.4 0.466 0.074 2.101-0.333 1.66-0.753 4.44-0.599 5.134 0.138 0.624 0.7 0.952 0.764 0.988 0.067 0.037 0.139 0.055 0.211 0.055 0.152 0 0.299-0.080 0.38-0.222 0.118-0.208 0.045-0.474-0.163-0.595-0.079-0.046-0.293-0.21-0.339-0.416zM11.017 7.489c0.129-0.301 0.214-0.501 0.328-1.108 0.221-1.176-0.841-2.167-0.886-2.208-0.178-0.164-0.454-0.151-0.617 0.026s-0.151 0.454 0.027 0.617c0.007 0.007 0.749 0.71 0.618 1.403-0.096 0.514-0.155 0.652-0.272 0.927-0.086 0.202-0.204 0.478-0.374 0.987-0.4 1.194 0.224 2.024 0.61 2.297 0.076 0.054 0.163 0.080 0.25 0.080 0.135 0 0.268-0.064 0.354-0.181 0.141-0.194 0.097-0.466-0.094-0.609-0.060-0.045-0.575-0.461-0.291-1.309 0.159-0.476 0.265-0.723 0.35-0.922z"></path>
</svg>
