<?xml version="1.0" encoding="utf-8"?>
<!-- Generated by IcoMoon.io -->
<!DOCTYPE svg PUBLIC "-//W3C//DTD SVG 1.1//EN" "http://www.w3.org/Graphics/SVG/1.1/DTD/svg11.dtd">
<svg version="1.1" xmlns="http://www.w3.org/2000/svg" xmlns:xlink="http://www.w3.org/1999/xlink" width="32" height="32" viewBox="0 0 32 32">
<path d="M29.060 23.797c-0.528 0.529-1.232 0.82-1.981 0.82-0.515 0-1.010-0.137-1.443-0.4-0.1-0.012-0.197-0.058-0.271-0.136l-0.363-0.381-7.911-8.644c-0.112 0.096-0.226 0.19-0.339 0.282 0.081 0.238 0.122 0.489 0.122 0.742 0 0.613-0.238 1.189-0.672 1.622-0.415 0.415-1.006 0.654-1.621 0.654s-1.206-0.238-1.622-0.654l-5.034-5.035c-0.894-0.895-0.894-2.35 0-3.243 0.59-0.591 1.558-0.815 2.359-0.549 0.417-0.52 0.867-1.021 1.341-1.495 0.808-0.808 1.697-1.549 2.588-2.161-0.385-0.853-0.215-1.869 0.473-2.557 0.416-0.416 1.007-0.655 1.622-0.655 0.614 0 1.205 0.238 1.621 0.653l5.035 5.036c0.433 0.432 0.671 1.008 0.671 1.621s-0.238 1.19-0.671 1.623c-0.637 0.636-1.719 0.831-2.556 0.469-0.070 0.102-0.141 0.203-0.214 0.304l9.164 8.387c0.088 0.081 0.141 0.193 0.146 0.312 0.247 0.425 0.376 0.906 0.376 1.403 0 0.749-0.291 1.453-0.82 1.981zM28.642 20.732c-0.027-0.039-0.047-0.081-0.060-0.124l-9.293-8.506c-0.172-0.157-0.195-0.418-0.055-0.604 0.231-0.305 0.451-0.618 0.654-0.931 0.067-0.104 0.174-0.175 0.295-0.198 0.121-0.022 0.246 0.006 0.346 0.078 0.509 0.368 1.352 0.302 1.799-0.145 0.263-0.263 0.407-0.614 0.407-0.987s-0.145-0.723-0.407-0.985l-5.034-5.035c-0.497-0.495-1.475-0.495-1.971 0.001-0.479 0.478-0.541 1.251-0.145 1.799 0.072 0.1 0.1 0.225 0.077 0.346s-0.094 0.228-0.197 0.295c-0.957 0.619-1.924 1.406-2.795 2.277-0.529 0.529-1.027 1.095-1.481 1.682-0.134 0.175-0.376 0.226-0.57 0.121-0.508-0.275-1.241-0.168-1.649 0.242-0.544 0.543-0.543 1.427 0 1.971l5.034 5.035c0.497 0.497 1.475 0.497 1.971 0 0.264-0.263 0.409-0.613 0.409-0.986 0-0.233-0.058-0.463-0.168-0.665-0.105-0.193-0.054-0.434 0.119-0.569 0.302-0.235 0.605-0.488 0.901-0.752 0.183-0.164 0.465-0.15 0.631 0.032l8.42 9.191c0.037 0.013 0.073 0.032 0.106 0.055 0.73 0.517 1.801 0.428 2.44-0.211 0.359-0.359 0.557-0.837 0.557-1.345 0-0.39-0.117-0.765-0.339-1.084zM15.4 25.824c1.577 0.222 2.777 1.579 2.777 3.198v0.521c0 0.249-0.201 0.45-0.45 0.45h-15.282c-0.249 0-0.45-0.201-0.45-0.45v-0.521c0-1.619 1.2-2.977 2.777-3.198 0.439-0.75 1.248-1.222 2.129-1.222h6.369c0.881 0 1.69 0.472 2.13 1.222zM5.47 26.43c-0.069 0.153-0.217 0.256-0.385 0.265-1.229 0.073-2.192 1.095-2.192 2.327v0.071h14.383v-0.071c0-1.232-0.963-2.254-2.192-2.327-0.168-0.009-0.316-0.112-0.384-0.265-0.253-0.564-0.815-0.929-1.431-0.929h-6.369c-0.617 0-1.178 0.365-1.43 0.929z"></path>
</svg>
