<?xml version="1.0" encoding="utf-8"?>
<!-- Generated by IcoMoon.io -->
<!DOCTYPE svg PUBLIC "-//W3C//DTD SVG 1.1//EN" "http://www.w3.org/Graphics/SVG/1.1/DTD/svg11.dtd">
<svg version="1.1" xmlns="http://www.w3.org/2000/svg" xmlns:xlink="http://www.w3.org/1999/xlink" width="33" height="32" viewBox="0 0 33 32">
<path d="M30.65 29.652c-0.015 0.196-0.177 0.347-0.374 0.347h-21.211c-0.196 0-0.359-0.151-0.374-0.347-0.012-0.16-0.093-1.563 0.701-2.175 0.616-0.473 1.937-1.347 3.87-1.884 1.404-0.39 2.876-0.908 3.438-1.113v-1.759c-0.006-0.006-0.032-0.012-0.038-0.017-0.008-0.003-0.017-0.002-0.025-0.005-3.077-1.247-5.065-4.187-5.065-7.49 0-4.459 3.65-8.086 8.137-8.086s8.137 3.628 8.137 8.086c0 3.257-1.951 6.182-4.97 7.451-0.031 0.013-0.062 0.015-0.094 0.019-0.020 0.020-0.039 0.040-0.060 0.060s0.001 0.036-0.020 0.055v1.687c0.562 0.206 1.971 0.723 3.375 1.113 1.935 0.537 3.256 1.411 3.871 1.884 0.794 0.611 0.713 2.014 0.702 2.175zM17.451 24.693c0.668 0.361 1.444 0.558 2.259 0.558 0.784 0 1.57-0.184 2.222-0.519v-1.352c-0.898 0.59-1.675 0.697-2.098 0.697-0.045 0-0.087-0.001-0.124-0.003-0.392 0.019-1.228-0.041-2.259-0.745v1.364zM27.097 15.208c0-4.046-3.314-7.337-7.387-7.337s-7.387 3.291-7.387 7.337c0 2.435 1.192 4.653 3.138 6.006-0.633-1.005-0.958-1.951-1.059-2.277-0.292-0.256-1.109-1.076-1.109-2.237 0-1.116 0.957-1.909 1.394-2.213-0.023-0.386 0.007-1.127 0.48-1.694 0.396-0.475 0.998-0.716 1.788-0.716 1.287 0 1.659 0.227 2.012 0.525 0.16 0.135 0.266 0.224 0.751 0.233 0.472-0.009 0.578-0.098 0.737-0.233 0.352-0.297 0.724-0.525 2.012-0.525 0.79 0 1.391 0.241 1.788 0.716 0.473 0.567 0.503 1.308 0.48 1.694 0.437 0.304 1.394 1.097 1.394 2.213 0 1.161-0.818 1.982-1.109 2.237-0.1 0.325-0.424 1.267-1.054 2.269 1.941-1.356 3.133-3.575 3.133-5.999zM24.329 18.623c0.022-0.079 0.069-0.149 0.134-0.199 0.009-0.006 0.915-0.718 0.915-1.724 0-0.969-1.215-1.691-1.227-1.698-0.138-0.079-0.211-0.236-0.183-0.392 0.001-0.007 0.138-0.827-0.293-1.34-0.247-0.294-0.654-0.443-1.21-0.443-1.116 0-1.326 0.177-1.529 0.348-0.266 0.224-0.524 0.397-1.221 0.409-0.71-0.012-0.968-0.185-1.234-0.409-0.203-0.171-0.413-0.348-1.529-0.348-0.555 0-0.962 0.149-1.21 0.443-0.431 0.513-0.294 1.333-0.292 1.341 0.027 0.156-0.046 0.313-0.183 0.391-0.011 0.007-1.227 0.719-1.227 1.698 0 1.007 0.906 1.718 0.915 1.725 0.064 0.050 0.112 0.12 0.134 0.198 0.006 0.021 0.602 2.145 2.12 3.568 1.148 1.076 2.11 1.156 2.477 1.134 0.008-0 0.015-0.001 0.023-0.001s0.015 0 0.023 0.001c0.368 0.022 1.33-0.058 2.477-1.134 1.518-1.423 2.114-3.546 2.12-3.568zM29.491 28.071c-0.572-0.44-1.801-1.253-3.614-1.757-1.324-0.368-2.683-0.845-3.332-1.080-0.817 0.492-1.815 0.765-2.835 0.765-1.033 0-2.043-0.279-2.865-0.783-0.628 0.228-2.025 0.721-3.381 1.098-1.811 0.503-3.042 1.316-3.614 1.757-0.297 0.228-0.391 0.775-0.412 1.178h20.464c-0.020-0.404-0.115-0.95-0.412-1.178zM19.846 16.109c0-0.041 0.005-0.084 0.006-0.126h-0.224c0.002 0.042 0.006 0.084 0.006 0.126 0 1.42-1.064 2.533-2.372 2.533s-2.372-1.155-2.372-2.575c0-0.182 0.019-0.369 0.057-0.555 0.035-0.175 0.189-0.238 0.367-0.238h0.073c0.033-0.009 0.064-0.020 0.1-0.020h8.495c0.035 0 0.067 0.011 0.1 0.020h0.083c0.178 0 0.331 0.063 0.367 0.237 0.038 0.184 0.057 0.371 0.057 0.555 0 1.42-1.064 2.575-2.372 2.575s-2.372-1.113-2.372-2.533zM18.882 16.004h-3.24c-0.002 0.035-0.003 0.070-0.003 0.105 0 1.006 0.728 1.784 1.623 1.784s1.623-0.777 1.623-1.784c0-0.035-0.001-0.070-0.003-0.105zM22.218 17.893c0.895 0 1.623-0.777 1.623-1.784 0-0.035-0.001-0.070-0.003-0.105h-3.239c-0.002 0.035-0.003 0.071-0.003 0.105 0 1.006 0.728 1.784 1.623 1.784zM10.643 14.136c-0.504 0.155-1.029 0.234-1.558 0.234-2.918 0-5.292-2.374-5.292-5.292s2.374-5.291 5.292-5.291c2.469 0 4.642 1.75 5.168 4.162 0.044 0.202-0.084 0.402-0.286 0.446-0.202 0.043-0.402-0.084-0.446-0.287-0.451-2.070-2.316-3.572-4.435-3.572-2.505 0-4.542 2.038-4.542 4.542s2.038 4.542 4.542 4.542c0.455 0 0.905-0.067 1.338-0.201 0.198-0.061 0.407 0.050 0.468 0.248s-0.050 0.407-0.248 0.468zM7.707 6.885c0-0.207 0.152-0.375 0.359-0.375h1.89c0.789 0 1.431 0.676 1.431 1.508s-0.642 1.492-1.431 1.492h-1.49v0.249h1.458c0.207 0 0.375 0.215 0.375 0.421s-0.168 0.328-0.375 0.328h-1.458v1.062c0 0.207-0.183 0.375-0.39 0.375s-0.359-0.168-0.359-0.375v-1.062h-0.61c-0.207 0-0.375-0.121-0.375-0.328s0.168-0.421 0.375-0.421h0.61v-0.249h-0.623c-0.207 0-0.375-0.152-0.375-0.359s0.168-0.38 0.375-0.38h0.623v-1.835c-0.002-0.017-0.010-0.032-0.010-0.050zM8.467 8.771h1.49c0.376 0 0.682-0.335 0.682-0.753s-0.306-0.758-0.682-0.758h-1.49v1.511zM15.111 7.399c-0.037-0.023-0.075-0.045-0.114-0.067-0.199-0.114-0.425-0.242-0.526-0.485-0.101-0.245-0.033-0.497 0.028-0.719 0.016-0.058 0.040-0.146 0.049-0.205-0.056-0.021-0.145-0.045-0.204-0.060-0.222-0.058-0.474-0.124-0.635-0.333s-0.16-0.47-0.159-0.7c0-0.061 0.001-0.153-0.006-0.212-0.059-0.006-0.151-0.006-0.212-0.006-0.23 0.002-0.491 0.002-0.7-0.159s-0.275-0.412-0.333-0.635c-0.015-0.059-0.039-0.149-0.060-0.205-0.059 0.009-0.146 0.033-0.205 0.049-0.222 0.061-0.475 0.129-0.719 0.028-0.242-0.1-0.371-0.326-0.484-0.525-0.030-0.053-0.076-0.134-0.112-0.183-0.054 0.024-0.132 0.070-0.183 0.1-0.2 0.117-0.425 0.249-0.689 0.215-0.259-0.034-0.441-0.218-0.602-0.38-0.045-0.045-0.112-0.113-0.16-0.15-0.047 0.037-0.115 0.106-0.16 0.151-0.161 0.162-0.343 0.346-0.602 0.38-0.264 0.034-0.49-0.098-0.689-0.215-0.052-0.030-0.129-0.076-0.183-0.1-0.036 0.049-0.081 0.129-0.112 0.182-0.113 0.199-0.242 0.425-0.484 0.525-0.244 0.102-0.496 0.033-0.719-0.028-0.058-0.016-0.146-0.040-0.205-0.049-0.022 0.056-0.045 0.145-0.060 0.204-0.058 0.222-0.124 0.474-0.333 0.635s-0.468 0.16-0.7 0.158c-0.061 0-0.153-0.001-0.212 0.006-0.006 0.059-0.006 0.151-0.006 0.212 0.001 0.23 0.002 0.491-0.159 0.7s-0.412 0.275-0.635 0.333c-0.059 0.016-0.148 0.039-0.204 0.060 0.009 0.059 0.033 0.147 0.049 0.205 0.061 0.222 0.129 0.474 0.028 0.719-0.101 0.242-0.326 0.371-0.525 0.484-0.053 0.030-0.134 0.076-0.183 0.112 0.024 0.054 0.070 0.132 0.1 0.184 0.117 0.2 0.249 0.426 0.215 0.689-0.034 0.259-0.218 0.441-0.38 0.602-0.045 0.044-0.113 0.112-0.151 0.16 0.037 0.047 0.106 0.115 0.151 0.16 0.162 0.161 0.346 0.343 0.38 0.602 0.034 0.264-0.098 0.49-0.215 0.689-0.030 0.052-0.076 0.13-0.1 0.184 0.048 0.036 0.129 0.081 0.183 0.112 0.199 0.113 0.424 0.242 0.525 0.484 0.101 0.245 0.033 0.497-0.028 0.719-0.016 0.058-0.040 0.146-0.049 0.205 0.056 0.022 0.145 0.045 0.204 0.060 0.222 0.058 0.474 0.124 0.635 0.333s0.16 0.47 0.159 0.7c-0 0.061-0.001 0.153 0.006 0.212 0.059 0.007 0.151 0.007 0.212 0.006 0.231-0.001 0.491-0.002 0.7 0.159s0.275 0.412 0.333 0.635c0.016 0.059 0.039 0.149 0.060 0.204 0.059-0.009 0.147-0.033 0.205-0.049 0.222-0.061 0.474-0.129 0.719-0.028 0.243 0.1 0.371 0.326 0.484 0.525 0.030 0.053 0.076 0.134 0.112 0.183 0.054-0.024 0.132-0.070 0.183-0.1 0.2-0.117 0.425-0.249 0.69-0.215 0.259 0.034 0.441 0.218 0.602 0.38 0.044 0.045 0.112 0.113 0.16 0.151 0.047-0.037 0.115-0.106 0.16-0.151 0.161-0.162 0.343-0.346 0.602-0.38 0.167-0.022 0.319 0.023 0.459 0.089 0.032-0.009 0.066-0.014 0.101-0.014 0.207 0 0.375 0.168 0.375 0.375l0.003 0.119c0.002 0.135-0.068 0.26-0.185 0.328s-0.26 0.069-0.376 0.002l-0.064-0.037c-0.061-0.036-0.158-0.093-0.213-0.112-0.045 0.033-0.121 0.109-0.169 0.157-0.173 0.174-0.387 0.391-0.692 0.391s-0.52-0.217-0.692-0.391c-0.048-0.048-0.124-0.125-0.169-0.157-0.054 0.019-0.15 0.076-0.211 0.111-0.209 0.122-0.469 0.275-0.76 0.197-0.294-0.079-0.444-0.343-0.566-0.556-0.034-0.060-0.088-0.154-0.124-0.198-0.057 0.005-0.163 0.034-0.231 0.052-0.234 0.064-0.526 0.143-0.787-0.008-0.263-0.152-0.339-0.445-0.401-0.681-0.018-0.067-0.045-0.173-0.069-0.224-0.056-0.010-0.166-0.009-0.236-0.009-0.244 0.001-0.546 0.003-0.76-0.211s-0.212-0.517-0.211-0.76c0-0.070 0.001-0.18-0.009-0.236-0.051-0.024-0.157-0.051-0.224-0.069-0.236-0.062-0.53-0.138-0.681-0.401s-0.071-0.553-0.007-0.787c0.018-0.068 0.047-0.175 0.052-0.231-0.043-0.036-0.138-0.090-0.198-0.124-0.212-0.121-0.477-0.272-0.555-0.566-0.078-0.29 0.075-0.55 0.197-0.759 0.036-0.061 0.092-0.157 0.111-0.211-0.033-0.046-0.109-0.121-0.157-0.169-0.174-0.172-0.391-0.387-0.391-0.692s0.217-0.52 0.391-0.692c0.048-0.048 0.125-0.123 0.157-0.169-0.019-0.054-0.076-0.15-0.111-0.211-0.122-0.209-0.275-0.469-0.197-0.76 0.079-0.293 0.343-0.444 0.556-0.565 0.060-0.034 0.154-0.088 0.198-0.124-0.005-0.057-0.034-0.164-0.052-0.231-0.064-0.235-0.144-0.526 0.007-0.787 0.152-0.262 0.445-0.339 0.681-0.4 0.067-0.018 0.173-0.045 0.224-0.069 0.010-0.056 0.009-0.166 0.009-0.236-0.001-0.243-0.003-0.546 0.211-0.76s0.517-0.212 0.76-0.211c0.070 0.001 0.18 0.001 0.236-0.009 0.024-0.051 0.051-0.157 0.069-0.225 0.062-0.236 0.138-0.529 0.401-0.681 0.261-0.151 0.552-0.071 0.787-0.007 0.068 0.018 0.174 0.047 0.231 0.052 0.036-0.043 0.090-0.138 0.124-0.197 0.121-0.213 0.272-0.477 0.566-0.556 0.29-0.077 0.55 0.075 0.759 0.197 0.061 0.036 0.157 0.092 0.211 0.112 0.045-0.033 0.121-0.109 0.169-0.157 0.172-0.174 0.387-0.391 0.692-0.391s0.52 0.217 0.692 0.391c0.048 0.048 0.124 0.125 0.169 0.157 0.054-0.019 0.15-0.076 0.211-0.111 0.209-0.122 0.469-0.275 0.76-0.197 0.294 0.078 0.444 0.343 0.566 0.556 0.034 0.060 0.088 0.154 0.124 0.198 0.057-0.005 0.164-0.034 0.231-0.053 0.235-0.064 0.526-0.143 0.787 0.007 0.262 0.152 0.339 0.446 0.4 0.682 0.018 0.067 0.045 0.173 0.069 0.224 0.056 0.010 0.166 0.010 0.236 0.009 0.245 0.001 0.546-0.003 0.76 0.211s0.212 0.517 0.211 0.76c-0.001 0.070-0.001 0.18 0.009 0.236 0.051 0.024 0.157 0.051 0.224 0.069 0.236 0.061 0.53 0.138 0.681 0.4s0.071 0.553 0.008 0.787c-0.018 0.068-0.048 0.175-0.052 0.231 0.043 0.036 0.138 0.090 0.198 0.124 0.046 0.026 0.092 0.053 0.136 0.080 0.176 0.108 0.231 0.339 0.122 0.516s-0.339 0.231-0.516 0.122z"></path>
</svg>
