<?xml version="1.0" encoding="utf-8"?>
<!-- Generated by IcoMoon.io -->
<!DOCTYPE svg PUBLIC "-//W3C//DTD SVG 1.1//EN" "http://www.w3.org/Graphics/SVG/1.1/DTD/svg11.dtd">
<svg version="1.1" xmlns="http://www.w3.org/2000/svg" xmlns:xlink="http://www.w3.org/1999/xlink" width="30" height="32" viewBox="0 0 30 32">
<path d="M11.268 10.908h-1.246c-0.684 0-1.246 0.574-1.246 1.274v2.544c0 0.7 0.562 1.274 1.246 1.274h1.246v12.726c0 0.7 0.562 1.274 1.246 1.274h2.492c0.686 0 1.246-0.574 1.246-1.274v-12.726h2.492c0.686 0 1.383-0.556 1.549-1.236l0.64-2.621c0.166-0.679-0.257-1.236-0.943-1.236h-3.738v-3.817h3.738v-5.093h-3.738c-3.738 0-4.984 2.52-4.984 5.093v3.817z"></path>
</svg>
