<?xml version="1.0" encoding="utf-8"?>
<!-- Generated by IcoMoon.io -->
<!DOCTYPE svg PUBLIC "-//W3C//DTD SVG 1.1//EN" "http://www.w3.org/Graphics/SVG/1.1/DTD/svg11.dtd">
<svg version="1.1" xmlns="http://www.w3.org/2000/svg" xmlns:xlink="http://www.w3.org/1999/xlink" width="32" height="32" viewBox="0 0 32 32">
<path d="M29.943 29.997h-22.547c-0.207 0-0.376-0.168-0.376-0.376v-2.92c0-0.065 0.017-0.128 0.049-0.185 0.050-0.088 1.163-2.166 2.877-2.819 1.359-0.518 3.962-1.129 4.85-1.328v-2.301c0-0.070 0.024-0.131 0.057-0.187-1.149-1.312-2.003-2.655-2.116-2.837-0.11-0.142-0.718-0.972-0.718-1.938 0-0.79 0.401-1.322 0.635-1.564-0.063-0.83-0.15-4.052 2.074-5.774 0.010-0.008 0.020-0.015 0.031-0.022 1.103-0.69 2.264-1.039 3.45-1.039 1.836 0 3.18 0.834 3.59 1.122 0.053-0.003 0.116-0.006 0.188-0.006 0.574 0 1.952 0.179 2.366 1.834 0.411 1.641-0.16 2.888-0.388 3.297l0.081 0.404c0.499 0.192 1.161 0.696 1.161 1.671 0 1.123-0.738 1.804-0.998 2.008-0.172 0.338-0.851 1.611-1.781 2.61-0.065 0.070-0.128 0.139-0.192 0.209 0.043 0.061 0.073 0.131 0.073 0.211v2.242c0.043 0.020 0.081 0.048 0.114 0.084 0.978 0.222 3.46 0.804 4.767 1.302 1.714 0.653 3.031 2.731 3.080 2.819 0.032 0.056 0.049 0.12 0.049 0.185v2.92c0 0.208-0.168 0.376-0.376 0.376zM19.855 29.245l-0.778-2.83c-0.036-0.132 0.002-0.274 0.1-0.369l0.632-0.613-0.524-0.944h-1.125l-0.524 0.944 0.632 0.613c0.098 0.095 0.137 0.237 0.101 0.369l-0.778 2.83h2.264zM21.557 22.561v-1.982c-0.756 0.76-1.628 1.402-2.98 1.409-0.033 0.003-0.092 0.008-0.173 0.008-0.448 0-1.607-0.139-2.857-1.371v1.802l2.5 1.31h1.519l1.991-1.177zM10.214 24.399c-1.285 0.49-2.213 2.032-2.442 2.406v2.44h9.041l0.774-2.815-0.679-0.659c-0.122-0.118-0.149-0.303-0.067-0.452l0.587-1.057-2.286-1.2c-0.585 0.131-3.517 0.8-4.928 1.337zM18.208 7.459c-1.037 0-2.058 0.308-3.035 0.915-1.156 0.905-1.579 2.338-1.721 3.483 0.42-0.497 1.086-0.912 2.105-0.995 0.379-0.031 0.732-0.054 1.062-0.075 1.636-0.106 2.623-0.17 3.444-0.986 0.669-0.665 0.989-1.188 1.132-1.468-0.48-0.3-1.577-0.873-2.986-0.873zM23.624 9.841c-0.231-0.922-0.859-1.201-1.418-1.254 0.055 0.442 0.203 1.485 0.456 2.273 0.181 0.561 0.541 1.057 0.813 1.379 0.196-0.485 0.413-1.337 0.148-2.397zM23.575 16.626c0.029-0.060 0.074-0.111 0.129-0.148 0.029-0.020 0.751-0.524 0.751-1.448 0-0.806-0.73-0.992-0.813-1.010-0.145-0.032-0.26-0.148-0.29-0.294l-0.13-0.651c-0.253-0.253-0.966-1.026-1.275-1.987-0.196-0.608-0.33-1.334-0.412-1.871-0.215 0.313-0.516 0.691-0.943 1.116-1.020 1.015-2.176 1.090-3.925 1.203-0.326 0.021-0.675 0.044-1.050 0.074-1.959 0.16-2.042 1.759-2.044 1.827-0.005 0.119-0.068 0.218-0.156 0.283-0.009 0.105-0.058 0.203-0.144 0.268-0.018 0.015-0.503 0.407-0.503 1.118 0 0.764 0.561 1.479 0.567 1.486 0.010 0.012 0.019 0.025 0.027 0.038 0.012 0.019 1.183 1.898 2.629 3.38 1.086 1.113 2.048 1.234 2.411 1.234 0.057 0 0.092-0.003 0.102-0.005 0.015-0.002 0.034-0.003 0.049-0.003 1.399 0 2.159-0.831 3.040-1.793 0.093-0.102 0.187-0.205 0.283-0.307 0.983-1.056 1.69-2.496 1.697-2.511zM29.567 26.805c-0.229-0.373-1.36-1.916-2.646-2.406-1.31-0.499-3.953-1.111-4.798-1.301l-2.070 1.226 0.553 0.996c0.082 0.148 0.055 0.334-0.067 0.452l-0.679 0.659 0.774 2.815h8.933v-2.441zM11.324 12.212h-6.24c-0.207 0-0.376-0.168-0.376-0.376s0.168-0.376 0.376-0.376h6.24c0.207 0 0.376 0.168 0.376 0.376s-0.168 0.376-0.376 0.376zM4.709 7.83c0-0.208 0.168-0.376 0.376-0.376h7.533c0.207 0 0.376 0.168 0.376 0.376s-0.168 0.376-0.376 0.376h-7.533c-0.207 0-0.376-0.168-0.376-0.376zM11.658 10.209h-6.574c-0.207 0-0.376-0.168-0.376-0.376s0.168-0.376 0.376-0.376h6.574c0.207 0 0.376 0.168 0.376 0.376s-0.168 0.376-0.376 0.376zM15.414 6.347c-0.207 0-0.376-0.168-0.376-0.376v-0.15c0-0.207-0.169-0.376-0.376-0.376h-11.511c-0.207 0-0.376 0.169-0.376 0.376v8.264c0 0.207 0.169 0.376 0.376 0.376h7.638c0.207 0 0.376 0.168 0.376 0.376s-0.168 0.376-0.376 0.376h-7.638c-0.622 0-1.127-0.506-1.127-1.127v-8.264c0-0.622 0.505-1.127 1.127-1.127h3.088c0.162-1.511 1.444-2.692 2.997-2.692s2.835 1.18 2.997 2.692h2.429c0.622 0 1.127 0.505 1.127 1.127v0.15c0 0.208-0.168 0.376-0.376 0.376zM9.237 2.754c-1.138 0-2.080 0.845-2.238 1.94h4.476c-0.158-1.095-1.1-1.94-2.238-1.94z"></path>
</svg>
