<?xml version="1.0" encoding="utf-8"?>
<!-- Generated by IcoMoon.io -->
<!DOCTYPE svg PUBLIC "-//W3C//DTD SVG 1.1//EN" "http://www.w3.org/Graphics/SVG/1.1/DTD/svg11.dtd">
<svg version="1.1" xmlns="http://www.w3.org/2000/svg" xmlns:xlink="http://www.w3.org/1999/xlink" width="32" height="32" viewBox="0 0 32 32">
<path d="M28.449 16.956h-2.007v12.543c0 0.277-0.225 0.501-0.502 0.501h-20.068c-0.277 0-0.502-0.224-0.502-0.501v-12.543h-2.007c-0.277 0-0.502-0.224-0.502-0.501v-7.526c0-0.277 0.225-0.502 0.502-0.502h4.612c-1.168-0.798-2.073-2.041-2.073-3.624 0-1.489 0.71-2.158 1.306-2.458 0.677-0.34 1.44-0.339 1.928-0.34 0.912 0 3.943 0.45 6.915 5.863 2.969-5.399 5.993-5.863 6.883-5.863 0.485-0.006 1.272-0.001 1.95 0.34 0.597 0.3 1.307 0.969 1.307 2.458 0 1.583-0.906 2.826-2.074 3.624h4.331c0.277 0 0.502 0.225 0.502 0.502v7.526c0 0.277-0.225 0.501-0.502 0.501zM17.913 28.997h7.526v-12.041h-7.526v12.041zM14.903 16.315c0.014 0.045 0.028 0.090 0.028 0.14s-0.015 0.094-0.028 0.139v12.403h2.007v-19.566h-2.007v6.884zM6.374 28.997h7.526v-12.041h-7.526v12.041zM3.865 9.431v6.522h10.034v-6.522h-10.034zM9.159 3.009c-0.425 0.003-1.035-0.001-1.5 0.233-0.324 0.163-0.754 0.501-0.754 1.561 0 2.38 2.663 3.624 4.090 3.624h3.333c0.025-0.004 0.047-0.015 0.073-0.015s0.048 0.011 0.073 0.015h0.739c-2.794-5.134-5.516-5.418-6.054-5.418zM25.188 4.803c0-1.060-0.43-1.398-0.754-1.561-0.465-0.233-1.075-0.235-1.478-0.233-0.559 0-3.282 0.284-6.076 5.418h0.458c0.025-0.004 0.047-0.015 0.073-0.015s0.048 0.011 0.073 0.015h3.614c1.427 0 4.090-1.245 4.090-3.624zM27.947 9.431h-10.034v6.522h10.034v-6.522z"></path>
</svg>
