<?xml version="1.0" encoding="utf-8"?>
<!-- Generated by IcoMoon.io -->
<!DOCTYPE svg PUBLIC "-//W3C//DTD SVG 1.1//EN" "http://www.w3.org/Graphics/SVG/1.1/DTD/svg11.dtd">
<svg version="1.1" xmlns="http://www.w3.org/2000/svg" xmlns:xlink="http://www.w3.org/1999/xlink" width="33" height="32" viewBox="0 0 33 32">
<path d="M29.143 27.112h-25.755c-0.226 0-0.409-0.183-0.409-0.409s0.183-0.409 0.409-0.409h0.608v-4.070c0-0.226 0.183-0.409 0.409-0.409h3.666c0.226 0 0.409 0.183 0.409 0.409v4.070h2.473v-10.618c0-0.226 0.183-0.409 0.409-0.409h3.257c0.226 0 0.409 0.183 0.409 0.409v10.618h2.473v-7.361c0-0.226 0.183-0.41 0.409-0.41h3.666c0.226 0 0.409 0.183 0.409 0.41v7.361h2.473v-15.131c0-0.226 0.183-0.409 0.409-0.409h3.257c0.226 0 0.409 0.183 0.409 0.409v15.131h0.608c0.226 0 0.409 0.183 0.409 0.409s-0.183 0.409-0.409 0.409zM7.662 22.633h-2.848v3.661h2.848v-3.661zM14.211 16.085h-2.439v10.209h2.439v-10.209zM21.168 19.342h-2.848v6.952h2.848v-6.952zM27.717 11.572h-2.439v14.722h2.439v-14.722zM26.343 8.076c-0.276 0-0.538-0.078-0.769-0.214-0.011 0.020-0.016 0.042-0.031 0.060l-4.479 5.599c-0.034 0.043-0.078 0.072-0.123 0.097 0.135 0.231 0.213 0.492 0.213 0.767 0 0.408-0.159 0.792-0.448 1.081s-0.673 0.448-1.081 0.448c-0.408 0-0.792-0.159-1.081-0.448-0.373-0.373-0.513-0.892-0.419-1.374l-4.089-2.045c-0.017 0.019-0.029 0.040-0.048 0.059-0.289 0.289-0.673 0.448-1.081 0.448-0.275 0-0.537-0.078-0.768-0.214-0.018 0.033-0.034 0.066-0.062 0.094l-4.479 4.479c-0.028 0.028-0.061 0.044-0.094 0.062 0.135 0.232 0.214 0.493 0.214 0.768 0 0.408-0.159 0.793-0.448 1.081s-0.673 0.448-1.081 0.448v0c-0.408 0-0.792-0.159-1.081-0.448-0.596-0.596-0.596-1.566 0-2.162 0.483-0.484 1.266-0.556 1.847-0.23 0.018-0.034 0.036-0.069 0.065-0.098l4.479-4.479c0.028-0.028 0.061-0.044 0.094-0.062-0.341-0.585-0.267-1.348 0.234-1.849 0.577-0.578 1.585-0.578 2.162 0 0.372 0.373 0.512 0.892 0.419 1.374l4.089 2.045c0.017-0.019 0.030-0.040 0.048-0.059 0.484-0.484 1.267-0.557 1.848-0.23 0.011-0.021 0.017-0.045 0.033-0.064l4.479-5.599c0.034-0.043 0.076-0.077 0.121-0.101-0.338-0.585-0.263-1.344 0.237-1.844 0.577-0.578 1.586-0.578 2.162 0 0.596 0.596 0.596 1.565-0 2.162-0.289 0.289-0.673 0.448-1.081 0.448zM6.69 17.242c-0.134-0.134-0.312-0.208-0.502-0.208s-0.369 0.074-0.503 0.208c-0.277 0.277-0.277 0.728 0 1.005 0.134 0.134 0.313 0.208 0.502 0.208s0.368-0.074 0.502-0.208c0.134-0.134 0.208-0.313 0.208-0.502s-0.074-0.368-0.208-0.502zM13.408 10.524c-0.134-0.134-0.312-0.208-0.502-0.208s-0.369 0.074-0.503 0.208c-0.277 0.277-0.277 0.728 0 1.005 0.268 0.269 0.736 0.269 1.005 0 0.277-0.277 0.277-0.728 0-1.005zM20.127 13.883c-0.134-0.135-0.313-0.208-0.502-0.208s-0.369 0.074-0.503 0.208c-0.277 0.277-0.277 0.728 0 1.005 0.269 0.269 0.736 0.268 1.005 0 0.134-0.134 0.208-0.313 0.208-0.502s-0.074-0.368-0.208-0.502zM26.846 6.045c-0.134-0.135-0.312-0.208-0.502-0.208s-0.369 0.074-0.503 0.208c-0.277 0.277-0.277 0.728 0 1.005 0.268 0.268 0.736 0.269 1.005 0 0.277-0.277 0.277-0.728 0-1.005z"></path>
</svg>
