<?xml version="1.0" encoding="utf-8"?>
<!-- Generated by IcoMoon.io -->
<!DOCTYPE svg PUBLIC "-//W3C//DTD SVG 1.1//EN" "http://www.w3.org/Graphics/SVG/1.1/DTD/svg11.dtd">
<svg version="1.1" xmlns="http://www.w3.org/2000/svg" xmlns:xlink="http://www.w3.org/1999/xlink" width="32" height="32" viewBox="0 0 32 32">
<path d="M29.136 19.086c-0.293 0.269-0.662 0.403-1.031 0.403-0.414 0-0.826-0.167-1.127-0.497l-0.4-0.441v9.459c0 0.614-1.195 1.118-1.804 1.118h-3.332c-0.61 0-0.971-0.503-0.971-1.118v-6.704c0-0.614-0.639-1.397-1.249-1.397h-6.662c-0.61 0-1.249 0.783-1.249 1.397v6.704c0 0.614-0.361 1.118-0.972 1.118h-3.331c-0.61 0-1.804-0.503-1.804-1.118v-9.459l-0.4 0.441c-0.57 0.625-1.536 0.668-2.158 0.094s-0.664-1.547-0.094-2.172l12.214-13.407c0.579-0.634 1.672-0.634 2.251 0l12.214 13.407c0.57 0.625 0.528 1.598-0.094 2.172z"></path>
</svg>
