<?xml version="1.0" encoding="utf-8"?>
<!-- Generated by IcoMoon.io -->
<!DOCTYPE svg PUBLIC "-//W3C//DTD SVG 1.1//EN" "http://www.w3.org/Graphics/SVG/1.1/DTD/svg11.dtd">
<svg version="1.1" xmlns="http://www.w3.org/2000/svg" xmlns:xlink="http://www.w3.org/1999/xlink" width="32" height="32" viewBox="0 0 32 32">
<path d="M24.824 18.192l-6.986 10.806c-0.389 0.603-1.067 1.001-1.838 1.001s-1.449-0.398-1.838-1.001l-6.986-10.806c-1.060-1.641-1.676-3.595-1.676-5.693 0-5.798 4.701-10.499 10.5-10.499s10.5 4.701 10.5 10.499c0 2.098-0.616 4.052-1.676 5.693zM16 4.625c-4.343 0-7.875 3.532-7.875 7.874 0 1.522 0.434 2.997 1.256 4.268l6.619 10.239 6.619-10.24c0.822-1.271 1.256-2.746 1.256-4.267 0-4.343-3.533-7.874-7.875-7.874zM16 16.875c-2.417 0-4.375-1.958-4.375-4.375s1.958-4.375 4.375-4.375 4.375 1.959 4.375 4.375c0 2.417-1.958 4.375-4.375 4.375zM16 10.75c-0.965 0-1.75 0.786-1.75 1.75s0.785 1.751 1.75 1.751 1.75-0.786 1.75-1.751c0-0.964-0.785-1.75-1.75-1.75z"></path>
</svg>
