<?xml version="1.0" encoding="utf-8"?>
<!-- Generated by IcoMoon.io -->
<!DOCTYPE svg PUBLIC "-//W3C//DTD SVG 1.1//EN" "http://www.w3.org/Graphics/SVG/1.1/DTD/svg11.dtd">
<svg version="1.1" xmlns="http://www.w3.org/2000/svg" xmlns:xlink="http://www.w3.org/1999/xlink" width="32" height="32" viewBox="0 0 32 32">
<path d="M28.16 29h-4.561c-0.754 0-1.368-0.614-1.368-1.368v-4.561c0-0.754 0.614-1.368 1.368-1.368h4.561c0.754 0 1.368 0.614 1.368 1.368v4.561c0 0.754-0.614 1.368-1.368 1.368zM28.616 23.070c0-0.252-0.204-0.456-0.456-0.456h-4.561c-0.252 0-0.456 0.204-0.456 0.456v4.561c0 0.251 0.204 0.456 0.456 0.456h4.561c0.252 0 0.456-0.205 0.456-0.456v-4.561zM25.903 20.157c-0.252 0-0.456-0.204-0.456-0.456v-3.473h-9.147v3.473c0 0.252-0.204 0.456-0.456 0.456s-0.456-0.204-0.456-0.456v-3.473h-9.147v3.473c0 0.252-0.204 0.456-0.456 0.456s-0.432-0.204-0.432-0.456v-3.722c0-0.016 0.007-0.031 0.008-0.047-0.019-0.050-0.032-0.104-0.032-0.161 0-0.252 0.204-0.456 0.456-0.456h9.603v-2.958c0-0.252 0.204-0.456 0.456-0.456s0.456 0.204 0.456 0.456v2.958h9.504c0.212 0 0.366 0.148 0.412 0.344 0.075 0.082 0.12 0.195 0.12 0.319v3.722c0 0.252-0.18 0.456-0.432 0.456zM18.124 10.298h-4.561c-0.754 0-1.368-0.614-1.368-1.368v-4.561c0-0.754 0.614-1.368 1.368-1.368h4.561c0.754 0 1.368 0.614 1.368 1.368v4.561c0 0.754-0.614 1.368-1.368 1.368zM18.581 4.368c0-0.252-0.204-0.456-0.456-0.456h-4.561c-0.252 0-0.456 0.204-0.456 0.456v4.561c0 0.251 0.204 0.456 0.456 0.456h4.561c0.252 0 0.456-0.205 0.456-0.456v-4.561zM9.458 23.070v4.561c0 0.754-0.614 1.368-1.368 1.368h-4.561c-0.754 0-1.368-0.614-1.368-1.368v-4.561c0-0.754 0.614-1.368 1.368-1.368h4.561c0.754 0 1.368 0.614 1.368 1.368zM3.072 23.070v4.561c0 0.251 0.204 0.456 0.456 0.456h4.561c0.252 0 0.456-0.205 0.456-0.456v-4.561c0-0.252-0.204-0.456-0.456-0.456h-4.561c-0.252 0-0.456 0.204-0.456 0.456zM13.563 21.702h4.561c0.754 0 1.368 0.614 1.368 1.368v4.561c0 0.754-0.614 1.368-1.368 1.368h-4.561c-0.754 0-1.368-0.614-1.368-1.368v-4.561c0-0.754 0.614-1.368 1.368-1.368zM13.107 27.632c0 0.251 0.204 0.456 0.456 0.456h4.561c0.252 0 0.456-0.205 0.456-0.456v-4.561c0-0.252-0.204-0.456-0.456-0.456h-4.561c-0.252 0-0.456 0.204-0.456 0.456v4.561z"></path>
</svg>
