<?xml version="1.0" encoding="utf-8"?>
<!-- Generated by IcoMoon.io -->
<!DOCTYPE svg PUBLIC "-//W3C//DTD SVG 1.1//EN" "http://www.w3.org/Graphics/SVG/1.1/DTD/svg11.dtd">
<svg version="1.1" xmlns="http://www.w3.org/2000/svg" xmlns:xlink="http://www.w3.org/1999/xlink" width="33" height="32" viewBox="0 0 33 32">
<path d="M30.422 29.999h-22.103c-0.203 0-0.368-0.165-0.368-0.368v-2.706c0-0.068 0.019-0.134 0.054-0.192 0.049-0.080 1.2-1.974 2.88-2.568 1.582-0.559 4.932-1.238 5.073-1.266 0.192-0.040 0.381 0.080 0.43 0.27l1.378 5.474 0.612-2.64-0.693-0.772c-0.1-0.111-0.123-0.272-0.057-0.406l0.722-1.494c0.062-0.127 0.191-0.208 0.332-0.208h1.605c0.141 0 0.27 0.081 0.331 0.208l0.722 1.494c0.065 0.135 0.042 0.295-0.058 0.406l-0.693 0.772 0.594 2.566 1.086-5.383c0.041-0.199 0.235-0.327 0.434-0.287 0.142 0.029 3.491 0.707 5.073 1.266 1.68 0.593 2.912 2.488 2.961 2.568 0.035 0.058 0.054 0.124 0.054 0.192v2.706c0 0.204-0.165 0.368-0.368 0.368zM15.761 23.691c-0.907 0.19-3.386 0.728-4.631 1.168-1.254 0.443-2.208 1.819-2.442 2.173v2.23h8.474l-1.4-5.571zM19.911 25.654l0.657-0.733-0.514-1.063h-1.143l-0.514 1.063 0.658 0.733c0.081 0.090 0.112 0.214 0.084 0.332l-0.76 3.277h2.208l-0.76-3.277c-0.028-0.118 0.003-0.242 0.084-0.332zM30.054 27.033c-0.235-0.354-1.275-1.732-2.524-2.174-1.237-0.437-3.694-0.971-4.614-1.164l-1.122 5.567h8.26v-2.229zM24.861 17.246c-0.169 0.331-0.835 1.58-1.747 2.559-0.092 0.099-0.183 0.198-0.273 0.297-0.895 0.977-1.82 1.988-3.502 1.997-0.032 0.003-0.090 0.008-0.17 0.008-0.45 0-1.632-0.14-2.892-1.432-1.416-1.452-2.535-3.214-2.665-3.422-0.108-0.139-0.704-0.953-0.704-1.9 0-0.775 0.393-1.296 0.623-1.534-0.062-0.814-0.147-3.973 2.034-5.661 0.010-0.007 0.020-0.014 0.030-0.021 1.576-0.985 3.022-1.484 4.298-1.484 0.937 0 1.77 0.266 2.475 0.791 0.731 0.544 1.554 1.322 2.116 2.964 0.515 1.505 0.27 2.454 0.136 2.802 0 0.010 0.001 0.020 0.001 0.030l0.080 0.401c0.489 0.189 1.139 0.683 1.139 1.639 0 1.101-0.724 1.768-0.979 1.969zM23.788 10.645c-0.496-1.448-1.186-2.111-1.859-2.611-1.417-1.055-3.484-0.806-5.927 0.716-1.134 0.887-1.548 2.293-1.688 3.415 0.412-0.487 1.065-0.895 2.064-0.976 0.885-0.072 1.603-0.085 2.236-0.096 0.966-0.017 1.728-0.031 2.538-0.259 0.763-0.215 1.448-0.147 2.036 0.202 0.372 0.221 0.653 0.528 0.865 0.839-0.024-0.336-0.098-0.746-0.264-1.23zM24.306 14.286c-0.142-0.032-0.255-0.145-0.284-0.288l-0.15-0.75c-0.004-0.019-0-0.038-0.001-0.057-0.088-0.292-0.391-1.127-1.064-1.524-0.406-0.24-0.896-0.282-1.456-0.124-0.901 0.254-1.706 0.268-2.725 0.286-0.622 0.011-1.327 0.024-2.189 0.094-1.921 0.157-2.002 1.725-2.005 1.792-0.004 0.117-0.066 0.214-0.153 0.278-0.008 0.103-0.057 0.199-0.141 0.264-0.018 0.014-0.493 0.399-0.493 1.096 0 0.749 0.55 1.45 0.556 1.457 0.010 0.012 0.019 0.024 0.027 0.038 0.012 0.018 1.161 1.861 2.577 3.314 1.064 1.092 2.008 1.21 2.364 1.21 0.056 0 0.090-0.003 0.1-0.004 0.015-0.002 0.034-0.003 0.048-0.003 1.371 0 2.117-0.814 2.98-1.758 0.091-0.1 0.184-0.201 0.277-0.301 0.964-1.036 1.657-2.448 1.664-2.462 0.029-0.059 0.072-0.109 0.127-0.145 0.029-0.019 0.736-0.513 0.736-1.419 0-0.79-0.715-0.973-0.797-0.991zM13.066 8.619h0.297c0.204 0 0.368 0.165 0.368 0.368s-0.165 0.368-0.368 0.368h-0.297c-0.203 0-0.368-0.165-0.368-0.368s0.165-0.368 0.368-0.368zM13.066 7.15h0.925c0.203 0 0.368 0.165 0.368 0.368s-0.165 0.368-0.368 0.368h-0.925c-0.203 0-0.368-0.165-0.368-0.368s0.165-0.368 0.368-0.368zM15.198 7.26c-0.203 0-0.368-0.165-0.368-0.368v-0.486h-0.057c-0.025 0.005-0.049 0.016-0.076 0.016h-2.153c-0.027 0-0.052-0.010-0.079-0.016h-0.346v3.215c0.003 0.021 0.010 0.038 0.010 0.062 0 0.033-0.004 0.065-0.010 0.097v6.533c0 0.011 0.002 0.021 0.002 0.032 0 0.004-0.002 0.008-0.002 0.013-0.001 0.198-0.031 0.376-0.23 0.376-0.026 0-0.054-0.003-0.082-0.009-0.014 0.002-0.025 0.009-0.040 0.009h-6.017c-0.027 0-0.056-0.004-0.086-0.010-0.015 0.002-0.029 0.010-0.045 0.010h-3.197c-0.203 0-0.368-0.185-0.368-0.389v-6.851c0-0.203 0.165-0.368 0.368-0.368h0.619v-0.901c0-0.204 0.165-0.338 0.368-0.338h0.369v-0.853c0-0.204 0.165-0.368 0.368-0.368h1.098v-1.657c0-0.203 0.165-0.307 0.368-0.307h0.425v-0.364c0-0.203 0.165-0.368 0.368-0.368h0.328v-1.601c0-0.204 0.165-0.368 0.368-0.368h1.227c0.203 0 0.368 0.165 0.368 0.368v1.601h0.328c0.203 0 0.368 0.165 0.368 0.368v0.364h0.389c0.203 0 0.373 0.103 0.373 0.307v4.367h1.243v-3.323c0-0.203 0.165-0.368 0.368-0.368h0.379v-1.085c0-0.203 0.165-0.384 0.368-0.384h0.844v-1.212c0-0.204 0.165-0.368 0.368-0.368s0.368 0.165 0.368 0.368v1.212h0.604c0.203 0 0.368 0.18 0.368 0.384v1.085h0.133c0.203 0 0.368 0.165 0.368 0.368v0.839c0 0.203-0.165 0.368-0.368 0.368zM3.257 9.831h-0.468v6.161h2.453v-6.127h-1.835c-0.054 0-0.104-0.013-0.151-0.034zM3.776 9.125h1.466v-0.502h-1.466v0.502zM4.513 7.402v0.484h0.729v-0.484h-0.729zM9.412 5.439h-0.389c-0.204 0-0.368-0.165-0.368-0.368v-0.379h-0.328c-0.203 0-0.368-0.165-0.368-0.368v-1.585h-0.491v1.585c0 0.204-0.211 0.368-0.415 0.368h-0.328v0.363c0 0.204-0.119 0.368-0.322 0.368h-0.425v0.998h3.433v-0.982zM9.412 7.158h-3.425v0.981h3.425v-0.981zM9.412 8.875h-3.425v0.735h3.425v-0.735zM9.412 10.347h-3.425v0.98h3.425v-0.98zM9.412 12.064h-3.425v0.735h3.425v-0.735zM9.412 13.535h-3.425v0.98h3.425v-0.98zM9.412 15.252h-3.425v0.74h3.425v-0.74zM11.397 10.097h-1.243v5.88h1.243v-5.88zM14.328 4.953h-1.463v0.732h1.463v-0.732zM4.562 15.263h-0.925c-0.203 0-0.368-0.195-0.368-0.399s0.165-0.337 0.368-0.337h0.925c0.203 0 0.368 0.134 0.368 0.337s-0.165 0.399-0.368 0.399zM4.562 13.794h-0.925c-0.203 0-0.368-0.18-0.368-0.384s0.165-0.353 0.368-0.353h0.925c0.203 0 0.368 0.15 0.368 0.353s-0.165 0.384-0.368 0.384zM4.562 12.309h-0.925c-0.203 0-0.368-0.15-0.368-0.353s0.165-0.384 0.368-0.384h0.925c0.203 0 0.368 0.18 0.368 0.384s-0.165 0.353-0.368 0.353z"></path>
</svg>
