<?xml version="1.0" encoding="utf-8"?>
<!-- Generated by IcoMoon.io -->
<!DOCTYPE svg PUBLIC "-//W3C//DTD SVG 1.1//EN" "http://www.w3.org/Graphics/SVG/1.1/DTD/svg11.dtd">
<svg version="1.1" xmlns="http://www.w3.org/2000/svg" xmlns:xlink="http://www.w3.org/1999/xlink" width="32" height="32" viewBox="0 0 32 32">
<path d="M16 30c-7.732 0-14-6.268-14-14s6.268-14 14-14c7.732 0 14 6.268 14 14s-6.268 14-14 14zM24.014 20.511l-3.493-1.793c-0.141-0.072-0.312-0.008-0.378 0.052l-0.409 0.374c-1.006 0.922-2.568 1.133-3.784 0.508-1.567-0.806-2.823-2.059-3.629-3.622-0.639-1.236-0.435-2.754 0.508-3.777l0.374-0.406c0.040-0.045 0.089-0.12 0.089-0.227 0-0.053-0.012-0.104-0.037-0.151l-1.796-3.486c-0.234-0.453-0.694-0.734-1.2-0.734-0.297 0-0.579 0.095-0.815 0.275l-1.062 0.809c-0.988 0.752-1.393 2.049-1.011 3.229 1.96 6.037 6.709 10.905 12.705 13.024 1.051 0.372 2.287 0.087 3.068-0.702l1.215-1.229c0.251-0.255 0.39-0.59 0.39-0.944 0-0.507-0.282-0.965-0.736-1.198z"></path>
</svg>
