<?xml version="1.0" encoding="utf-8"?>
<!-- Generated by IcoMoon.io -->
<!DOCTYPE svg PUBLIC "-//W3C//DTD SVG 1.1//EN" "http://www.w3.org/Graphics/SVG/1.1/DTD/svg11.dtd">
<svg version="1.1" xmlns="http://www.w3.org/2000/svg" xmlns:xlink="http://www.w3.org/1999/xlink" width="32" height="32" viewBox="0 0 32 32">
<path d="M29.5 15.746h-10.107c-0.276 0-0.5-0.224-0.5-0.5 0-1.272-0.868-2.141-2.14-2.141-0.276 0-0.5-0.224-0.5-0.5v-10.106c0-0.276 0.224-0.5 0.5-0.5 7.396 0 13.246 5.85 13.246 13.246 0 0.276-0.224 0.5-0.5 0.5zM17.253 3.010v9.133c1.423 0.216 2.385 1.178 2.602 2.603h9.134c-0.257-6.448-5.289-11.479-11.737-11.737zM17.623 17.261h8.355c0.276 0 0.5 0.224 0.5 0.5 0 3.36-1.362 6.407-3.561 8.621-0.009 0.011-0.012 0.024-0.023 0.034s-0.023 0.014-0.034 0.023c-2.214 2.2-5.261 3.562-8.62 3.562-6.748 0-12.239-5.49-12.239-12.239s5.49-12.239 12.239-12.239c0.276 0 0.5 0.224 0.5 0.5v8.351c1.489 0.22 2.664 1.396 2.884 2.888zM25.454 18.261h-7.822c-0.087 0.572-0.314 1.096-0.646 1.541l5.533 5.533c1.726-1.885 2.814-4.353 2.935-7.073zM13.739 6.547c-5.965 0.264-10.739 5.185-10.739 11.213 0 6.197 5.042 11.24 11.239 11.24 2.919 0 5.573-1.128 7.573-2.959l-5.533-5.533c-0.572 0.426-1.274 0.687-2.040 0.687-1.894 0-3.435-1.541-3.435-3.435 0-1.723 1.279-3.139 2.935-3.384v-7.83zM14.239 15.326c-1.342 0-2.434 1.092-2.434 2.434s1.092 2.434 2.434 2.434c1.342 0 2.434-1.092 2.434-2.434s-1.092-2.434-2.434-2.434z"></path>
</svg>
