<?xml version="1.0" encoding="utf-8"?>
<!-- Generated by IcoMoon.io -->
<!DOCTYPE svg PUBLIC "-//W3C//DTD SVG 1.1//EN" "http://www.w3.org/Graphics/SVG/1.1/DTD/svg11.dtd">
<svg version="1.1" xmlns="http://www.w3.org/2000/svg" xmlns:xlink="http://www.w3.org/1999/xlink" width="32" height="32" viewBox="0 0 32 32">
<path d="M29.58 15.3c-0.232 0-0.42-0.188-0.42-0.42v-9.1c0-1.621-1.319-2.94-2.94-2.94h-8.54v2.841c0.316-0.096 0.647-0.146 0.98-0.146 1.859 0 3.371 1.512 3.371 3.372s-1.512 3.371-3.371 3.371c-0.332 0-0.663-0.050-0.98-0.145v2.748c0 0.232-0.188 0.42-0.42 0.42s-0.42-0.188-0.42-0.42v-3.375c0-0.148 0.078-0.285 0.205-0.36s0.285-0.079 0.415-0.009c0.366 0.198 0.782 0.303 1.2 0.303 1.396 0 2.531-1.136 2.531-2.531s-1.135-2.531-2.531-2.531c-0.419 0-0.834 0.104-1.2 0.302-0.13 0.071-0.288 0.067-0.415-0.009s-0.205-0.213-0.205-0.361v-3.889c0-0.232 0.188-0.42 0.42-0.42h8.96c2.084 0 3.78 1.696 3.78 3.78v9.1c0 0.232-0.188 0.42-0.42 0.42zM26.92 14.88v-4.947c0-0.232 0.188-0.42 0.42-0.42s0.42 0.188 0.42 0.42v4.947c0 0.232-0.188 0.42-0.42 0.42s-0.42-0.188-0.42-0.42zM17.12 26.92h4.947c0.232 0 0.42 0.188 0.42 0.42s-0.188 0.42-0.42 0.42h-4.947c-0.232 0-0.42-0.188-0.42-0.42s0.188-0.42 0.42-0.42zM20.495 16.848c0.148 0 0.285 0.078 0.361 0.205s0.079 0.285 0.009 0.415c-0.198 0.366-0.302 0.633-0.302 1.052 0 1.395 1.135 2.531 2.531 2.531s2.532-1.135 2.532-2.531c0-0.419-0.105-0.686-0.302-1.052-0.070-0.13-0.067-0.288 0.009-0.415s0.213-0.205 0.361-0.205h3.889c0.232 0 0.42 0.188 0.42 0.42v8.952c0 2.084-1.696 3.78-3.78 3.78h-9.1c-0.232 0-0.42-0.188-0.42-0.42s0.188-0.42 0.42-0.42h9.1c1.621 0 2.94-1.319 2.94-2.94v-8.532h-2.841c0.096 0.317 0.146 0.499 0.146 0.832 0 1.859-1.513 3.371-3.372 3.371s-3.371-1.512-3.371-3.371c0-0.333 0.050-0.515 0.145-0.832h-2.747c-0.232 0-0.42-0.188-0.42-0.42s0.188-0.42 0.42-0.42h3.375zM14.88 5.080h-4.947c-0.232 0-0.42-0.188-0.42-0.42s0.188-0.42 0.42-0.42h4.947c0.232 0 0.42 0.188 0.42 0.42s-0.188 0.42-0.42 0.42zM14.88 15.16h-3.375c-0.148 0-0.285-0.078-0.361-0.205s-0.079-0.284-0.009-0.415c0.198-0.367 0.302-0.782 0.302-1.2 0-1.396-1.135-2.531-2.531-2.531s-2.531 1.136-2.531 2.531c0 0.419 0.105 0.834 0.302 1.2 0.070 0.13 0.067 0.288-0.009 0.415s-0.213 0.205-0.361 0.205h-3.888c-0.232 0-0.42-0.188-0.42-0.42v-8.96c0-2.084 1.696-3.78 3.78-3.78h9.1c0.232 0 0.42 0.188 0.42 0.42s-0.188 0.42-0.42 0.42h-9.1c-1.621 0-2.94 1.319-2.94 2.94v8.54h2.841c-0.096-0.317-0.146-0.648-0.146-0.98 0-1.859 1.512-3.371 3.371-3.371s3.371 1.512 3.371 3.371c0 0.332-0.050 0.663-0.145 0.98h2.747c0.232 0 0.42 0.188 0.42 0.42s-0.188 0.42-0.42 0.42zM4.24 22.067v-4.798c0-0.232 0.188-0.42 0.42-0.42s0.42 0.188 0.42 0.42v4.798c0 0.232-0.188 0.42-0.42 0.42s-0.42-0.188-0.42-0.42zM2.42 16.848c0.232 0 0.42 0.188 0.42 0.42v8.952c0 1.621 1.319 2.94 2.94 2.94h8.54v-2.841c-0.316 0.096-0.647 0.146-0.98 0.146-1.859 0-3.371-1.513-3.371-3.372s1.512-3.371 3.371-3.371c0.332 0 0.663 0.050 0.98 0.145v-2.599c0-0.232 0.188-0.42 0.42-0.42s0.42 0.188 0.42 0.42v3.227c0 0.148-0.078 0.285-0.205 0.36s-0.284 0.079-0.415 0.009c-0.367-0.198-0.782-0.302-1.2-0.302-1.396 0-2.531 1.135-2.531 2.531s1.135 2.532 2.531 2.532c0.419 0 0.834-0.105 1.2-0.303 0.13-0.070 0.288-0.067 0.415 0.009s0.205 0.212 0.205 0.361v3.888c0 0.232-0.188 0.42-0.42 0.42h-8.96c-2.084 0-3.78-1.696-3.78-3.78v-8.952c0-0.232 0.188-0.42 0.42-0.42z"></path>
</svg>
