<?xml version="1.0" encoding="utf-8"?>
<!-- Generated by IcoMoon.io -->
<!DOCTYPE svg PUBLIC "-//W3C//DTD SVG 1.1//EN" "http://www.w3.org/Graphics/SVG/1.1/DTD/svg11.dtd">
<svg version="1.1" xmlns="http://www.w3.org/2000/svg" xmlns:xlink="http://www.w3.org/1999/xlink" width="32" height="32" viewBox="0 0 32 32">
<path d="M25.898 30.012h-7.485c-0.533 0-0.965-0.433-0.965-0.965s0.433-0.965 0.965-0.965h7.485c1.197 0 2.171-0.974 2.171-2.171v-7.485h-1.706c0.011 0.113 0.015 0.227 0.015 0.341 0 2.051-1.668 3.719-3.719 3.719s-3.719-1.668-3.719-3.719c0-0.114 0.005-0.228 0.015-0.341h-0.542c-0.533 0-0.965-0.433-0.965-0.965 0-0.534 0.433-0.965 0.965-0.965h1.821c0.34 0 0.655 0.179 0.829 0.471s0.181 0.654 0.020 0.953c-0.142 0.262-0.213 0.546-0.213 0.848 0 0.986 0.802 1.788 1.788 1.788s1.788-0.802 1.788-1.788c0-0.301-0.071-0.586-0.212-0.847-0.162-0.299-0.154-0.661 0.019-0.954s0.489-0.471 0.829-0.471h3.951c0.533 0 0.965 0.432 0.965 0.965v8.45c0 2.261-1.839 4.102-4.102 4.102zM29.035 14.563c-0.533 0-0.965-0.433-0.965-0.966v-7.486c0-1.196-0.973-2.17-2.171-2.17h-7.485v1.465c2.162-0.196 4.061 1.54 4.060 3.704 0 2.166-1.902 3.903-4.060 3.705v0.782c0 0.533-0.433 0.966-0.965 0.966s-0.965-0.433-0.965-0.966v-2.061c0-0.34 0.179-0.656 0.471-0.829s0.654-0.182 0.953-0.020c0.259 0.139 0.551 0.213 0.847 0.213 0.987 0 1.789-0.802 1.789-1.789s-0.802-1.788-1.789-1.788c-0.295 0-0.588 0.073-0.847 0.213-0.299 0.16-0.661 0.154-0.953-0.020s-0.471-0.489-0.471-0.829v-3.709c0-0.533 0.433-0.966 0.965-0.966h8.45c2.262 0 4.102 1.839 4.102 4.101v7.486c0 0.533-0.433 0.966-0.965 0.966zM14.552 30.012h-8.45c-2.262 0-4.101-1.84-4.101-4.101v-7.485c0-0.534 0.433-0.965 0.966-0.965s0.966 0.432 0.966 0.965v7.485c0 1.196 0.973 2.171 2.17 2.171h7.485v-1.465c-2.155 0.199-4.060-1.539-4.060-3.705s1.901-3.897 4.060-3.704v-0.782c0-0.534 0.433-0.965 0.966-0.965s0.966 0.432 0.966 0.965v2.061c0 0.34-0.179 0.655-0.471 0.829s-0.654 0.181-0.953 0.020c-0.259-0.14-0.551-0.213-0.848-0.213-0.986 0-1.788 0.802-1.788 1.788s0.802 1.789 1.788 1.789c0.296 0 0.589-0.074 0.848-0.214 0.299-0.161 0.66-0.153 0.953 0.021s0.471 0.489 0.471 0.828v3.71c0 0.533-0.433 0.965-0.966 0.965zM14.552 14.563c0 0.533-0.433 0.966-0.966 0.966h-1.821c-0.34 0-0.655-0.179-0.829-0.471s-0.181-0.655-0.020-0.953c0.142-0.263 0.213-0.547 0.213-0.848 0-0.986-0.802-1.788-1.788-1.788s-1.789 0.802-1.789 1.788c0 0.3 0.072 0.585 0.213 0.847 0.162 0.299 0.154 0.661-0.019 0.953s-0.489 0.472-0.829 0.472h-3.951c-0.533 0-0.966-0.433-0.966-0.966v-8.451c0-2.261 1.839-4.101 4.101-4.101h7.485c0.533 0 0.966 0.433 0.966 0.966s-0.433 0.966-0.966 0.966h-7.485c-1.197 0-2.171 0.973-2.171 2.17v7.486h1.706c-0.011-0.114-0.016-0.227-0.016-0.341 0-2.052 1.668-3.719 3.72-3.719s3.719 1.667 3.719 3.719c0 0.114-0.005 0.227-0.015 0.341h0.542c0.533 0 0.966 0.432 0.966 0.966z"></path>
</svg>
