<?xml version="1.0" encoding="utf-8"?>
<!-- Generated by IcoMoon.io -->
<!DOCTYPE svg PUBLIC "-//W3C//DTD SVG 1.1//EN" "http://www.w3.org/Graphics/SVG/1.1/DTD/svg11.dtd">
<svg version="1.1" xmlns="http://www.w3.org/2000/svg" xmlns:xlink="http://www.w3.org/1999/xlink" width="32" height="32" viewBox="0 0 32 32">
<path d="M16.001 29.987c-7.713 0-13.988-6.275-13.988-13.988s6.275-13.987 13.988-13.987c7.712 0 13.986 6.274 13.986 13.987s-6.274 13.988-13.986 13.988zM16.001 4.034c-6.599 0-11.966 5.367-11.966 11.965s5.367 11.966 11.966 11.966c6.597 0 11.964-5.368 11.964-11.966s-5.367-11.965-11.964-11.965zM18.159 17.309h-3.175v1.892h3.104c0.558 0 1.011 0.453 1.011 1.011s-0.453 1.011-1.011 1.011h-3.104v0.463c0 0.559-0.453 1.011-1.011 1.011s-1.011-0.452-1.011-1.011v-0.463h-1.146c-0.558 0-1.011-0.453-1.011-1.011s0.453-1.011 1.011-1.011h1.146v-1.892h-1.175c-0.558 0-1.011-0.453-1.011-1.011s0.453-1.011 1.011-1.011h1.175v-3.921c-0.005-0.038-0.023-0.072-0.023-0.112 0-0.558 0.453-1.011 1.011-1.011h4.209c1.854 0 3.364 1.585 3.364 3.534s-1.51 3.533-3.364 3.533zM18.159 12.265h-3.175v3.022h3.175c0.739 0 1.342-0.677 1.342-1.511s-0.603-1.512-1.342-1.512z"></path>
</svg>
