<?xml version="1.0" encoding="utf-8"?>
<!-- Generated by IcoMoon.io -->
<!DOCTYPE svg PUBLIC "-//W3C//DTD SVG 1.1//EN" "http://www.w3.org/Graphics/SVG/1.1/DTD/svg11.dtd">
<svg version="1.1" xmlns="http://www.w3.org/2000/svg" xmlns:xlink="http://www.w3.org/1999/xlink" width="32" height="32" viewBox="0 0 32 32">
<path d="M26.829 16.227c0.020 0.391 0.215 0.581 0.596 0.581 0.105 0 0.215-0.020 0.301-0.055 0.095-0.040 0.15-0.080 0.266-0.191l0.396 0.386c-0.195 0.185-0.286 0.245-0.451 0.316-0.15 0.060-0.331 0.095-0.536 0.095-0.802 0-1.213-0.456-1.213-1.343 0-0.817 0.436-1.328 1.138-1.328 0.692 0 1.138 0.491 1.138 1.248v0.291h-1.634zM27.325 15.23c-0.301 0-0.481 0.2-0.496 0.551h0.992c-0.020-0.356-0.195-0.551-0.496-0.551zM25.039 16.773c0.171 0 0.266-0.050 0.421-0.205l0.441 0.436c-0.155 0.15-0.23 0.2-0.371 0.261-0.145 0.065-0.306 0.095-0.486 0.095-0.747 0-1.173-0.491-1.173-1.358 0-0.822 0.436-1.313 1.173-1.313 0.181 0 0.346 0.030 0.486 0.090s0.215 0.11 0.371 0.261l-0.441 0.441c-0.15-0.155-0.256-0.205-0.421-0.205-0.341 0-0.516 0.255-0.516 0.747 0 0.501 0.175 0.752 0.516 0.752zM22.95 14.393c-0.225 0-0.411-0.185-0.411-0.411s0.186-0.406 0.411-0.406c0.22 0 0.406 0.181 0.406 0.396 0 0.236-0.18 0.421-0.406 0.421zM22.624 14.719h0.651v2.611h-0.651v-2.611zM22.742 18.845c0.192 0 0.336 0.162 0.336 0.403 0 0.285-0.174 0.426-0.36 0.426-0.105 0-0.197-0.046-0.244-0.124h-0.003v0.431h-0.142v-0.858c0-0.102-0.003-0.184-0.007-0.259h0.13l0.007 0.136h0.003c0.059-0.097 0.152-0.154 0.282-0.154zM22.48 19.138c-0.005 0.018-0.010 0.039-0.010 0.059v0.136c0 0.021 0.003 0.041 0.007 0.059 0.026 0.1 0.113 0.169 0.216 0.169 0.152 0 0.241-0.125 0.241-0.306 0-0.159-0.084-0.295-0.236-0.295-0.098 0-0.19 0.070-0.218 0.179zM20.77 17.33l-0.962-2.611h0.687l0.531 1.614 0.526-1.614h0.687l-0.957 2.611h-0.511zM20.604 13.559c-0.225 0-0.406-0.185-0.406-0.421 0-0.215 0.186-0.396 0.406-0.396 0.226 0 0.411 0.181 0.411 0.406s-0.185 0.411-0.411 0.411zM19.988 18.845c0.016 0 0.028 0.001 0.041 0.005v0.136c-0.015-0.003-0.029-0.005-0.049-0.005-0.101 0-0.174 0.077-0.193 0.185-0.003 0.020-0.007 0.043-0.007 0.067v0.423h-0.142v-0.546c0-0.093-0.001-0.174-0.007-0.247h0.126l0.005 0.156h0.006c0.036-0.107 0.123-0.174 0.22-0.174zM18.785 17.084c-0.115 0.12-0.17 0.16-0.27 0.205-0.105 0.045-0.231 0.070-0.366 0.070-0.261 0-0.501-0.085-0.651-0.236-0.11-0.11-0.2-0.301-0.226-0.471-0.020-0.145-0.040-0.361-0.040-0.632v-0.080c0-0.536 0.075-0.827 0.266-1.017 0.15-0.15 0.386-0.236 0.646-0.236 0.14 0 0.261 0.025 0.371 0.070 0.095 0.040 0.15 0.080 0.256 0.19v-1.188h0.651v3.568h-0.636v-0.246zM18.324 15.275c-0.191 0-0.311 0.075-0.376 0.23-0.045 0.116-0.065 0.276-0.065 0.556 0 0.511 0.125 0.712 0.441 0.712 0.326 0 0.446-0.2 0.446-0.752 0-0.546-0.12-0.747-0.446-0.747zM18.129 12.999c-0.225 0-0.406-0.185-0.406-0.421 0-0.216 0.186-0.396 0.406-0.396 0.226 0 0.411 0.18 0.411 0.406s-0.185 0.411-0.411 0.411zM17.494 18.983h0.003l0.007-0.119h0.126c-0.003 0.057-0.007 0.121-0.007 0.218v0.46c0 0.182-0.036 0.293-0.113 0.362-0.077 0.072-0.188 0.095-0.288 0.095-0.095 0-0.2-0.023-0.264-0.065l0.036-0.11c0.053 0.033 0.134 0.062 0.233 0.062 0.148 0 0.256-0.077 0.256-0.277v-0.088h-0.003c-0.044 0.074-0.129 0.133-0.252 0.133-0.197 0-0.338-0.167-0.338-0.387 0-0.269 0.175-0.421 0.357-0.421 0.137 0 0.213 0.072 0.247 0.137zM17.035 19.258c0 0.156 0.079 0.285 0.235 0.285 0.088 0 0.169-0.056 0.2-0.148 0.008-0.025 0.012-0.053 0.012-0.077v-0.142c0-0.024-0.002-0.046-0.008-0.065-0.026-0.084-0.097-0.153-0.201-0.153-0.138 0-0.236 0.116-0.236 0.3zM16.004 17.104c-0.115 0.11-0.17 0.15-0.271 0.19s-0.221 0.060-0.371 0.060c-0.556 0-0.882-0.301-0.882-0.812 0-0.471 0.341-0.762 0.892-0.762h0.616v-0.13c0-0.291-0.145-0.411-0.496-0.411-0.231 0-0.336 0.045-0.491 0.216l-0.416-0.406c0.15-0.15 0.22-0.205 0.351-0.266 0.15-0.065 0.331-0.095 0.576-0.095 0.752 0 1.128 0.311 1.128 0.922v1.719h-0.636v-0.226zM15.989 16.227h-0.516c-0.23 0-0.366 0.105-0.366 0.296 0 0.2 0.135 0.301 0.411 0.301 0.336 0 0.471-0.131 0.471-0.456v-0.14zM15.646 12.818c-0.225 0-0.411-0.186-0.411-0.411s0.186-0.406 0.411-0.406c0.221 0 0.406 0.18 0.406 0.396 0 0.235-0.18 0.421-0.406 0.421zM14.233 18.493h0.144v1.163h-0.144v-1.163zM13.027 16.808c0.105 0 0.215-0.020 0.301-0.055 0.095-0.040 0.15-0.080 0.266-0.191l0.396 0.386c-0.195 0.185-0.286 0.245-0.451 0.316-0.15 0.060-0.331 0.095-0.536 0.095-0.802 0-1.213-0.456-1.213-1.343 0-0.817 0.436-1.328 1.138-1.328 0.692 0 1.138 0.491 1.138 1.248v0.291h-1.634c0.020 0.391 0.215 0.581 0.596 0.581zM13.423 15.781c-0.020-0.356-0.195-0.551-0.496-0.551s-0.481 0.2-0.496 0.551h0.992zM13.164 12.999c-0.225 0-0.411-0.185-0.411-0.411s0.186-0.406 0.411-0.406c0.221 0 0.406 0.18 0.406 0.396 0 0.236-0.18 0.421-0.406 0.421zM12.079 19.183v0.474h-0.144v-0.457c0-0.128-0.047-0.234-0.183-0.234-0.095 0-0.169 0.067-0.194 0.148-0.007 0.018-0.010 0.043-0.010 0.067v0.477h-0.144v-0.578c0-0.082-0.002-0.149-0.007-0.215h0.128l0.008 0.131h0.003c0.039-0.075 0.131-0.149 0.262-0.149 0.11 0 0.28 0.066 0.28 0.337zM10.185 15.701l0.411 0.040c0.501 0.050 0.777 0.316 0.777 0.762 0 0.551-0.426 0.857-1.188 0.857-0.241 0-0.461-0.035-0.642-0.11-0.14-0.055-0.22-0.11-0.391-0.266l0.426-0.426c0.11 0.095 0.155 0.125 0.251 0.165 0.125 0.050 0.271 0.080 0.431 0.080 0.301 0 0.476-0.1 0.476-0.276 0-0.14-0.090-0.216-0.276-0.236l-0.411-0.040c-0.511-0.050-0.762-0.286-0.762-0.722 0-0.521 0.406-0.842 1.062-0.842 0.22 0 0.451 0.040 0.621 0.105 0.12 0.045 0.186 0.085 0.321 0.2l-0.401 0.406c-0.080-0.065-0.115-0.085-0.185-0.11-0.115-0.040-0.256-0.065-0.396-0.065-0.255 0-0.396 0.090-0.396 0.256 0 0.13 0.085 0.2 0.271 0.22zM10.688 13.559c-0.226 0-0.411-0.185-0.411-0.411s0.185-0.406 0.411-0.406c0.22 0 0.406 0.181 0.406 0.396 0 0.236-0.181 0.421-0.406 0.421zM8.356 14.393c-0.225 0-0.411-0.185-0.411-0.411s0.186-0.406 0.411-0.406c0.221 0 0.406 0.181 0.406 0.396 0 0.236-0.18 0.421-0.406 0.421zM6.312 17.33l-0.546-1.639-0.546 1.639h-0.536l-0.802-2.611h0.692l0.421 1.614 0.531-1.614h0.476l0.536 1.614 0.421-1.614h0.687l-0.797 2.611h-0.536zM8.682 17.33h-0.652v-2.611h0.652v2.611zM9.842 18.534c0.138 0 0.224 0.030 0.262 0.049l-0.034 0.116c-0.054-0.026-0.131-0.046-0.223-0.046-0.259 0-0.431 0.165-0.431 0.455 0 0.27 0.156 0.444 0.424 0.444 0.087 0 0.176-0.018 0.233-0.046l0.030 0.113c-0.052 0.026-0.157 0.054-0.292 0.054-0.311 0-0.546-0.198-0.546-0.56 0-0.346 0.234-0.58 0.577-0.58zM10.717 18.845c0.228 0 0.382 0.165 0.382 0.408 0 0.294-0.203 0.421-0.395 0.421-0.215 0-0.38-0.157-0.38-0.408 0-0.265 0.174-0.421 0.393-0.421zM10.71 19.566c0.138 0 0.241-0.129 0.241-0.308 0-0.134-0.067-0.305-0.237-0.305s-0.244 0.157-0.244 0.308c0 0.174 0.1 0.305 0.241 0.305zM12.606 19.566c0.105 0 0.154-0.053 0.154-0.118 0-0.069-0.041-0.107-0.148-0.146-0.142-0.051-0.21-0.129-0.21-0.224 0-0.128 0.103-0.233 0.274-0.233 0.080 0 0.15 0.023 0.195 0.049l-0.036 0.105c-0.031-0.020-0.089-0.046-0.162-0.046-0.085 0-0.133 0.049-0.133 0.108 0 0.066 0.047 0.095 0.151 0.134 0.137 0.053 0.208 0.121 0.208 0.239 0 0.139-0.108 0.239-0.297 0.239-0.087 0-0.167-0.023-0.223-0.056l0.036-0.11c0.043 0.028 0.118 0.057 0.19 0.057zM13.347 19.302c0 0.151 0.046 0.252 0.177 0.252 0.097 0 0.164-0.067 0.19-0.131 0.008-0.021 0.013-0.048 0.013-0.074v-0.487h0.144v0.577c0 0.082 0.002 0.154 0.007 0.216h-0.127l-0.008-0.13h-0.003c-0.038 0.064-0.121 0.147-0.262 0.147-0.125 0-0.274-0.069-0.274-0.347v-0.464h0.144v0.439zM14.776 18.717l0.141-0.044v0.19h0.206v0.11h-0.206v0.428c0 0.098 0.028 0.154 0.108 0.154 0.039 0 0.062-0.003 0.084-0.010l0.007 0.108c-0.028 0.012-0.072 0.021-0.128 0.021-0.067 0-0.121-0.023-0.156-0.062-0.041-0.042-0.056-0.113-0.056-0.206v-0.433h-0.123v-0.11h0.123v-0.146zM15.48 18.55c0.054 0 0.088 0.039 0.088 0.090 0.002 0.049-0.034 0.088-0.092 0.088-0.051 0-0.087-0.039-0.087-0.088 0-0.051 0.038-0.090 0.090-0.090zM15.552 19.656h-0.144v-0.793h0.144v0.793zM16.044 18.994h0.003c0.039-0.075 0.131-0.149 0.262-0.149 0.11 0 0.28 0.066 0.28 0.337v0.474h-0.144v-0.457c0-0.128-0.048-0.234-0.184-0.234-0.095 0-0.169 0.067-0.194 0.148-0.006 0.018-0.010 0.043-0.010 0.067v0.477h-0.144v-0.578c0-0.082-0.002-0.149-0.007-0.215h0.128l0.008 0.131zM18.993 18.541c0.128 0 0.228 0.028 0.275 0.050l-0.034 0.117c-0.059-0.026-0.133-0.048-0.244-0.048-0.269 0-0.444 0.167-0.444 0.444 0 0.28 0.169 0.446 0.426 0.446 0.093 0 0.157-0.013 0.19-0.030v-0.329h-0.224v-0.115h0.364v0.531c-0.064 0.023-0.19 0.061-0.339 0.061-0.167 0-0.305-0.043-0.413-0.146-0.095-0.092-0.154-0.239-0.154-0.411 0.001-0.33 0.228-0.57 0.598-0.57zM20.615 18.845c0.228 0 0.382 0.165 0.382 0.408 0 0.294-0.203 0.421-0.395 0.421-0.215 0-0.38-0.157-0.38-0.408 0-0.265 0.174-0.421 0.393-0.421zM20.609 19.566c0.138 0 0.241-0.129 0.241-0.308 0-0.134-0.067-0.305-0.238-0.305s-0.244 0.157-0.244 0.308c0 0.174 0.1 0.305 0.241 0.305zM21.441 19.302c0 0.151 0.046 0.252 0.177 0.252 0.097 0 0.164-0.067 0.19-0.131 0.008-0.021 0.013-0.048 0.013-0.074v-0.487h0.144v0.577c0 0.082 0.002 0.154 0.006 0.216h-0.128l-0.008-0.13h-0.003c-0.038 0.064-0.121 0.147-0.262 0.147-0.125 0-0.274-0.069-0.274-0.347v-0.464h0.144v0.439z"></path>
</svg>
