<svg xmlns="http://www.w3.org/2000/svg" xmlns:xlink="http://www.w3.org/1999/xlink" preserveAspectRatio="xMidYMid" width="114.688" height="112.09" viewBox="0 0 114.688 112.09">
  <defs>
    <style>
      .cls-1 {
        fill: #1a9551;
        fill-rule: evenodd;
      }
    </style>
  </defs>
  <path d="M114.660,110.700 C114.602,111.483 113.950,112.089 113.164,112.089 L73.192,112.089 L28.544,112.089 L28.252,112.089 C27.466,112.089 26.814,111.483 26.756,110.700 C26.708,110.058 26.384,104.441 29.564,101.994 C32.028,100.099 37.317,96.600 45.058,94.450 C50.679,92.889 56.571,90.816 58.820,89.993 L58.820,82.951 C58.797,82.928 58.690,82.904 58.666,82.882 C58.633,82.871 58.599,82.875 58.566,82.862 C46.249,77.869 38.291,66.099 38.291,52.878 C38.291,35.028 52.903,20.506 70.865,20.506 C88.826,20.506 103.438,35.028 103.438,52.878 C103.438,65.918 95.628,77.627 83.541,82.706 C83.418,82.757 83.291,82.764 83.165,82.781 C83.083,82.860 83.007,82.943 82.923,83.021 C82.841,83.098 82.927,83.166 82.844,83.241 L82.844,89.993 C85.093,90.816 90.736,92.889 96.356,94.450 C104.103,96.601 109.389,100.100 111.851,101.994 C115.031,104.441 114.707,110.057 114.660,110.700 ZM61.820,90.847 C64.495,92.292 67.600,93.079 70.865,93.079 C74.004,93.079 77.151,92.344 79.761,91.003 L79.761,85.592 C76.167,87.955 73.055,88.382 71.363,88.382 C71.181,88.382 71.014,88.377 70.865,88.370 C69.295,88.447 65.949,88.204 61.820,85.386 L61.820,90.847 ZM100.438,52.878 C100.438,36.682 87.171,23.506 70.865,23.506 C54.558,23.506 41.291,36.682 41.291,52.878 C41.291,62.626 46.064,71.506 53.853,76.922 C51.317,72.899 50.017,69.110 49.615,67.807 C48.447,66.783 45.174,63.498 45.174,58.850 C45.174,54.383 49.006,51.208 50.755,49.992 C50.662,48.448 50.782,45.480 52.676,43.210 C54.263,41.309 56.670,40.345 59.832,40.345 C64.986,40.345 66.475,41.255 67.885,42.445 C68.525,42.984 68.949,43.342 70.892,43.377 C72.781,43.342 73.204,42.984 73.844,42.445 C75.255,41.255 76.744,40.345 81.897,40.345 C85.060,40.345 87.467,41.309 89.053,43.210 C90.948,45.480 91.068,48.448 90.975,49.992 C92.724,51.208 96.555,54.383 96.555,58.850 C96.555,63.498 93.281,66.783 92.114,67.807 C91.713,69.107 90.418,72.880 87.895,76.892 C95.664,71.465 100.438,62.581 100.438,52.878 ZM89.357,66.550 C89.444,66.234 89.633,65.952 89.894,65.753 C89.928,65.728 93.555,62.880 93.555,58.850 C93.555,54.970 88.692,52.082 88.644,52.054 C88.091,51.738 87.798,51.109 87.912,50.484 C87.916,50.456 88.465,47.172 86.740,45.120 C85.750,43.942 84.121,43.345 81.897,43.345 C77.430,43.345 76.590,44.053 75.778,44.738 C74.714,45.635 73.679,46.326 70.892,46.376 C68.050,46.326 67.015,45.635 65.951,44.738 C65.139,44.053 64.299,43.345 59.832,43.345 C57.609,43.345 55.979,43.942 54.989,45.120 C53.265,47.172 53.813,50.456 53.819,50.488 C53.928,51.111 53.635,51.740 53.086,52.054 C53.040,52.081 48.174,54.934 48.174,58.850 C48.174,62.880 51.801,65.728 51.837,65.756 C52.095,65.955 52.286,66.237 52.372,66.550 C52.395,66.636 54.782,75.136 60.858,80.833 C65.452,85.140 69.305,85.462 70.773,85.371 C70.804,85.369 70.834,85.368 70.865,85.368 C70.895,85.368 70.926,85.369 70.957,85.371 C72.432,85.460 76.280,85.137 80.872,80.833 C86.947,75.136 89.333,66.636 89.357,66.550 ZM110.021,104.372 C107.733,102.610 102.810,99.355 95.554,97.340 C90.254,95.868 84.813,93.958 82.216,93.017 C78.946,94.988 74.951,96.079 70.865,96.079 C66.728,96.079 62.686,94.963 59.395,92.946 C56.880,93.860 51.290,95.832 45.861,97.340 C38.610,99.354 33.684,102.610 31.394,104.372 C30.205,105.286 29.828,107.473 29.746,109.089 L73.192,109.089 L111.670,109.089 C111.588,107.473 111.210,105.286 110.021,104.372 ZM71.409,56.485 C71.409,56.319 71.427,56.149 71.435,55.982 L70.538,55.982 C70.545,56.149 70.563,56.319 70.563,56.485 C70.563,62.168 66.304,66.625 61.067,66.625 C55.831,66.625 51.571,62.001 51.571,56.318 C51.571,55.588 51.647,54.840 51.799,54.097 C51.941,53.398 52.555,53.146 53.269,53.146 L53.561,53.146 C53.691,53.109 53.819,53.065 53.961,53.065 L87.970,53.065 C88.112,53.065 88.240,53.109 88.370,53.146 L88.704,53.146 C89.417,53.146 90.031,53.397 90.174,54.096 C90.325,54.834 90.401,55.582 90.401,56.318 C90.401,62.001 86.141,66.625 80.905,66.625 C75.669,66.625 71.409,62.168 71.409,56.485 ZM67.552,56.063 L54.582,56.063 C54.575,56.204 54.571,56.345 54.571,56.485 C54.571,60.514 57.485,63.625 61.067,63.625 C64.649,63.625 67.563,60.514 67.563,56.485 C67.563,56.346 67.560,56.204 67.552,56.063 ZM80.905,63.625 C84.487,63.625 87.401,60.514 87.401,56.485 C87.401,56.345 87.397,56.204 87.389,56.063 L74.421,56.063 C74.413,56.204 74.409,56.346 74.409,56.485 C74.409,60.514 77.323,63.625 80.905,63.625 ZM34.569,48.585 C32.550,49.207 30.451,49.522 28.331,49.522 C16.650,49.522 7.147,40.019 7.147,28.338 C7.147,16.658 16.650,7.156 28.331,7.156 C38.215,7.156 46.915,14.163 49.018,23.816 C49.194,24.626 48.681,25.425 47.872,25.602 C47.062,25.775 46.263,25.264 46.086,24.455 C44.282,16.170 36.814,10.156 28.331,10.156 C18.304,10.156 10.147,18.313 10.147,28.338 C10.147,38.365 18.304,46.522 28.331,46.522 C30.152,46.522 31.954,46.252 33.686,45.718 C34.479,45.473 35.317,45.918 35.561,46.711 C35.805,47.502 35.361,48.341 34.569,48.585 ZM22.815,19.558 C22.815,18.730 23.424,18.058 24.253,18.058 L31.820,18.058 C34.979,18.058 37.549,20.766 37.549,24.093 C37.549,27.420 34.979,30.066 31.820,30.066 L25.856,30.066 L25.856,31.063 L31.692,31.063 C32.520,31.063 33.192,31.922 33.192,32.750 C33.192,33.579 32.520,34.063 31.692,34.063 L25.856,34.063 L25.856,38.316 C25.856,39.144 25.122,39.816 24.293,39.816 C23.465,39.816 22.856,39.144 22.856,38.316 L22.856,34.063 L20.415,34.063 C19.587,34.063 18.915,33.579 18.915,32.750 C18.915,31.922 19.587,31.063 20.415,31.063 L22.856,31.063 L22.856,30.066 L20.364,30.066 C19.535,30.066 18.864,29.457 18.864,28.628 C18.864,27.800 19.535,27.107 20.364,27.107 L22.856,27.107 L22.856,19.759 C22.846,19.691 22.815,19.630 22.815,19.558 ZM25.856,27.107 L31.820,27.107 C33.325,27.107 34.549,25.767 34.549,24.093 C34.549,22.420 33.325,21.059 31.820,21.059 L25.856,21.059 L25.856,27.107 ZM52.454,21.616 C52.307,21.525 52.152,21.437 51.997,21.349 C51.200,20.894 50.296,20.380 49.893,19.408 C49.487,18.428 49.763,17.419 50.005,16.529 C50.069,16.296 50.165,15.945 50.202,15.709 C49.978,15.623 49.622,15.530 49.385,15.468 C48.495,15.236 47.486,14.972 46.844,14.136 C46.199,13.297 46.205,12.253 46.209,11.333 C46.210,11.088 46.212,10.720 46.186,10.484 C45.949,10.458 45.583,10.461 45.338,10.461 C44.419,10.470 43.373,10.470 42.534,9.826 C41.697,9.183 41.434,8.175 41.202,7.286 C41.140,7.048 41.047,6.691 40.960,6.467 C40.725,6.504 40.374,6.600 40.140,6.664 C39.250,6.907 38.240,7.182 37.261,6.776 C36.291,6.374 35.776,5.471 35.323,4.674 C35.201,4.460 35.017,4.138 34.874,3.943 C34.658,4.039 34.347,4.222 34.140,4.344 C33.341,4.811 32.437,5.341 31.380,5.203 C30.342,5.068 29.613,4.331 28.970,3.681 C28.791,3.501 28.521,3.229 28.331,3.079 C28.141,3.229 27.870,3.502 27.692,3.682 C27.049,4.331 26.320,5.068 25.281,5.203 C24.223,5.341 23.320,4.810 22.521,4.343 C22.314,4.222 22.003,4.039 21.787,3.943 C21.644,4.138 21.461,4.459 21.339,4.673 C20.885,5.471 20.371,6.374 19.400,6.775 C18.422,7.182 17.413,6.907 16.522,6.663 C16.289,6.599 15.937,6.503 15.702,6.467 C15.615,6.691 15.522,7.047 15.460,7.284 C15.228,8.173 14.964,9.183 14.128,9.825 C13.290,10.468 12.255,10.464 11.324,10.459 C11.081,10.459 10.711,10.456 10.475,10.482 C10.449,10.719 10.451,11.086 10.452,11.331 C10.457,12.252 10.461,13.296 9.817,14.134 C9.174,14.971 8.166,15.234 7.276,15.466 C7.039,15.529 6.682,15.621 6.459,15.708 C6.496,15.943 6.591,16.295 6.655,16.529 C6.898,17.419 7.173,18.428 6.767,19.408 C6.364,20.378 5.461,20.892 4.665,21.346 C4.451,21.468 4.128,21.652 3.934,21.794 C4.031,22.010 4.213,22.322 4.334,22.529 C4.802,23.328 5.332,24.234 5.194,25.289 C5.059,26.326 4.322,27.056 3.672,27.699 C3.492,27.877 3.219,28.148 3.069,28.338 C3.219,28.528 3.492,28.799 3.672,28.977 C4.322,29.620 5.059,30.349 5.194,31.388 C5.332,32.443 4.802,33.349 4.334,34.147 C4.213,34.355 4.030,34.666 3.934,34.882 C4.128,35.025 4.450,35.208 4.665,35.330 C5.461,35.784 6.364,36.299 6.766,37.269 C7.172,38.248 6.897,39.257 6.654,40.148 C6.590,40.381 6.494,40.733 6.457,40.968 C6.681,41.055 7.038,41.148 7.275,41.210 C8.165,41.442 9.173,41.706 9.816,42.542 C10.460,43.380 10.455,44.425 10.451,45.346 C10.449,45.590 10.448,45.957 10.474,46.194 C10.710,46.220 11.077,46.220 11.322,46.217 C12.245,46.213 13.288,46.208 14.126,46.852 C14.962,47.495 15.226,48.503 15.458,49.393 C15.520,49.630 15.614,49.988 15.700,50.211 C15.936,50.174 16.287,50.079 16.521,50.015 C17.411,49.772 18.420,49.498 19.399,49.903 C20.370,50.305 20.884,51.208 21.338,52.005 C21.460,52.219 21.644,52.541 21.787,52.736 C22.003,52.639 22.314,52.456 22.521,52.335 C23.321,51.867 24.223,51.338 25.282,51.475 C26.320,51.610 27.049,52.347 27.692,52.997 C27.870,53.177 28.141,53.450 28.331,53.600 C28.521,53.450 28.792,53.177 28.970,52.997 C29.613,52.347 30.342,51.610 31.381,51.475 C32.048,51.387 32.658,51.568 33.219,51.831 C33.347,51.795 33.482,51.776 33.622,51.776 C34.450,51.776 35.122,52.447 35.122,53.276 L35.134,53.751 C35.142,54.290 34.860,54.791 34.395,55.065 C33.931,55.338 33.355,55.342 32.888,55.074 L32.631,54.924 C32.385,54.781 31.997,54.553 31.780,54.477 C31.598,54.607 31.295,54.913 31.103,55.107 C30.412,55.805 29.553,56.672 28.331,56.672 C27.109,56.672 26.250,55.805 25.560,55.107 C25.368,54.913 25.065,54.607 24.883,54.478 C24.667,54.556 24.282,54.781 24.037,54.924 C23.201,55.414 22.161,56.025 20.996,55.714 C19.820,55.399 19.217,54.340 18.732,53.490 C18.595,53.250 18.380,52.872 18.236,52.699 C18.009,52.718 17.582,52.835 17.310,52.909 C16.372,53.165 15.205,53.483 14.160,52.879 C13.109,52.271 12.802,51.096 12.556,50.151 C12.485,49.883 12.375,49.459 12.280,49.253 C12.056,49.214 11.616,49.217 11.337,49.217 C10.359,49.222 9.150,49.229 8.295,48.373 C7.440,47.518 7.446,46.305 7.451,45.331 C7.452,45.052 7.454,44.612 7.415,44.388 C7.209,44.293 6.786,44.183 6.517,44.113 C5.572,43.865 4.396,43.559 3.790,42.509 C3.185,41.463 3.504,40.296 3.760,39.358 C3.833,39.087 3.950,38.659 3.970,38.432 C3.796,38.288 3.419,38.073 3.179,37.937 C2.329,37.452 1.270,36.849 0.956,35.672 C0.645,34.511 1.255,33.469 1.745,32.632 C1.888,32.387 2.114,32.002 2.191,31.786 C2.061,31.603 1.756,31.302 1.561,31.109 C0.864,30.419 -0.003,29.560 -0.003,28.338 C-0.003,27.116 0.865,26.257 1.562,25.566 C1.756,25.375 2.061,25.072 2.191,24.890 C2.114,24.674 1.888,24.289 1.745,24.045 C1.255,23.207 0.645,22.166 0.956,21.003 C1.271,19.828 2.330,19.225 3.180,18.740 C3.419,18.603 3.797,18.387 3.971,18.244 C3.951,18.016 3.834,17.589 3.761,17.318 C3.505,16.379 3.186,15.212 3.791,14.167 C4.399,13.117 5.574,12.810 6.519,12.564 C6.787,12.493 7.211,12.383 7.416,12.288 C7.456,12.064 7.454,11.624 7.452,11.345 C7.447,10.371 7.441,9.158 8.297,8.303 C9.152,7.447 10.366,7.455 11.339,7.459 C11.620,7.461 12.059,7.463 12.282,7.424 C12.377,7.218 12.487,6.794 12.558,6.525 C12.805,5.582 13.112,4.406 14.162,3.798 C15.207,3.193 16.373,3.513 17.312,3.769 C17.583,3.843 18.010,3.959 18.237,3.979 C18.381,3.806 18.596,3.428 18.732,3.189 C19.217,2.338 19.820,1.279 20.997,0.964 C22.158,0.654 23.200,1.264 24.037,1.754 C24.281,1.897 24.667,2.123 24.883,2.201 C25.065,2.071 25.368,1.765 25.560,1.571 C26.250,0.874 27.109,0.006 28.331,0.006 C29.553,0.006 30.412,0.874 31.102,1.572 C31.294,1.765 31.597,2.071 31.779,2.201 C31.995,2.123 32.380,1.898 32.624,1.755 C33.461,1.265 34.500,0.654 35.665,0.965 C36.841,1.279 37.444,2.338 37.929,3.189 C38.066,3.428 38.281,3.806 38.425,3.980 C38.652,3.960 39.080,3.843 39.351,3.769 C40.290,3.513 41.456,3.195 42.501,3.799 C43.551,4.408 43.858,5.583 44.104,6.528 C44.175,6.796 44.285,7.220 44.380,7.425 C44.604,7.465 45.044,7.465 45.323,7.461 C46.302,7.463 47.510,7.450 48.365,8.305 C49.220,9.161 49.214,10.373 49.209,11.347 C49.207,11.626 49.206,12.066 49.245,12.290 C49.451,12.385 49.874,12.496 50.143,12.566 C51.087,12.812 52.263,13.119 52.870,14.168 C53.475,15.214 53.156,16.380 52.900,17.319 C52.826,17.591 52.709,18.018 52.690,18.245 C52.863,18.390 53.243,18.606 53.483,18.743 C53.667,18.848 53.852,18.954 54.028,19.062 C54.733,19.496 54.952,20.421 54.518,21.126 C54.083,21.831 53.159,22.051 52.454,21.616 Z" class="cls-1"/>
</svg>
