<svg xmlns="http://www.w3.org/2000/svg" xmlns:xlink="http://www.w3.org/1999/xlink" preserveAspectRatio="xMidYMid" width="100" height="100" viewBox="0 0 100 100">
  <defs>
    <style>
      .cls-1 {
        fill: #951a37;
        fill-rule: evenodd;
      }
    </style>
  </defs>
  <path d="M98.500,47.500 C97.672,47.500 97.000,46.828 97.000,46.000 L97.000,13.499 C97.000,7.710 92.289,2.999 86.500,2.999 L56.000,2.999 L56.000,13.146 C57.130,12.803 58.312,12.626 59.499,12.626 C66.138,12.626 71.539,18.027 71.539,24.667 C71.539,31.306 66.138,36.706 59.499,36.706 C58.312,36.706 57.130,36.529 56.000,36.187 L56.000,46.000 C56.000,46.828 55.328,47.500 54.500,47.500 C53.671,47.500 53.000,46.828 53.000,46.000 L53.000,33.946 C53.000,33.418 53.278,32.929 53.731,32.659 C54.184,32.388 54.747,32.375 55.212,32.626 C56.521,33.333 58.004,33.707 59.499,33.707 C64.484,33.707 68.539,29.651 68.539,24.667 C68.539,19.681 64.484,15.626 59.499,15.626 C58.004,15.626 56.521,15.999 55.213,16.706 C54.748,16.958 54.185,16.945 53.731,16.675 C53.278,16.404 53.000,15.915 53.000,15.387 L53.000,1.499 C53.000,0.671 53.671,-0.001 54.500,-0.001 L86.500,-0.001 C93.944,-0.001 100.000,6.055 100.000,13.499 L100.000,46.000 C100.000,46.828 99.329,47.500 98.500,47.500 ZM88.999,46.000 L88.999,28.333 C88.999,27.504 89.670,26.833 90.499,26.833 C91.328,26.833 91.999,27.504 91.999,28.333 L91.999,46.000 C91.999,46.828 91.328,47.500 90.499,47.500 C89.670,47.500 88.999,46.828 88.999,46.000 ZM54.000,88.999 L71.666,88.999 C72.495,88.999 73.166,89.670 73.166,90.498 C73.166,91.327 72.495,91.998 71.666,91.998 L54.000,91.998 C53.171,91.998 52.500,91.327 52.500,90.498 C52.500,89.670 53.171,88.999 54.000,88.999 ZM66.053,53.029 C66.581,53.029 67.071,53.306 67.341,53.760 C67.612,54.214 67.624,54.776 67.373,55.241 C66.666,56.550 66.293,57.503 66.293,58.999 C66.293,63.983 70.348,68.038 75.332,68.038 C80.317,68.038 84.373,63.983 84.373,58.999 C84.373,57.503 83.999,56.550 83.293,55.241 C83.042,54.776 83.054,54.214 83.324,53.760 C83.595,53.306 84.084,53.029 84.612,53.029 L98.500,53.029 C99.328,53.029 100.000,53.700 100.000,54.529 L100.000,86.500 C100.000,93.943 93.944,99.999 86.500,99.999 L54.000,99.999 C53.171,99.999 52.500,99.328 52.500,98.499 C52.500,97.671 53.171,96.999 54.000,96.999 L86.500,96.999 C92.289,96.999 97.000,92.289 97.000,86.500 L97.000,56.028 L86.853,56.028 C87.196,57.159 87.373,57.811 87.373,58.999 C87.373,65.637 81.971,71.038 75.332,71.038 C68.694,71.038 63.293,65.637 63.293,58.999 C63.293,57.811 63.470,57.159 63.812,56.028 L54.000,56.028 C53.171,56.028 52.500,55.357 52.500,54.529 C52.500,53.700 53.171,53.029 54.000,53.029 L66.053,53.029 ZM46.000,11.000 L28.334,11.000 C27.505,11.000 26.834,10.329 26.834,9.500 C26.834,8.672 27.505,8.000 28.334,8.000 L46.000,8.000 C46.829,8.000 47.500,8.672 47.500,9.500 C47.500,10.329 46.829,11.000 46.000,11.000 ZM46.000,47.000 L33.947,47.000 C33.419,47.000 32.929,46.722 32.659,46.268 C32.388,45.814 32.376,45.252 32.627,44.787 C33.334,43.478 33.707,41.995 33.707,40.500 C33.707,35.516 29.652,31.460 24.668,31.460 C19.683,31.460 15.627,35.516 15.627,40.500 C15.627,41.995 16.001,43.478 16.707,44.787 C16.958,45.252 16.946,45.814 16.675,46.268 C16.405,46.722 15.916,47.000 15.387,47.000 L1.500,47.000 C0.672,47.000 0.000,46.328 0.000,45.500 L0.000,13.499 C0.000,6.055 6.056,-0.001 13.500,-0.001 L46.000,-0.001 C46.829,-0.001 47.500,0.671 47.500,1.499 C47.500,2.327 46.829,2.999 46.000,2.999 L13.500,2.999 C7.711,2.999 3.000,7.710 3.000,13.499 L3.000,44.000 L13.147,44.000 C12.804,42.869 12.627,41.687 12.627,40.500 C12.627,33.861 18.028,28.460 24.668,28.460 C31.306,28.460 36.707,33.861 36.707,40.500 C36.707,41.687 36.530,42.869 36.188,44.000 L46.000,44.000 C46.829,44.000 47.500,44.671 47.500,45.500 C47.500,46.328 46.829,47.000 46.000,47.000 ZM8.001,71.666 L8.001,54.529 C8.001,53.700 8.672,53.029 9.501,53.029 C10.329,53.029 11.001,53.700 11.001,54.529 L11.001,71.666 C11.001,72.494 10.329,73.165 9.501,73.165 C8.672,73.165 8.001,72.494 8.001,71.666 ZM1.500,53.029 C2.328,53.029 3.000,53.700 3.000,54.529 L3.000,86.500 C3.000,92.289 7.711,96.999 13.500,96.999 L44.000,96.999 L44.000,86.852 C42.870,87.196 41.688,87.373 40.501,87.373 C33.862,87.373 28.461,81.971 28.461,75.332 C28.461,68.693 33.862,63.292 40.501,63.292 C41.688,63.292 42.870,63.469 44.000,63.811 L44.000,54.529 C44.000,53.700 44.672,53.029 45.500,53.029 C46.329,53.029 47.000,53.700 47.000,54.529 L47.000,66.053 C47.000,66.580 46.722,67.070 46.269,67.340 C45.816,67.611 45.253,67.623 44.788,67.372 C43.479,66.666 41.996,66.292 40.501,66.292 C35.516,66.292 31.461,70.347 31.461,75.332 C31.461,80.317 35.516,84.373 40.501,84.373 C41.996,84.373 43.479,83.999 44.787,83.292 C45.252,83.041 45.815,83.053 46.268,83.324 C46.722,83.594 47.000,84.083 47.000,84.612 L47.000,98.499 C47.000,99.328 46.329,99.999 45.500,99.999 L13.500,99.999 C6.056,99.999 0.000,93.943 -0.000,86.500 L-0.000,54.529 C-0.000,53.700 0.671,53.029 1.500,53.029 Z" class="cls-1"/>
</svg>
