<svg xmlns="http://www.w3.org/2000/svg" xmlns:xlink="http://www.w3.org/1999/xlink" preserveAspectRatio="xMidYMid" width="117.06" height="114.03" viewBox="0 0 117.06 114.03">
  <defs>
    <style>
      .cls-1 {
        fill: #e18309;
        fill-rule: evenodd;
      }
    </style>
  </defs>
  <path d="M115.548,114.022 L25.531,114.022 C24.703,114.022 24.031,113.351 24.031,112.522 L24.031,101.502 C24.031,101.226 24.107,100.956 24.250,100.721 C24.450,100.394 29.136,92.680 35.978,90.263 C42.422,87.987 56.062,85.222 56.639,85.106 C57.423,84.943 58.191,85.432 58.389,86.204 L64.002,108.497 L66.493,97.745 L63.669,94.599 C63.263,94.146 63.170,93.492 63.435,92.944 L66.376,86.861 C66.627,86.343 67.152,86.014 67.727,86.014 L74.263,86.014 C74.838,86.014 75.363,86.343 75.613,86.861 L78.554,92.944 C78.819,93.492 78.726,94.146 78.319,94.599 L75.496,97.745 L77.917,108.196 L82.340,86.274 C82.507,85.465 83.296,84.941 84.107,85.106 C84.684,85.222 98.324,87.987 104.768,90.263 C111.611,92.680 116.629,100.394 116.828,100.721 C116.972,100.956 117.048,101.226 117.048,101.502 L117.048,112.522 C117.048,113.351 116.376,114.022 115.548,114.022 ZM55.838,88.335 C52.145,89.110 42.048,91.301 36.978,93.092 C31.872,94.896 27.986,100.501 27.031,101.943 L27.031,111.023 L61.540,111.023 L55.838,88.335 ZM72.738,96.327 L75.415,93.344 L73.321,89.014 L68.667,89.014 L66.573,93.344 L69.251,96.327 C69.580,96.693 69.708,97.198 69.594,97.678 L66.497,111.023 L75.491,111.023 L72.396,97.678 C72.281,97.198 72.409,96.693 72.738,96.327 ZM114.048,101.944 C113.090,100.502 108.856,94.889 103.768,93.092 C98.729,91.311 88.726,89.137 84.977,88.350 L80.409,111.023 L114.048,111.023 L114.048,101.944 ZM92.898,62.085 C92.210,63.434 89.499,68.518 85.784,72.508 C85.408,72.912 85.039,73.316 84.672,73.716 C81.028,77.697 77.260,81.814 70.410,81.849 C70.278,81.862 70.044,81.880 69.718,81.880 C67.887,81.880 63.072,81.311 57.941,76.047 C52.176,70.135 47.617,62.956 47.088,62.110 C46.648,61.542 44.220,58.228 44.220,54.371 C44.220,51.216 45.822,49.093 46.756,48.124 C46.505,44.810 46.158,31.944 55.040,25.068 C55.079,25.038 55.120,25.009 55.163,24.982 C61.580,20.972 67.469,18.939 72.667,18.939 C76.483,18.939 79.874,20.023 82.748,22.160 C85.725,24.375 89.077,27.542 91.365,34.230 C93.462,40.359 92.463,44.226 91.917,45.640 C91.917,45.680 91.922,45.721 91.920,45.760 L92.246,47.393 C94.238,48.161 96.883,50.173 96.883,54.066 C96.883,58.550 93.935,61.268 92.898,62.085 ZM88.528,35.201 C86.509,29.304 83.696,26.606 80.957,24.568 C75.187,20.273 66.768,21.284 56.819,27.486 C52.201,31.097 50.513,36.823 49.944,41.393 C51.622,39.409 54.280,37.750 58.348,37.418 C61.953,37.123 64.875,37.072 67.454,37.027 C71.387,36.957 74.493,36.902 77.789,35.972 C80.898,35.096 83.687,35.373 86.079,36.794 C87.593,37.694 88.738,38.943 89.602,40.209 C89.504,38.842 89.201,37.171 88.528,35.201 ZM90.637,50.031 C90.057,49.902 89.597,49.441 89.481,48.859 L88.869,45.803 C88.854,45.726 88.868,45.650 88.865,45.572 C88.505,44.382 87.271,40.984 84.533,39.366 C82.878,38.387 80.883,38.216 78.604,38.860 C74.935,39.895 71.657,39.952 67.507,40.026 C64.974,40.071 62.102,40.122 58.592,40.408 C50.770,41.046 50.438,47.433 50.428,47.704 C50.410,48.179 50.159,48.575 49.804,48.836 C49.770,49.255 49.570,49.648 49.229,49.909 C49.156,49.967 47.220,51.532 47.220,54.371 C47.220,57.422 49.461,60.276 49.484,60.304 C49.523,60.352 49.560,60.403 49.592,60.457 C49.639,60.532 54.319,68.036 60.089,73.953 C64.424,78.399 68.267,78.880 69.718,78.880 C69.945,78.880 70.086,78.867 70.124,78.863 C70.185,78.855 70.261,78.849 70.321,78.849 C75.906,78.849 78.944,75.532 82.459,71.690 C82.831,71.284 83.207,70.873 83.589,70.464 C87.516,66.245 90.339,60.495 90.367,60.438 C90.485,60.198 90.662,59.994 90.884,59.846 C91.000,59.768 93.883,57.755 93.883,54.066 C93.883,50.847 90.969,50.105 90.637,50.031 ZM44.863,26.953 L46.071,26.953 C46.900,26.953 47.571,27.624 47.571,28.453 C47.571,29.282 46.900,29.953 46.071,29.953 L44.863,29.953 C44.035,29.953 43.363,29.282 43.363,28.453 C43.363,27.624 44.035,26.953 44.863,26.953 ZM44.863,20.971 L48.629,20.971 C49.457,20.971 50.129,21.642 50.129,22.471 C50.129,23.299 49.457,23.971 48.629,23.971 L44.863,23.971 C44.035,23.971 43.363,23.299 43.363,22.471 C43.363,21.642 44.035,20.971 44.863,20.971 ZM53.544,21.416 C52.716,21.416 52.044,20.744 52.044,19.916 L52.044,17.937 L51.812,17.937 C51.709,17.959 51.612,18.000 51.502,18.000 L42.732,18.000 C42.622,18.000 42.519,17.959 42.412,17.937 L41.002,17.937 L41.002,31.031 C41.015,31.116 41.043,31.187 41.043,31.283 C41.043,31.416 41.026,31.548 41.002,31.679 L41.002,58.284 C41.003,58.330 41.009,58.369 41.009,58.416 C41.009,58.434 41.000,58.450 41.000,58.468 C40.995,59.275 40.875,59.999 40.065,59.999 C39.958,59.999 39.846,59.986 39.732,59.963 C39.676,59.970 39.629,59.999 39.571,59.999 L31.481,59.999 L31.147,59.999 L15.065,59.999 C14.954,59.999 14.836,59.984 14.714,59.958 C14.652,59.967 14.597,59.999 14.532,59.999 L1.512,59.999 C0.684,59.999 0.012,59.245 0.012,58.416 L0.012,30.514 C0.012,29.686 0.684,29.014 1.512,29.014 L4.031,29.014 L4.031,25.345 C4.031,24.516 4.703,23.970 5.531,23.970 L7.032,23.970 L7.032,20.496 C7.032,19.667 7.704,18.996 8.532,18.996 L13.002,18.996 L13.002,12.249 C13.002,11.421 13.674,11.000 14.502,11.000 L16.231,11.000 L16.231,9.519 C16.231,8.692 16.903,8.020 17.731,8.020 L19.065,8.020 L19.065,1.500 C19.065,0.671 19.736,-0.000 20.565,-0.000 L25.564,-0.000 C26.392,-0.000 27.064,0.671 27.064,1.500 L27.064,8.020 L28.398,8.020 C29.226,8.020 29.898,8.692 29.898,9.519 L29.898,11.000 L31.481,11.000 C32.309,11.000 33.002,11.421 33.002,12.249 L33.002,30.033 L38.065,30.033 L38.065,16.499 C38.065,15.671 38.736,15.000 39.565,15.000 L41.107,15.000 L41.107,10.582 C41.107,9.754 41.778,9.019 42.607,9.019 L46.043,9.019 L46.043,4.083 C46.043,3.254 46.715,2.583 47.543,2.583 C48.371,2.583 49.043,3.254 49.043,4.083 L49.043,9.019 L51.502,9.019 C52.330,9.019 53.002,9.754 53.002,10.582 L53.002,15.000 L53.544,15.000 C54.372,15.000 55.044,15.671 55.044,16.499 L55.044,19.916 C55.044,20.744 54.372,21.416 53.544,21.416 ZM4.917,31.889 L3.012,31.889 L3.012,56.979 L13.002,56.979 L13.002,32.027 L5.531,32.027 C5.311,32.027 5.106,31.974 4.917,31.889 ZM7.031,29.014 L13.002,29.014 L13.002,26.970 L7.031,26.970 L7.031,29.014 ZM10.032,21.996 L10.032,23.969 L13.002,23.969 L13.002,21.996 L10.032,21.996 ZM29.981,13.999 L28.398,13.999 C27.569,13.999 26.898,13.328 26.898,12.499 L26.898,10.957 L25.564,10.957 C24.736,10.957 24.064,10.286 24.064,9.457 L24.064,3.000 L22.065,3.000 L22.065,9.457 C22.065,10.286 21.205,10.957 20.377,10.957 L19.043,10.957 L19.043,12.437 C19.043,13.266 18.559,13.937 17.731,13.937 L16.002,13.937 L16.002,18.000 L29.981,18.000 L29.981,13.999 ZM29.981,21.000 L16.032,21.000 L16.032,24.994 L29.981,24.994 L29.981,21.000 ZM29.981,27.994 L16.032,27.994 L16.032,30.389 L16.032,30.527 L16.032,30.987 L29.981,30.987 L29.981,27.994 ZM29.981,33.987 L16.032,33.987 L16.032,37.980 L29.981,37.980 L29.981,33.987 ZM29.981,40.980 L16.032,40.980 L16.032,43.974 L29.981,43.974 L29.981,40.980 ZM29.981,46.973 L16.032,46.973 L16.032,50.966 L29.981,50.966 L29.981,46.973 ZM29.981,53.966 L16.032,53.966 L16.032,56.979 L29.981,56.979 L29.981,53.966 ZM38.065,32.970 L33.002,32.970 L33.002,56.916 L38.065,56.916 L38.065,32.970 ZM50.002,12.020 L44.044,12.020 L44.044,15.000 L50.002,15.000 L50.002,12.020 ZM10.229,54.009 L6.463,54.009 C5.635,54.009 4.963,53.213 4.963,52.383 C4.963,51.555 5.635,51.009 6.463,51.009 L10.229,51.009 C11.057,51.009 11.729,51.555 11.729,52.383 C11.729,53.213 11.057,54.009 10.229,54.009 ZM10.229,48.026 L6.463,48.026 C5.635,48.026 4.963,47.292 4.963,46.463 C4.963,45.635 5.635,45.026 6.463,45.026 L10.229,45.026 C11.057,45.026 11.729,45.635 11.729,46.463 C11.729,47.292 11.057,48.026 10.229,48.026 ZM10.229,41.981 L6.463,41.981 C5.635,41.981 4.963,41.372 4.963,40.543 C4.963,39.714 5.635,38.981 6.463,38.981 L10.229,38.981 C11.057,38.981 11.729,39.714 11.729,40.543 C11.729,41.372 11.057,41.981 10.229,41.981 Z" class="cls-1"/>
</svg>
