<svg xmlns="http://www.w3.org/2000/svg" xmlns:xlink="http://www.w3.org/1999/xlink" preserveAspectRatio="xMidYMid" width="112.969" height="111.81" viewBox="0 0 112.969 111.81">
  <defs>
    <style>
      .cls-1 {
        fill: #1a4895;
        fill-rule: evenodd;
      }
    </style>
  </defs>
  <path d="M111.478,111.799 L21.440,111.799 C20.612,111.799 19.940,111.128 19.940,110.299 L19.940,98.639 C19.940,98.381 20.007,98.126 20.134,97.901 C20.333,97.549 24.779,89.250 31.623,86.643 C37.050,84.576 47.445,82.136 50.990,81.339 L50.990,72.152 C50.990,71.874 51.087,71.628 51.218,71.405 C46.631,66.166 43.221,60.801 42.768,60.077 C42.327,59.508 39.900,56.195 39.900,52.338 C39.900,49.183 41.502,47.060 42.436,46.091 C42.185,42.776 41.838,29.910 50.720,23.035 C50.759,23.004 50.800,22.975 50.843,22.949 C55.249,20.195 59.884,18.799 64.618,18.799 C71.948,18.799 77.318,22.129 78.956,23.281 C79.166,23.267 79.420,23.256 79.707,23.256 C81.998,23.256 87.503,23.970 89.155,30.581 C90.795,37.136 88.515,42.114 87.604,43.748 L87.926,45.360 C89.918,46.128 92.563,48.140 92.563,52.033 C92.563,56.517 89.614,59.235 88.577,60.051 C87.890,61.400 85.179,66.485 81.464,70.474 C81.205,70.754 80.951,71.031 80.696,71.308 C80.867,71.552 80.989,71.832 80.989,72.152 L80.989,81.107 C81.162,81.187 81.312,81.298 81.446,81.442 C85.353,82.327 95.264,84.654 100.482,86.643 C107.327,89.250 112.584,97.549 112.783,97.901 C112.910,98.126 112.978,98.381 112.978,98.639 L112.978,110.299 C112.978,111.128 112.306,111.799 111.478,111.799 ZM71.194,108.798 L68.088,97.496 C67.943,96.968 68.097,96.403 68.489,96.022 L71.014,93.573 L68.921,89.804 L64.428,89.804 L62.334,93.573 L64.859,96.022 C65.252,96.403 65.406,96.968 65.261,97.496 L62.155,108.798 L71.194,108.798 ZM77.989,82.104 L77.989,74.188 C74.971,77.222 71.489,79.788 66.090,79.816 C65.958,79.829 65.724,79.847 65.398,79.847 C63.611,79.847 58.982,79.292 53.990,74.374 L53.990,81.571 L63.972,86.804 L70.038,86.804 L77.989,82.104 ZM32.692,89.446 C27.559,91.401 23.853,97.562 22.940,99.053 L22.940,108.798 L59.043,108.798 L62.133,97.557 L59.421,94.926 C58.934,94.454 58.824,93.714 59.154,93.121 L61.498,88.900 L52.369,84.107 C50.034,84.630 38.324,87.300 32.692,89.446 ZM64.618,21.799 C60.478,21.799 56.400,23.028 52.497,25.453 C47.880,29.065 46.192,34.791 45.623,39.360 C47.302,37.376 49.959,35.717 54.028,35.385 C55.542,35.261 56.952,35.170 58.270,35.085 C64.803,34.662 68.745,34.407 72.022,31.148 C74.693,28.492 75.972,26.405 76.542,25.286 C74.627,24.086 70.243,21.799 64.618,21.799 ZM86.245,31.308 C85.324,27.625 82.815,26.511 80.584,26.299 C80.803,28.064 81.393,32.229 82.405,35.375 C83.126,37.617 84.566,39.598 85.652,40.880 C86.434,38.943 87.303,35.539 86.245,31.308 ZM86.047,58.404 C86.164,58.165 86.342,57.961 86.564,57.814 C86.680,57.734 89.563,55.721 89.563,52.033 C89.563,48.814 86.649,48.072 86.317,47.998 C85.737,47.869 85.277,47.408 85.160,46.825 L84.640,44.226 C83.628,43.215 80.782,40.129 79.550,36.293 C78.769,33.865 78.232,30.965 77.904,28.820 C77.047,30.068 75.844,31.578 74.137,33.275 C70.063,37.327 65.448,37.626 58.464,38.078 C57.161,38.163 55.769,38.253 54.272,38.375 C46.449,39.013 46.117,45.399 46.108,45.671 C46.089,46.145 45.838,46.541 45.483,46.803 C45.449,47.222 45.250,47.614 44.908,47.875 C44.836,47.933 42.900,49.499 42.900,52.338 C42.900,55.389 45.141,58.243 45.163,58.271 C45.202,58.319 45.239,58.371 45.272,58.424 C45.319,58.499 49.998,66.002 55.769,71.920 C60.104,76.366 63.946,76.847 65.398,76.847 C65.625,76.847 65.766,76.834 65.804,76.829 C65.864,76.822 65.941,76.816 66.001,76.816 C71.586,76.816 74.623,73.499 78.139,69.657 C78.511,69.251 78.887,68.840 79.269,68.430 C83.196,64.212 86.019,58.462 86.047,58.404 ZM109.978,99.052 C109.065,97.563 104.548,91.402 99.413,89.446 C94.183,87.453 83.626,85.009 80.255,84.251 L71.987,89.145 L74.195,93.121 C74.524,93.714 74.414,94.454 73.928,94.926 L71.216,97.557 L74.305,108.798 L109.978,108.798 L109.978,99.052 ZM37.127,40.779 L12.210,40.779 C11.382,40.779 10.710,40.107 10.710,39.279 C10.710,38.450 11.382,37.779 12.210,37.779 L37.127,37.779 C37.955,37.779 38.627,38.450 38.627,39.279 C38.627,40.107 37.955,40.779 37.127,40.779 ZM10.710,23.279 C10.710,22.450 11.382,21.779 12.210,21.779 L42.293,21.779 C43.121,21.779 43.793,22.450 43.793,23.279 C43.793,24.107 43.121,24.779 42.293,24.779 L12.210,24.779 C11.382,24.779 10.710,24.107 10.710,23.279 ZM38.460,32.779 L12.210,32.779 C11.382,32.779 10.710,32.108 10.710,31.279 C10.710,30.450 11.382,29.779 12.210,29.779 L38.460,29.779 C39.288,29.779 39.960,30.450 39.960,31.279 C39.960,32.108 39.288,32.779 38.460,32.779 ZM53.460,17.357 C52.632,17.357 51.960,16.686 51.960,15.857 L51.960,15.258 C51.960,14.430 51.287,13.757 50.460,13.757 L4.493,13.757 C3.666,13.757 2.993,14.430 2.993,15.258 L2.993,48.258 C2.993,49.085 3.666,49.758 4.493,49.758 L34.994,49.758 C35.822,49.758 36.494,50.429 36.494,51.258 C36.494,52.086 35.822,52.758 34.994,52.758 L4.493,52.758 C2.011,52.758 -0.007,50.739 -0.007,48.258 L-0.007,15.258 C-0.007,12.776 2.011,10.758 4.493,10.758 L16.826,10.758 C17.473,4.724 22.592,0.010 28.794,0.010 C34.996,0.010 40.115,4.724 40.762,10.758 L50.460,10.758 C52.942,10.758 54.960,12.776 54.960,15.258 L54.960,15.857 C54.960,16.686 54.288,17.357 53.460,17.357 ZM28.794,3.010 C24.249,3.010 20.488,6.384 19.857,10.758 L37.731,10.758 C37.101,6.384 33.339,3.010 28.794,3.010 Z" class="cls-1"/>
</svg>
