<?xml version="1.0" encoding="utf-8"?><svg xmlns="http://www.w3.org/2000/svg" preserveAspectRatio="xMidYMid" width="70.96" height="72" viewBox="-30.03 -30.03 122.06 124.15"><defs><style>.ppcls-1{fill:#fff;fill-rule:evenodd}</style></defs><path d="M54.817 51.346c-3.12 0-5.756-2.012-6.745-4.798-3.65 7.933-9.934 13.72-17.36 15.53h17.694a1 1 0 0 1 0 2H2.376a1 1 0 0 1 0-2H20.75C8.94 59.196 0 46.262 0 30.61c0-.13.003-.26.007-.388l.005-.202a1 1 0 0 1 1-.982h49.44a1 1 0 0 1 1 .976l.005.178c.004.14.008.278.008.42 0 2.65-.276 5.217-.76 7.677a7.133 7.133 0 0 1 4.112-1.31A7.19 7.19 0 0 1 62 44.162a7.19 7.19 0 0 1-7.183 7.183zM2.002 31.038c.18 16.488 10.756 29.644 23.73 29.644 12.975 0 23.55-13.156 23.73-29.644H2.002zm52.815 7.942a5.19 5.19 0 0 0-5.184 5.183 5.19 5.19 0 0 0 5.184 5.183A5.19 5.19 0 0 0 60 44.163a5.19 5.19 0 0 0-5.183-5.183zm-20.81-26.47c-.194.455-.435 1.02-.8 2.11-.65 1.94.527 2.892.664 2.995a1 1 0 0 1-.594 1.808.985.985 0 0 1-.57-.183c-.882-.623-2.31-2.524-1.394-5.256.392-1.165.66-1.797.858-2.26.268-.628.403-.943.623-2.12.3-1.586-1.396-3.193-1.413-3.21a1 1 0 1 1 1.352-1.472c.103.094 2.533 2.36 2.027 5.052-.26 1.39-.456 1.846-.75 2.536zm-8.035 5.353c.105.47.596.846.776.95.475.277.643.885.372 1.362a1 1 0 0 1-1.35.382c-.147-.08-1.434-.833-1.75-2.26-.353-1.59.61-7.95 1.37-11.75.747-3.74-.16-4.796-.17-4.806-.423-.352-.456-.96-.102-1.384.353-.426 1.008-.458 1.433-.105.308.256 1.784 1.776.8 6.69-.997 4.99-1.57 10.056-1.377 10.924zm-6.34-5.353c-.193.455-.434 1.02-.8 2.11-.65 1.94.53 2.892.666 2.995a1 1 0 0 1-.595 1.808.99.99 0 0 1-.57-.183c-.883-.623-2.31-2.524-1.396-5.256.39-1.165.66-1.797.857-2.26.268-.628.403-.943.623-2.12.3-1.586-1.397-3.193-1.414-3.21a1 1 0 1 1 1.352-1.472c.104.094 2.534 2.36 2.028 5.052-.26 1.39-.455 1.846-.75 2.536z" class="ppcls-1"/></svg>