<?xml version="1.0" encoding="utf-8"?><svg xmlns="http://www.w3.org/2000/svg" preserveAspectRatio="xMidYMid" width="72" height="70.4" viewBox="-28.75 -28.75 117.5 114.5"><defs><style>.uucls-1{fill:#fff;fill-rule:evenodd}</style></defs><path d="M57 57H47c-1.654 0-3-1.346-3-3V44c0-1.654 1.346-3 3-3h10c1.654 0 3 1.346 3 3v10c0 1.654-1.346 3-3 3zm1-13a1 1 0 0 0-1-1H47a1 1 0 0 0-1 1v10a1 1 0 0 0 1 1h10a1 1 0 0 0 1-1V44zm-5.947-6.386a1 1 0 0 1-1-1V29H31v7.614a1 1 0 0 1-2 0V29H8.947v7.614a1 1 0 0 1-1 1c-.553 0-.947-.448-.947-1v-8.16c0-.036.015-.067.018-.102a.982.982 0 0 1-.07-.352 1 1 0 0 1 1-1H29v-6.485a1 1 0 0 1 2 0V27h20.835c.465 0 .803.324.903.754.164.18.262.427.262.7v8.16c0 .552-.395 1-.947 1zM35 16H25c-1.654 0-3-1.346-3-3V3c0-1.654 1.346-3 3-3h10c1.654 0 3 1.346 3 3v10c0 1.654-1.346 3-3 3zm1-13a1 1 0 0 0-1-1H25a1 1 0 0 0-1 1v10a1 1 0 0 0 1 1h10a1 1 0 0 0 1-1V3zM16 44v10c0 1.654-1.346 3-3 3H3c-1.654 0-3-1.346-3-3V44c0-1.654 1.346-3 3-3h10c1.654 0 3 1.346 3 3zM2 44v10a1 1 0 0 0 1 1h10a1 1 0 0 0 1-1V44a1 1 0 0 0-1-1H3a1 1 0 0 0-1 1zm23-3h10c1.654 0 3 1.346 3 3v10c0 1.654-1.346 3-3 3H25c-1.654 0-3-1.346-3-3V44c0-1.654 1.346-3 3-3zm-1 13a1 1 0 0 0 1 1h10a1 1 0 0 0 1-1V44a1 1 0 0 0-1-1H25a1 1 0 0 0-1 1v10z" class="uucls-1"/></svg>