<?xml version="1.0" encoding="utf-8"?><svg xmlns="http://www.w3.org/2000/svg" preserveAspectRatio="xMidYMid" width="71.87" height="72" viewBox="-29.45 -29.45 120.91 121.16"><defs><style>.oocls-1{fill:#fff;fill-rule:evenodd}</style></defs><path d="M60.176 48.454a6.185 6.185 0 0 1-4.405 1.824 6.162 6.162 0 0 1-3.207-.89.996.996 0 0 1-.603-.302l-.807-.848-17.588-19.22c-.25.215-.502.424-.754.628.18.53.274 1.087.274 1.65 0 1.362-.53 2.643-1.494 3.606-.924.923-2.237 1.453-3.606 1.453-1.367 0-2.68-.53-3.606-1.455L13.185 23.706a5.104 5.104 0 0 1 0-7.21c1.31-1.315 3.463-1.81 5.246-1.22a41.08 41.08 0 0 1 2.983-3.324 41.4 41.4 0 0 1 5.754-4.804 5.07 5.07 0 0 1 1.052-5.684C29.142.54 30.457.008 31.824.008c1.365 0 2.68.53 3.603 1.452l11.194 11.196a5.062 5.062 0 0 1 1.492 3.605 5.07 5.07 0 0 1-1.492 3.61c-1.416 1.415-3.822 1.847-5.682 1.04-.155.228-.313.453-.475.678L60.84 40.235a1 1 0 0 1 .324.694A6.19 6.19 0 0 1 62 44.05a6.18 6.18 0 0 1-1.824 4.404zm-.93-6.814a1.015 1.015 0 0 1-.133-.275L38.45 22.455a1 1 0 0 1-.12-1.343 35.05 35.05 0 0 0 1.453-2.07 1.002 1.002 0 0 1 1.426-.265c1.13.82 3.005.67 3.997-.322a3.084 3.084 0 0 0 .906-2.194c0-.827-.322-1.605-.906-2.19L34.015 2.876c-1.105-1.1-3.28-1.1-4.383.003a3.118 3.118 0 0 0-.323 4 1 1 0 0 1 .17.77.997.997 0 0 1-.44.655c-2.128 1.376-4.277 3.126-6.215 5.063a39.57 39.57 0 0 0-3.292 3.74.997.997 0 0 1-1.267.267c-1.13-.612-2.76-.374-3.667.537a3.1 3.1 0 0 0 0 4.382l11.19 11.194c1.106 1.106 3.28 1.105 4.383 0 .587-.584.91-1.362.91-2.19 0-.52-.13-1.03-.374-1.48a1 1 0 0 1 .264-1.265 39.603 39.603 0 0 0 2.004-1.67 1 1 0 0 1 1.402.07L53.1 47.388c.083.03.162.07.236.123 1.624 1.15 4.004.95 5.424-.47A4.197 4.197 0 0 0 60 44.05c0-.87-.26-1.702-.753-2.41zm-29.44 11.322a7.188 7.188 0 0 1 6.173 7.11v1.16a1 1 0 0 1-1 1H1a1 1 0 0 1-1-1v-1.16a7.19 7.19 0 0 1 6.175-7.11 5.493 5.493 0 0 1 4.733-2.718h14.16a5.498 5.498 0 0 1 4.736 2.718zM7.727 54.31a1 1 0 0 1-.855.59A5.187 5.187 0 0 0 2 60.073v.158h31.978v-.156c0-2.74-2.14-5.01-4.873-5.173a.996.996 0 0 1-.854-.59 3.493 3.493 0 0 0-3.18-2.065H10.908c-1.37 0-2.62.81-3.18 2.066z" class="oocls-1"/></svg>