<?xml version="1.0" encoding="utf-8"?><svg xmlns="http://www.w3.org/2000/svg" preserveAspectRatio="xMidYMid" width="72" height="66.58" viewBox="-30.29 -30.29 125.52 114.53"><defs><style>.qqcls-1{fill:#fff;fill-rule:evenodd}</style></defs><path d="M63.943 53.94H.995a1 1 0 0 1 0-2H2.48v-9.947a1 1 0 0 1 1-1h8.962a1 1 0 0 1 1 1v9.947h6.044V25.99a1 1 0 0 1 1-1h7.96a1 1 0 0 1 1 1v25.95h6.045V33.95a1 1 0 0 1 1-1.002h8.963a1 1 0 0 1 1 1V51.94h6.044V14.958a1 1 0 0 1 1-1h7.96a1 1 0 0 1 1 1V51.94h1.487a1 1 0 0 1 0 2zm-52.5-10.947H4.48v8.947h6.962v-8.947zM27.446 26.99h-5.96v24.95h5.96V26.99zm17.005 7.958h-6.96V51.94h6.96V34.948zm16.006-18.99h-5.96V51.94h5.96V15.958zM57.1 7.414c-.674 0-1.314-.19-1.88-.523-.027.05-.04.104-.076.15L44.196 20.722a.967.967 0 0 1-.3.237 3.697 3.697 0 0 1-.575 4.517 3.712 3.712 0 0 1-2.64 1.095 3.736 3.736 0 0 1-3.666-4.452l-9.996-4.998c-.042.047-.072.1-.117.144a3.714 3.714 0 0 1-2.64 1.096 3.7 3.7 0 0 1-1.88-.523c-.043.08-.083.16-.15.227L11.28 29.015c-.067.068-.15.108-.228.152a3.71 3.71 0 0 1 .522 1.878 3.71 3.71 0 0 1-1.095 2.642 3.712 3.712 0 0 1-2.644 1.095c-.998 0-1.936-.39-2.642-1.095a3.74 3.74 0 0 1 0-5.284c1.18-1.182 3.093-1.36 4.513-.563.045-.084.088-.168.16-.24l10.946-10.946c.068-.068.15-.108.23-.152-.834-1.43-.653-3.295.572-4.52 1.41-1.413 3.875-1.412 5.285 0 .91.91 1.252 2.18 1.024 3.357l9.995 4.996c.04-.046.07-.1.116-.144 1.182-1.183 3.096-1.36 4.517-.562.028-.05.042-.108.08-.156L53.585 5.79a.97.97 0 0 1 .295-.25c-.827-1.428-.643-3.284.578-4.505 1.41-1.413 3.876-1.412 5.285 0a3.74 3.74 0 0 1 0 5.284A3.712 3.712 0 0 1 57.1 7.412zM9.065 29.817a1.722 1.722 0 0 0-1.227-.508c-.465 0-.9.18-1.23.506a1.74 1.74 0 0 0 0 2.457 1.73 1.73 0 0 0 1.23.508c.463 0 .9-.18 1.227-.51.328-.326.51-.762.51-1.226 0-.464-.182-.9-.51-1.228zm16.42-16.42a1.723 1.723 0 0 0-1.226-.51 1.74 1.74 0 0 0-1.23 2.965c.655.657 1.8.657 2.455 0a1.74 1.74 0 0 0 0-2.456zm16.422 8.21a1.72 1.72 0 0 0-1.227-.51 1.737 1.737 0 0 0-1.23 2.965c.658.658 1.8.657 2.457 0 .328-.327.508-.764.508-1.227 0-.464-.18-.9-.508-1.228zM58.327 2.45a1.72 1.72 0 0 0-1.226-.51 1.74 1.74 0 0 0-1.23 2.965c.66.656 1.8.657 2.46 0a1.74 1.74 0 0 0 0-2.456z" class="qqcls-1"/></svg>