<?xml version="1.0" encoding="utf-8"?><svg xmlns="http://www.w3.org/2000/svg" preserveAspectRatio="xMidYMid" width="72" height="66.82" viewBox="-29.37 -29.37 120.75 110.72"><defs><style>.nncls-1{fill:#fff;fill-rule:evenodd}</style></defs><path d="M59.012 26h-.015v24.98a1 1 0 0 1-1 1H3.985a1 1 0 0 1-1-1V25.997A3 3 0 0 1 .012 23V10.025c0-1.654 1.346-3 3-3h16.98c.424-3.66 3.244-7.028 6.63-7.028H35.4c3.418 0 6.24 3.343 6.64 7.028h16.97c1.654 0 3 1.346 3 3V23c0 1.654-1.346 3-3 3zM4.985 49.98h52.012V26h-6.99v2.972c0 1.654-1.347 3-3 3H42.98c-1.655 0-3-1.346-3-3V26H22.01v4.003c0 1.103-.9 2-2 2h-6.026c-1.103 0-2-.897-2-2V26h-7v23.98zM41.982 24h6.024v-3.016a1 1 0 0 0-1-1h-4.024a1 1 0 0 0-1 1V24zm0 2v2.972a1 1 0 0 0 1 1h4.024a1 1 0 0 0 1-1V26h-6.024zm-27.996 0v4.003h6.026V26h-6.026zm6.025-2v-4.016h-6.023V24h6.025zM35.4 1.996h-8.777c-2.257 0-4.204 2.453-4.603 5.028h17.994c-.367-2.606-2.29-5.028-4.614-5.028zm24.612 8.028a1 1 0 0 0-1-1h-56a1 1 0 0 0-1 1V23a1 1 0 0 0 1 1h8.973v-4.016c0-1.103.367-2 1.47-2h6.556c1.104 0 2 .897 2 2V24h17.973v-3.016c0-1.654 1.158-3 2.812-3h4.212c1.654 0 3 1.346 3 3V24h9.006a1 1 0 0 0 1-1V10.025z" class="nncls-1"/></svg>