<?xml version="1.0" encoding="utf-8"?><svg xmlns="http://www.w3.org/2000/svg" preserveAspectRatio="xMidYMid" width="72" height="72" viewBox="-27.5 -27.5 111 111"><defs><style>.rrcls-1{fill:#fff;fill-rule:evenodd}</style></defs><path d="M55 27.493H34.784a1 1 0 0 1-1-1c0-2.545-1.736-4.282-4.28-4.282a1 1 0 0 1-1-1V1a1 1 0 0 1 1-1C44.3 0 56 11.7 56 26.493a1 1 0 0 1-1 1zM30.505 2.02v18.267c2.847.433 4.77 2.357 5.204 5.206h18.27C53.463 12.597 43.4 2.533 30.504 2.02zm.74 28.5h16.71a1 1 0 0 1 1 1c0 6.72-2.725 12.815-7.124 17.243-.017.02-.024.048-.045.068-.02.02-.047.03-.068.047C37.29 53.277 31.197 56 24.477 56 10.98 56-.002 45.02-.002 31.52 0 18.025 10.98 7.044 24.48 7.044a1 1 0 0 1 1 1v16.702a6.856 6.856 0 0 1 5.767 5.776zm15.66 2H31.263a6.88 6.88 0 0 1-1.29 3.082l11.065 11.066a22.37 22.37 0 0 0 5.87-14.147zM23.477 9.095C11.55 9.625 2 19.465 2 31.52 2 43.917 12.08 54 24.476 54c5.838 0 11.146-2.256 15.146-5.918L28.557 37.016c-1.144.852-2.547 1.374-4.08 1.374a6.876 6.876 0 0 1-6.87-6.87c0-3.444 2.558-6.278 5.87-6.767V9.093zm1 17.558a4.874 4.874 0 0 0-4.868 4.87 4.874 4.874 0 0 0 4.87 4.868 4.874 4.874 0 0 0 4.867-4.87 4.874 4.874 0 0 0-4.87-4.867z" class="rrcls-1"/></svg>