<?xml version="1.0" encoding="utf-8"?><svg xmlns="http://www.w3.org/2000/svg" preserveAspectRatio="xMidYMid" width="69.82" height="72" viewBox="-27.44 -27.44 106.88 110.69"><defs><style>.ttcls-1{fill:#fff;fill-rule:evenodd}</style></defs><path d="M51 29.794h-4v25a1 1 0 0 1-1 1H6a1 1 0 0 1-1-1v-25H1a1 1 0 0 1-1-1v-15a1 1 0 0 1 1-1h9.192C7.865 11.204 6.06 8.724 6.06 5.57c0-2.967 1.416-4.3 2.604-4.9 1.35-.677 2.87-.675 3.842-.676 1.818 0 7.86.897 13.783 11.687C32.204.92 38.232-.004 40.006-.004c.966-.01 2.536 0 3.887.677 1.19.6 2.605 1.933 2.605 4.9 0 3.155-1.806 5.633-4.134 7.224H51a1 1 0 0 1 1 1v15a1 1 0 0 1-1 1zm-21 24h15v-24H30v24zm-6-25.278c.027.09.056.18.056.28 0 .097-.03.187-.056.277v24.72h4V14.796h-4v13.72zM7 53.794h15v-24H7v24zm-5-39v13h20v-13H2zm10.55-12.8c-.847.007-2.062 0-2.988.465-.645.322-1.502.997-1.502 3.11 0 4.742 5.307 7.223 8.152 7.223h6.643c.05-.007.094-.03.145-.03.05 0 .096.023.145.03h1.472c-5.57-10.234-10.995-10.8-12.066-10.8zM44.5 5.57c0-2.112-.857-2.787-1.502-3.11-.927-.466-2.143-.47-2.945-.466-1.114 0-6.542.566-12.11 10.8h.912c.05-.007.094-.03.145-.03.05 0 .096.023.145.03h7.203c2.845 0 8.152-2.48 8.152-7.224zm5.5 9.225H30v13h20v-13z" class="ttcls-1"/></svg>