<?xml version="1.0" encoding="utf-8"?><svg xmlns="http://www.w3.org/2000/svg" preserveAspectRatio="xMidYMid" width="72" height="72" viewBox="-26.87 -26.87 107.75 107.75"><defs><style>.sscls-1{fill:#fff;fill-rule:evenodd}</style></defs><path d="M45.998 45.02h-7.002a1 1 0 0 1-1-1v-7.034a1 1 0 0 1 1-1h7.002a1 1 0 0 1 1 1v7.033a1 1 0 0 1-1 1zm-1-7.034h-5v5.033h5v-5.035zm1.926-6.888a.993.993 0 0 1-.707.293.993.993 0 0 1-.707-.29l-2.685-2.685L40.14 31.1a.993.993 0 0 1-.705.292 1 1 0 0 1-.707-1.707L41.41 27l-2.683-2.685A1 1 0 0 1 40.14 22.9l2.685 2.686L45.51 22.9a1 1 0 0 1 1.414 1.415L44.24 27l2.684 2.684a1 1 0 0 1 0 1.414zM53 54H1a1 1 0 0 1-1-1V28.13a1 1 0 0 1 2 0V52h50V9.01h-8.992v3.293c0 1.798-1.776 3.26-3.574 3.26-1.798 0-3.448-1.462-3.448-3.26V9.01h-3.334a1 1 0 0 1 0-2h3.334V3.26c0-1.798 1.65-3.26 3.448-3.26s3.574 1.462 3.574 3.26v3.75H53a1 1 0 0 1 1 1V53a1 1 0 0 1-1 1zM41.008 3.26c0-.695-.88-1.26-1.574-1.26-.695 0-1.448.565-1.448 1.26v9.043c0 .695.753 1.26 1.448 1.26s1.574-.565 1.574-1.26V3.26zm-9.91 41.404a1 1 0 0 1-1.414 0L27 41.98l-2.685 2.684A1 1 0 0 1 22.9 43.25l2.684-2.684L22.9 37.88a1 1 0 0 1 1.414-1.415L27 39.152l2.684-2.684a1 1 0 0 1 1.414 1.415l-2.684 2.685 2.684 2.684a1 1 0 0 1 0 1.414zm0-13.566a.996.996 0 0 1-1.414 0L27 28.414l-2.685 2.684a.996.996 0 0 1-1.414 0 1 1 0 0 1 0-1.413l6.785-6.783a1 1 0 0 1 1.414 1.415L28.412 27l2.685 2.684a1 1 0 0 1 0 1.414zM7.075 36.466a1 1 0 0 1 1.414 0l2.683 2.685 2.684-2.683a1 1 0 0 1 1.414 1.415l-2.683 2.685 2.684 2.684a1 1 0 1 1-1.413 1.415l-2.684-2.685-2.685 2.684a.998.998 0 0 1-1.414-1.415l2.683-2.685-2.685-2.684a1 1 0 0 1 0-1.413zm7.49-7.336C6.535 29.13 0 22.597 0 14.565 0 6.535 6.534 0 14.565 0c8.03 0 14.565 6.534 14.565 14.565 0 8.032-6.534 14.565-14.565 14.565zm0-27.13C7.635 2 2 7.637 2 14.565c0 6.93 5.636 12.565 12.565 12.565 6.928 0 12.565-5.636 12.565-12.565C27.13 7.637 21.493 2 14.565 2zm.417 14.064a.574.574 0 0 1-.304-.105c-.04.003-.073.02-.113.02H5.52a1 1 0 0 1 0-2h8.462V5.52a1 1 0 0 1 2 0v9.044c0 .552-.448 1.5-1 1.5z" class="sscls-1"/></svg>