<svg xmlns="http://www.w3.org/2000/svg" xmlns:xlink="http://www.w3.org/1999/xlink" preserveAspectRatio="xMidYMid" width="54" height="54" viewBox="0 0 54 54">
  <defs>
    <style>
      .cls-1 {
        fill: #fff;
        fill-rule: evenodd;
      }
    </style>
  </defs>
  <path d="M45.998,45.019 L38.996,45.019 C38.444,45.019 37.996,44.571 37.996,44.019 L37.996,36.986 C37.996,36.434 38.444,35.986 38.996,35.986 L45.998,35.986 C46.550,35.986 46.998,36.434 46.998,36.986 L46.998,44.019 C46.998,44.571 46.550,45.019 45.998,45.019 ZM44.998,37.986 L39.997,37.986 L39.997,43.019 L44.998,43.019 L44.998,37.986 ZM46.924,31.098 C46.729,31.294 46.473,31.391 46.217,31.391 C45.961,31.391 45.705,31.294 45.510,31.098 L42.825,28.414 L40.141,31.098 C39.946,31.294 39.690,31.391 39.434,31.391 C39.178,31.391 38.922,31.294 38.727,31.098 C38.336,30.708 38.336,30.075 38.727,29.684 L41.411,27.000 L38.727,24.315 C38.336,23.925 38.336,23.292 38.727,22.901 C39.118,22.511 39.750,22.511 40.141,22.901 L42.825,25.586 L45.510,22.901 C45.900,22.511 46.533,22.511 46.924,22.901 C47.314,23.292 47.314,23.925 46.924,24.315 L44.239,27.000 L46.924,29.684 C47.314,30.075 47.314,30.708 46.924,31.098 ZM53.000,54.000 L1.000,54.000 C0.447,54.000 -0.000,53.552 -0.000,53.000 L-0.000,28.130 C-0.000,27.578 0.447,27.130 1.000,27.130 C1.552,27.130 1.999,27.578 1.999,28.130 L1.999,52.000 L51.999,52.000 L52.000,9.011 L43.008,9.011 L43.008,12.303 C43.008,14.101 41.232,15.564 39.434,15.564 C37.636,15.564 35.986,14.101 35.986,12.303 L35.986,9.011 L32.652,9.011 C32.100,9.011 31.652,8.563 31.652,8.011 C31.652,7.459 32.100,7.011 32.652,7.011 L35.986,7.011 L35.986,3.260 C35.986,1.462 37.636,-0.000 39.434,-0.000 C41.232,-0.000 43.008,1.462 43.008,3.260 L43.008,7.011 L53.000,7.011 C53.553,7.011 54.000,7.459 54.000,8.011 L54.000,53.000 C54.000,53.552 53.553,54.000 53.000,54.000 ZM41.008,3.260 C41.008,2.565 40.129,2.000 39.434,2.000 C38.739,2.000 37.986,2.565 37.986,3.260 L37.986,12.303 C37.986,12.998 38.739,13.564 39.434,13.564 C40.129,13.564 41.008,12.998 41.008,12.303 L41.008,3.260 ZM31.098,44.664 C30.902,44.859 30.646,44.956 30.391,44.956 C30.135,44.956 29.879,44.859 29.684,44.664 L26.999,41.979 L24.315,44.664 C24.120,44.859 23.864,44.956 23.608,44.956 C23.353,44.956 23.097,44.859 22.901,44.664 C22.511,44.273 22.511,43.640 22.901,43.249 L25.585,40.565 L22.901,37.881 C22.511,37.490 22.511,36.857 22.901,36.466 C23.292,36.076 23.925,36.076 24.315,36.466 L26.999,39.151 L29.684,36.466 C30.074,36.076 30.707,36.076 31.098,36.466 C31.488,36.857 31.488,37.490 31.098,37.881 L28.414,40.565 L31.098,43.249 C31.488,43.640 31.488,44.273 31.098,44.664 ZM31.098,31.098 C30.902,31.294 30.646,31.391 30.391,31.391 C30.135,31.391 29.879,31.294 29.684,31.098 L26.999,28.414 L24.315,31.098 C24.120,31.294 23.864,31.391 23.608,31.391 C23.353,31.391 23.097,31.294 22.901,31.098 C22.511,30.708 22.511,30.075 22.901,29.684 L29.684,22.901 C30.074,22.511 30.707,22.511 31.098,22.901 C31.488,23.291 31.488,23.925 31.098,24.315 L28.413,27.000 L31.098,29.684 C31.488,30.075 31.488,30.708 31.098,31.098 ZM7.075,36.466 C7.466,36.076 8.099,36.076 8.489,36.466 L11.174,39.151 L13.858,36.466 C14.248,36.076 14.881,36.076 15.272,36.466 C15.663,36.857 15.663,37.490 15.272,37.881 L12.588,40.565 L15.272,43.249 C15.663,43.640 15.663,44.273 15.272,44.664 C15.077,44.859 14.821,44.956 14.565,44.956 C14.309,44.956 14.053,44.859 13.858,44.664 L11.174,41.979 L8.489,44.664 C8.294,44.859 8.038,44.956 7.782,44.956 C7.526,44.956 7.271,44.859 7.075,44.664 C6.684,44.273 6.684,43.640 7.075,43.249 L9.759,40.565 L7.075,37.881 C6.684,37.490 6.684,36.857 7.075,36.466 ZM14.565,29.130 C6.534,29.130 -0.000,22.597 -0.000,14.565 C-0.000,6.534 6.534,-0.000 14.565,-0.000 C22.596,-0.000 29.130,6.534 29.130,14.565 C29.130,22.597 22.596,29.130 14.565,29.130 ZM14.565,2.000 C7.636,2.000 1.999,7.637 1.999,14.565 C1.999,21.494 7.636,27.130 14.565,27.130 C21.493,27.130 27.130,21.494 27.130,14.565 C27.130,7.637 21.493,2.000 14.565,2.000 ZM14.982,16.064 C14.875,16.064 14.774,16.020 14.678,15.959 C14.639,15.964 14.605,15.982 14.565,15.982 L5.521,15.982 C4.969,15.982 4.521,15.534 4.521,14.982 C4.521,14.430 4.969,13.982 5.521,13.982 L13.982,13.982 L13.982,5.520 C13.982,4.968 14.429,4.521 14.982,4.521 C15.534,4.521 15.982,4.968 15.982,5.520 L15.982,14.564 C15.982,15.116 15.534,16.064 14.982,16.064 Z" class="cls-1"/>
</svg>
