<svg xmlns="http://www.w3.org/2000/svg" xmlns:xlink="http://www.w3.org/1999/xlink" preserveAspectRatio="xMidYMid" width="60" height="57" viewBox="0 0 60 57">
  <defs>
    <style>
      .cls-1 {
        fill: #fff;
        fill-rule: evenodd;
      }
    </style>
  </defs>
  <path d="M57.000,57.000 L47.000,57.000 C45.346,57.000 44.000,55.654 44.000,54.000 L44.000,44.000 C44.000,42.346 45.346,41.000 47.000,41.000 L57.000,41.000 C58.654,41.000 60.000,42.346 60.000,44.000 L60.000,54.000 C60.000,55.654 58.654,57.000 57.000,57.000 ZM58.000,44.000 C58.000,43.448 57.552,43.000 57.000,43.000 L47.000,43.000 C46.448,43.000 46.000,43.448 46.000,44.000 L46.000,54.000 C46.000,54.551 46.448,55.000 47.000,55.000 L57.000,55.000 C57.552,55.000 58.000,54.551 58.000,54.000 L58.000,44.000 ZM52.053,37.614 C51.500,37.614 51.053,37.166 51.053,36.614 L51.053,29.000 L31.000,29.000 L31.000,36.614 C31.000,37.166 30.553,37.614 30.000,37.614 C29.447,37.614 29.000,37.166 29.000,36.614 L29.000,29.000 L8.947,29.000 L8.947,36.614 C8.947,37.166 8.500,37.614 7.947,37.614 C7.394,37.614 7.000,37.166 7.000,36.614 L7.000,28.454 C7.000,28.418 7.015,28.387 7.018,28.352 C6.976,28.242 6.947,28.125 6.947,28.000 C6.947,27.448 7.394,27.000 7.947,27.000 L29.000,27.000 L29.000,20.515 C29.000,19.963 29.447,19.515 30.000,19.515 C30.553,19.515 31.000,19.963 31.000,20.515 L31.000,27.000 L51.835,27.000 C52.300,27.000 52.638,27.324 52.738,27.754 C52.902,27.934 53.000,28.181 53.000,28.454 L53.000,36.614 C53.000,37.166 52.605,37.614 52.053,37.614 ZM35.000,16.000 L25.000,16.000 C23.346,16.000 22.000,14.654 22.000,13.000 L22.000,3.000 C22.000,1.346 23.346,-0.000 25.000,-0.000 L35.000,-0.000 C36.654,-0.000 38.000,1.346 38.000,3.000 L38.000,13.000 C38.000,14.654 36.654,16.000 35.000,16.000 ZM36.000,3.000 C36.000,2.448 35.552,2.000 35.000,2.000 L25.000,2.000 C24.448,2.000 24.000,2.448 24.000,3.000 L24.000,13.000 C24.000,13.551 24.448,14.000 25.000,14.000 L35.000,14.000 C35.552,14.000 36.000,13.551 36.000,13.000 L36.000,3.000 ZM16.000,44.000 L16.000,54.000 C16.000,55.654 14.654,57.000 13.000,57.000 L3.000,57.000 C1.346,57.000 -0.000,55.654 -0.000,54.000 L-0.000,44.000 C-0.000,42.346 1.346,41.000 3.000,41.000 L13.000,41.000 C14.654,41.000 16.000,42.346 16.000,44.000 ZM2.000,44.000 L2.000,54.000 C2.000,54.551 2.448,55.000 3.000,55.000 L13.000,55.000 C13.552,55.000 14.000,54.551 14.000,54.000 L14.000,44.000 C14.000,43.448 13.552,43.000 13.000,43.000 L3.000,43.000 C2.448,43.000 2.000,43.448 2.000,44.000 ZM25.000,41.000 L35.000,41.000 C36.654,41.000 38.000,42.346 38.000,44.000 L38.000,54.000 C38.000,55.654 36.654,57.000 35.000,57.000 L25.000,57.000 C23.346,57.000 22.000,55.654 22.000,54.000 L22.000,44.000 C22.000,42.346 23.346,41.000 25.000,41.000 ZM24.000,54.000 C24.000,54.551 24.448,55.000 25.000,55.000 L35.000,55.000 C35.552,55.000 36.000,54.551 36.000,54.000 L36.000,44.000 C36.000,43.448 35.552,43.000 35.000,43.000 L25.000,43.000 C24.448,43.000 24.000,43.448 24.000,44.000 L24.000,54.000 Z" class="cls-1"/>
</svg>
