<svg xmlns="http://www.w3.org/2000/svg" xmlns:xlink="http://www.w3.org/1999/xlink" preserveAspectRatio="xMidYMid" width="62" height="62.25" viewBox="0 0 62 62.25">
  <defs>
    <style>
      .cls-1 {
        fill: #fff;
        fill-rule: evenodd;
      }
    </style>
  </defs>
  <path d="M60.176,48.454 C59.001,49.630 57.437,50.278 55.771,50.278 C54.627,50.278 53.525,49.973 52.562,49.389 C52.339,49.362 52.125,49.260 51.959,49.086 L51.153,48.238 L33.565,29.019 C33.315,29.233 33.063,29.442 32.811,29.646 C32.990,30.175 33.083,30.733 33.083,31.295 C33.083,32.658 32.553,33.939 31.589,34.902 C30.666,35.825 29.353,36.355 27.984,36.355 C26.617,36.355 25.303,35.825 24.378,34.900 L13.185,23.706 C11.197,21.716 11.197,18.482 13.185,16.496 C14.496,15.181 16.648,14.685 18.431,15.275 C19.359,14.120 20.359,13.004 21.412,11.952 C23.209,10.155 25.184,8.509 27.166,7.148 C26.310,5.251 26.689,2.992 28.218,1.464 C29.143,0.539 30.457,0.008 31.825,0.008 C33.190,0.008 34.504,0.538 35.428,1.460 L46.622,12.656 C47.584,13.617 48.114,14.898 48.114,16.261 C48.114,17.626 47.584,18.906 46.622,19.869 C45.206,21.284 42.800,21.716 40.940,20.911 C40.785,21.137 40.627,21.362 40.465,21.587 L60.840,40.235 C61.036,40.415 61.153,40.665 61.164,40.929 C61.713,41.875 62.000,42.943 62.000,44.049 C62.000,45.715 61.353,47.279 60.176,48.454 ZM59.247,41.640 C59.187,41.553 59.143,41.461 59.113,41.365 L38.451,22.454 C38.069,22.105 38.017,21.524 38.329,21.112 C38.842,20.435 39.331,19.739 39.783,19.043 C39.933,18.812 40.169,18.654 40.439,18.603 C40.708,18.555 40.987,18.616 41.209,18.777 C42.341,19.596 44.216,19.448 45.208,18.455 C45.792,17.870 46.114,17.091 46.114,16.261 C46.114,15.432 45.792,14.654 45.208,14.070 L34.015,2.875 C32.910,1.774 30.736,1.775 29.632,2.878 C28.568,3.941 28.430,5.660 29.309,6.877 C29.470,7.099 29.531,7.378 29.480,7.647 C29.431,7.917 29.271,8.153 29.041,8.303 C26.913,9.679 24.764,11.429 22.826,13.366 C21.650,14.543 20.543,15.801 19.534,17.105 C19.235,17.493 18.698,17.608 18.267,17.373 C17.138,16.761 15.507,16.999 14.600,17.910 C13.391,19.117 13.392,21.083 14.600,22.292 L25.792,33.486 C26.897,34.592 29.072,34.591 30.174,33.487 C30.761,32.902 31.083,32.124 31.083,31.295 C31.083,30.777 30.954,30.266 30.710,29.816 C30.477,29.387 30.589,28.850 30.975,28.551 C31.647,28.028 32.321,27.465 32.979,26.879 C33.386,26.515 34.014,26.546 34.382,26.950 L53.102,47.386 C53.185,47.416 53.264,47.457 53.338,47.509 C54.962,48.659 57.342,48.461 58.762,47.040 C59.561,46.242 60.000,45.180 60.000,44.049 C60.000,43.181 59.739,42.348 59.247,41.640 ZM29.804,52.962 C33.310,53.455 35.978,56.472 35.978,60.073 L35.978,61.231 C35.978,61.784 35.530,62.231 34.978,62.231 L1.000,62.231 C0.447,62.231 -0.000,61.784 -0.000,61.231 L-0.000,60.073 C-0.000,56.473 2.669,53.455 6.175,52.962 C7.151,51.294 8.950,50.244 10.908,50.244 L25.069,50.244 C27.027,50.244 28.827,51.294 29.804,52.962 ZM7.728,54.310 C7.575,54.651 7.246,54.879 6.873,54.900 C4.141,55.062 2.000,57.334 2.000,60.073 L2.000,60.231 L33.978,60.231 L33.978,60.073 C33.978,57.334 31.837,55.062 29.105,54.900 C28.732,54.879 28.403,54.651 28.251,54.310 C27.689,53.055 26.440,52.244 25.069,52.244 L10.908,52.244 C9.537,52.244 8.289,53.055 7.728,54.310 Z" class="cls-1"/>
</svg>
