<svg xmlns="http://www.w3.org/2000/svg" xmlns:xlink="http://www.w3.org/1999/xlink" preserveAspectRatio="xMidYMid" width="62" height="64.09" viewBox="0 0 62 64.09">
  <defs>
    <style>
      .cls-1 {
        fill: #fff;
        fill-rule: evenodd;
      }
    </style>
  </defs>
  <path d="M54.817,51.346 C51.696,51.346 49.061,49.334 48.072,46.548 C44.423,54.481 38.138,60.267 30.713,62.078 L48.406,62.078 C48.958,62.078 49.406,62.525 49.406,63.078 C49.406,63.630 48.958,64.078 48.406,64.078 L2.375,64.078 C1.823,64.078 1.375,63.630 1.375,63.078 C1.375,62.525 1.823,62.078 2.375,62.078 L20.752,62.078 C8.939,59.196 0.000,46.262 0.000,30.611 C0.000,30.481 0.003,30.351 0.007,30.222 L0.012,30.020 C0.021,29.474 0.466,29.038 1.012,29.038 L50.453,29.038 C50.996,29.038 51.440,29.471 51.452,30.014 L51.457,30.192 C51.461,30.331 51.465,30.470 51.465,30.611 C51.465,33.263 51.189,35.829 50.705,38.289 C51.872,37.470 53.286,36.980 54.817,36.980 C58.778,36.980 62.000,40.202 62.000,44.163 C62.000,48.124 58.778,51.346 54.817,51.346 ZM2.002,31.038 C2.182,47.526 12.758,60.682 25.732,60.682 C38.707,60.682 49.283,47.526 49.463,31.038 L2.002,31.038 ZM54.817,38.980 C51.958,38.980 49.633,41.305 49.633,44.163 C49.633,47.021 51.958,49.346 54.817,49.346 C57.675,49.346 60.000,47.021 60.000,44.163 C60.000,41.305 57.675,38.980 54.817,38.980 ZM34.007,12.510 C33.813,12.965 33.572,13.530 33.207,14.619 C32.557,16.560 33.734,17.512 33.871,17.615 C34.308,17.942 34.407,18.565 34.085,19.008 C33.889,19.277 33.585,19.423 33.276,19.423 C33.079,19.423 32.880,19.363 32.706,19.240 C31.823,18.617 30.395,16.716 31.311,13.984 C31.702,12.819 31.971,12.187 32.168,11.725 C32.436,11.096 32.571,10.781 32.791,9.604 C33.090,8.018 31.394,6.411 31.377,6.394 C30.970,6.021 30.943,5.388 31.316,4.982 C31.689,4.576 32.321,4.547 32.729,4.922 C32.833,5.016 35.263,7.283 34.757,9.974 C34.497,11.364 34.302,11.820 34.007,12.510 ZM25.972,17.863 C26.077,18.334 26.568,18.709 26.748,18.814 C27.223,19.090 27.391,19.698 27.120,20.175 C26.935,20.500 26.599,20.683 26.251,20.683 C26.087,20.683 25.922,20.642 25.769,20.557 C25.623,20.476 24.336,19.724 24.020,18.297 C23.667,16.708 24.629,10.347 25.390,6.548 C26.137,2.808 25.230,1.751 25.221,1.741 C24.797,1.387 24.764,0.780 25.118,0.355 C25.471,-0.071 26.126,-0.103 26.551,0.250 C26.857,0.505 28.333,2.025 27.351,6.940 C26.352,11.929 25.780,16.995 25.972,17.863 ZM19.633,12.510 C19.439,12.965 19.198,13.530 18.833,14.619 C18.183,16.560 19.361,17.512 19.498,17.615 C19.935,17.942 20.034,18.565 19.712,19.008 C19.516,19.277 19.212,19.423 18.903,19.423 C18.706,19.423 18.507,19.363 18.332,19.240 C17.450,18.617 16.022,16.716 16.937,13.984 C17.328,12.819 17.597,12.187 17.794,11.725 C18.062,11.096 18.197,10.781 18.417,9.604 C18.716,8.018 17.020,6.411 17.003,6.394 C16.596,6.021 16.569,5.388 16.942,4.982 C17.316,4.576 17.947,4.547 18.355,4.922 C18.459,5.016 20.889,7.283 20.383,9.974 C20.123,11.364 19.928,11.820 19.633,12.510 Z" class="cls-1"/>
</svg>
