<svg xmlns="http://www.w3.org/2000/svg" xmlns:xlink="http://www.w3.org/1999/xlink" preserveAspectRatio="xMidYMid" width="62" height="51.97" viewBox="0 0 62 51.97">
  <defs>
    <style>
      .cls-1 {
        fill: #fff;
        fill-rule: evenodd;
      }
    </style>
  </defs>
  <path d="M59.012,26.000 L58.997,26.000 L58.997,50.980 C58.997,51.532 58.550,51.980 57.997,51.980 L3.985,51.980 C3.432,51.980 2.985,51.532 2.985,50.980 L2.985,25.997 C1.343,25.982 0.012,24.645 0.012,23.000 L0.012,10.025 C0.012,8.371 1.358,7.025 3.012,7.025 L19.992,7.025 C20.416,3.365 23.236,-0.003 26.623,-0.003 L35.400,-0.003 C38.818,-0.003 41.641,3.340 42.039,7.025 L59.012,7.025 C60.666,7.025 62.012,8.371 62.012,10.025 L62.012,23.000 C62.012,24.654 60.666,26.000 59.012,26.000 ZM4.985,49.980 L56.997,49.980 L56.997,26.000 L50.006,26.000 L50.006,28.972 C50.006,30.626 48.660,31.972 47.006,31.972 L42.982,31.972 C41.327,31.972 39.982,30.626 39.982,28.972 L39.982,26.000 L22.011,26.000 L22.011,30.003 C22.011,31.106 21.113,32.003 20.011,32.003 L13.986,32.003 C12.883,32.003 11.985,31.106 11.985,30.003 L11.985,26.000 L4.985,26.000 L4.985,49.980 ZM41.982,23.999 L48.006,23.999 L48.006,20.984 C48.006,20.433 47.558,19.984 47.006,19.984 L42.982,19.984 C42.430,19.984 41.982,20.433 41.982,20.984 L41.982,23.999 ZM41.982,26.000 L41.982,28.972 C41.982,29.523 42.430,29.972 42.982,29.972 L47.006,29.972 C47.558,29.972 48.006,29.523 48.006,28.972 L48.006,26.000 L41.982,26.000 ZM13.986,26.000 L13.986,30.003 L20.012,30.003 L20.011,26.000 L13.986,26.000 ZM20.011,23.999 L20.011,19.984 L13.986,19.984 L13.986,23.999 L20.011,23.999 ZM35.400,1.997 L26.623,1.997 C24.366,1.997 22.419,4.450 22.020,7.025 L40.014,7.025 C39.647,4.419 37.725,1.997 35.400,1.997 ZM60.012,10.025 C60.012,9.474 59.564,9.025 59.012,9.025 L3.012,9.025 C2.460,9.025 2.012,9.474 2.012,10.025 L2.012,23.000 C2.012,23.551 2.460,24.000 3.012,24.000 L3.980,24.000 C3.982,24.000 3.983,23.999 3.985,23.999 L11.985,23.999 L11.985,19.984 C11.985,18.881 12.352,17.984 13.454,17.984 L20.011,17.984 C21.113,17.984 22.011,18.881 22.011,19.984 L22.011,23.999 L39.982,23.999 L39.982,20.984 C39.982,19.330 41.140,17.984 42.794,17.984 L47.006,17.984 C48.660,17.984 50.006,19.330 50.006,20.984 L50.006,23.999 L57.997,23.999 C57.999,23.999 58.000,24.000 58.002,24.000 L59.012,24.000 C59.564,24.000 60.012,23.551 60.012,23.000 L60.012,10.025 Z" class="cls-1"/>
</svg>
