<svg xmlns="http://www.w3.org/2000/svg" xmlns:xlink="http://www.w3.org/1999/xlink" preserveAspectRatio="xMidYMid" width="64.938" height="53.94" viewBox="0 0 64.938 53.94">
  <defs>
    <style>
      .cls-1 {
        fill: #fff;
        fill-rule: evenodd;
      }
    </style>
  </defs>
  <path d="M63.943,53.940 L61.457,53.940 L53.496,53.940 L45.452,53.940 L36.491,53.940 L28.447,53.940 L20.486,53.940 L12.442,53.940 L3.481,53.940 L0.995,53.940 C0.442,53.940 -0.005,53.493 -0.005,52.940 C-0.005,52.388 0.442,51.940 0.995,51.940 L2.481,51.940 L2.481,41.993 C2.481,41.441 2.929,40.993 3.481,40.993 L12.442,40.993 C12.994,40.993 13.442,41.441 13.442,41.993 L13.442,51.940 L19.486,51.940 L19.486,25.989 C19.486,25.436 19.933,24.989 20.486,24.989 L28.447,24.989 C28.999,24.989 29.447,25.436 29.447,25.989 L29.447,51.940 L35.491,51.940 L35.491,33.949 C35.491,33.396 35.939,32.948 36.491,32.948 L45.452,32.948 C46.004,32.948 46.452,33.396 46.452,33.949 L46.452,51.940 L52.496,51.940 L52.496,14.958 C52.496,14.406 52.944,13.958 53.496,13.958 L61.457,13.958 C62.009,13.958 62.456,14.406 62.456,14.958 L62.456,51.940 L63.943,51.940 C64.496,51.940 64.943,52.388 64.943,52.940 C64.943,53.493 64.496,53.940 63.943,53.940 ZM11.442,42.993 L4.481,42.993 L4.481,51.940 L11.442,51.940 L11.442,42.993 ZM27.447,26.989 L21.486,26.989 L21.486,51.940 L27.447,51.940 L27.447,26.989 ZM44.452,34.948 L37.491,34.948 L37.491,51.940 L44.452,51.940 L44.452,34.948 ZM60.457,15.958 L54.496,15.958 L54.496,51.940 L60.457,51.940 L60.457,15.958 ZM57.100,7.414 C56.426,7.414 55.786,7.223 55.220,6.891 C55.193,6.940 55.180,6.993 55.144,7.038 L44.196,20.723 C44.113,20.827 44.006,20.899 43.895,20.960 C44.226,21.525 44.416,22.163 44.416,22.835 C44.416,23.833 44.027,24.771 43.321,25.477 C42.615,26.183 41.677,26.572 40.679,26.572 C39.681,26.572 38.743,26.183 38.037,25.477 C37.126,24.566 36.784,23.298 37.012,22.120 L27.017,17.122 C26.975,17.169 26.945,17.221 26.900,17.266 C26.194,17.972 25.255,18.362 24.258,18.362 C23.585,18.362 22.946,18.171 22.380,17.839 C22.336,17.919 22.296,18.001 22.228,18.068 L11.281,29.015 C11.213,29.083 11.131,29.123 11.052,29.167 C11.383,29.733 11.574,30.372 11.574,31.045 C11.574,32.043 11.185,32.982 10.479,33.687 C9.773,34.393 8.835,34.782 7.837,34.782 L7.837,34.782 C6.839,34.782 5.901,34.393 5.195,33.687 C3.738,32.230 3.738,29.859 5.195,28.403 C6.376,27.221 8.288,27.043 9.708,27.840 C9.753,27.756 9.796,27.672 9.867,27.601 L20.814,16.654 C20.882,16.586 20.964,16.546 21.044,16.502 C20.210,15.071 20.391,13.207 21.616,11.982 C23.026,10.569 25.491,10.570 26.901,11.982 C27.811,12.893 28.152,14.161 27.924,15.339 L37.919,20.337 C37.961,20.291 37.992,20.238 38.037,20.193 C39.219,19.010 41.133,18.832 42.554,19.631 C42.582,19.579 42.596,19.522 42.635,19.474 L53.583,5.789 C53.666,5.684 53.768,5.602 53.879,5.541 C53.053,4.112 53.237,2.256 54.458,1.035 C55.869,-0.378 58.334,-0.377 59.743,1.036 C61.199,2.492 61.199,4.862 59.742,6.319 C59.036,7.025 58.098,7.414 57.100,7.414 ZM9.065,29.817 C8.737,29.489 8.302,29.309 7.838,29.309 C7.373,29.309 6.937,29.489 6.609,29.817 C5.932,30.494 5.932,31.596 6.609,32.274 C6.937,32.601 7.373,32.782 7.837,32.782 C8.301,32.782 8.737,32.601 9.065,32.273 C9.393,31.945 9.574,31.509 9.574,31.045 C9.574,30.581 9.393,30.145 9.065,29.817 ZM25.486,13.396 C25.158,13.068 24.723,12.887 24.259,12.887 C23.794,12.887 23.358,13.068 23.030,13.396 C22.353,14.073 22.353,15.175 23.030,15.852 C23.686,16.509 24.829,16.509 25.486,15.852 C26.162,15.175 26.162,14.073 25.486,13.396 ZM41.907,21.607 C41.579,21.278 41.143,21.098 40.680,21.098 C40.215,21.098 39.779,21.279 39.451,21.607 C38.773,22.284 38.773,23.386 39.451,24.063 C40.108,24.720 41.251,24.719 41.907,24.063 C42.235,23.735 42.415,23.298 42.415,22.835 C42.415,22.371 42.235,21.935 41.907,21.607 ZM58.328,2.449 C58.000,2.120 57.565,1.940 57.101,1.940 C56.637,1.940 56.200,2.121 55.872,2.449 C55.195,3.126 55.195,4.228 55.872,4.905 C56.528,5.561 57.671,5.562 58.328,4.905 C59.005,4.228 59.005,3.126 58.328,2.449 Z" class="cls-1"/>
</svg>
