<svg xmlns="http://www.w3.org/2000/svg" xmlns:xlink="http://www.w3.org/1999/xlink" preserveAspectRatio="xMidYMid" width="56" height="56" viewBox="0 0 56 56">
  <defs>
    <style>
      .cls-1 {
        fill: #fff;
        fill-rule: evenodd;
      }
    </style>
  </defs>
  <path d="M54.999,27.493 L34.785,27.493 C34.233,27.493 33.785,27.045 33.785,26.493 C33.785,23.948 32.049,22.211 29.506,22.211 C28.954,22.211 28.506,21.763 28.506,21.211 L28.506,1.000 C28.506,0.448 28.954,-0.000 29.506,-0.000 C44.298,-0.000 55.999,11.701 55.999,26.493 C55.999,27.045 55.551,27.493 54.999,27.493 ZM30.506,2.020 L30.506,20.287 C33.353,20.720 35.276,22.644 35.710,25.493 L53.979,25.493 C53.465,12.597 43.401,2.534 30.506,2.020 ZM31.245,30.521 L47.955,30.521 C48.507,30.521 48.955,30.969 48.955,31.521 C48.955,38.241 46.231,44.335 41.832,48.763 C41.814,48.784 41.807,48.811 41.786,48.831 C41.766,48.851 41.739,48.858 41.718,48.876 C37.290,53.275 31.197,56.000 24.477,56.000 C10.980,56.000 -0.001,45.019 -0.001,31.521 C-0.001,18.024 10.980,7.043 24.477,7.043 C25.029,7.043 25.477,7.491 25.477,8.043 L25.477,24.745 C28.456,25.186 30.805,27.538 31.245,30.521 ZM46.907,32.521 L31.262,32.521 C31.088,33.664 30.634,34.712 29.971,35.602 L41.037,46.668 C44.488,42.899 46.664,37.962 46.907,32.521 ZM23.477,9.094 C11.548,9.623 1.999,19.464 1.999,31.521 C1.999,43.916 12.082,54.000 24.477,54.000 C30.315,54.000 35.623,51.744 39.623,48.082 L28.557,37.016 C27.413,37.868 26.010,38.390 24.477,38.390 C20.689,38.390 17.608,35.309 17.608,31.521 C17.608,28.076 20.165,25.242 23.477,24.753 L23.477,9.094 ZM24.477,26.652 C21.792,26.652 19.608,28.836 19.608,31.521 C19.608,34.206 21.792,36.390 24.477,36.390 C27.162,36.390 29.346,34.206 29.346,31.521 C29.346,28.836 27.162,26.652 24.477,26.652 Z" class="cls-1"/>
</svg>
