<svg xmlns="http://www.w3.org/2000/svg" xmlns:xlink="http://www.w3.org/1999/xlink" preserveAspectRatio="xMidYMid" width="52" height="55.81" viewBox="0 0 52 55.81">
  <defs>
    <style>
      .cls-1 {
        fill: #fff;
        fill-rule: evenodd;
      }
    </style>
  </defs>
  <path d="M51.000,29.794 L47.000,29.794 L47.000,54.795 C47.000,55.347 46.552,55.794 46.000,55.794 L6.000,55.794 C5.448,55.794 5.000,55.347 5.000,54.795 L5.000,29.794 L1.000,29.794 C0.448,29.794 -0.000,29.347 -0.000,28.795 L-0.000,13.795 C-0.000,13.242 0.448,12.794 1.000,12.794 L10.192,12.794 C7.865,11.203 6.060,8.725 6.060,5.570 C6.060,2.603 7.476,1.269 8.664,0.671 C10.014,-0.007 11.535,-0.005 12.506,-0.006 C14.324,-0.006 20.365,0.891 26.289,11.681 C32.206,0.919 38.234,-0.006 40.008,-0.006 C40.974,-0.017 42.544,-0.007 43.895,0.671 C45.084,1.269 46.500,2.603 46.500,5.570 C46.500,8.725 44.695,11.203 42.367,12.794 L51.000,12.794 C51.552,12.794 52.000,13.242 52.000,13.795 L52.000,28.795 C52.000,29.347 51.552,29.794 51.000,29.794 ZM30.000,53.794 L45.000,53.794 L45.000,29.794 L30.000,29.794 L30.000,53.794 ZM24.000,28.516 C24.027,28.606 24.056,28.696 24.056,28.795 C24.056,28.893 24.027,28.983 24.000,29.073 L24.000,53.794 L28.000,53.794 L28.000,14.795 L24.000,14.795 L24.000,28.516 ZM7.000,53.794 L22.000,53.794 L22.000,29.794 L7.000,29.794 L7.000,53.794 ZM2.000,14.795 L2.000,27.794 L22.000,27.794 L22.000,14.795 L2.000,14.795 ZM12.551,1.994 C11.703,2.001 10.488,1.993 9.562,2.459 C8.917,2.783 8.060,3.458 8.060,5.570 C8.060,10.313 13.367,12.794 16.212,12.794 L22.855,12.794 C22.904,12.787 22.949,12.765 23.000,12.765 C23.051,12.765 23.096,12.787 23.145,12.794 L24.617,12.794 C19.048,2.560 13.622,1.994 12.551,1.994 ZM44.500,5.570 C44.500,3.458 43.643,2.783 42.998,2.459 C42.071,1.994 40.855,1.991 40.053,1.994 C38.939,1.994 33.511,2.560 27.942,12.794 L28.855,12.794 C28.904,12.787 28.949,12.765 29.000,12.765 C29.051,12.765 29.096,12.787 29.145,12.794 L36.348,12.794 C39.193,12.794 44.500,10.313 44.500,5.570 ZM50.000,14.795 L30.000,14.795 L30.000,27.794 L50.000,27.794 L50.000,14.795 Z" class="cls-1"/>
</svg>
