<?xml version="1.0" encoding="utf-8"?><svg width="125" height="78" viewBox="0 0 125 78" xmlns="http://www.w3.org/2000/svg" xmlns:xlink="http://www.w3.org/1999/xlink"><view id="svg-contacts--contacts-mail" viewBox="0 0 42 36"/><svg preserveAspectRatio="xMidYMid" width="42" height="36" viewBox="-5 -5 42 36"><defs><style>.acls-1{fill:#951a37;fill-rule:evenodd}</style></defs><path d="M2 0a2 2 0 0 0-2 2v22a2 2 0 0 0 2 2h28a2 2 0 0 0 2-2V2a2 2 0 0 0-2-2H2zm27 3v.785L16 14.693 3 3.785V3h26zM3 23V7.7l11.714 9.83a2 2 0 0 0 2.57 0L29 7.7V23H3z" class="acls-1"/></svg><view id="svg-contacts--contacts-phone" viewBox="0 36 42 42"/><svg preserveAspectRatio="xMidYMid" width="42" height="42" viewBox="-5 -5 42 42" y="36"><defs><style>.bcls-1{fill:#951a37;fill-rule:evenodd}</style></defs><path d="M23.516 32a7.31 7.31 0 0 1-2.45-.42C11.29 28.12 3.55 20.18.357 10.327A7.352 7.352 0 0 1 2.89 2.225l1.577-1.202A4.952 4.952 0 0 1 7.497 0c1.88 0 3.586 1.04 4.448 2.717l2.666 5.18a3.486 3.486 0 0 1-.535 3.96l-.553.604a1.95 1.95 0 0 0-.3 2.212 9.447 9.447 0 0 0 4.094 4.088c.71.368 1.626.243 2.212-.297l.606-.554c1.052-.968 2.692-1.19 3.962-.537l5.184 2.663A4.98 4.98 0 0 1 32 24.482c0 1.32-.51 2.567-1.443 3.51l-1.805 1.824A7.403 7.403 0 0 1 23.516 32zM7.496 2.998c-.44 0-.86.14-1.208.407L4.71 4.608a4.353 4.353 0 0 0-1.498 4.797c2.908 8.968 9.956 16.2 18.854 19.348 1.56.553 3.393.13 4.55-1.043l1.805-1.825a1.995 1.995 0 0 0-.513-3.183l-5.182-2.663c-.21-.108-.464-.014-.562.076l-.605.556c-1.493 1.37-3.812 1.683-5.616.753a12.417 12.417 0 0 1-5.385-5.38 4.96 4.96 0 0 1 .754-5.612l.554-.603a.49.49 0 0 0 .08-.562l-2.667-5.18a1.994 1.994 0 0 0-1.78-1.09z" class="bcls-1"/></svg><view id="svg-contacts--contacts-phone-icon" viewBox="42 0 42 42"/><svg preserveAspectRatio="xMidYMid" width="42" height="42" viewBox="-18.12 -18.12 68.25 68.25" x="42"><defs><style>.chcls-1{fill:#951a37;fill-rule:evenodd}</style></defs><path d="M16 32C7.163 32 0 24.837 0 16S7.163 0 16 0c8.836 0 16 7.163 16 16s-7.164 16-16 16zm9.16-10.845l-3.993-2.05c-.16-.08-.357-.008-.432.06l-.467.428c-1.15 1.054-2.935 1.295-4.325.58a9.557 9.557 0 0 1-4.147-4.14 3.81 3.81 0 0 1 .58-4.315l.427-.464a.383.383 0 0 0 .06-.433L10.81 6.84a1.54 1.54 0 0 0-2.302-.525l-1.214.924a3.345 3.345 0 0 0-1.155 3.69c2.24 6.9 7.666 12.463 14.52 14.884 1.2.426 2.612.1 3.504-.8l1.39-1.406a1.53 1.53 0 0 0-.396-2.448z" class="chcls-1"/></svg><view id="svg-contacts--contacts-print" viewBox="84 41 28 28"/><svg preserveAspectRatio="xMidYMid" width="28" height="28" viewBox="-5 -5 28 28" x="84" y="41"><defs><style>.dcls-1{fill:#000;fill-rule:evenodd}</style></defs><path d="M17 15.03h-3V18H4v-2.97H1a1 1 0 0 1-1-1v-9a1 1 0 0 1 1-1h3V0h10v4.03h3a1 1 0 0 1 1 1v9a1 1 0 0 1-1 1zm-11 1h6v-4H6v4zm6-14H5.97v2H12v-2zm4 4H2v7h2v-3h10v3h2v-7zm-4 1h2v2h-2v-2z" class="dcls-1"/></svg><view id="svg-contacts--contacts-rekviziti" viewBox="42 42 24 28"/><svg preserveAspectRatio="xMidYMid" width="24" height="28" viewBox="-5 -5 24 28" x="42" y="42"><defs><style>.ecls-1{fill:#000;fill-rule:evenodd}</style></defs><path d="M13 18H1a1 1 0 0 1-1-1V3.967a1 1 0 0 1 1-1h2V.498a.5.5 0 0 1 .5-.5h7a.5.5 0 0 1 .5.5v2.47h2a1 1 0 0 1 1 1v13.03a1 1 0 0 1-1 1zM9 2H5v2h4V2zm3 3h-1v.5a.5.5 0 0 1-.5.5h-7a.5.5 0 0 1-.5-.5V5H2v11h10V5zm-2 5H4V8h6v2zm0 3H4v-2h6v2z" class="ecls-1"/></svg><view id="svg-contacts--contacts-time" viewBox="84 0 41 41"/><svg preserveAspectRatio="xMidYMid" width="41" height="41" viewBox="-5 -5 41 41" x="84"><defs><style>.fcls-1{fill:#951a37;fill-rule:evenodd}</style></defs><path d="M15.5 31C6.94 31 0 24.06 0 15.5 0 6.94 6.94 0 15.5 0 24.06 0 31 6.94 31 15.5 31 24.06 24.06 31 15.5 31zm0-28C8.607 3 3 8.607 3 15.5 3 22.392 8.607 28 15.5 28 22.392 28 28 22.392 28 15.5 28 8.607 22.392 3 15.5 3zm7 14H14V7.5a1.5 1.5 0 0 1 3 0V14h5.5a1.5 1.5 0 0 1 0 3z" class="fcls-1"/></svg></svg>