<?xml version="1.0" encoding="utf-8"?><!DOCTYPE svg PUBLIC "-//W3C//DTD SVG 1.1//EN" "http://www.w3.org/Graphics/SVG/1.1/DTD/svg11.dtd"><svg width="92" height="62" viewBox="0 0 92 62" xmlns="http://www.w3.org/2000/svg" xmlns:xlink="http://www.w3.org/1999/xlink"><view id="svg-history--li-point" viewBox="29.72 34 28 28"/><svg preserveAspectRatio="xMidYMid" width="28" height="28" viewBox="-5 -5 28 28" x="29.72" y="34"><defs><style>.acls-1{fill:#951a37;fill-rule:evenodd}</style></defs><path d="M15.363 15.364A8.94 8.94 0 0 1 9 18a8.94 8.94 0 0 1-6.363-2.636A8.938 8.938 0 0 1 0 9c0-2.404.936-4.664 2.637-6.363A8.934 8.934 0 0 1 9 0c2.404 0 4.664.936 6.363 2.637A8.938 8.938 0 0 1 18 9a8.942 8.942 0 0 1-2.637 6.364zM13.95 4.05A6.95 6.95 0 0 0 9 2a6.95 6.95 0 0 0-4.95 2.05A6.95 6.95 0 0 0 2 9c0 1.87.728 3.627 2.05 4.95A6.956 6.956 0 0 0 9 16c1.87 0 3.627-.73 4.95-2.05A6.96 6.96 0 0 0 16 9c0-1.87-.73-3.627-2.05-4.95zM12.635 10H10v2.636a1 1 0 0 1-2 0V10H5.364a1 1 0 0 1 0-2H8V5.364a1 1 0 0 1 2 0V8h2.636a1 1 0 0 1 0 2z" class="acls-1"/></svg><view id="svg-history--open-modal" viewBox="0 34 29.72 28"/><svg preserveAspectRatio="xMidYMid" width="29.72" height="28" viewBox="-5 -5 29.72 28" y="34"><defs><style>.bcls-1{fill:#951a37;fill-rule:evenodd}</style></defs><path d="M19.435 4.907l-3.2 3.2a.993.993 0 0 1-.707.293 1 1 0 0 1-.707-1.707L16.516 5H13.13c-3.363 0-6.2 2.726-6.2 6a1 1 0 0 1-2 0c0-4.434 3.677-8 8.2-8h2.984L14.82 1.707A1 1 0 1 1 16.236.293l3.2 3.2a1 1 0 0 1 0 1.414zM4.93 5H1.99v11h14v-5c0-.553.386-1 .94-1 .55 0 1.06.447 1.06 1v5c0 1.102-.96 2-2.06 2H1.927C.826 18 .004 17.102.004 16V5.2c0-1.102.822-2.187 1.924-2.187h3c.553 0 1 .434 1 .987a1 1 0 0 1-1 1z" class="bcls-1"/></svg><view id="svg-history--refresh" viewBox="66.19 0 25.06 28"/><svg preserveAspectRatio="xMidYMid" width="25.06" height="28" viewBox="-5 -5 25.06 28" x="66.19"><defs><style>.ccls-1{fill:#fff;fill-rule:evenodd}</style></defs><path d="M15.077 9c0 3.45-2.23 6.536-5.424 7.502a1 1 0 1 1-.58-1.914c2.357-.713 4.004-3.01 4.004-5.588 0-2.15-1.114-3.95-2.867-4.88l.397.796a1 1 0 0 1-1.79.895L7.365 2.903A1 1 0 0 1 7.81 1.56L10.72.105a1 1 0 0 1 .895 1.79l-.715.357c2.515 1.233 4.177 3.77 4.177 6.748zM5.99 3.41C3.63 4.127 1.984 6.425 1.984 9c0 2.152 1.114 3.953 2.868 4.88l-.398-.797a1 1 0 0 1 1.79-.894l1.453 2.908a1 1 0 0 1-.447 1.342l-2.91 1.454A.998.998 0 0 1 3 17.447a1 1 0 0 1 .447-1.342l.713-.356C1.646 14.515-.015 11.977-.015 9c0-3.45 2.23-6.535 5.424-7.503a1 1 0 0 1 .58 1.914z" class="ccls-1"/></svg><view id="svg-history--send" viewBox="0 0 34 34"/><svg preserveAspectRatio="xMidYMid" width="34" height="34" viewBox="-5 -5 34 34"><defs><style>.dcls-1{fill:#282828;fill-rule:evenodd}</style></defs><path d="M23.913.608c.014.033.022.066.032.1.025.08.04.16.043.245.002.038.004.074.002.11-.006.09-.026.175-.055.26-.01.03-.013.057-.025.084-.004.008-.004.017-.008.024l-10.52 22a1 1 0 0 1-.9.57h-.012a1.002 1.002 0 0 1-.9-.59l-3.572-7.93-7.482-4.138a1 1 0 0 1 .088-1.794l22-9.467c.006 0 .013 0 .02-.003.027-.012.056-.014.085-.023a.99.99 0 0 1 .26-.047c.037 0 .072.003.11.005a.982.982 0 0 1 .245.053.967.967 0 0 1 .392.238h.002v.003c.087.09.147.193.193.302zM12.508 20.625L19.7 5.585l-9.727 9.41 2.535 5.63zm-3.9-7.092l9.775-9.457L3.27 10.58l5.34 2.953z" class="dcls-1"/></svg><view id="svg-history--up-icon" viewBox="34 0 32.19 29.69"/><svg width="32.19" height="29.69" viewBox="-5 -5 32.19 29.69" x="34"><path fill="#951A37" d="M11.1-.006L.007 19.7h22.19L11.1-.007zm-.012 6.5l5.75 10.21H5.34l5.748-10.21z"/></svg></svg>