<?xml version="1.0" encoding="utf-8"?><!DOCTYPE svg PUBLIC "-//W3C//DTD SVG 1.1//EN" "http://www.w3.org/Graphics/SVG/1.1/DTD/svg11.dtd"><svg width="99" height="93" viewBox="0 0 99 93" xmlns="http://www.w3.org/2000/svg" xmlns:xlink="http://www.w3.org/1999/xlink"><view id="svg-home--fna-svg--facebook-ico" viewBox="39.81 54 28.94 38"/><svg preserveAspectRatio="xMidYMid" width="28.94" height="38" viewBox="-11 -11 28.94 38" x="39.81" y="54"><defs><style>.aacls-1{fill:#fff;fill-rule:evenodd}</style></defs><path d="M1.422 5.09H.71a.723.723 0 0 0-.712.728v1.454c0 .4.32.728.712.728h.712v7.272c0 .4.32.728.712.728h1.424a.722.722 0 0 0 .712-.728V8h1.424c.392 0 .79-.318.885-.706l.364-1.498c.095-.388-.147-.706-.54-.706H4.27V2.91h2.136V0H4.27C2.134 0 1.422 1.44 1.422 2.91v2.18z" class="aacls-1"/></svg><view id="svg-home--fna-svg--home-ico" viewBox="0 54 39.81 38.88"/><svg preserveAspectRatio="xMidYMid" width="39.81" height="38.88" viewBox="-11 -11 39.81 38.88" y="54"><defs><style>.bgcls-1{fill:#fff;fill-rule:evenodd}</style></defs><path d="M17.485 10.37a.986.986 0 0 1-1.398-.06l-.26-.286v6.128c0 .398-.773.724-1.168.724H12.5c-.395 0-.63-.326-.63-.724V11.81c0-.4-.413-.906-.808-.906H6.746c-.395 0-.81.507-.81.905v4.34c0 .4-.233.725-.63.725H3.15c-.396 0-1.17-.326-1.17-.724v-6.127l-.26.286a.985.985 0 0 1-1.397.06 1 1 0 0 1-.06-1.407L8.173.278c.376-.41 1.084-.41 1.46 0l7.912 8.686a1 1 0 0 1-.06 1.407z" class="bgcls-1"/></svg><view id="svg-home--fna-svg--phone-icon" viewBox="0 0 54 54"/><svg preserveAspectRatio="xMidYMid" width="54" height="54" viewBox="-11 -11 54 54"><defs><style>.chcls-1{fill:#fff;fill-rule:evenodd}</style></defs><path d="M16 32C7.163 32 0 24.837 0 16S7.163 0 16 0c8.836 0 16 7.163 16 16s-7.164 16-16 16zm9.16-10.845l-3.993-2.05c-.16-.08-.357-.008-.432.06l-.467.428c-1.15 1.054-2.935 1.295-4.325.58a9.557 9.557 0 0 1-4.147-4.14 3.81 3.81 0 0 1 .58-4.315l.427-.464a.383.383 0 0 0 .06-.433L10.81 6.84a1.54 1.54 0 0 0-2.302-.525l-1.214.924a3.345 3.345 0 0 0-1.155 3.69c2.24 6.9 7.666 12.463 14.52 14.884 1.2.426 2.612.1 3.504-.8l1.39-1.406a1.53 1.53 0 0 0-.396-2.448z" class="chcls-1"/></svg><view id="svg-home--fna-svg--up-icon" viewBox="54 0 44.19 41.69"/><svg width="44.19" height="41.69" viewBox="-11 -11 44.19 41.69" x="54"><path fill="#951A37" d="M11.1-.006L.007 19.7h22.19L11.1-.007zm-.012 6.5l5.75 10.21H5.34l5.748-10.21z"/></svg></svg>