<?xml version="1.0" encoding="utf-8"?><svg width="153" height="103" viewBox="0 0 153 103" xmlns="http://www.w3.org/2000/svg" xmlns:xlink="http://www.w3.org/1999/xlink"><view id="svg-menu--fna-svg--fixmenu-01" viewBox="52 0 51 51"/><svg preserveAspectRatio="xMidYMid" width="51" height="51" viewBox="-11 -11 51 51" x="52"><defs><style>.abcls-1{fill:#6c7177;fill-rule:evenodd}</style></defs><path d="M24.752 29.012H17a1 1 0 0 1 0-2h7.752A2.25 2.25 0 0 0 27 24.764v-7.752h-1.767a3.856 3.856 0 0 1-3.836 4.205 3.856 3.856 0 0 1-3.837-4.205H17a1 1 0 0 1 0-2h1.886a1 1 0 0 1 .88 1.475 1.854 1.854 0 0 0 1.63 2.73 1.854 1.854 0 0 0 1.633-2.73 1 1 0 0 1 .877-1.475H28a1 1 0 0 1 1 1v8.752a4.253 4.253 0 0 1-4.248 4.248zm3.248-16a1 1 0 0 1-1-1V4.26a2.25 2.25 0 0 0-2.248-2.248H17V3.53c2.24-.204 4.206 1.594 4.205 3.835 0 2.243-1.97 4.042-4.205 3.837v.81a1 1 0 0 1-2 0V9.877a1 1 0 0 1 1.475-.88 1.855 1.855 0 0 0 2.73-1.632 1.855 1.855 0 0 0-2.73-1.63A1 1 0 0 1 15 4.855V1.01a1 1 0 0 1 1-1h8.752A4.252 4.252 0 0 1 29 4.26v7.752a1 1 0 0 1-1 1zm-15 16H4.248A4.253 4.253 0 0 1 0 24.764v-7.752a1 1 0 0 1 2 0v7.752a2.25 2.25 0 0 0 2.248 2.248H12v-1.517c-2.232.206-4.205-1.594-4.205-3.837 0-2.242 1.97-4.036 4.205-3.836v-.81a1 1 0 0 1 2 0v2.135a1 1 0 0 1-1.475.88 1.854 1.854 0 0 0-2.73 1.63 1.855 1.855 0 0 0 2.73 1.632 1 1 0 0 1 1.475.88v3.84a1 1 0 0 1-1 1zm0-16a1 1 0 0 1-1 1h-1.886a1 1 0 0 1-.88-1.475 1.854 1.854 0 0 0-1.63-2.73 1.855 1.855 0 0 0-1.633 2.728 1 1 0 0 1-.877 1.476H1a1 1 0 0 1-1-1V4.26A4.252 4.252 0 0 1 4.248.01H12a1 1 0 0 1 0 2H4.248A2.25 2.25 0 0 0 2 4.26v7.752h1.767a3.856 3.856 0 0 1 3.836-4.205 3.856 3.856 0 0 1 3.836 4.204H12a1 1 0 0 1 1 1z" class="abcls-1"/></svg><view id="svg-menu--fna-svg--fixmenu-02" viewBox="0 0 52 50.25"/><svg preserveAspectRatio="xMidYMid" width="52" height="50.25" viewBox="-11 -11 52.09 50.34"><defs><style>.bccls-1{fill:#6c7177;fill-rule:evenodd}</style></defs><path d="M30.02 8.4l.05 17.355c0 1.49-1.632 2.602-3.017 2.602H2.923c-1.385 0-2.935-1.113-2.935-2.602V8.357l.003-.018.004-.04c.052-1.4 1.16-2.944 2.597-2.944h6.63c.166-2.98 3.05-5.364 6.598-5.364s6.43 2.385 6.597 5.364h4.972c1.435 0 2.575 1.542 2.627 2.94a.245.245 0 0 1 .007.06c0 .01.084.018.084.027 0 .007-.084.012-.084.016zM15.816 1.993c-2.437 0-4.42 1.49-4.595 3.364h9.19c-.175-1.875-2.157-3.364-4.594-3.364zm12.17 6.47v-.01a1.07 1.07 0 0 1-.004-.1c-.026-.505-.447-.996-.597-.996H2.59c-.15 0-.54.492-.566.998 0 .033 0 .065-.004.097v17.302c0 .21.45.603.904.603h24.13c.454 0 .934-.392.934-.602V8.465zm-5 12.894h-16a1 1 0 0 1 0-2h16a1 1 0 0 1 0 2zm0-4h-16a1 1 0 0 1 0-2h16a1 1 0 0 1 0 2zm0-4h-16a1 1 0 0 1 0-2h16a1 1 0 0 1 0 2z" class="bccls-1"/></svg><view id="svg-menu--fna-svg--fixmenu-03" viewBox="103 0 49.69 49.69"/><svg preserveAspectRatio="xMidYMid" width="49.69" height="49.69" viewBox="-11 -11 49.69 49.69" x="103"><defs><style>.cdcls-1{fill:#6c7177;fill-rule:evenodd}</style></defs><path d="M13.845 27.677C6.217 27.677.01 21.47.01 13.843.01 6.215 6.218.01 13.846.01c7.627 0 13.832 6.205 13.832 13.833s-6.205 13.834-13.832 13.834zm0-25.667C7.32 2.01 2.01 7.318 2.01 13.843s5.31 11.834 11.835 11.834c6.524 0 11.832-5.31 11.832-11.834 0-6.525-5.308-11.833-11.832-11.833zm2.134 13.13h-3.14v1.87h3.07a1 1 0 0 1 0 2h-3.07v.458a1 1 0 0 1-2 0v-.458H9.704a1 1 0 0 1 0-2h1.133v-1.87H9.676a1 1 0 0 1 0-2h1.162V9.26c-.006-.037-.024-.07-.024-.11a1 1 0 0 1 1-1h4.163c1.833 0 3.326 1.568 3.326 3.495 0 1.926-1.493 3.494-3.327 3.494zm0-4.99h-3.14v2.99h3.14c.73 0 1.325-.67 1.325-1.495 0-.824-.596-1.495-1.327-1.495z" class="cdcls-1"/></svg><view id="svg-menu--fna-svg--fixmenu-04" viewBox="52 51 50 51"/><svg preserveAspectRatio="xMidYMid" width="50" height="51" viewBox="-11 -11 50 51" x="52" y="51"><defs><style>.decls-1{fill:#6c7177;fill-rule:evenodd}</style></defs><path d="M27 29H1a1 1 0 0 1-1-1V16a1 1 0 0 1 1-1h4V4a1 1 0 0 1 1-1h4V1a1 1 0 0 1 1-1h6a1 1 0 0 1 1 1v2h4a1 1 0 0 1 1 1v11h4a1 1 0 0 1 1 1v12a1 1 0 0 1-1 1zm-1-12h-4a1 1 0 0 1-1-1V5h-4a1 1 0 0 1-1-1V2h-4v2a1 1 0 0 1-1 1H7v11a1 1 0 0 1-1 1H2v10h9v-3h6v3h9V17zm-9 3h2v2h-2v-2zm0-4h2v2h-2v-2zm0-4h2v2h-2v-2zm0-4h2v2h-2V8zm6 14h-2v-2h2v2zm-10-2h2v2h-2v-2zm0-4h2v2h-2v-2zm0-4h2v2h-2v-2zm0-4h2v2h-2V8zM9 20h2v2H9v-2zm0-4h2v2H9v-2zm0-4h2v2H9v-2zm0-4h2v2H9V8zM5 20h2v2H5v-2z" class="decls-1"/></svg><view id="svg-menu--fna-svg--fixmenu-05" viewBox="0 50.25 44.31 52"/><svg preserveAspectRatio="xMidYMid" width="44.31" height="52" viewBox="-11.04 -11.04 46.08 54.08" y="50.25"><defs><style>.efcls-1{fill:#6c7177;fill-rule:evenodd}</style></defs><path d="M22.085 18.505L14.1 30.855A2.497 2.497 0 0 1 12 32c-.88 0-1.656-.456-2.1-1.145l-7.985-12.35A11.95 11.95 0 0 1 0 12C0 5.372 5.373 0 12 0s12 5.373 12 12c0 2.397-.704 4.63-1.915 6.505zM12 3c-4.963 0-9 4.036-9 9 0 1.738.496 3.424 1.435 4.877L12 28.58l7.565-11.704A8.958 8.958 0 0 0 21 12c0-4.964-4.038-9-9-9zm0 14a5 5 0 0 1 0-10 5 5 0 0 1 0 10zm0-7c-1.103 0-2 .897-2 2 0 1.102.897 2 2 2s2-.898 2-2c0-1.103-.897-2-2-2z" class="efcls-1"/></svg></svg>