<?xml version="1.0" encoding="utf-8"?><svg width="115" height="80" viewBox="0 0 115 80" xmlns="http://www.w3.org/2000/svg" xmlns:xlink="http://www.w3.org/1999/xlink"><view id="svg-price--price-arrow" viewBox="81.63 0 32.81 32.81"/><svg preserveAspectRatio="xMidYMid" width="32.81" height="32.81" viewBox="-5 -5 32.81 32.81" x="81.63"><defs><style>.acls-1{fill:#000;fill-rule:evenodd}</style></defs><path d="M11.413 22.826h-.002l-.212-.002a11.343 11.343 0 0 1-8.016-3.492 11.34 11.34 0 0 1-3.197-8.135C.098 5.017 5.217-.015 11.4-.015h.214c6.295.114 11.324 5.33 11.213 11.63-.117 6.18-5.235 11.21-11.414 11.21zM11.598.808H11.4C5.664.807.91 5.475.804 11.213a10.542 10.542 0 0 0 2.97 7.55 10.534 10.534 0 0 0 7.44 3.24h.198c5.737 0 10.493-4.667 10.596-10.407C22.11 5.753 17.44.912 11.598.807zm-.29 16.417a.413.413 0 0 1-.296-.124.412.412 0 0 1 .01-.58l4.79-4.624-9.823-.177a.41.41 0 0 1 .007-.823h.006l9.83.18-4.625-4.796a.412.412 0 0 1 .01-.578.413.413 0 0 1 .582.01l5.306 5.507h.002l.283.295-5.798 5.595a.402.402 0 0 1-.285.115z" class="acls-1"/></svg><view id="svg-price--price-audit" viewBox="40.94 0 40.69 40.75"/><svg preserveAspectRatio="xMidYMid" width="40.69" height="40.75" viewBox="-5 -5 40.69 40.75" x="40.94"><defs><style>.bcls-1{fill:#000;fill-rule:evenodd}</style></defs><path d="M16.012 15.986l-.026.03a7.898 7.898 0 0 1-5.6 2.32 7.894 7.894 0 0 1-5.6-2.32 7.895 7.895 0 0 1-2.32-5.6c0-2.186.887-4.167 2.32-5.6v-.002a7.896 7.896 0 0 1 5.6-2.32c2.186 0 4.167.888 5.6 2.32v.002a7.897 7.897 0 0 1 2.32 5.6c0 2.17-.877 4.14-2.294 5.57zM15.31 5.493h-.003a6.942 6.942 0 0 0-4.922-2.038c-1.922 0-3.663.78-4.922 2.037a6.944 6.944 0 0 0-2.037 4.923c0 1.922.78 3.663 2.038 4.92a6.94 6.94 0 0 0 4.92 2.04c1.923 0 3.663-.78 4.922-2.04l.024-.02a6.937 6.937 0 0 0 2.015-4.9 6.94 6.94 0 0 0-2.036-4.922zm-4.925.442a4.436 4.436 0 0 0-2.5.762l-.025.015A4.55 4.55 0 0 0 6.255 8.67c-.114.27-.203.557-.263.852-.056.28-.087.58-.087.893a.48.48 0 0 1-.96 0 5.536 5.536 0 0 1 .43-2.116A5.452 5.452 0 0 1 7.32 5.922l.028-.02a5.465 5.465 0 0 1 3.037-.927.48.48 0 0 1 0 .96zM30.2 30.23v.002a1.715 1.715 0 0 1-1.216.503c-.44 0-.88-.167-1.215-.502h-.002l-2.63-2.63-2.63-2.63-2.63-2.632h-.002a1.718 1.718 0 0 1-.5-1.216c0-.282.093-.553.23-.808l-2.225-2.226a10.37 10.37 0 0 1-14.35-.32 10.366 10.366 0 0 1-3.045-7.355C-.015 7.755 1 5.09 3.03 3.06l.002.002A10.37 10.37 0 0 1 10.385.015c2.66 0 5.323 1.015 7.354 3.046a10.353 10.353 0 0 1 2.96 6.036 10.406 10.406 0 0 1-1.356 6.602.478.478 0 1 1-.824-.487 9.46 9.46 0 0 0 1.23-5.994 9.4 9.4 0 0 0-2.69-5.476A9.413 9.413 0 0 0 10.385.975c-2.417 0-4.834.92-6.675 2.763v.002a9.41 9.41 0 0 0-2.764 6.675c0 2.415.92 4.832 2.764 6.675a9.41 9.41 0 0 0 6.675 2.765c2.415 0 4.83-.92 6.673-2.76 0-.002 0-.004.002-.005a.48.48 0 0 1 .68 0l2.547 2.547c.254-.137.524-.23.806-.23.44 0 .88.167 1.214.502h.002l2.63 2.628 2.63 2.63L30.2 27.8a1.72 1.72 0 0 1 0 2.43zm-.678-1.75l-2.63-2.63-2.632-2.632-2.63-2.63v-.002a.764.764 0 0 0-1.073 0v.002h-.002a.762.762 0 0 0 0 1.073v.002l2.63 2.63 2.632 2.63 2.63 2.63v.002c.147.147.342.22.537.22a.76.76 0 0 0 .537-.22h.002a.76.76 0 0 0 .22-.538.754.754 0 0 0-.22-.536z" class="bcls-1"/></svg><view id="svg-price--price-bonus" viewBox="0 0 40.94 41.44"/><svg preserveAspectRatio="xMidYMid" width="40.94" height="41.44" viewBox="-5 -5 40.94 41.44"><defs><style>.ccls-1{fill:#000;fill-rule:evenodd}</style></defs><path d="M30.08 28.09h-.002c-.43.43-.988.727-1.61.83l-.002 2.04a.478.478 0 0 1-.776.373L24.724 29H9.91c-.797 0-1.524-.362-2.058-.88l-.034-.03a2.953 2.953 0 0 1-.87-2.09v-7.54a.48.48 0 0 1 .962 0V26c0 .548.226 1.05.588 1.41l.022.025c.36.347.852.603 1.39.603h14.978a.48.48 0 0 1 .338.14l2.284 1.787V28.48a.48.48 0 0 1 .48-.48V28c.548 0 1.05-.224 1.41-.587.362-.36.588-.862.588-1.41V14.96c0-.55-.226-1.05-.587-1.412l-.02-.025a2.006 2.006 0 0 0-1.39-.563h-2.48a.48.48 0 0 1 0-.96h2.48c.796 0 1.522.32 2.056.837l.034.03a2.95 2.95 0 0 1 .87 2.092V26a2.95 2.95 0 0 1-.87 2.09zM11.77 18.038h14.88a.48.48 0 0 1 0 .96H11.77a.482.482 0 0 1 0-.96zm0 6h10.54a.48.48 0 0 1 0 .96H11.77a.48.48 0 0 1 0-.96zm0-3h14.88a.48.48 0 0 1 0 .96H11.77a.482.482 0 0 1 0-.96zm10.276-5.917a2.95 2.95 0 0 1-2.057.84H6.353l-2.966 2.373a.477.477 0 0 1-.776-.373H2.61v-2.04c-.622-.102-1.322-.402-1.75-.83H.857A2.952 2.952 0 0 1-.012 13V2.96c0-.814.334-1.556.87-2.09L.892.84l.645.03A.48.48 0 0 0 .892.84 2.95 2.95 0 0 1 2.95 0h17.04c.813 0 1.555.334 2.09.87a2.95 2.95 0 0 1 .87 2.09V13c0 .815-.334 1.555-.87 2.09l-.034.03zm-.058-12.16c0-.548-.226-1.05-.587-1.41a1.996 1.996 0 0 0-1.41-.59H2.95a2.01 2.01 0 0 0-1.39.564l-.023.025C1.175 1.91.95 2.41.95 2.96V13c0 .548.225 1.05.587 1.41v.002c.36.36.996.583 1.54.587h.013a.48.48 0 0 1 .48.48v1.483l2.282-1.826A.484.484 0 0 1 6.19 15h13.8c.537 0 1.028-.218 1.39-.565l.02-.024A2 2 0 0 0 21.99 13V2.96zM19.21 8.998H4.33a.48.48 0 0 1 0-.96h14.88a.48.48 0 0 1 0 .96zm0-3H4.33a.48.48 0 0 1 0-.96h14.88a.48.48 0 0 1 0 .96zm-14.88 5.04h10.54a.48.48 0 0 1 0 .96H4.33a.48.48 0 0 1 0-.96z" class="ccls-1"/></svg><view id="svg-price--price-close" viewBox="40.75 41.44 35.44 35.44"/><svg preserveAspectRatio="xMidYMid" width="35.44" height="35.44" viewBox="-5 -5 35.44 35.44" x="40.75" y="41.44"><defs><style>.dcls-1{fill:#fff;fill-rule:evenodd}</style></defs><path d="M4.236 25.448l8.484-8.49 8.484 8.484 4.243-4.242-8.485-8.484 8.485-8.484L21.204-.01 12.72 8.472 4.236-.01-.007 4.23l8.485 8.487-8.485 8.486 4.243 4.242z" class="dcls-1"/></svg><view id="svg-price--price-dropdown" viewBox="81.63 32.81 23.78 17.78"/><svg preserveAspectRatio="xMidYMid" width="23.78" height="17.78" viewBox="-5 -5 23.78 17.78" x="81.63" y="32.81"><defs><style>.ecls-1{fill:#676b6d;fill-rule:evenodd}</style></defs><path d="M12.01.282a1.044 1.044 0 0 1 1.467 0c.405.4.405 1.05 0 1.453L7.615 7.48c-.405.4-1.063.4-1.468 0L.285 1.735a1.02 1.02 0 0 1 0-1.453 1.045 1.045 0 0 1 1.468 0L6.88 4.99l5.13-4.71z" class="ecls-1"/></svg><view id="svg-price--price-tables" viewBox="0 41.44 40.75 38.25"/><svg preserveAspectRatio="xMidYMid" width="40.75" height="38.25" viewBox="-5 -5 40.75 38.25" y="41.44"><defs><style>.fcls-1{fill:#000;fill-rule:evenodd}</style></defs><path d="M28.778 26.288a6.662 6.662 0 0 1-4.723 1.957 6.662 6.662 0 0 1-4.724-1.957 6.66 6.66 0 0 1-1.955-4.723c0-1.845.748-3.515 1.956-4.724a6.66 6.66 0 0 1 4.725-1.955 6.66 6.66 0 0 1 4.723 1.956 6.664 6.664 0 0 1 1.957 4.725c0 1.844-.75 3.515-1.957 4.723zm-.68-8.768a5.7 5.7 0 0 0-4.043-1.675c-1.58 0-3.01.64-4.045 1.675a5.704 5.704 0 0 0-1.675 4.045 5.7 5.7 0 0 0 1.675 4.044 5.706 5.706 0 0 0 4.045 1.674c1.58 0 3.01-.64 4.044-1.675a5.706 5.706 0 0 0 1.674-4.045c0-1.58-.64-3.01-1.675-4.045zm-.13 6.855a4.847 4.847 0 0 1-1.718 1.48 4.794 4.794 0 0 1-4.39 0 4.838 4.838 0 0 1-1.72-1.48.48.48 0 0 1-.065-.432c.12-.353.283-.685.48-.983h.002c.2-.3.44-.576.712-.817a.478.478 0 0 1 .64-.006 3.233 3.233 0 0 0 2.145.807 3.214 3.214 0 0 0 2.133-.8.478.478 0 0 1 .643-.007c.265.232.5.5.698.79l.024.033c.2.3.363.63.482.982h-.002a.48.48 0 0 1-.064.433zm-1.214-.882l-.02-.03a3.324 3.324 0 0 0-.256-.33 4.186 4.186 0 0 1-4.848 0 3.32 3.32 0 0 0-.276.358v.003c-.11.166-.205.34-.283.523.335.407.75.745 1.224.987a3.862 3.862 0 0 0 1.76.422c.637 0 1.236-.154 1.76-.422.473-.242.888-.58 1.223-.987a3.177 3.177 0 0 0-.283-.523zm-1.046-2.135a2.335 2.335 0 0 1-3.308 0 2.333 2.333 0 0 1-.686-1.653c0-.646.263-1.233.686-1.655a2.334 2.334 0 0 1 3.276-.03l.033.03c.422.422.684 1.01.684 1.655 0 .646-.262 1.23-.685 1.654l-.002-.002zm-.678-2.63l-.025-.025a1.374 1.374 0 0 0-.95-.378c-.38 0-.727.154-.976.404a1.375 1.375 0 0 0 .976 2.356 1.38 1.38 0 0 0 .975-2.356zm-5.196-5.37l.303.522.304.52a.48.48 0 0 1-.83.48l-.302-.52-.303-.52a.48.48 0 0 1 .174-.656.482.482 0 0 1 .654.175zm-4.46.007a6.66 6.66 0 0 1-4.723-1.957 6.66 6.66 0 0 1-1.955-4.724 6.66 6.66 0 0 1 1.927-4.692l.03-.03A6.66 6.66 0 0 1 15.373.004a6.66 6.66 0 0 1 4.724 1.956v.002a6.66 6.66 0 0 1 1.956 4.722 6.66 6.66 0 0 1-1.956 4.724 6.662 6.662 0 0 1-4.724 1.957zM19.42 2.64A5.705 5.705 0 0 0 15.373.964c-1.58 0-3.01.64-4.044 1.674l-.025.023a5.706 5.706 0 0 0-1.65 4.02c0 1.58.64 3.01 1.675 4.046a5.706 5.706 0 0 0 4.044 1.674c1.58 0 3.01-.64 4.045-1.675a5.706 5.706 0 0 0 1.674-4.046c0-1.58-.64-3.01-1.674-4.045zm-.132 6.855a4.847 4.847 0 0 1-1.718 1.48 4.798 4.798 0 0 1-4.39 0 4.838 4.838 0 0 1-1.72-1.48.478.478 0 0 1-.065-.432 4.19 4.19 0 0 1 1.203-1.808.48.48 0 0 1 .634.002c.29.255.628.462.997.6.35.134.738.207 1.144.207a3.24 3.24 0 0 0 1.146-.206c.365-.138.7-.34.99-.594a.48.48 0 0 1 .642-.007c.263.232.5.5.698.79l.023.034c.198.298.362.63.48.983a.476.476 0 0 1-.065.432zm-1.213-.882l-.02-.03a3.163 3.163 0 0 0-.256-.33 4.204 4.204 0 0 1-2.426.772 4.178 4.178 0 0 1-2.423-.772 3.2 3.2 0 0 0-.56.883c.336.407.752.746 1.224.988a3.86 3.86 0 0 0 1.76.42c.637 0 1.236-.152 1.76-.42a3.86 3.86 0 0 0 1.224-.987 3.347 3.347 0 0 0-.283-.523zm-2.7-1.448a2.335 2.335 0 0 1-1.656-.686 2.34 2.34 0 0 1 3.31-3.31c.422.423.684 1.01.684 1.655a2.33 2.33 0 0 1-.685 1.654 2.334 2.334 0 0 1-1.656.685zm.975-3.316a1.372 1.372 0 0 0-.976-.405c-.38 0-.726.154-.975.404a1.375 1.375 0 0 0 0 1.95 1.376 1.376 0 0 0 1.95 0 1.38 1.38 0 0 0 0-1.95zm-5.212 11.03a.48.48 0 0 1-.83-.48l.304-.52.304-.52a.48.48 0 0 1 .654-.176.48.48 0 0 1 .175.655l-.304.52-.302.52zm2.237 6.685a6.66 6.66 0 0 1-1.956 4.723 6.662 6.662 0 0 1-4.725 1.957 6.662 6.662 0 0 1-4.724-1.957 6.66 6.66 0 0 1-1.955-4.723c0-1.845.748-3.515 1.956-4.724a6.66 6.66 0 0 1 4.725-1.955 6.66 6.66 0 0 1 4.724 1.956 6.663 6.663 0 0 1 1.955 4.725zm-6.68-5.72c-1.58 0-3.01.64-4.044 1.675a5.705 5.705 0 0 0-1.675 4.045c0 1.58.64 3.01 1.676 4.044a5.702 5.702 0 0 0 4.045 1.674c1.58 0 3.01-.64 4.044-1.675a5.702 5.702 0 0 0 1.675-4.045c0-1.58-.64-3.01-1.676-4.045a5.698 5.698 0 0 0-4.045-1.675zm3.913 8.53a4.835 4.835 0 0 1-1.717 1.48 4.8 4.8 0 0 1-4.39 0 4.847 4.847 0 0 1-1.72-1.48.48.48 0 0 1-.065-.432c.12-.353.283-.685.482-.983.2-.3.442-.576.712-.817a.478.478 0 0 1 .64-.006 3.244 3.244 0 0 0 4.28.007.478.478 0 0 1 .642-.007 4.205 4.205 0 0 1 1.202 1.806.48.48 0 0 1-.066.432zm-1.213-.885a3.31 3.31 0 0 0-.276-.358 4.23 4.23 0 0 1-.942.502 4.214 4.214 0 0 1-2.967 0 4.2 4.2 0 0 1-.94-.502c-.1.113-.192.233-.275.36a3.23 3.23 0 0 0-.284.524c.336.407.752.745 1.224.987a3.865 3.865 0 0 0 1.76.422 3.86 3.86 0 0 0 2.985-1.41 3.415 3.415 0 0 0-.285-.525zm-1.047-2.132a2.333 2.333 0 0 1-3.308 0 2.332 2.332 0 0 1-.685-1.653c0-.646.262-1.233.685-1.655a2.334 2.334 0 0 1 3.277-.03l.032.03c.422.422.685 1.01.685 1.655 0 .646-.263 1.23-.686 1.654l-.002-.002zm-.678-2.63l-.024-.025a1.375 1.375 0 0 0-.95-.378 1.375 1.375 0 0 0-1.38 1.38 1.38 1.38 0 0 0 2.354.977c.25-.25.404-.596.404-.977 0-.38-.154-.727-.404-.976zm7.084 2.357h1.24a.48.48 0 0 1 0 .96h-1.24a.48.48 0 0 1 0-.96z" class="fcls-1"/></svg></svg>