<?xml version="1.0" encoding="utf-8"?><svg width="272" height="266" viewBox="0 0 272 266" xmlns="http://www.w3.org/2000/svg" xmlns:xlink="http://www.w3.org/1999/xlink"><view id="svg-services--services-01" viewBox="132.97 134.03 120 120"/><svg preserveAspectRatio="xMidYMid" width="120" height="120" viewBox="-10 -10 120 120" x="132.97" y="134.03"><defs><style>.acls-1{fill:#951a37;fill-rule:evenodd}</style></defs><path d="M98.5 47.5A1.5 1.5 0 0 1 97 46V13.5C97 7.71 92.29 3 86.5 3H56v10.146c1.13-.343 2.312-.52 3.5-.52 6.638 0 12.04 5.4 12.04 12.04 0 6.64-5.402 12.04-12.04 12.04-1.188 0-2.37-.177-3.5-.52V46a1.5 1.5 0 0 1-3 0V33.946a1.5 1.5 0 0 1 2.212-1.32 9.05 9.05 0 0 0 4.287 1.08c4.984 0 9.04-4.055 9.04-9.04 0-4.985-4.056-9.04-9.04-9.04a9.042 9.042 0 0 0-4.287 1.08A1.5 1.5 0 0 1 53 15.386V1.5c0-.83.67-1.5 1.5-1.5h32C93.944 0 100 6.054 100 13.5V46a1.5 1.5 0 0 1-1.5 1.5zM89 46V28.333a1.5 1.5 0 0 1 3 0V46a1.5 1.5 0 0 1-3 0zM54 89h17.666a1.5 1.5 0 0 1 0 2.998H54a1.5 1.5 0 0 1 0-3zm12.053-35.97a1.498 1.498 0 0 1 1.32 2.21c-.707 1.31-1.08 2.263-1.08 3.76 0 4.983 4.055 9.038 9.04 9.038 4.984 0 9.04-4.055 9.04-9.04 0-1.495-.374-2.448-1.08-3.757a1.5 1.5 0 0 1 1.32-2.21H98.5c.828 0 1.5.67 1.5 1.5V86.5c0 7.443-6.056 13.5-13.5 13.5H54a1.5 1.5 0 0 1 0-3h32.5C92.29 97 97 92.29 97 86.5V56.028H86.853c.343 1.13.52 1.783.52 2.97 0 6.64-5.402 12.04-12.04 12.04-6.64 0-12.04-5.4-12.04-12.04 0-1.187.177-1.84.52-2.97H54a1.5 1.5 0 0 1 0-3h12.053zM46 11H28.334a1.5 1.5 0 0 1 0-3H46a1.5 1.5 0 0 1 0 3zm0 36H33.947a1.5 1.5 0 0 1-1.32-2.213 9.05 9.05 0 0 0 1.08-4.287c0-4.984-4.055-9.04-9.04-9.04-4.984 0-9.04 4.056-9.04 9.04a9.06 9.06 0 0 0 1.08 4.287A1.5 1.5 0 0 1 15.387 47H1.5A1.5 1.5 0 0 1 0 45.5v-32C0 6.054 6.056 0 13.5 0H46a1.5 1.5 0 0 1 0 3H13.5C7.71 3 3 7.71 3 13.5V44h10.147a12.075 12.075 0 0 1-.52-3.5c0-6.64 5.4-12.04 12.04-12.04 6.64 0 12.04 5.4 12.04 12.04 0 1.187-.177 2.37-.52 3.5H46a1.5 1.5 0 0 1 0 3zM8 71.666V54.53a1.5 1.5 0 0 1 3 0v17.136a1.5 1.5 0 0 1-3 0zM1.5 53.03c.828 0 1.5.67 1.5 1.5V86.5C3 92.29 7.71 97 13.5 97H44V86.85a12.03 12.03 0 0 1-3.5.52c-6.638 0-12.04-5.4-12.04-12.04 0-6.64 5.402-12.04 12.04-12.04 1.188 0 2.37.177 3.5.52v-9.283a1.5 1.5 0 0 1 3 0v11.523a1.5 1.5 0 0 1-2.212 1.32 9.06 9.06 0 0 0-4.287-1.08c-4.984 0-9.04 4.054-9.04 9.04 0 4.984 4.056 9.04 9.04 9.04a9.043 9.043 0 0 0 4.287-1.08A1.5 1.5 0 0 1 47 84.612v13.886c0 .828-.67 1.5-1.5 1.5h-32C6.056 100 0 93.942 0 86.5V54.53c0-.83.67-1.5 1.5-1.5z" class="acls-1"/></svg><view id="svg-services--services-02" viewBox="0 134.03 132.97 131.81"/><svg preserveAspectRatio="xMidYMid" width="132.97" height="131.81" viewBox="-10 -10 132.97 131.81" y="134.03"><defs><style>.bcls-1{fill:#1a4895;fill-rule:evenodd}</style></defs><path d="M111.478 111.8H21.44a1.5 1.5 0 0 1-1.5-1.5V98.64c0-.26.067-.514.194-.74.2-.35 4.645-8.65 11.49-11.257 5.426-2.067 15.82-4.507 19.366-5.304V72.15c0-.278.097-.524.228-.747-4.587-5.24-7.997-10.604-8.45-11.328-.44-.57-2.868-3.882-2.868-7.74 0-3.154 1.602-5.277 2.536-6.246-.25-3.314-.598-16.18 8.284-23.055.04-.03.08-.06.123-.086 4.406-2.755 9.04-4.15 13.775-4.15 7.33 0 12.7 3.33 14.338 4.48.21-.013.464-.024.75-.024 2.292 0 7.797.714 9.45 7.325 1.64 6.556-.64 11.534-1.552 13.168l.322 1.612c1.992.768 4.637 2.78 4.637 6.673 0 4.484-2.95 7.202-3.986 8.018-.687 1.35-3.398 6.435-7.113 10.424-.26.28-.513.557-.768.834.17.244.293.524.293.844v8.955c.172.08.322.19.456.335 3.907.885 13.818 3.212 19.036 5.2 6.845 2.608 12.102 10.907 12.3 11.26.128.224.196.48.196.737v11.66a1.5 1.5 0 0 1-1.5 1.5zm-40.284-3.002l-3.106-11.302a1.5 1.5 0 0 1 .4-1.474l2.526-2.45-2.093-3.768H64.43l-2.094 3.77 2.525 2.448a1.5 1.5 0 0 1 .4 1.474l-3.105 11.302h9.04zm6.795-26.694v-7.916c-3.02 3.034-6.5 5.6-11.9 5.628-.132.013-.366.03-.692.03-1.787 0-6.416-.554-11.408-5.472v7.197l9.982 5.234h6.066l7.95-4.7zM32.69 89.446c-5.133 1.955-8.84 8.116-9.752 9.607v9.745h36.103l3.09-11.24-2.712-2.632a1.5 1.5 0 0 1-.266-1.805l2.344-4.22-9.13-4.793c-2.334.523-14.044 3.193-19.676 5.34zM64.618 21.8c-4.14 0-8.218 1.228-12.12 3.653-4.618 3.612-6.306 9.338-6.875 13.907 1.68-1.984 4.336-3.643 8.405-3.975 1.514-.124 2.924-.215 4.242-.3 6.533-.423 10.475-.678 13.752-3.937 2.67-2.656 3.95-4.743 4.52-5.862-1.915-1.2-6.3-3.487-11.924-3.487zm21.627 9.508c-.92-3.683-3.43-4.797-5.66-5.01.218 1.766.808 5.93 1.82 9.077.72 2.242 2.16 4.223 3.247 5.505.782-1.937 1.65-5.34.593-9.572zm-.198 27.096c.117-.24.295-.443.517-.59.116-.08 3-2.093 3-5.78 0-3.22-2.915-3.962-3.247-4.036-.58-.13-1.04-.59-1.157-1.173l-.52-2.6c-1.012-1.01-3.858-4.096-5.09-7.932-.78-2.428-1.318-5.328-1.646-7.473-.857 1.248-2.06 2.758-3.767 4.455-4.074 4.052-8.69 4.35-15.673 4.803-1.303.085-2.695.175-4.192.297-7.823.638-8.155 7.024-8.164 7.296-.02.475-.27.87-.625 1.133a1.49 1.49 0 0 1-.575 1.072c-.072.058-2.008 1.624-2.008 4.463 0 3.05 2.24 5.905 2.263 5.933.04.05.076.1.11.154.046.075 4.725 7.578 10.496 13.496 4.334 4.446 8.176 4.927 9.628 4.927.227 0 .368-.013.406-.018a1.86 1.86 0 0 1 .197-.014c5.586 0 8.623-3.317 12.14-7.16.37-.405.747-.816 1.13-1.226 3.926-4.218 6.75-9.968 6.777-10.026zm23.93 40.648c-.912-1.49-5.43-7.65-10.564-9.606-5.23-1.993-15.787-4.437-19.158-5.195l-8.268 4.895 2.208 3.976a1.5 1.5 0 0 1-.267 1.806l-2.712 2.63 3.09 11.242h35.672v-9.746zM37.128 40.78H12.21a1.5 1.5 0 0 1 0-3h24.917a1.5 1.5 0 0 1 0 3zM10.71 23.28c0-.83.672-1.5 1.5-1.5h30.083a1.5 1.5 0 0 1 0 3H12.21a1.5 1.5 0 0 1-1.5-1.5zm27.75 9.5H12.21a1.5 1.5 0 0 1 0-3h26.25a1.5 1.5 0 0 1 0 3zm15-15.423a1.5 1.5 0 0 1-1.5-1.5v-.6c0-.827-.673-1.5-1.5-1.5H4.493c-.827 0-1.5.673-1.5 1.5v33c0 .828.673 1.5 1.5 1.5h30.5a1.5 1.5 0 0 1 0 3h-30.5c-2.482 0-4.5-2.018-4.5-4.5v-33c0-2.48 2.018-4.5 4.5-4.5h12.333C17.473 4.725 22.592.01 28.794.01s11.32 4.714 11.968 10.748h9.698c2.482 0 4.5 2.018 4.5 4.5v.6a1.5 1.5 0 0 1-1.5 1.5zM28.794 3.01c-4.545 0-8.306 3.374-8.937 7.748H37.73c-.63-4.374-4.39-7.748-8.936-7.748z" class="bcls-1"/></svg><view id="svg-services--services-03" viewBox="137.06 0 134.69 132.09"/><svg preserveAspectRatio="xMidYMid" width="134.69" height="132.09" viewBox="-10 -10 134.69 132.09" x="137.06"><defs><style>.ccls-1{fill:#1a9551;fill-rule:evenodd}</style></defs><path d="M114.66 110.7a1.5 1.5 0 0 1-1.496 1.39H28.252a1.5 1.5 0 0 1-1.496-1.39c-.048-.642-.372-6.26 2.808-8.706 2.464-1.895 7.753-5.394 15.494-7.544 5.62-1.56 11.513-3.634 13.762-4.457V82.95c-.023-.022-.13-.046-.154-.068-.033-.01-.067-.007-.1-.02C46.25 77.87 38.29 66.1 38.29 52.878c0-17.85 14.613-32.372 32.575-32.372 17.96 0 32.573 14.522 32.573 32.372 0 13.04-7.81 24.75-19.897 29.828-.122.05-.25.058-.375.075-.082.08-.158.163-.242.24-.082.078.004.146-.08.22v6.753c2.25.823 7.893 2.896 13.513 4.457 7.747 2.15 13.033 5.65 15.495 7.544 3.18 2.447 2.857 8.063 2.81 8.706zM61.82 90.847c2.675 1.445 5.78 2.232 9.045 2.232 3.14 0 6.286-.736 8.896-2.077v-5.41c-3.593 2.362-6.705 2.79-8.397 2.79-.182 0-.35-.006-.498-.013-1.57.077-4.916-.166-9.045-2.984v5.46zm38.618-37.97c0-16.195-13.267-29.37-29.573-29.37-16.307 0-29.574 13.175-29.574 29.37a29.202 29.202 0 0 0 12.563 24.045c-2.536-4.023-3.836-7.812-4.238-9.115-1.168-1.024-4.44-4.31-4.44-8.957 0-4.467 3.83-7.642 5.58-8.858-.093-1.544.027-4.512 1.92-6.782 1.588-1.9 3.995-2.865 7.157-2.865 5.154 0 6.643.91 8.053 2.1.64.54 1.064.897 3.007.932 1.89-.035 2.312-.393 2.952-.932 1.41-1.19 2.9-2.1 8.053-2.1 3.163 0 5.57.964 7.156 2.865 1.895 2.27 2.015 5.238 1.922 6.782 1.75 1.216 5.58 4.39 5.58 8.858 0 4.648-3.274 7.933-4.44 8.957-.402 1.3-1.697 5.073-4.22 9.085 7.77-5.427 12.543-14.31 12.543-24.014zM89.358 66.55c.086-.316.275-.598.536-.797.034-.025 3.66-2.873 3.66-6.903 0-3.88-4.862-6.768-4.91-6.796a1.5 1.5 0 0 1-.732-1.57c.004-.028.553-3.312-1.172-5.364-.99-1.178-2.62-1.775-4.843-1.775-4.467 0-5.307.708-6.12 1.393-1.063.897-2.098 1.588-4.885 1.638-2.842-.05-3.877-.74-4.94-1.638-.813-.685-1.653-1.393-6.12-1.393-2.223 0-3.853.597-4.843 1.775-1.725 2.052-1.177 5.336-1.17 5.368a1.507 1.507 0 0 1-.734 1.566c-.046.027-4.912 2.88-4.912 6.796 0 4.03 3.627 6.878 3.663 6.906.258.2.45.48.535.794.023.086 2.41 8.586 8.486 14.283 4.594 4.307 8.447 4.63 9.915 4.538a1.413 1.413 0 0 1 .184 0c1.475.09 5.323-.233 9.915-4.537 6.075-5.697 8.46-14.197 8.485-14.283zm20.663 37.822c-2.287-1.762-7.21-5.017-14.466-7.032-5.3-1.472-10.74-3.382-13.338-4.323-3.27 1.97-7.265 3.062-11.35 3.062-4.138 0-8.18-1.117-11.47-3.134-2.516.914-8.106 2.886-13.535 4.394-7.25 2.014-12.176 5.27-14.466 7.032-1.19.914-1.566 3.1-1.648 4.717h81.924c-.082-1.617-.46-3.804-1.65-4.718zM71.41 56.485c0-.166.017-.336.025-.503h-.897c.007.167.025.337.025.503 0 5.683-4.26 10.14-9.496 10.14-5.236 0-9.496-4.624-9.496-10.307 0-.73.077-1.478.23-2.22.14-.7.755-.952 1.47-.952h.29c.13-.037.26-.08.4-.08h34.01c.142 0 .27.043.4.08h.334c.713 0 1.327.25 1.47.95.15.738.227 1.486.227 2.222 0 5.683-4.26 10.307-9.495 10.307-5.236 0-9.496-4.457-9.496-10.14zm-3.858-.422h-12.97c-.007.14-.01.282-.01.422 0 4.03 2.913 7.14 6.495 7.14 3.582 0 6.496-3.11 6.496-7.14 0-.14-.003-.28-.01-.422zm13.353 7.562c3.582 0 6.496-3.11 6.496-7.14 0-.14-.003-.28-.01-.422H74.42c-.007.14-.01.283-.01.422 0 4.03 2.913 7.14 6.495 7.14zM34.57 48.585c-2.02.622-4.12.937-6.24.937-11.68 0-21.183-9.503-21.183-21.184 0-11.68 9.503-21.182 21.184-21.182 9.885 0 18.585 7.007 20.688 16.66.176.81-.337 1.61-1.146 1.786a1.504 1.504 0 0 1-1.786-1.147c-1.804-8.285-9.272-14.3-17.755-14.3-10.026 0-18.183 8.158-18.183 18.183 0 10.027 8.157 18.184 18.184 18.184 1.822 0 3.624-.27 5.356-.804.793-.245 1.63.2 1.875.993a1.5 1.5 0 0 1-.99 1.875zM22.814 19.558c0-.828.61-1.5 1.438-1.5h7.567c3.16 0 5.73 2.708 5.73 6.035s-2.57 5.973-5.73 5.973h-5.964v.997h5.836c.828 0 1.5.86 1.5 1.687 0 .83-.672 1.313-1.5 1.313h-5.836v4.253c0 .828-.734 1.5-1.563 1.5-.828 0-1.437-.672-1.437-1.5v-4.253h-2.44c-.83 0-1.5-.484-1.5-1.313 0-.828.67-1.687 1.5-1.687h2.44v-.997h-2.492c-.83 0-1.5-.61-1.5-1.438s.67-1.52 1.5-1.52h2.492v-7.35c-.01-.067-.04-.128-.04-.2zm3.04 7.55h5.965c1.505 0 2.73-1.34 2.73-3.015 0-1.673-1.225-3.034-2.73-3.034h-5.964v6.047zm26.6-5.492c-.148-.09-.303-.18-.458-.267-.797-.456-1.7-.97-2.104-1.942-.406-.98-.13-1.99.112-2.88a8.8 8.8 0 0 0 .197-.82c-.224-.085-.58-.178-.817-.24-.89-.232-1.9-.496-2.54-1.332-.646-.84-.64-1.883-.636-2.803 0-.245.002-.613-.024-.85-.237-.025-.603-.022-.848-.022-.92.01-1.965.01-2.804-.634-.837-.643-1.1-1.65-1.332-2.54a8.705 8.705 0 0 0-.242-.82c-.235.038-.586.134-.82.198-.89.243-1.9.518-2.88.112-.97-.402-1.484-1.305-1.937-2.102a8.817 8.817 0 0 0-.45-.73 8.6 8.6 0 0 0-.733.4c-.8.467-1.703.997-2.76.86-1.038-.136-1.767-.873-2.41-1.523-.18-.18-.45-.45-.64-.6-.19.15-.46.422-.638.602-.643.65-1.372 1.386-2.41 1.52-1.06.14-1.962-.392-2.76-.86-.208-.12-.52-.303-.735-.4a8.79 8.79 0 0 0-.448.73c-.455.8-.97 1.702-1.94 2.103-.978.407-1.987.132-2.878-.112a8.56 8.56 0 0 0-.82-.196c-.087.224-.18.58-.242.817-.232.89-.496 1.9-1.332 2.54-.838.644-1.873.64-2.804.635-.243 0-.613-.004-.85.022-.025.237-.023.604-.022.85.005.92.01 1.964-.635 2.802-.643.837-1.65 1.1-2.54 1.332-.238.063-.595.155-.818.242.036.235.13.587.195.82.243.89.518 1.9.112 2.88-.403.97-1.306 1.484-2.102 1.938-.214.122-.537.306-.73.448a9.2 9.2 0 0 0 .4.735c.467.798.997 1.704.86 2.76-.136 1.036-.873 1.766-1.523 2.41-.18.177-.453.448-.603.638.15.19.422.46.602.64.65.642 1.387 1.37 1.522 2.41.138 1.055-.392 1.96-.86 2.76-.12.207-.304.518-.4.734.194.143.516.326.73.448.797.454 1.7.97 2.102 1.94.406.978.13 1.987-.112 2.878-.064.233-.16.585-.197.82.224.087.58.18.818.242.89.232 1.898.496 2.54 1.332.645.838.64 1.883.636 2.804 0 .244-.002.61.024.848.236.026.603.026.848.023.923-.004 1.966-.01 2.804.635.836.643 1.1 1.65 1.332 2.54.062.238.156.596.242.82a8.89 8.89 0 0 0 .82-.197c.89-.243 1.9-.517 2.88-.112.97.402 1.484 1.305 1.938 2.102.122.214.306.536.45.73.215-.096.526-.28.733-.4.8-.468 1.703-.997 2.762-.86 1.038.135 1.767.872 2.41 1.522.178.18.45.453.64.603.19-.15.46-.423.638-.603.643-.65 1.372-1.387 2.41-1.522.668-.088 1.278.093 1.84.356a1.5 1.5 0 0 1 1.903 1.445l.01.476a1.5 1.5 0 0 1-2.245 1.324l-.257-.15c-.245-.143-.633-.37-.85-.447-.182.13-.485.436-.677.63-.69.698-1.55 1.565-2.772 1.565-1.22 0-2.08-.867-2.77-1.565-.192-.194-.495-.5-.677-.63-.216.08-.6.304-.846.447-.836.49-1.876 1.1-3.04.79-1.177-.315-1.78-1.374-2.265-2.224-.137-.24-.352-.618-.496-.79-.227.018-.654.135-.926.21-.938.255-2.105.573-3.15-.03-1.05-.61-1.358-1.784-1.604-2.73-.07-.267-.18-.69-.276-.897-.224-.04-.664-.036-.943-.036-.978.005-2.187.012-3.042-.844-.855-.855-.85-2.068-.844-3.042.002-.278.004-.718-.035-.942-.206-.095-.63-.205-.898-.275-.945-.248-2.12-.554-2.727-1.604-.605-1.047-.286-2.214-.03-3.152.073-.27.19-.7.21-.926-.174-.144-.55-.36-.79-.495-.85-.485-1.91-1.088-2.224-2.265-.31-1.16.3-2.203.79-3.04.142-.245.368-.63.445-.846-.13-.183-.434-.484-.63-.677-.696-.69-1.563-1.55-1.563-2.772 0-1.222.868-2.08 1.565-2.772.194-.19.5-.494.63-.676-.078-.216-.304-.6-.447-.845-.49-.838-1.1-1.88-.79-3.042.316-1.175 1.375-1.778 2.225-2.263.24-.137.617-.353.79-.496-.02-.228-.136-.655-.21-.926-.255-.94-.574-2.106.03-3.15.61-1.05 1.784-1.358 2.73-1.604.267-.07.69-.18.896-.276.04-.224.038-.664.036-.943-.005-.974-.01-2.187.845-3.042.855-.856 2.07-.848 3.042-.844.28 0 .72.003.942-.036.095-.206.205-.63.276-.9.247-.942.554-2.118 1.604-2.726 1.045-.605 2.21-.285 3.15-.03.27.075.698.19.925.21.144-.172.36-.55.495-.79.485-.85 1.088-1.91 2.265-2.224 1.16-.31 2.203.3 3.04.79.244.143.63.37.846.447.182-.13.485-.435.677-.63.69-.696 1.55-1.564 2.77-1.564 1.223 0 2.082.868 2.772 1.566.192.193.495.5.677.63.215-.08.6-.304.844-.447.837-.49 1.876-1.1 3.04-.79 1.177.314 1.78 1.373 2.265 2.224.136.238.35.616.495.79.227-.02.655-.137.926-.21.94-.257 2.106-.575 3.15.03 1.05.608 1.358 1.783 1.604 2.728.07.268.18.692.276.897.224.04.664.04.943.036.98.003 2.187-.01 3.042.845.855.856.85 2.068.844 3.042-.003.28-.004.72.035.943.206.095.63.206.898.276.944.246 2.12.553 2.727 1.602.605 1.046.286 2.212.03 3.15-.074.273-.19.7-.21.927.173.145.553.36.793.498.184.105.37.21.545.32a1.5 1.5 0 0 1-1.574 2.553z" class="ccls-1"/></svg><view id="svg-services--services-04" viewBox="0 0 137.06 134.03"/><svg preserveAspectRatio="xMidYMid" width="137.06" height="134.03" viewBox="-10 -10 137.06 134.03"><defs><style>.dcls-1{fill:#e18309;fill-rule:evenodd}</style></defs><path d="M115.548 114.022H25.53a1.5 1.5 0 0 1-1.5-1.5v-11.02c0-.276.077-.546.22-.78.2-.328 4.886-8.042 11.728-10.46 6.444-2.275 20.084-5.04 20.66-5.156a1.496 1.496 0 0 1 1.75 1.098l5.614 22.293 2.49-10.752L63.67 94.6a1.5 1.5 0 0 1-.235-1.656l2.94-6.083c.252-.517.777-.846 1.352-.846h6.536c.575 0 1.1.33 1.35.847l2.94 6.084a1.5 1.5 0 0 1-.234 1.655l-2.824 3.145 2.42 10.45 4.424-21.92a1.5 1.5 0 0 1 1.767-1.17c.577.117 14.217 2.882 20.66 5.158 6.844 2.417 11.862 10.13 12.06 10.458.145.236.22.506.22.782v11.02a1.5 1.5 0 0 1-1.5 1.5zm-59.71-25.687c-3.693.775-13.79 2.966-18.86 4.757-5.106 1.804-8.992 7.41-9.947 8.85v9.08h34.51l-5.702-22.687zm16.9 7.992l2.677-2.983-2.094-4.33h-4.653l-2.094 4.33 2.678 2.983c.33.366.458.87.344 1.35l-3.097 13.346h8.994l-3.094-13.345c-.115-.48.013-.985.342-1.35zm41.31 5.617c-.958-1.442-5.192-7.055-10.28-8.852-5.04-1.78-15.042-3.955-18.79-4.742l-4.57 22.673h33.64v-9.08zm-21.15-39.86c-.688 1.35-3.4 6.434-7.114 10.424-.376.404-.745.808-1.112 1.208-3.644 3.98-7.412 8.098-14.262 8.133-.132.012-.366.03-.692.03-1.83 0-6.646-.57-11.777-5.833-5.764-5.912-10.323-13.09-10.852-13.937-.44-.568-2.868-3.882-2.868-7.74 0-3.154 1.602-5.277 2.536-6.246-.25-3.314-.598-16.18 8.284-23.056.04-.03.08-.06.123-.086 6.417-4.01 12.306-6.043 17.504-6.043 3.816 0 7.207 1.083 10.08 3.22 2.978 2.215 6.33 5.382 8.618 12.07 2.097 6.13 1.098 9.996.552 11.41 0 .04.005.08.003.12l.326 1.633c1.992.768 4.637 2.78 4.637 6.673 0 4.484-2.948 7.202-3.985 8.02zm-4.37-26.883c-2.02-5.896-4.832-8.594-7.57-10.632-5.77-4.295-14.19-3.284-24.14 2.918-4.617 3.61-6.305 9.337-6.874 13.907 1.678-1.984 4.336-3.643 8.404-3.975 3.605-.295 6.527-.346 9.106-.39 3.933-.07 7.04-.126 10.335-1.056 3.108-.876 5.897-.6 8.29.822 1.513.9 2.658 2.15 3.522 3.415-.098-1.368-.4-3.04-1.074-5.01zm2.11 14.83c-.58-.128-1.04-.59-1.157-1.17l-.61-3.057c-.016-.077-.002-.153-.005-.23-.36-1.19-1.594-4.59-4.332-6.207-1.655-.98-3.65-1.15-5.93-.506-3.668 1.035-6.946 1.092-11.096 1.166-2.533.045-5.405.096-8.915.382-7.822.638-8.154 7.025-8.164 7.296-.018.475-.27.87-.624 1.132-.034.42-.234.812-.575 1.073-.074.057-2.01 1.622-2.01 4.46 0 3.052 2.24 5.906 2.264 5.934.04.048.076.1.108.153.047.075 4.727 7.58 10.497 13.496 4.334 4.446 8.177 4.927 9.628 4.927.227 0 .368-.013.406-.017.06-.008.137-.014.197-.014 5.586 0 8.624-3.318 12.14-7.16.37-.406.747-.817 1.13-1.226 3.926-4.22 6.75-9.97 6.777-10.026a1.51 1.51 0 0 1 .517-.592c.116-.078 3-2.09 3-5.78 0-3.22-2.915-3.96-3.247-4.035zM44.862 26.954h1.208a1.5 1.5 0 0 1 0 3h-1.207a1.5 1.5 0 0 1 0-3zm0-5.982h3.766a1.5 1.5 0 0 1 0 3h-3.767a1.5 1.5 0 0 1 0-3zm8.68.446a1.5 1.5 0 0 1-1.5-1.5v-1.98h-.23c-.104.023-.2.064-.31.064h-8.77c-.11 0-.214-.04-.32-.063h-1.41V31.03c.012.086.04.157.04.253a2.2 2.2 0 0 1-.04.396v26.604c0 .046.006.085.006.132 0 .018-.01.034-.01.052-.005.807-.125 1.53-.935 1.53-.107 0-.22-.012-.333-.035-.056.007-.103.036-.16.036H15.064a1.7 1.7 0 0 1-.35-.042c-.063.01-.118.04-.183.04H1.512c-.828 0-1.5-.753-1.5-1.582V30.514a1.5 1.5 0 0 1 1.5-1.5h2.52v-3.67c0-.828.67-1.374 1.5-1.374h1.5v-3.474c0-.83.672-1.5 1.5-1.5h4.47V12.25c0-.83.672-1.25 1.5-1.25h1.73V9.52a1.5 1.5 0 0 1 1.5-1.5h1.333V1.5c0-.83.67-1.5 1.5-1.5h5c.827 0 1.5.67 1.5 1.5v6.52h1.333a1.5 1.5 0 0 1 1.5 1.5V11h1.583c.83 0 1.522.42 1.522 1.25v17.783h5.063V16.5c0-.83.67-1.5 1.5-1.5h1.542v-4.418c0-.828.67-1.563 1.5-1.563h3.436V4.082a1.5 1.5 0 0 1 3 0V9.02h2.46c.827 0 1.5.734 1.5 1.562V15h.54c.83 0 1.5.67 1.5 1.5v3.416a1.5 1.5 0 0 1-1.5 1.5zM4.918 31.89H3.012v25.09h9.99V32.026h-7.47c-.22 0-.426-.053-.615-.138zm2.114-2.876h5.972V26.97h-5.97v2.044zm3.002-7.018v1.973h2.97v-1.974h-2.97zM29.982 14h-1.584a1.5 1.5 0 0 1-1.5-1.5v-1.543h-1.334a1.5 1.5 0 0 1-1.5-1.5V3h-2v6.457c0 .83-.86 1.5-1.687 1.5h-1.334v1.48c0 .83-.484 1.5-1.312 1.5h-1.728V18h13.98v-4zm0 7H16.03v3.994h13.95V21zm0 6.994H16.03v2.992h13.95v-2.993zm0 5.993H16.03v3.993h13.95v-3.993zm0 6.993H16.03v2.994h13.95V40.98zm0 5.993H16.03v3.993h13.95v-3.993zm0 6.993H16.03v3.013h13.95v-3.014zm8.083-20.996h-5.063v23.946h5.063V32.97zm11.937-20.95h-5.958V15h5.958v-2.98zM10.23 54.01H6.462c-.828 0-1.5-.797-1.5-1.627 0-.828.672-1.374 1.5-1.374h3.766c.827 0 1.5.545 1.5 1.373 0 .83-.673 1.626-1.5 1.626zm0-5.984H6.462c-.828 0-1.5-.734-1.5-1.563 0-.828.672-1.437 1.5-1.437h3.766c.827 0 1.5.61 1.5 1.437 0 .83-.673 1.563-1.5 1.563zm0-6.045H6.462c-.828 0-1.5-.608-1.5-1.437 0-.83.672-1.562 1.5-1.562h3.766c.827 0 1.5.734 1.5 1.563 0 .83-.673 1.438-1.5 1.438z" class="dcls-1"/></svg></svg>