<?xml version="1.0" encoding="utf-8"?><svg width="205" height="193" viewBox="0 0 205 193" xmlns="http://www.w3.org/2000/svg" xmlns:xlink="http://www.w3.org/1999/xlink"><view id="svg-service--services-all" viewBox="0 132.84 60 60"/><svg preserveAspectRatio="xMidYMid" width="60" height="60" viewBox="-5 -5 60 60" y="132.84"><defs><style>.acls-1{fill:#961a32;fill-rule:evenodd}</style></defs><path d="M40 50H10C4.477 50 0 45.523 0 40V10C0 4.477 4.477 0 10 0h30c5.523 0 10 4.477 10 10v30c0 5.523-4.477 10-10 10zm8-40c0-4.41-3.59-8-8-8H10c-4.41 0-8 3.59-8 8v30c0 4.41 3.59 8 8 8h30c4.41 0 8-3.59 8-8V10zm-8.75 27H22a1 1 0 0 1 0-2h17.25a1 1 0 0 1 0 2zm0-11H22a1 1 0 0 1 0-2h17.25a1 1 0 0 1 0 2zm0-11H22a1 1 0 0 1 0-2h17.25a1 1 0 0 1 0 2zM17 40h-6a1 1 0 0 1-1-1v-6a1 1 0 0 1 1-1h6a1 1 0 0 1 1 1v6a1 1 0 0 1-1 1zm-1-6h-4v4h4v-4zm1-5h-6a1 1 0 0 1-1-1v-6a1 1 0 0 1 1-1h6a1 1 0 0 1 1 1v6a1 1 0 0 1-1 1zm-1-6h-4v4h4v-4zm1-5h-6a1 1 0 0 1-1-1v-6a1 1 0 0 1 1-1h6a1 1 0 0 1 1 1v6a1 1 0 0 1-1 1zm-1-6h-4v4h4v-4z" class="acls-1"/></svg><view id="svg-service--services-all-white" viewBox="60 132.84 60 60"/><svg preserveAspectRatio="xMidYMid" width="60" height="60" viewBox="-5 -5 60 60" x="60" y="132.84"><defs><style>.bcls-1{fill:#fff;fill-rule:evenodd}</style></defs><path d="M40 50H10C4.477 50 0 45.523 0 40V10C0 4.477 4.477 0 10 0h30c5.523 0 10 4.477 10 10v30c0 5.523-4.477 10-10 10zm8-40c0-4.41-3.59-8-8-8H10c-4.41 0-8 3.59-8 8v30c0 4.41 3.59 8 8 8h30c4.41 0 8-3.59 8-8V10zm-8.75 27H22a1 1 0 0 1 0-2h17.25a1 1 0 0 1 0 2zm0-11H22a1 1 0 0 1 0-2h17.25a1 1 0 0 1 0 2zm0-11H22a1 1 0 0 1 0-2h17.25a1 1 0 0 1 0 2zM17 40h-6a1 1 0 0 1-1-1v-6a1 1 0 0 1 1-1h6a1 1 0 0 1 1 1v6a1 1 0 0 1-1 1zm-1-6h-4v4h4v-4zm1-5h-6a1 1 0 0 1-1-1v-6a1 1 0 0 1 1-1h6a1 1 0 0 1 1 1v6a1 1 0 0 1-1 1zm-1-6h-4v4h4v-4zm1-5h-6a1 1 0 0 1-1-1v-6a1 1 0 0 1 1-1h6a1 1 0 0 1 1 1v6a1 1 0 0 1-1 1zm-1-6h-4v4h4v-4z" class="bcls-1"/></svg><view id="svg-service--services-checkbox" viewBox="120 132.84 24.22 20.22"/><svg preserveAspectRatio="xMidYMid" width="24.22" height="20.22" viewBox="-5 -5 24.22 20.22" x="120" y="132.84"><defs><style>.ccls-1{fill:#961a32;fill-rule:evenodd}</style></defs><path d="M6.108 10.216a1.1 1.1 0 0 1-.688-.24L.415 5.97A1.1 1.1 0 1 1 1.79 4.25l4.183 3.347L12.287.38a1.102 1.102 0 0 1 1.658 1.45L6.937 9.84a1.1 1.1 0 0 1-.83.376z" class="ccls-1"/></svg><view id="svg-service--services-findir" viewBox="0 66.75 67.34 66.09"/><svg preserveAspectRatio="xMidYMid" width="67.34" height="66.09" viewBox="-5 -5 67.34 66.09" y="66.75"><defs><style>.dcls-1{fill:#1a9551;fill-rule:evenodd}</style></defs><path d="M48.178 47.227c3.873 1.075 6.517 2.825 7.747 3.772 1.59 1.222 1.43 4.072 1.405 4.393-.03.392-.355.612-.748.612h-19.68a.637.637 0 0 1-.306.083h-22.47a.75.75 0 0 1-.748-.695c-.024-.32-.186-3.17 1.404-4.394 1.232-.948 3.877-2.698 7.747-3.773 2.81-.78 5.714-1.817 6.838-2.23v-3.52l-.03-.034c-.02-.005-.037-.003-.055-.01-6.158-2.497-10.138-8.382-10.138-14.992 0-8.924 7.307-16.185 16.287-16.185 8.98 0 16.287 7.26 16.287 16.186 0 6.52-3.906 12.375-9.95 14.915-.064.027-.13.03-.195.04-.04.037-.073.08-.113.117-.042.04-.082.067-.123.105v3.38c1.123.413 4.028 1.45 6.838 2.23zm-17.31-1.83a9.635 9.635 0 0 0 4.564 1.144c1.574 0 3.1-.382 4.407-1.057v-2.69c-1.797 1.178-3.313 1.4-4.158 1.4a4.72 4.72 0 0 1-.25-.006c-.784.038-2.502-.105-4.564-1.51v2.72zm-15.17 6.79c-.596.458-.784 1.01-.825 1.817h21.723c.007 0 .013.01.02.01l19.22-.01c-.042-.807-.23-1.36-.825-1.816-1.144-.88-3.605-2.508-7.233-3.516-2.66-.74-5.395-1.7-6.686-2.168-1.633.982-3.618 1.537-5.658 1.537-2.065 0-4.076-.565-5.72-1.57-1.25.455-4.058 1.445-6.782 2.202-3.625 1.007-6.088 2.635-7.233 3.516zm34.52-25.746c0-8.097-6.632-14.685-14.786-14.685-8.153 0-14.787 6.588-14.787 14.686 0 4.88 2.393 9.325 6.297 12.033-1.272-2.015-1.933-3.915-2.135-4.568-.583-.512-2.22-2.154-2.22-4.48 0-2.232 1.916-3.82 2.79-4.427-.046-.772.014-2.256.96-3.39.794-.952 1.998-1.434 3.58-1.434 2.576 0 3.32.455 4.026 1.05.32.27.53.45 1.503.466.944-.017 1.156-.196 1.476-.466.705-.595 1.45-1.05 4.027-1.05 1.58 0 2.784.482 3.577 1.433.947 1.135 1.007 2.62.96 3.39.875.61 2.79 2.196 2.79 4.43 0 2.324-1.636 3.966-2.22 4.478-.2.65-.86 2.543-2.124 4.552A14.627 14.627 0 0 0 50.22 26.44zm-5.54 6.837c.044-.158.14-.3.27-.4.016-.01 1.83-1.435 1.83-3.45 0-1.415-1.286-2.557-1.996-3.083.15.227.266.513.305.706.075.37.113.743.113 1.11 0 2.842-2.13 5.154-4.747 5.154-2.62 0-4.748-2.312-4.748-5.153 0-.082.02-.167.025-.25h-.474c.004.083.026.168.026.25 0 2.842-2.13 5.154-4.748 5.154-2.62 0-4.75-2.312-4.75-5.153 0-.364.04-.738.115-1.11a.745.745 0 0 1 .54-.567c.137-.228.327-.47.54-.47h9.387c.06-.04.12-.022.186-.022l7.753.022a.747.747 0 0 1-.35-.768c.002-.014.277-1.656-.586-2.682-.495-.59-1.31-.888-2.42-.888-2.235 0-2.655.354-3.06.697-.533.45-1.05.795-2.444.82-1.42-.025-1.938-.37-2.47-.82-.406-.342-.826-.696-3.06-.696-1.112 0-1.926.3-2.42.888-.864 1.026-.59 2.668-.587 2.684a.752.752 0 0 1-.367.783c-.023.012-2.456 1.44-2.456 3.396 0 2.016 1.813 3.44 1.832 3.454.128.1.223.24.266.397.01.043 1.205 4.293 4.243 7.14 2.296 2.155 4.222 2.316 4.956 2.27h.092c.738.045 2.662-.116 4.958-2.27 3.038-2.847 4.23-7.097 4.242-7.14zM43.7 28.16c0-.07-.002-.108-.005-.18H37.21c-.003.072-.005.11-.005.18 0 2.015 1.457 3.654 3.248 3.654 1.79 0 3.247-1.64 3.247-3.653zm-9.918 0c0-.07-.002-.108-.006-.18H27.29c-.003.072-.005.11-.005.18 0 2.015 1.458 3.654 3.25 3.654 1.79 0 3.247-1.64 3.247-3.653zm-16.497-3.866c-1.01.31-2.06.47-3.12.47-5.84 0-10.59-4.753-10.59-10.593s4.75-10.59 10.59-10.59c4.943 0 9.293 3.503 10.344 8.33a.75.75 0 0 1-1.467.32c-.902-4.143-4.636-7.15-8.878-7.15-5.013 0-9.092 4.078-9.092 9.09 0 5.014 4.08 9.093 9.092 9.093a9.08 9.08 0 0 0 2.678-.402.75.75 0 1 1 .442 1.434zM11.21 9.73a.75.75 0 0 1 .75-.75h3.783c1.58 0 2.865 1.07 2.865 2.735 0 1.664-1.285 2.643-2.865 2.643H12.73v1.31h2.95a.75.75 0 0 1 .75.75c0 .415-.337.5-.75.5h-2.95v1.908a.75.75 0 0 1-1.5 0V16.92h-1.19c-.413 0-.75-.087-.75-.5a.75.75 0 0 1 .75-.75h1.19v-1.312h-1.215a.75.75 0 0 1-.75-.75c0-.415.336-.594.75-.594h1.215V9.83c-.005-.035-.02-.065-.02-.1zm1.52 3.284h3.013c.753 0 1.365-.462 1.365-1.3 0-.835-.612-1.516-1.365-1.516H12.73v2.816zm13.497-2.204a6.264 6.264 0 0 0-.23-.134c-.397-.227-.85-.484-1.05-.97-.203-.49-.066-.995.056-1.44.032-.116.08-.292.098-.41-.11-.043-.29-.09-.407-.12-.445-.116-.95-.248-1.27-.666-.323-.42-.32-.942-.32-1.402.002-.122.003-.306-.01-.424-.118-.013-.3-.012-.424-.012-.46.005-.983.005-1.403-.317-.418-.322-.55-.826-.666-1.27a4.404 4.404 0 0 0-.12-.41c-.118.02-.293.067-.41.1-.445.12-.95.258-1.44.055-.485-.202-.742-.653-.97-1.05a4.643 4.643 0 0 0-.223-.367c-.108.05-.263.14-.367.2-.4.234-.85.5-1.38.43-.52-.067-.884-.436-1.205-.76a4.28 4.28 0 0 0-.32-.302c-.095.076-.23.213-.32.303-.32.324-.685.693-1.204.76-.528.07-.98-.196-1.38-.43-.103-.06-.258-.15-.366-.2a4.37 4.37 0 0 0-.225.366c-.227.397-.485.848-.97 1.05-.49.203-.994.065-1.44-.057-.116-.03-.292-.08-.41-.098-.042.112-.09.29-.12.41-.116.443-.248.948-.666 1.27-.42.32-.936.32-1.402.316-.122 0-.306 0-.425.013a4.58 4.58 0 0 0-.01.424c0 .46.004.983-.318 1.402-.323.417-.827.55-1.272.665-.118.03-.297.077-.41.12.02.118.068.294.1.41.12.446.258.95.056 1.44-.202.486-.653.743-1.05.97-.108.06-.27.153-.367.224.048.107.14.263.2.367.234.4.5.85.43 1.38-.068.518-.436.883-.76 1.204-.09.09-.228.226-.302.32.074.096.21.23.3.32.326.322.694.687.762 1.206.07.527-.196.98-.43 1.38-.06.103-.152.26-.2.367.097.07.258.163.365.224.398.227.85.484 1.05.97.204.49.066.993-.055 1.438a4.3 4.3 0 0 0-.098.41c.11.044.29.09.408.122.444.116.95.248 1.27.666.322.42.32.94.317 1.402 0 .122 0 .305.012.424.118.012.302.012.424.01.462-.002.984-.004 1.403.318.418.32.55.826.666 1.27.03.12.077.297.12.41a4.21 4.21 0 0 0 .41-.1c.446-.12.95-.257 1.44-.055.485.2.742.653.97 1.05.06.108.152.27.223.367.108-.05.264-.14.368-.2.4-.235.852-.5 1.38-.43.52.067.884.435 1.206.76.09.09.224.227.32.302.095-.075.23-.212.32-.302.32-.325.685-.693 1.204-.76.334-.044.64.046.92.177a.75.75 0 0 1 .952.723l.005.237a.748.748 0 0 1-1.123.662l-.13-.076a3.463 3.463 0 0 0-.424-.224 3.45 3.45 0 0 0-.34.316c-.344.348-.773.782-1.385.782-.61 0-1.04-.434-1.385-.782a3.326 3.326 0 0 0-.34-.315c-.107.04-.3.152-.422.224-.418.245-.938.55-1.52.394-.588-.157-.89-.686-1.132-1.11a3.48 3.48 0 0 0-.248-.397c-.114.01-.327.07-.463.106-.47.128-1.053.288-1.575-.015-.525-.303-.68-.89-.802-1.363a3.572 3.572 0 0 0-.138-.45c-.112-.018-.332-.017-.472-.017-.49.003-1.093.006-1.52-.422-.428-.427-.425-1.034-.423-1.52 0-.14.002-.36-.018-.472-.103-.048-.314-.103-.448-.138-.474-.123-1.062-.277-1.365-.802-.302-.522-.143-1.106-.015-1.575.037-.135.095-.35.105-.462-.087-.072-.276-.18-.395-.248-.426-.242-.955-.544-1.112-1.132-.156-.58.15-1.102.395-1.52.07-.122.184-.315.223-.423-.065-.09-.218-.242-.315-.338C.433 15.21 0 14.782 0 14.17c0-.61.434-1.04.783-1.385.098-.096.25-.247.316-.338-.04-.108-.152-.3-.223-.423-.245-.42-.55-.94-.395-1.52.157-.59.687-.89 1.112-1.132.12-.07.31-.176.395-.248-.01-.114-.068-.328-.105-.463-.128-.468-.287-1.053.015-1.575.304-.525.892-.678 1.364-.802.134-.035.345-.09.448-.137.02-.112.02-.332.018-.47-.002-.49-.005-1.095.422-1.523.428-.428 1.035-.423 1.52-.422.142.002.36.003.473-.016.048-.103.104-.315.14-.45.122-.472.276-1.06.8-1.363.523-.3 1.107-.142 1.576-.014.135.037.35.095.462.106a3.48 3.48 0 0 0 .248-.396C9.61 1.17 9.91.64 10.498.484c.58-.155 1.102.15 1.52.395.123.07.315.183.423.222.093-.065.244-.218.34-.315.345-.35.774-.782 1.385-.782.612 0 1.04.433 1.386.782.097.097.248.25.34.315.107-.04.3-.15.422-.223.418-.246.938-.55 1.52-.396.59.157.89.687 1.133 1.112.068.12.175.31.247.396.114-.01.328-.07.463-.105.47-.13 1.053-.288 1.575.015.526.303.68.89.802 1.364.035.134.09.346.138.448.112.02.332.02.47.018.49 0 1.095-.005 1.522.422.428.428.425 1.034.423 1.52 0 .14-.002.36.017.473.103.047.315.102.45.138.47.123 1.06.276 1.363.8.302.524.143 1.107.015 1.576-.037.137-.096.35-.105.464.087.073.276.18.396.25.094.052.186.105.274.16a.75.75 0 0 1-.787 1.276z" class="dcls-1"/></svg><view id="svg-service--services-findir-white" viewBox="67.34 66.75 67.34 66.09"/><svg preserveAspectRatio="xMidYMid" width="67.34" height="66.09" viewBox="-5 -5 67.34 66.09" x="67.34" y="66.75"><defs><style>.ecls-1{fill:#fff;fill-rule:evenodd}</style></defs><path d="M48.178 47.227c3.873 1.075 6.517 2.825 7.747 3.772 1.59 1.222 1.43 4.072 1.405 4.393-.03.392-.355.612-.748.612h-19.68a.637.637 0 0 1-.306.083h-22.47a.75.75 0 0 1-.748-.695c-.024-.32-.186-3.17 1.404-4.394 1.232-.948 3.877-2.698 7.747-3.773 2.81-.78 5.714-1.817 6.838-2.23v-3.52l-.03-.034c-.02-.005-.037-.003-.055-.01-6.158-2.497-10.138-8.382-10.138-14.992 0-8.924 7.307-16.185 16.287-16.185 8.98 0 16.287 7.26 16.287 16.186 0 6.52-3.906 12.375-9.95 14.915-.064.027-.13.03-.195.04-.04.037-.073.08-.113.117-.042.04-.082.067-.123.105v3.38c1.123.413 4.028 1.45 6.838 2.23zm-17.31-1.83a9.635 9.635 0 0 0 4.564 1.144c1.574 0 3.1-.382 4.407-1.057v-2.69c-1.797 1.178-3.313 1.4-4.158 1.4a4.72 4.72 0 0 1-.25-.006c-.784.038-2.502-.105-4.564-1.51v2.72zm-15.17 6.79c-.596.458-.784 1.01-.825 1.817h21.723c.007 0 .013.01.02.01l19.22-.01c-.042-.807-.23-1.36-.825-1.816-1.144-.88-3.605-2.508-7.233-3.516-2.66-.74-5.395-1.7-6.686-2.168-1.633.982-3.618 1.537-5.658 1.537-2.065 0-4.076-.565-5.72-1.57-1.25.455-4.058 1.445-6.782 2.202-3.625 1.007-6.088 2.635-7.233 3.516zm34.52-25.746c0-8.097-6.632-14.685-14.786-14.685-8.153 0-14.787 6.588-14.787 14.686 0 4.88 2.393 9.325 6.297 12.033-1.272-2.015-1.933-3.915-2.135-4.568-.583-.512-2.22-2.154-2.22-4.48 0-2.232 1.916-3.82 2.79-4.427-.046-.772.014-2.256.96-3.39.794-.952 1.998-1.434 3.58-1.434 2.576 0 3.32.455 4.026 1.05.32.27.53.45 1.503.466.944-.017 1.156-.196 1.476-.466.705-.595 1.45-1.05 4.027-1.05 1.58 0 2.784.482 3.577 1.433.947 1.135 1.007 2.62.96 3.39.875.61 2.79 2.196 2.79 4.43 0 2.324-1.636 3.966-2.22 4.478-.2.65-.86 2.543-2.124 4.552A14.627 14.627 0 0 0 50.22 26.44zm-5.54 6.837c.044-.158.14-.3.27-.4.016-.01 1.83-1.435 1.83-3.45 0-1.415-1.286-2.557-1.996-3.083.15.227.266.513.305.706.075.37.113.743.113 1.11 0 2.842-2.13 5.154-4.747 5.154-2.62 0-4.748-2.312-4.748-5.153 0-.082.02-.167.025-.25h-.474c.004.083.026.168.026.25 0 2.842-2.13 5.154-4.748 5.154-2.62 0-4.75-2.312-4.75-5.153 0-.364.04-.738.115-1.11a.745.745 0 0 1 .54-.567c.137-.228.327-.47.54-.47h9.387c.06-.04.12-.022.186-.022l7.753.022a.747.747 0 0 1-.35-.768c.002-.014.277-1.656-.586-2.682-.495-.59-1.31-.888-2.42-.888-2.235 0-2.655.354-3.06.697-.533.45-1.05.795-2.444.82-1.42-.025-1.938-.37-2.47-.82-.406-.342-.826-.696-3.06-.696-1.112 0-1.926.3-2.42.888-.864 1.026-.59 2.668-.587 2.684a.752.752 0 0 1-.367.783c-.023.012-2.456 1.44-2.456 3.396 0 2.016 1.813 3.44 1.832 3.454.128.1.223.24.266.397.01.043 1.205 4.293 4.243 7.14 2.296 2.155 4.222 2.316 4.956 2.27h.092c.738.045 2.662-.116 4.958-2.27 3.038-2.847 4.23-7.097 4.242-7.14zM43.7 28.16c0-.07-.002-.108-.005-.18H37.21c-.003.072-.005.11-.005.18 0 2.015 1.457 3.654 3.248 3.654 1.79 0 3.247-1.64 3.247-3.653zm-9.918 0c0-.07-.002-.108-.006-.18H27.29c-.003.072-.005.11-.005.18 0 2.015 1.458 3.654 3.25 3.654 1.79 0 3.247-1.64 3.247-3.653zm-16.497-3.866c-1.01.31-2.06.47-3.12.47-5.84 0-10.59-4.753-10.59-10.593s4.75-10.59 10.59-10.59c4.943 0 9.293 3.503 10.344 8.33a.75.75 0 0 1-1.467.32c-.902-4.143-4.636-7.15-8.878-7.15-5.013 0-9.092 4.078-9.092 9.09 0 5.014 4.08 9.093 9.092 9.093a9.08 9.08 0 0 0 2.678-.402.75.75 0 1 1 .442 1.434zM11.21 9.73a.75.75 0 0 1 .75-.75h3.783c1.58 0 2.865 1.07 2.865 2.735 0 1.664-1.285 2.643-2.865 2.643H12.73v1.31h2.95a.75.75 0 0 1 .75.75c0 .415-.337.5-.75.5h-2.95v1.908a.75.75 0 0 1-1.5 0V16.92h-1.19c-.413 0-.75-.087-.75-.5a.75.75 0 0 1 .75-.75h1.19v-1.312h-1.215a.75.75 0 0 1-.75-.75c0-.415.336-.594.75-.594h1.215V9.83c-.005-.035-.02-.065-.02-.1zm1.52 3.284h3.013c.753 0 1.365-.462 1.365-1.3 0-.835-.612-1.516-1.365-1.516H12.73v2.816zm13.497-2.204a6.264 6.264 0 0 0-.23-.134c-.397-.227-.85-.484-1.05-.97-.203-.49-.066-.995.056-1.44.032-.116.08-.292.098-.41-.11-.043-.29-.09-.407-.12-.445-.116-.95-.248-1.27-.666-.323-.42-.32-.942-.32-1.402.002-.122.003-.306-.01-.424-.118-.013-.3-.012-.424-.012-.46.005-.983.005-1.403-.317-.418-.322-.55-.826-.666-1.27a4.404 4.404 0 0 0-.12-.41c-.118.02-.293.067-.41.1-.445.12-.95.258-1.44.055-.485-.202-.742-.653-.97-1.05a4.643 4.643 0 0 0-.223-.367c-.108.05-.263.14-.367.2-.4.234-.85.5-1.38.43-.52-.067-.884-.436-1.205-.76a4.28 4.28 0 0 0-.32-.302c-.095.076-.23.213-.32.303-.32.324-.685.693-1.204.76-.528.07-.98-.196-1.38-.43-.103-.06-.258-.15-.366-.2a4.37 4.37 0 0 0-.225.366c-.227.397-.485.848-.97 1.05-.49.203-.994.065-1.44-.057-.116-.03-.292-.08-.41-.098-.042.112-.09.29-.12.41-.116.443-.248.948-.666 1.27-.42.32-.936.32-1.402.316-.122 0-.306 0-.425.013a4.58 4.58 0 0 0-.01.424c0 .46.004.983-.318 1.402-.323.417-.827.55-1.272.665-.118.03-.297.077-.41.12.02.118.068.294.1.41.12.446.258.95.056 1.44-.202.486-.653.743-1.05.97-.108.06-.27.153-.367.224.048.107.14.263.2.367.234.4.5.85.43 1.38-.068.518-.436.883-.76 1.204-.09.09-.228.226-.302.32.074.096.21.23.3.32.326.322.694.687.762 1.206.07.527-.196.98-.43 1.38-.06.103-.152.26-.2.367.097.07.258.163.365.224.398.227.85.484 1.05.97.204.49.066.993-.055 1.438a4.3 4.3 0 0 0-.098.41c.11.044.29.09.408.122.444.116.95.248 1.27.666.322.42.32.94.317 1.402 0 .122 0 .305.012.424.118.012.302.012.424.01.462-.002.984-.004 1.403.318.418.32.55.826.666 1.27.03.12.077.297.12.41a4.21 4.21 0 0 0 .41-.1c.446-.12.95-.257 1.44-.055.485.2.742.653.97 1.05.06.108.152.27.223.367.108-.05.264-.14.368-.2.4-.235.852-.5 1.38-.43.52.067.884.435 1.206.76.09.09.224.227.32.302.095-.075.23-.212.32-.302.32-.325.685-.693 1.204-.76.334-.044.64.046.92.177a.75.75 0 0 1 .952.723l.005.237a.748.748 0 0 1-1.123.662l-.13-.076a3.463 3.463 0 0 0-.424-.224 3.45 3.45 0 0 0-.34.316c-.344.348-.773.782-1.385.782-.61 0-1.04-.434-1.385-.782a3.326 3.326 0 0 0-.34-.315c-.107.04-.3.152-.422.224-.418.245-.938.55-1.52.394-.588-.157-.89-.686-1.132-1.11a3.48 3.48 0 0 0-.248-.397c-.114.01-.327.07-.463.106-.47.128-1.053.288-1.575-.015-.525-.303-.68-.89-.802-1.363a3.572 3.572 0 0 0-.138-.45c-.112-.018-.332-.017-.472-.017-.49.003-1.093.006-1.52-.422-.428-.427-.425-1.034-.423-1.52 0-.14.002-.36-.018-.472-.103-.048-.314-.103-.448-.138-.474-.123-1.062-.277-1.365-.802-.302-.522-.143-1.106-.015-1.575.037-.135.095-.35.105-.462-.087-.072-.276-.18-.395-.248-.426-.242-.955-.544-1.112-1.132-.156-.58.15-1.102.395-1.52.07-.122.184-.315.223-.423-.065-.09-.218-.242-.315-.338C.433 15.21 0 14.782 0 14.17c0-.61.434-1.04.783-1.385.098-.096.25-.247.316-.338-.04-.108-.152-.3-.223-.423-.245-.42-.55-.94-.395-1.52.157-.59.687-.89 1.112-1.132.12-.07.31-.176.395-.248-.01-.114-.068-.328-.105-.463-.128-.468-.287-1.053.015-1.575.304-.525.892-.678 1.364-.802.134-.035.345-.09.448-.137.02-.112.02-.332.018-.47-.002-.49-.005-1.095.422-1.523.428-.428 1.035-.423 1.52-.422.142.002.36.003.473-.016.048-.103.104-.315.14-.45.122-.472.276-1.06.8-1.363.523-.3 1.107-.142 1.576-.014.135.037.35.095.462.106a3.48 3.48 0 0 0 .248-.396C9.61 1.17 9.91.64 10.498.484c.58-.155 1.102.15 1.52.395.123.07.315.183.423.222.093-.065.244-.218.34-.315.345-.35.774-.782 1.385-.782.612 0 1.04.433 1.386.782.097.097.248.25.34.315.107-.04.3-.15.422-.223.418-.246.938-.55 1.52-.396.59.157.89.687 1.133 1.112.068.12.175.31.247.396.114-.01.328-.07.463-.105.47-.13 1.053-.288 1.575.015.526.303.68.89.802 1.364.035.134.09.346.138.448.112.02.332.02.47.018.49 0 1.095-.005 1.522.422.428.428.425 1.034.423 1.52 0 .14-.002.36.017.473.103.047.315.102.45.138.47.123 1.06.276 1.363.8.302.524.143 1.107.015 1.576-.037.137-.096.35-.105.464.087.073.276.18.396.25.094.052.186.105.274.16a.75.75 0 0 1-.787 1.276z" class="ecls-1"/></svg><view id="svg-service--services-gendir" viewBox="137.88 0 67 65.84"/><svg preserveAspectRatio="xMidYMid" width="67" height="65.84" viewBox="-5 -5 67 65.84" x="137.88"><defs><style>.fcls-1{fill:#07336c;fill-rule:evenodd}</style></defs><path d="M55.754 55.837H10.766c-.414 0-.75-.398-.75-.813V49.32a.75.75 0 0 1 .098-.37c.1-.176 2.54-4.325 5.963-5.63 2.713-1.032 7.973-2.252 9.746-2.65v-4.594c0-.122.036-.233.088-.335a48.585 48.585 0 0 1-4.26-5.702c-.22-.284-1.435-1.94-1.435-3.87 0-1.577.8-2.638 1.268-3.123-.125-1.657-.3-8.09 4.142-11.527.02-.016.04-.03.062-.043 2.203-1.377 4.52-2.076 6.888-2.076 3.665 0 6.35 1.665 7.168 2.24.105-.007.232-.012.376-.012 1.144 0 3.897.357 4.723 3.662.82 3.278-.32 5.767-.776 6.584l.16.806c.997.384 2.32 1.39 2.32 3.336 0 2.243-1.474 3.6-1.993 4.01-.344.674-1.7 3.216-3.557 5.21-.13.14-.256.28-.383.418a.734.734 0 0 1 .146.422v4.477a.73.73 0 0 1 .228.168c1.954.443 6.91 1.607 9.518 2.6 3.423 1.305 6.3 5.454 6.4 5.63a.76.76 0 0 1 .098.37v5.704c0 .415-.836.813-1.25.813zm-22.858-7.09l-1.4 5.09h4.212l-1.4-5.09a.752.752 0 0 1 .202-.736l1.262-1.223-.977-1.76H32.41l-.978 1.76 1.263 1.224a.75.75 0 0 1 .2.738zm6.364-7.674V37.09c-1.51 1.517-3.25 2.804-5.95 2.818a3.417 3.417 0 0 1-.346.015c-.886 0-3.17-.286-5.64-2.687v3.59l4.927 2.7h3.034l3.976-2.453zm-22.65 3.65c-2.565.978-4.137 4.058-4.594 4.803v4.31h17.926l1.39-5.058-1.356-1.315a.75.75 0 0 1-.134-.902l1.126-2.026-4.508-2.47c-1.296.29-7.074 1.602-9.85 2.66zM32.576 10.9c-2.07 0-4.11.614-6.06 1.827-2.313 1.808-3.15 4.67-3.434 6.957.84-.993 2.164-1.826 4.2-1.992.756-.062 1.462-.107 2.12-.15 3.267-.21 5.238-.34 6.876-1.968 1.335-1.328 1.975-2.37 2.26-2.93-.956-.6-3.146-1.745-5.96-1.745zm10.813 4.754c-.46-1.84-1.715-2.4-2.83-2.505.108.875.402 2.958.91 4.537.36 1.12 1.08 2.11 1.622 2.75.39-.966.828-2.663.298-4.783zm-.1 13.548a.736.736 0 0 1 .26-.295c.057-.04 1.5-1.046 1.5-2.89 0-1.61-1.458-1.98-1.624-2.018a.758.758 0 0 1-.578-.587l-.26-1.302c-.5-.495-1.926-2.034-2.546-3.963-.392-1.22-.658-2.665-.822-3.74a15.522 15.522 0 0 1-1.884 2.23c-2.037 2.027-4.344 2.176-7.837 2.402-.65.04-1.347.086-2.096.147-3.91.32-4.076 3.513-4.08 3.648a.734.734 0 0 1-.334.58c-.022.203-.1.396-.266.523-.037.03-1.005.81-1.005 2.23 0 1.526 1.12 2.953 1.132 2.967.02.025.038.05.054.077.025.037 2.364 3.79 5.25 6.748 2.167 2.223 4.09 2.463 4.814 2.463.114 0 .184-.006.203-.01.03-.002.07-.005.1-.005 2.79 0 4.31-1.66 6.068-3.58.186-.203.374-.408.565-.613 1.963-2.11 3.375-4.984 3.39-5.013zm11.716 20.324c-.456-.744-2.465-3.825-5.032-4.803-2.608-.994-7.865-2.212-9.566-2.595l-4.1 2.53 1.057 1.903a.75.75 0 0 1-.134.903l-1.357 1.315 1.39 5.06h17.74v-4.312zM18.83 20.796H6.37c-.414 0-.75-.65-.75-1.063 0-.414.336-.937.75-.937h12.46c.413 0 .75.523.75.937 0 .414-.337 1.063-.75 1.063zM5.62 11.858c0-.414.336-1.062.75-1.062h15.042c.414 0 .75.648.75 1.062 0 .415-.336.938-.75.938H6.37c-.414 0-.75-.523-.75-.938zm13.875 4.938H6.37c-.414 0-.75-.586-.75-1 0-.415.336-1 .75-1h13.125c.414 0 .75.648.75 1.062 0 .414-.336.938-.75.938zm7.5-8.055a.75.75 0 0 1-.75-.75v-.424a.75.75 0 0 0-.75-.75H2.745a.752.752 0 0 0-.75.75V23.94c0 .415.337.876.75.876h15.018c.414 0 .75.773.75 1.188a.75.75 0 0 1-.75.75H2.245c-1.24 0-2.25-1.572-2.25-2.813V7.067c0-1.24 1.01-2.25 2.25-2.25h6.52a6.03 6.03 0 0 1 5.897-4.81 6.03 6.03 0 0 1 5.898 4.81h4.935c1.24 0 2.25 1.01 2.25 2.25v.925a.75.75 0 0 1-.75.75zM14.662 1.506c-2.07 0-3.802 1.408-4.335 3.31h8.67c-.532-1.902-2.264-3.31-4.335-3.31z" class="fcls-1"/></svg><view id="svg-service--services-gendir-white" viewBox="137.88 65.84 67 65.84"/><svg preserveAspectRatio="xMidYMid" width="67" height="65.84" viewBox="-5 -5 67 65.84" x="137.88" y="65.84"><defs><style>.gcls-1{fill:#fff;fill-rule:evenodd}</style></defs><path d="M55.754 55.837H10.766c-.414 0-.75-.398-.75-.813V49.32a.75.75 0 0 1 .098-.37c.1-.176 2.54-4.325 5.963-5.63 2.713-1.032 7.973-2.252 9.746-2.65v-4.594c0-.122.036-.233.088-.335a48.585 48.585 0 0 1-4.26-5.702c-.22-.284-1.435-1.94-1.435-3.87 0-1.577.8-2.638 1.268-3.123-.125-1.657-.3-8.09 4.142-11.527.02-.016.04-.03.062-.043 2.203-1.377 4.52-2.076 6.888-2.076 3.665 0 6.35 1.665 7.168 2.24.105-.007.232-.012.376-.012 1.144 0 3.897.357 4.723 3.662.82 3.278-.32 5.767-.776 6.584l.16.806c.997.384 2.32 1.39 2.32 3.336 0 2.243-1.474 3.6-1.993 4.01-.344.674-1.7 3.216-3.557 5.21-.13.14-.256.28-.383.418a.734.734 0 0 1 .146.422v4.477a.73.73 0 0 1 .228.168c1.954.443 6.91 1.607 9.518 2.6 3.423 1.305 6.3 5.454 6.4 5.63a.76.76 0 0 1 .098.37v5.704c0 .415-.836.813-1.25.813zm-22.858-7.09l-1.4 5.09h4.212l-1.4-5.09a.752.752 0 0 1 .202-.736l1.262-1.223-.977-1.76H32.41l-.978 1.76 1.263 1.224a.75.75 0 0 1 .2.738zm6.364-7.674V37.09c-1.51 1.517-3.25 2.804-5.95 2.818a3.417 3.417 0 0 1-.346.015c-.886 0-3.17-.286-5.64-2.687v3.59l4.927 2.7h3.034l3.976-2.453zm-22.65 3.65c-2.565.978-4.137 4.058-4.594 4.803v4.31h17.926l1.39-5.058-1.356-1.315a.75.75 0 0 1-.134-.902l1.126-2.026-4.508-2.47c-1.296.29-7.074 1.602-9.85 2.66zM32.576 10.9c-2.07 0-4.11.614-6.06 1.827-2.313 1.808-3.15 4.67-3.434 6.957.84-.993 2.164-1.826 4.2-1.992.756-.062 1.462-.107 2.12-.15 3.267-.21 5.238-.34 6.876-1.968 1.335-1.328 1.975-2.37 2.26-2.93-.956-.6-3.146-1.745-5.96-1.745zm10.813 4.754c-.46-1.84-1.715-2.4-2.83-2.505.108.875.402 2.958.91 4.537.36 1.12 1.08 2.11 1.622 2.75.39-.966.828-2.663.298-4.783zm-.1 13.548a.736.736 0 0 1 .26-.295c.057-.04 1.5-1.046 1.5-2.89 0-1.61-1.458-1.98-1.624-2.018a.758.758 0 0 1-.578-.587l-.26-1.302c-.5-.495-1.926-2.034-2.546-3.963-.392-1.22-.658-2.665-.822-3.74a15.522 15.522 0 0 1-1.884 2.23c-2.037 2.027-4.344 2.176-7.837 2.402-.65.04-1.347.086-2.096.147-3.91.32-4.076 3.513-4.08 3.648a.734.734 0 0 1-.334.58c-.022.203-.1.396-.266.523-.037.03-1.005.81-1.005 2.23 0 1.526 1.12 2.953 1.132 2.967.02.025.038.05.054.077.025.037 2.364 3.79 5.25 6.748 2.167 2.223 4.09 2.463 4.814 2.463.114 0 .184-.006.203-.01.03-.002.07-.005.1-.005 2.79 0 4.31-1.66 6.068-3.58.186-.203.374-.408.565-.613 1.963-2.11 3.375-4.984 3.39-5.013zm11.716 20.324c-.456-.744-2.465-3.825-5.032-4.803-2.608-.994-7.865-2.212-9.566-2.595l-4.1 2.53 1.057 1.903a.75.75 0 0 1-.134.903l-1.357 1.315 1.39 5.06h17.74v-4.312zM18.83 20.796H6.37c-.414 0-.75-.65-.75-1.063 0-.414.336-.937.75-.937h12.46c.413 0 .75.523.75.937 0 .414-.337 1.063-.75 1.063zM5.62 11.858c0-.414.336-1.062.75-1.062h15.042c.414 0 .75.648.75 1.062 0 .415-.336.938-.75.938H6.37c-.414 0-.75-.523-.75-.938zm13.875 4.938H6.37c-.414 0-.75-.586-.75-1 0-.415.336-1 .75-1h13.125c.414 0 .75.648.75 1.062 0 .414-.336.938-.75.938zm7.5-8.055a.75.75 0 0 1-.75-.75v-.424a.75.75 0 0 0-.75-.75H2.745a.752.752 0 0 0-.75.75V23.94c0 .415.337.876.75.876h15.018c.414 0 .75.773.75 1.188a.75.75 0 0 1-.75.75H2.245c-1.24 0-2.25-1.572-2.25-2.813V7.067c0-1.24 1.01-2.25 2.25-2.25h6.52a6.03 6.03 0 0 1 5.897-4.81 6.03 6.03 0 0 1 5.898 4.81h4.935c1.24 0 2.25 1.01 2.25 2.25v.925a.75.75 0 0 1-.75.75zM14.662 1.506c-2.07 0-3.802 1.408-4.335 3.31h8.67c-.532-1.902-2.264-3.31-4.335-3.31z" class="gcls-1"/></svg><view id="svg-service--services-sobstv" viewBox="0 0 68.94 66.75"/><svg preserveAspectRatio="xMidYMid" width="68.94" height="66.75" viewBox="-5 -5 68.94 66.75"><defs><style>.hcls-1{fill:#e18309;fill-rule:evenodd}</style></defs><path d="M57.683 56.754H12.758a.75.75 0 0 1-.75-.75v-5.456a.75.75 0 0 1 .11-.39c.1-.164 2.484-4.02 5.905-5.23 3.222-1.138 10.042-2.52 10.33-2.578a.746.746 0 0 1 .875.55l2.816 10.682 1.237-4.913-1.41-1.574a.75.75 0 0 1-.12-.827l1.472-3.043a.75.75 0 0 1 .675-.423h3.27a.75.75 0 0 1 .674.423l1.47 3.042a.75.75 0 0 1-.116.826l-1.412 1.573 1.202 4.775 2.22-10.51a.75.75 0 0 1 .883-.585c.29.058 7.11 1.44 10.33 2.578 3.422 1.21 6.307 5.066 6.406 5.23a.75.75 0 0 1 .11.39v5.456c0 .415-.836.75-1.25.75zm-29.73-12.79c-1.847.388-6.895 1.483-9.43 2.38-2.553.9-4.12 3.703-4.6 4.424v3.986h16.88l-2.85-10.79zm8.45 3.996l1.34-1.49-1.048-2.166h-2.327L33.32 46.47l1.34 1.49a.753.753 0 0 1 .17.676l-1.535 6.118h4.472l-1.535-6.118a.753.753 0 0 1 .17-.676zm20.53 2.81c-.48-.723-2.47-3.53-5.015-4.427-2.52-.89-7.52-1.977-9.395-2.37l-2.284 10.78h16.693V50.77zm-10.45-19.93c-.344.674-1.7 3.216-3.557 5.21-.188.203-.372.404-.556.605-1.822 1.99-3.706 4.05-7.13 4.066a3.335 3.335 0 0 1-.347.017c-.916 0-3.323-.285-5.89-2.916-2.88-2.956-5.16-6.545-5.425-6.968-.22-.285-1.434-1.94-1.434-3.87a4.5 4.5 0 0 1 1.268-3.123c-.125-1.66-.3-8.09 4.142-11.53.02-.014.04-.03.062-.042 3.208-2.005 6.153-3.022 8.752-3.022 1.907 0 3.603.542 5.04 1.61 1.488 1.108 3.165 2.692 4.31 6.036 1.047 3.064.547 4.998.274 5.705 0 .02.003.04.002.06l.163.816c.996.384 2.32 1.39 2.32 3.337 0 2.242-1.476 3.6-1.994 4.01zm-2.185-13.442c-1.01-2.95-2.416-4.3-3.785-5.318-2.886-2.147-7.095-1.64-12.07 1.46-2.31 1.808-3.15 4.67-3.433 6.957.84-.993 2.163-1.825 4.198-1.99 1.803-.148 3.264-.174 4.553-.197 1.967-.035 3.52-.062 5.17-.527 1.553-.438 2.947-.3 4.144.41.755.45 1.318 1.074 1.75 1.706a9.742 9.742 0 0 0-.526-2.502zm1.055 7.414a.758.758 0 0 1-.58-.586l-.304-1.528c-.01-.036-.002-.073-.003-.11-.172-.575-.78-2.29-2.166-3.108-.827-.49-1.824-.575-2.964-.254-1.834.518-3.473.547-5.548.584-1.267.022-2.703.048-4.458.19-3.91.32-4.077 3.513-4.082 3.65a.743.743 0 0 1-.333.58c-.022.2-.1.394-.267.52a2.97 2.97 0 0 0-1.004 2.232c0 1.526 1.12 2.953 1.132 2.967.02.023.038.05.054.075.023.038 2.363 3.79 5.25 6.748 2.166 2.223 4.087 2.464 4.813 2.464.114 0 .184-.007.203-.01a.824.824 0 0 1 .1-.006c2.79 0 4.31-1.657 6.068-3.578.186-.203.374-.41.565-.613 1.962-2.11 3.374-4.986 3.388-5.014a.745.745 0 0 1 .258-.296c.058-.04 1.5-1.046 1.5-2.89 0-1.61-1.457-1.98-1.623-2.018zM22.466 13.398h.604a.75.75 0 0 1 0 1.5h-.604a.75.75 0 0 1 0-1.5zm0-2.96h1.883a.75.75 0 0 1 0 1.5h-1.884a.75.75 0 0 1 0-1.5zm4.434.067a.75.75 0 0 1-.75-.75v-.833h-5.334v20.066c0 .006.004.01.004.017a.75.75 0 0 1-.75.75H.75a.75.75 0 0 1-.75-.75V14.773a.75.75 0 0 1 .75-.75H1.83V12.47a.75.75 0 0 1 .75-.75h1.002V9.89a.75.75 0 0 1 .75-.75h2.484V5.92a.75.75 0 0 1 .75-.75h.583V4.34a.75.75 0 0 1 .75-.75h.666V.755a.75.75 0 0 1 .75-.75H12.9a.75.75 0 0 1 .75.75v2.833h.583a.75.75 0 0 1 .75.75v.833h.75a.75.75 0 0 1 .75.75v8.768h2.833V8.17a.75.75 0 0 1 .75-.75h.584V5.09a.75.75 0 0 1 .75-.75h1.75v-2.5a.75.75 0 0 1 1.5 0v2.5h.916a.75.75 0 0 1 .75.75V7.42h.584a.75.75 0 0 1 .75.75v1.585a.75.75 0 0 1-.75.75zM2.274 15.522h-.61v12.733h5.152V15.592H2.58a.735.735 0 0 1-.306-.07zm1.057-1.5h3.486v-.803H3.33v.803zm1.752-3.384v1.05h1.734v-1.05H5.082zm9.9-3.967h-.75a.75.75 0 0 1-.75-.75V5.09H12.9a.75.75 0 0 1-.75-.75V1.505h-1.084v2.833a.75.75 0 0 1-.75.75H9.65v.833a.75.75 0 0 1-.75.75h-.584v2.252h6.667v-2.25zm0 3.752h-6.65v1.746h6.65v-1.746zm0 3.247h-6.65v1.745h6.65V13.67zm0 3.245h-6.65v1.747h6.65v-1.747zm0 3.247h-6.65v1.746h6.65v-1.746zm0 3.246h-6.65v1.747h6.65v-1.747zm0 3.247h-6.65v1.6h6.65v-1.6zm4.334-10.467h-2.833v12.067h2.833V16.188zm5.5-10.35H22.15V7.42h2.666V5.84zm-19.668 20.9H3.266a.75.75 0 0 1 0-1.5h1.882a.75.75 0 0 1 0 1.5zm0-2.96H3.266a.75.75 0 0 1 0-1.5h1.882a.75.75 0 0 1 0 1.5zm0-2.96H3.266a.75.75 0 0 1 0-1.5h1.882a.75.75 0 0 1 0 1.5z" class="hcls-1"/></svg><view id="svg-service--services-sobstv-white" viewBox="68.94 0 68.94 66.75"/><svg preserveAspectRatio="xMidYMid" width="68.94" height="66.75" viewBox="-5 -5 68.94 66.75" x="68.94"><defs><style>.icls-1{fill:#fff;fill-rule:evenodd}</style></defs><path d="M57.683 56.754H12.758a.75.75 0 0 1-.75-.75v-5.456a.75.75 0 0 1 .11-.39c.1-.164 2.484-4.02 5.905-5.23 3.222-1.138 10.042-2.52 10.33-2.578a.746.746 0 0 1 .875.55l2.816 10.682 1.237-4.913-1.41-1.574a.75.75 0 0 1-.12-.827l1.472-3.043a.75.75 0 0 1 .675-.423h3.27a.75.75 0 0 1 .674.423l1.47 3.042a.75.75 0 0 1-.116.826l-1.412 1.573 1.202 4.775 2.22-10.51a.75.75 0 0 1 .883-.585c.29.058 7.11 1.44 10.33 2.578 3.422 1.21 6.307 5.066 6.406 5.23a.75.75 0 0 1 .11.39v5.456c0 .415-.836.75-1.25.75zm-29.73-12.79c-1.847.388-6.895 1.483-9.43 2.38-2.553.9-4.12 3.703-4.6 4.424v3.986h16.88l-2.85-10.79zm8.45 3.996l1.34-1.49-1.048-2.166h-2.327L33.32 46.47l1.34 1.49a.753.753 0 0 1 .17.676l-1.535 6.118h4.472l-1.535-6.118a.753.753 0 0 1 .17-.676zm20.53 2.81c-.48-.723-2.47-3.53-5.015-4.427-2.52-.89-7.52-1.977-9.395-2.37l-2.284 10.78h16.693V50.77zm-10.45-19.93c-.344.674-1.7 3.216-3.557 5.21-.188.203-.372.404-.556.605-1.822 1.99-3.706 4.05-7.13 4.066a3.335 3.335 0 0 1-.347.017c-.916 0-3.323-.285-5.89-2.916-2.88-2.956-5.16-6.545-5.425-6.968-.22-.285-1.434-1.94-1.434-3.87a4.5 4.5 0 0 1 1.268-3.123c-.125-1.66-.3-8.09 4.142-11.53.02-.014.04-.03.062-.042 3.208-2.005 6.153-3.022 8.752-3.022 1.907 0 3.603.542 5.04 1.61 1.488 1.108 3.165 2.692 4.31 6.036 1.047 3.064.547 4.998.274 5.705 0 .02.003.04.002.06l.163.816c.996.384 2.32 1.39 2.32 3.337 0 2.242-1.476 3.6-1.994 4.01zm-2.185-13.442c-1.01-2.95-2.416-4.3-3.785-5.318-2.886-2.147-7.095-1.64-12.07 1.46-2.31 1.808-3.15 4.67-3.433 6.957.84-.993 2.163-1.825 4.198-1.99 1.803-.148 3.264-.174 4.553-.197 1.967-.035 3.52-.062 5.17-.527 1.553-.438 2.947-.3 4.144.41.755.45 1.318 1.074 1.75 1.706a9.742 9.742 0 0 0-.526-2.502zm1.055 7.414a.758.758 0 0 1-.58-.586l-.304-1.528c-.01-.036-.002-.073-.003-.11-.172-.575-.78-2.29-2.166-3.108-.827-.49-1.824-.575-2.964-.254-1.834.518-3.473.547-5.548.584-1.267.022-2.703.048-4.458.19-3.91.32-4.077 3.513-4.082 3.65a.743.743 0 0 1-.333.58c-.022.2-.1.394-.267.52a2.97 2.97 0 0 0-1.004 2.232c0 1.526 1.12 2.953 1.132 2.967.02.023.038.05.054.075.023.038 2.363 3.79 5.25 6.748 2.166 2.223 4.087 2.464 4.813 2.464.114 0 .184-.007.203-.01a.824.824 0 0 1 .1-.006c2.79 0 4.31-1.657 6.068-3.578.186-.203.374-.41.565-.613 1.962-2.11 3.374-4.986 3.388-5.014a.745.745 0 0 1 .258-.296c.058-.04 1.5-1.046 1.5-2.89 0-1.61-1.457-1.98-1.623-2.018zM22.466 13.398h.604a.75.75 0 0 1 0 1.5h-.604a.75.75 0 0 1 0-1.5zm0-2.96h1.883a.75.75 0 0 1 0 1.5h-1.884a.75.75 0 0 1 0-1.5zm4.434.067a.75.75 0 0 1-.75-.75v-.833h-5.334v20.066c0 .006.004.01.004.017a.75.75 0 0 1-.75.75H.75a.75.75 0 0 1-.75-.75V14.773a.75.75 0 0 1 .75-.75H1.83V12.47a.75.75 0 0 1 .75-.75h1.002V9.89a.75.75 0 0 1 .75-.75h2.484V5.92a.75.75 0 0 1 .75-.75h.583V4.34a.75.75 0 0 1 .75-.75h.666V.755a.75.75 0 0 1 .75-.75H12.9a.75.75 0 0 1 .75.75v2.833h.583a.75.75 0 0 1 .75.75v.833h.75a.75.75 0 0 1 .75.75v8.768h2.833V8.17a.75.75 0 0 1 .75-.75h.584V5.09a.75.75 0 0 1 .75-.75h1.75v-2.5a.75.75 0 0 1 1.5 0v2.5h.916a.75.75 0 0 1 .75.75V7.42h.584a.75.75 0 0 1 .75.75v1.585a.75.75 0 0 1-.75.75zM2.274 15.522h-.61v12.733h5.152V15.592H2.58a.735.735 0 0 1-.306-.07zm1.057-1.5h3.486v-.803H3.33v.803zm1.752-3.384v1.05h1.734v-1.05H5.082zm9.9-3.967h-.75a.75.75 0 0 1-.75-.75V5.09H12.9a.75.75 0 0 1-.75-.75V1.505h-1.084v2.833a.75.75 0 0 1-.75.75H9.65v.833a.75.75 0 0 1-.75.75h-.584v2.252h6.667v-2.25zm0 3.752h-6.65v1.746h6.65v-1.746zm0 3.247h-6.65v1.745h6.65V13.67zm0 3.245h-6.65v1.747h6.65v-1.747zm0 3.247h-6.65v1.746h6.65v-1.746zm0 3.246h-6.65v1.747h6.65v-1.747zm0 3.247h-6.65v1.6h6.65v-1.6zm4.334-10.467h-2.833v12.067h2.833V16.188zm5.5-10.35H22.15V7.42h2.666V5.84zm-19.668 20.9H3.266a.75.75 0 0 1 0-1.5h1.882a.75.75 0 0 1 0 1.5zm0-2.96H3.266a.75.75 0 0 1 0-1.5h1.882a.75.75 0 0 1 0 1.5zm0-2.96H3.266a.75.75 0 0 1 0-1.5h1.882a.75.75 0 0 1 0 1.5z" class="icls-1"/></svg></svg>