<?xml version="1.0" encoding="utf-8"?><svg width="136" height="133" viewBox="0 0 136 133" xmlns="http://www.w3.org/2000/svg" xmlns:xlink="http://www.w3.org/1999/xlink"><view id="svg-servicefull--servicefull-check" viewBox="70 66 34 34"/><svg preserveAspectRatio="xMidYMid" width="34" height="34" viewBox="-5 -5 34 34" x="70" y="66"><defs><style>.acls-1{fill:#961a32;fill-rule:evenodd}</style></defs><path d="M12 24C5.383 24 0 18.617 0 12S5.383 0 12 0s12 5.383 12 12-5.383 12-12 12zm0-22C6.486 2 2 6.486 2 12s4.486 10 10 10 10-4.486 10-10S17.514 2 12 2zm-.248 14.66a.998.998 0 0 1-1.377.12l-5-4a1 1 0 1 1 1.25-1.56l4.252 3.402 6.37-7.28a1 1 0 1 1 1.505 1.316l-7 8z" class="acls-1"/></svg><view id="svg-servicefull--servicefull-check-gray" viewBox="104 66 30 30"/><svg preserveAspectRatio="xMidYMid" width="30" height="30" viewBox="-5 -5 30 30" x="104" y="66"><defs><style>.bcls-111{fill:#91969c;fill-rule:evenodd}</style></defs><path d="M12 24C5.383 24 0 18.617 0 12S5.383 0 12 0s12 5.383 12 12-5.383 12-12 12zm0-22C6.486 2 2 6.486 2 12s4.486 10 10 10 10-4.486 10-10S17.514 2 12 2zm-.248 14.66a.998.998 0 0 1-1.377.12l-5-4a1 1 0 1 1 1.25-1.56l4.252 3.402 6.37-7.28a1 1 0 1 1 1.505 1.316l-7 8z" class="bcls-111"/></svg><view id="svg-servicefull--servicefull-step1" viewBox="0 0 70 66"/><svg preserveAspectRatio="xMidYMid" width="70" height="66" viewBox="-5 -5 70 66"><defs><style>.ccls-1{fill:#000;fill-rule:evenodd}</style></defs><path d="M56.28 56H3.72A3.723 3.723 0 0 1 0 52.28V3.72C0 1.667 1.668 0 3.72 0h52.56C58.333 0 60 1.668 60 3.72v48.56c0 2.052-1.668 3.72-3.72 3.72zM58 3.72A1.72 1.72 0 0 0 56.28 2H3.72C2.77 2 2 2.77 2 3.72v48.56C2 53.23 2.77 54 3.72 54h52.56c.948 0 1.72-.772 1.72-1.72V3.72zM53 18H7a1 1 0 0 1-1-1V7a1 1 0 0 1 1-1h46a1 1 0 0 1 1 1v10a1 1 0 0 1-1 1zM52 8H8v8h44V8zM20.293 9.293a1 1 0 0 1 1.414 0L23 10.586l1.293-1.293a1 1 0 1 1 1.414 1.414L24.414 12l1.293 1.293a1 1 0 1 1-1.414 1.414L23 13.414l-1.293 1.293a.997.997 0 0 1-1.414 0 1 1 0 0 1 0-1.414L21.586 12l-1.293-1.293a1 1 0 0 1 0-1.414zm8 0a1 1 0 0 1 1.414 0L31 10.586l1.293-1.293a1 1 0 1 1 1.414 1.414L32.414 12l1.293 1.293a1 1 0 1 1-1.414 1.414L31 13.414l-1.293 1.293a.997.997 0 0 1-1.414 0 1 1 0 0 1 0-1.414L29.586 12l-1.293-1.293a1 1 0 0 1 0-1.414zm8 0a1 1 0 0 1 1.414 0L39 10.586l1.293-1.293a1 1 0 1 1 1.414 1.414L40.414 12l1.293 1.293a1 1 0 1 1-1.414 1.414L39 13.414l-1.293 1.293a.997.997 0 0 1-1.414 0 1 1 0 0 1 0-1.414L37.586 12l-1.293-1.293a1 1 0 0 1 0-1.414zm8 0a1 1 0 0 1 1.414 0L47 10.586l1.293-1.293a1 1 0 1 1 1.414 1.414L48.414 12l1.293 1.293a1 1 0 1 1-1.414 1.414L47 13.414l-1.293 1.293a.997.997 0 0 1-1.414 0 1 1 0 0 1 0-1.414L45.586 12l-1.293-1.293a1 1 0 0 1 0-1.414zM10 22c2.206 0 4 1.794 4 4s-1.794 4-4 4-4-1.794-4-4 1.794-4 4-4zm0 6c1.102 0 2-.898 2-2 0-1.103-.898-2-2-2-1.103 0-2 .897-2 2 0 1.102.897 2 2 2zm0 4c2.206 0 4 1.794 4 4s-1.794 4-4 4-4-1.794-4-4 1.794-4 4-4zm0 6c1.102 0 2-.898 2-2 0-1.103-.898-2-2-2-1.103 0-2 .897-2 2 0 1.102.897 2 2 2zm0 4c2.206 0 4 1.794 4 4s-1.794 4-4 4-4-1.794-4-4 1.794-4 4-4zm0 6c1.102 0 2-.898 2-2 0-1.103-.898-2-2-2-1.103 0-2 .897-2 2 0 1.102.897 2 2 2zm10-26c2.206 0 4 1.794 4 4s-1.794 4-4 4-4-1.794-4-4 1.794-4 4-4zm0 6c1.102 0 2-.898 2-2 0-1.103-.898-2-2-2-1.103 0-2 .897-2 2 0 1.102.897 2 2 2zm0 4c2.206 0 4 1.794 4 4s-1.794 4-4 4-4-1.794-4-4 1.794-4 4-4zm0 6c1.102 0 2-.898 2-2 0-1.103-.898-2-2-2-1.103 0-2 .897-2 2 0 1.102.897 2 2 2zm0 4c2.206 0 4 1.794 4 4s-1.794 4-4 4-4-1.794-4-4 1.794-4 4-4zm0 6c1.102 0 2-.898 2-2 0-1.103-.898-2-2-2-1.103 0-2 .897-2 2 0 1.102.897 2 2 2zm10-26c2.206 0 4 1.794 4 4s-1.794 4-4 4-4-1.794-4-4 1.794-4 4-4zm0 6c1.102 0 2-.898 2-2 0-1.103-.898-2-2-2-1.103 0-2 .897-2 2 0 1.102.897 2 2 2zm0 4c2.206 0 4 1.794 4 4s-1.794 4-4 4-4-1.794-4-4 1.794-4 4-4zm0 6c1.102 0 2-.898 2-2 0-1.103-.898-2-2-2-1.103 0-2 .897-2 2 0 1.102.897 2 2 2zm0 4c2.206 0 4 1.794 4 4s-1.794 4-4 4-4-1.794-4-4 1.794-4 4-4zm0 6c1.102 0 2-.898 2-2 0-1.103-.898-2-2-2-1.103 0-2 .897-2 2 0 1.102.897 2 2 2zm8-26h14a1 1 0 0 1 1 1v6a1 1 0 0 1-1 1H38a1 1 0 0 1-1-1v-6a1 1 0 0 1 1-1zm1 6h12v-4H39v4zm-1 5h14a1 1 0 0 1 1 1v14a1 1 0 0 1-1 1H38a1 1 0 0 1-1-1V34a1 1 0 0 1 1-1zm1 14h12V35H39v12z" class="ccls-1"/></svg><view id="svg-servicefull--servicefull-step2" viewBox="0 66 68 67"/><svg preserveAspectRatio="xMidYMid" width="68" height="67" viewBox="-5 -5 68 67" y="66"><defs><style>.dcls-1{fill:#000;fill-rule:evenodd}</style></defs><path d="M48.29 54H9.71C4.357 54 0 49.643 0 44.29V9.71C0 4.357 4.356 0 9.71 0h38.58C53.643 0 58 4.356 58 9.71v34.58c0 5.353-4.356 9.71-9.71 9.71zM56 9.71C56 5.46 52.54 2 48.29 2H30v10a1 1 0 0 1-2 0V2H9.71C5.46 2 2 5.46 2 9.71v34.58C2 48.54 5.46 52 9.71 52H28V42a1 1 0 0 1 2 0v10h18.29c4.25 0 7.71-3.46 7.71-7.71V9.71zM48 48c-2.206 0-4-1.794-4-4s1.794-4 4-4 4 1.794 4 4-1.794 4-4 4zm0-6c-1.103 0-2 .897-2 2 0 1.102.897 2 2 2 1.102 0 2-.898 2-2 0-1.103-.898-2-2-2zm-10.515-6.515c-.01.01-.02.012-.03.02A11.96 11.96 0 0 1 29 39c-3.3 0-6.29-1.34-8.462-3.5-.007-.007-.016-.01-.022-.016-.007-.006-.01-.016-.016-.022A11.966 11.966 0 0 1 17 27c0-3.3 1.34-6.29 3.5-8.46.007-.008.01-.018.016-.025.006-.007.016-.01.023-.015A11.957 11.957 0 0 1 29 15a11.96 11.96 0 0 1 8.454 3.494c.01.01.022.01.03.02.01.01.013.022.022.032A11.956 11.956 0 0 1 41 27a11.96 11.96 0 0 1-3.494 8.455c-.01.01-.012.02-.02.03zM36 26h2.948c-.2-2.007-1.022-3.82-2.234-5.3l-2.057 2.057a.997.997 0 0 1-1.414 0 1 1 0 0 1 0-1.414l2.057-2.058c-1.48-1.212-3.293-2.034-5.3-2.234V20a1 1 0 0 1-2 0v-2.95c-2.007.2-3.82 1.023-5.3 2.235l2.057 2.058a1 1 0 0 1-1.414 1.414L21.286 20.7c-1.212 1.48-2.034 3.293-2.235 5.3H22a1 1 0 0 1 0 2h-2.95c.202 2.007 1.024 3.82 2.235 5.3l2.058-2.058a1 1 0 0 1 1.414 1.414L22.7 34.714c1.48 1.213 3.293 2.035 5.3 2.235V34a1 1 0 0 1 2 0v2.95c2.007-.2 3.82-1.023 5.3-2.236l-2.057-2.057a1 1 0 1 1 1.414-1.414l2.057 2.057c1.212-1.48 2.034-3.293 2.234-5.3H36a1 1 0 0 1 0-2zm-7 6c-2.757 0-5-2.243-5-5s2.243-5 5-5 5 2.243 5 5-2.243 5-5 5zm0-8c-1.654 0-3 1.346-3 3s1.346 3 3 3 3-1.346 3-3-1.346-3-3-3zM10 48c-2.206 0-4-1.794-4-4s1.794-4 4-4 4 1.794 4 4-1.794 4-4 4zm0-6c-1.103 0-2 .897-2 2 0 1.102.897 2 2 2 1.102 0 2-.898 2-2 0-1.103-.898-2-2-2zM7 55h11a1 1 0 0 1 0 2H7a1 1 0 0 1 0-2zm32 0h11a1 1 0 0 1 0 2H39a1 1 0 0 1 0-2z" class="dcls-1"/></svg><view id="svg-servicefull--servicefull-step3" viewBox="70 0 66 66"/><svg preserveAspectRatio="xMidYMid" width="66" height="66" viewBox="-5 -5 66 66" x="70"><defs><style>.ecls-1{fill:#000;fill-rule:evenodd}</style></defs><path d="M38 56H0V0h56v56H38zM18 2H2v52h16V2zm18 0H20v52h16V2zm18 0H38v52h16V2zm-2 24H40V4h12v22zM50 6h-8v18h8V6zm-4 33c3.31 0 6 2.69 6 6 0 3.308-2.69 6-6 6s-6-2.692-6-6c0-3.31 2.69-6 6-6zm0 10c2.206 0 4-1.794 4-4s-1.794-4-4-4-4 1.794-4 4 1.794 4 4 4zM34 26H22V4h12v22zM32 6h-8v18h8V6zm-4 33c3.31 0 6 2.69 6 6 0 3.308-2.69 6-6 6s-6-2.692-6-6c0-3.31 2.69-6 6-6zm0 10c2.206 0 4-1.794 4-4s-1.794-4-4-4-4 1.794-4 4 1.794 4 4 4zM16 26H4V4h12v22zM14 6H6v18h8V6zm-4 33c3.31 0 6 2.69 6 6 0 3.308-2.69 6-6 6s-6-2.692-6-6c0-3.31 2.69-6 6-6zm0 10c2.206 0 4-1.794 4-4s-1.794-4-4-4-4 1.794-4 4 1.794 4 4 4z" class="ecls-1"/></svg></svg>