<?xml version="1.0" encoding="utf-8"?><!DOCTYPE svg PUBLIC "-//W3C//DTD SVG 1.1//EN" "http://www.w3.org/Graphics/SVG/1.1/DTD/svg11.dtd"><svg width="362" height="260" viewBox="0 0 362 260" xmlns="http://www.w3.org/2000/svg" xmlns:xlink="http://www.w3.org/1999/xlink"><view id="icon--bag" viewBox="52 0 52 52"/><svg width="52" height="52" viewBox="-10 -10 52 52" x="52"><path d="M27.948 16.005h-.006V26.58c0 .235-.19.424-.423.424H4.65a.423.423 0 0 1-.423-.423V16.005a1.27 1.27 0 0 1-1.26-1.27V9.243c0-.7.57-1.27 1.27-1.27h7.19c.178-1.55 1.372-2.975 2.806-2.975h3.716c1.447 0 2.642 1.415 2.81 2.975h7.187c.7 0 1.27.57 1.27 1.27v5.493c0 .7-.57 1.27-1.27 1.27zM5.075 26.157h22.02V16.005h-2.96v1.258c0 .7-.57 1.27-1.27 1.27H21.16c-.7 0-1.27-.57-1.27-1.27v-1.258h-7.607V17.7c0 .467-.38.847-.847.847h-2.55a.848.848 0 0 1-.848-.847v-1.695H5.074v10.152zm15.663-11h2.55v-1.275a.424.424 0 0 0-.423-.423H21.16a.423.423 0 0 0-.422.422v1.276zm0 .848v1.258c0 .233.19.423.423.423h1.705c.234 0 .423-.19.423-.423v-1.258h-2.55zm-11.852 0V17.7h2.55v-1.695h-2.55zm2.55-.847v-1.7h-2.55v1.7h2.55zm6.516-9.315h-3.716c-.956 0-1.78 1.04-1.95 2.13h7.62c-.156-1.104-.97-2.13-1.954-2.13zm10.42 3.4a.424.424 0 0 0-.423-.424H4.24a.423.423 0 0 0-.423.422v5.493c0 .233.19.423.423.423H8.04v-1.7c0-.467.154-.847.62-.847h2.777a.85.85 0 0 1 .847.848v1.7h7.608v-1.276c0-.7.49-1.27 1.19-1.27h1.784c.7 0 1.27.57 1.27 1.27v1.276h3.813c.233 0 .422-.19.422-.423V9.242z"/></svg><view id="icon--briefcase" viewBox="206 104 52 52"/><svg width="52" height="52" viewBox="-10 -10 52 52" x="206" y="104"><path d="M29.722 10.702l.048 15.922c0 1.366-1.498 2.387-2.77 2.387H4.865c-1.272 0-2.694-1.02-2.694-2.386V10.662c0-.005.003-.01.003-.016 0-.012 0-.023.002-.036.048-1.283 1.065-2.7 2.383-2.7h6.083c.152-2.733 2.797-4.92 6.053-4.92s5.9 2.187 6.052 4.92h4.562c1.317 0 2.362 1.415 2.41 2.697.006.025.006.04.006.055 0 .008.076.016.076.025 0 .006-.078.01-.078.015zm-13.03-5.878c-2.236 0-4.054 1.366-4.216 3.086h8.43c-.16-1.72-1.98-3.086-4.215-3.086zm11.166 5.936v-.01a.903.903 0 0 1-.005-.09c-.024-.465-.41-.916-.548-.916H4.555c-.137 0-.494.45-.518.916 0 .03 0 .06-.004.09v15.874c0 .193.412.552.83.552h22.136c.416 0 .857-.36.857-.552V10.76zM23.27 22.59H8.593a.918.918 0 0 1 0-1.837h14.68a.918.918 0 0 1 0 1.836zm0-3.67H8.593a.918.918 0 0 1 0-1.837h14.68a.918.918 0 0 1 0 1.836zm0-3.67H8.593a.918.918 0 0 1 0-1.837h14.68a.918.918 0 0 1 0 1.836z"/></svg><view id="icon--calendar" viewBox="0 52 52 52"/><svg width="52" height="52" viewBox="-10 -10 52 52" y="52"><path d="M25.85 25.343h-3.63a.52.52 0 0 1-.52-.52v-3.646a.52.52 0 0 1 .52-.52h3.63a.52.52 0 0 1 .52.52v3.647a.52.52 0 0 1-.52.52zm-.518-3.647H22.74v2.61h2.592v-2.61zm1-3.57c-.102.1-.235.15-.368.15s-.265-.05-.367-.15l-1.392-1.393-1.392 1.392a.515.515 0 0 1-.734 0 .517.517 0 0 1 0-.733L23.47 16l-1.39-1.392a.517.517 0 0 1 .732-.733l1.392 1.392 1.392-1.392a.52.52 0 0 1 .733.733L24.936 16l1.392 1.392a.52.52 0 0 1 0 .733zM29.48 30H2.517a.52.52 0 0 1-.52-.52V16.586a.52.52 0 0 1 1.038 0v12.377h25.926V6.672H24.3v1.706c0 .932-.92 1.69-1.853 1.69S20.66 9.31 20.66 8.38V6.67h-1.73a.52.52 0 0 1 0-1.037h1.73V3.688c0-.932.855-1.69 1.787-1.69s1.853.758 1.853 1.69v1.945h5.18a.52.52 0 0 1 .52.52V29.48a.52.52 0 0 1-.52.52zM23.26 3.69c0-.36-.455-.653-.815-.653s-.75.293-.75.653v4.69c0 .36.39.653.75.653s.816-.293.816-.654V3.69zm-5.137 21.47a.52.52 0 0 1-.734 0L16 23.766l-1.393 1.392a.52.52 0 0 1-.734-.734l1.392-1.393-1.392-1.392a.518.518 0 0 1 .733-.734l1.392 1.393 1.392-1.393a.52.52 0 0 1 .733.734l-1.392 1.393 1.393 1.392a.52.52 0 0 1 0 .734zm0-7.035a.515.515 0 0 1-.734 0L16 16.733l-1.393 1.392a.515.515 0 0 1-.734 0 .52.52 0 0 1 0-.733l3.517-3.517a.52.52 0 0 1 .733.733L16.73 16l1.393 1.392a.52.52 0 0 1 0 .733zM5.67 20.908a.52.52 0 0 1 .732 0L7.794 22.3l1.392-1.392a.52.52 0 0 1 .733.734l-1.393 1.392 1.392 1.392a.518.518 0 0 1-.735.734l-1.392-1.392L6.4 25.16a.52.52 0 0 1-.734-.734l1.393-1.392-1.393-1.392a.518.518 0 0 1 0-.734zm3.882-3.804C5.388 17.104 2 13.717 2 9.552S5.388 2 9.552 2s7.552 3.388 7.552 7.552c0 4.165-3.388 7.552-7.552 7.552zm0-14.067c-3.593 0-6.516 2.923-6.516 6.515s2.923 6.515 6.516 6.515c3.592 0 6.515-2.922 6.515-6.515s-2.923-6.515-6.515-6.515zm.216 7.292a.306.306 0 0 1-.158-.055c-.02.003-.038.012-.06.012H4.863a.52.52 0 0 1 0-1.038H9.25V4.86a.518.518 0 0 1 1.037 0v4.69c0 .286-.232.778-.52.778z"/></svg><view id="icon--checkmark" viewBox="52 52 52 52"/><svg width="52" height="52" viewBox="-10 -10 52 52" x="52" y="52"><path d="M29.103 8.603l-2.368-2.368a.835.835 0 0 0-1.184 0L13.443 19.02l-6.94-6.945a.85.85 0 0 0-1.2 0l-2.4 2.4a.85.85 0 0 0 0 1.2l9.872 10.102a.82.82 0 0 0 .7.225.833.833 0 0 0 .724-.225L29.104 9.79a.838.838 0 0 0 0-1.186z"/></svg><view id="icon--checkmark2" viewBox="104 0 52 52"/><svg width="52" height="52" viewBox="-10 -10 52 52" x="104"><path d="M25.24 5.92l-12.6 12.6-5.88-5.88-4.2 4.2 10.08 10.08 16.8-16.8z"/></svg><view id="icon--city" viewBox="104 52 52 52"/><svg width="52" height="52" viewBox="-10 -10 52 52" x="104" y="52"><path d="M28.505 30H3.402a.966.966 0 0 1-.966-.965V17.45c0-.534.432-.966.966-.966h3.862V5.864c0-.534.432-.967.966-.967h3.862v-1.93c0-.534.432-.967.966-.967h5.793c.535 0 .966.433.966.966v1.93h3.862c.534 0 .965.434.965.967v10.62h3.862c.534 0 .965.434.965.966v11.585a.965.965 0 0 1-.965.965zm-.966-11.586h-3.863a.965.965 0 0 1-.965-.965V6.827H18.85a.965.965 0 0 1-.965-.966v-1.93h-3.862v1.93a.966.966 0 0 1-.966.966H9.195v10.62a.965.965 0 0 1-.966.966H4.366v9.655h8.69V25.17h5.793v2.897h8.69v-9.656zm-8.69 2.896h1.93v1.93h-1.93v-1.93zm0-3.862h1.93v1.93h-1.93v-1.93zm0-3.862h1.93v1.93h-1.93v-1.93zm0-3.862h1.93v1.93h-1.93v-1.93zm5.793 13.517h-1.93v-1.93h1.93v1.93zm-9.655-1.93h1.93v1.93h-1.93v-1.93zm0-3.862h1.93v1.93h-1.93v-1.93zm0-3.862h1.93v1.93h-1.93v-1.93zm0-3.862h1.93v1.93h-1.93v-1.93zM11.126 21.31h1.93v1.93h-1.93v-1.93zm0-3.862h1.93v1.93h-1.93v-1.93zm0-3.862h1.93v1.93h-1.93v-1.93zm0-3.862h1.93v1.93h-1.93v-1.93zM7.264 21.31h1.93v1.93h-1.93v-1.93z"/></svg><view id="icon--coffee" viewBox="0 104 52 52"/><svg width="52" height="52" viewBox="-10 -10 52 52" y="104"><path d="M26.392 24.46a3.132 3.132 0 0 1-2.947-2.098c-1.595 3.466-4.34 5.995-7.585 6.786h7.73a.437.437 0 0 1 0 .874H3.478a.437.437 0 0 1 0-.874h8.03c-5.162-1.26-9.068-6.91-9.068-13.75 0-.057 0-.114.002-.17l.002-.088a.436.436 0 0 1 .437-.43h21.605c.237 0 .43.19.437.428l.002.078a17.398 17.398 0 0 1-.33 3.538 3.117 3.117 0 0 1 1.798-.573c1.73 0 3.14 1.408 3.14 3.14s-1.41 3.138-3.14 3.138zm-23.08-8.875c.08 7.205 4.7 12.954 10.37 12.954s10.29-5.75 10.37-12.955H3.312zm23.08 3.47c-1.25 0-2.265 1.017-2.265 2.266s1.016 2.266 2.265 2.266c1.25 0 2.265-1.016 2.265-2.265s-1.016-2.264-2.265-2.264zM17.298 7.49c.13-.302.214-.502.328-1.11.22-1.175-.84-2.166-.886-2.207a.436.436 0 1 0-.59.643c.007.007.75.71.618 1.403-.096.513-.155.65-.272.926-.086.202-.204.478-.374.987-.4 1.194.224 2.024.61 2.297a.43.43 0 0 0 .25.08.44.44 0 0 0 .26-.79c-.06-.045-.575-.46-.29-1.31.16-.475.264-.722.35-.92zm-3.51 2.338c-.085-.38.165-2.593.602-4.773.43-2.148-.216-2.812-.35-2.923-.186-.154-.472-.14-.626.046s-.14.45.045.606c.003.004.4.466.073 2.1-.333 1.66-.753 4.44-.6 5.135.14.623.7.95.765.987a.434.434 0 0 0 .59-.167.44.44 0 0 0-.162-.595c-.08-.046-.293-.21-.34-.416zm-2.77-2.34c.128-.3.213-.5.327-1.107.22-1.175-.84-2.166-.886-2.207a.436.436 0 1 0-.59.643c.006.007.748.71.617 1.403-.096.513-.155.65-.272.926-.086.202-.204.478-.374.987-.4 1.194.225 2.024.61 2.297a.43.43 0 0 0 .25.08.44.44 0 0 0 .26-.79c-.06-.045-.574-.46-.29-1.31.16-.475.265-.722.35-.92z"/></svg><view id="icon--defence" viewBox="52 104 52 52"/><svg width="52" height="52" viewBox="-10 -10 52 52" x="52" y="104"><path d="M29.06 23.797a2.78 2.78 0 0 1-1.98.82c-.516 0-1.01-.137-1.444-.4a.447.447 0 0 1-.27-.136L25 23.7l-7.91-8.644c-.113.096-.227.19-.34.282a2.304 2.304 0 0 1-.55 2.364c-.415.415-1.006.654-1.62.654s-1.207-.238-1.623-.654l-5.035-5.035a2.296 2.296 0 0 1 0-3.243c.59-.59 1.558-.815 2.36-.55a18.642 18.642 0 0 1 3.93-3.656 2.28 2.28 0 0 1 .47-2.556 2.302 2.302 0 0 1 1.623-.655c.614 0 1.205.238 1.62.653l5.036 5.036c.433.432.67 1.008.67 1.62s-.237 1.19-.67 1.624c-.637.636-1.72.83-2.556.47-.07.1-.14.202-.214.303l9.164 8.387a.45.45 0 0 1 .146.312c.247.425.376.906.376 1.403 0 .75-.29 1.453-.82 1.98zm-.418-3.065a.444.444 0 0 1-.06-.124l-9.293-8.506a.45.45 0 0 1-.056-.604c.23-.305.45-.618.654-.93a.45.45 0 0 1 .64-.12c.51.367 1.353.3 1.8-.146.263-.263.407-.614.407-.987s-.145-.723-.407-.985l-5.034-5.035c-.497-.495-1.475-.495-1.97 0-.48.48-.542 1.252-.146 1.8a.45.45 0 0 1-.12.64 17.39 17.39 0 0 0-2.795 2.278c-.53.53-1.027 1.095-1.48 1.682a.45.45 0 0 1-.57.12c-.51-.274-1.242-.167-1.65.243a1.395 1.395 0 0 0 0 1.97l5.034 5.036c.497.497 1.475.497 1.97 0a1.394 1.394 0 0 0 .24-1.65.45.45 0 0 1 .12-.57c.303-.235.606-.488.902-.752a.45.45 0 0 1 .63.032l8.42 9.19a.445.445 0 0 1 .106.056c.73.517 1.8.428 2.44-.21.36-.36.557-.838.557-1.346 0-.39-.117-.765-.34-1.084zM15.4 25.824a3.233 3.233 0 0 1 2.777 3.198v.52c0 .25-.2.45-.45.45H2.445a.45.45 0 0 1-.45-.45v-.52c0-1.62 1.2-2.977 2.777-3.198a2.47 2.47 0 0 1 2.13-1.222h6.368c.88 0 1.69.472 2.13 1.222zm-9.93.606a.45.45 0 0 1-.385.265 2.333 2.333 0 0 0-2.192 2.327v.07h14.383v-.07a2.333 2.333 0 0 0-2.192-2.327.447.447 0 0 1-.384-.265 1.572 1.572 0 0 0-1.43-.93H6.9a1.57 1.57 0 0 0-1.43.93z"/></svg><view id="icon--director" viewBox="104 104 52 51.03"/><svg width="52" height="51.03" viewBox="-10.31 -10.31 53.63 52.63" x="104" y="104"><path d="M30.65 29.652a.375.375 0 0 1-.374.347H9.066a.375.375 0 0 1-.375-.348c-.01-.16-.092-1.563.702-2.175.616-.473 1.937-1.347 3.87-1.884A50.598 50.598 0 0 0 16.7 24.48v-1.76c-.006-.005-.032-.01-.038-.016-.008-.003-.017-.002-.025-.005-3.077-1.248-5.065-4.188-5.065-7.49 0-4.46 3.65-8.087 8.137-8.087s8.136 3.628 8.136 8.086a8.075 8.075 0 0 1-4.97 7.45c-.03.013-.062.015-.094.02l-.06.06c-.02.02 0 .035-.02.054v1.687c.562.207 1.97.724 3.375 1.114 1.935.537 3.256 1.41 3.87 1.884.795.61.714 2.014.703 2.175zm-13.2-4.96a4.75 4.75 0 0 0 2.26.56c.784 0 1.57-.185 2.222-.52V23.38c-.898.59-1.675.697-2.098.697-.045 0-.087 0-.124-.003-.392.02-1.228-.04-2.26-.745v1.363zm9.647-9.484c0-4.046-3.314-7.337-7.387-7.337s-7.387 3.292-7.387 7.338a7.294 7.294 0 0 0 3.138 6.006 10.09 10.09 0 0 1-1.058-2.277c-.292-.256-1.11-1.076-1.11-2.237 0-1.116.958-1.91 1.395-2.213-.023-.386.007-1.127.48-1.694.396-.475.998-.716 1.788-.716 1.287 0 1.66.227 2.012.525.16.135.266.224.75.233.473-.01.58-.098.738-.233.352-.297.724-.525 2.012-.525.79 0 1.39.24 1.788.716.473.567.503 1.308.48 1.694.437.304 1.394 1.097 1.394 2.213 0 1.16-.82 1.982-1.11 2.237-.1.325-.424 1.267-1.054 2.27a7.308 7.308 0 0 0 3.133-6zm-2.768 3.415a.38.38 0 0 1 .133-.2c.01-.005.915-.717.915-1.723 0-.97-1.215-1.69-1.227-1.698a.375.375 0 0 1-.182-.392c0-.007.138-.827-.293-1.34-.247-.294-.654-.443-1.21-.443-1.116 0-1.326.177-1.53.348-.265.224-.523.397-1.22.41-.71-.013-.968-.186-1.234-.41-.202-.17-.412-.348-1.528-.348-.555 0-.962.15-1.21.443-.43.513-.294 1.333-.292 1.34a.376.376 0 0 1-.183.392c-.01.007-1.227.72-1.227 1.698 0 1.007.906 1.718.915 1.725.064.05.112.12.134.198.005.02.6 2.145 2.12 3.568 1.147 1.077 2.11 1.157 2.476 1.135h.045c.368.022 1.33-.058 2.477-1.134 1.517-1.422 2.113-3.545 2.12-3.567zm5.16 9.448c-.57-.44-1.8-1.252-3.613-1.756a49.056 49.056 0 0 1-3.332-1.08A5.542 5.542 0 0 1 19.71 26c-1.033 0-2.043-.28-2.865-.784-.628.228-2.025.72-3.38 1.098-1.812.503-3.043 1.316-3.615 1.757-.297.23-.39.776-.412 1.18h20.464c-.02-.405-.115-.95-.412-1.18zm-9.644-11.96c0-.042.005-.085.006-.127h-.224c.002.042.006.084.006.126 0 1.42-1.064 2.532-2.372 2.532s-2.372-1.155-2.372-2.575c0-.182.02-.37.057-.555.035-.175.19-.238.367-.238h.073c.033-.01.064-.02.1-.02h8.495c.035 0 .067.01.1.02h.083c.178 0 .33.063.367.237.038.185.057.372.057.556 0 1.42-1.065 2.575-2.373 2.575s-2.372-1.112-2.372-2.532zm-.964-.106h-3.24a1.84 1.84 0 0 0-.003.105c0 1.005.727 1.783 1.622 1.783s1.623-.777 1.623-1.784c0-.036 0-.07-.003-.106zm3.336 1.89c.895 0 1.623-.778 1.623-1.785 0-.036 0-.07-.002-.106h-3.24l-.002.105c0 1.005.728 1.783 1.623 1.783zm-11.575-3.758a5.298 5.298 0 0 1-6.85-5.058 5.297 5.297 0 0 1 5.292-5.29 5.32 5.32 0 0 1 5.168 4.16.375.375 0 0 1-.732.16 4.565 4.565 0 0 0-4.434-3.572c-2.505 0-4.542 2.038-4.542 4.542a4.548 4.548 0 0 0 5.88 4.34.374.374 0 0 1 .22.717zm-2.936-7.25c0-.208.152-.376.36-.376h1.89c.788 0 1.43.676 1.43 1.508s-.642 1.492-1.43 1.492h-1.49v.25h1.457c.207 0 .375.214.375.42s-.17.328-.376.328H8.466v1.062c0 .207-.183.375-.39.375s-.36-.168-.36-.375v-1.062h-.61c-.206 0-.374-.12-.374-.328s.168-.42.375-.42h.61v-.25h-.623c-.207 0-.375-.152-.375-.36s.167-.38.374-.38h.623V6.937c-.002-.017-.01-.032-.01-.05zm.76 1.885h1.49c.376 0 .682-.334.682-.752s-.307-.758-.683-.758h-1.49v1.51zM15.11 7.4a3.108 3.108 0 0 0-.113-.068c-.2-.114-.425-.242-.526-.485-.1-.245-.032-.497.03-.72.015-.057.04-.145.048-.204a2.284 2.284 0 0 0-.204-.06c-.222-.058-.474-.124-.635-.333s-.16-.47-.16-.7c0-.06 0-.153-.006-.212-.06-.006-.15-.006-.212-.006-.23.002-.49.002-.7-.16s-.275-.41-.333-.634c-.016-.06-.04-.15-.06-.205-.06.01-.147.033-.206.05-.222.06-.475.128-.72.027-.24-.1-.37-.326-.483-.525a2.13 2.13 0 0 0-.11-.183c-.055.024-.133.07-.184.1-.2.117-.425.25-.69.215-.258-.034-.44-.218-.6-.38-.046-.045-.113-.113-.16-.15-.048.037-.116.106-.16.15-.162.163-.344.347-.603.38-.264.035-.49-.097-.69-.214-.05-.03-.128-.076-.182-.1-.035.05-.08.13-.11.182-.114.2-.243.425-.485.525-.244.102-.496.033-.72-.028a2.105 2.105 0 0 0-.204-.05 1.995 1.995 0 0 0-.06.205c-.057.222-.123.474-.332.635s-.468.16-.7.158c-.06 0-.153 0-.212.006-.006.06-.006.15-.006.212 0 .23.002.49-.16.7s-.41.275-.634.333c-.06.017-.148.04-.204.06.01.06.033.148.05.206.06.222.128.474.027.72-.102.24-.327.37-.526.483a2.13 2.13 0 0 0-.183.11c.025.055.07.133.1.185.118.2.25.426.216.69-.034.258-.218.44-.38.6a2.06 2.06 0 0 0-.15.16c.036.048.105.116.15.16.162.162.346.344.38.603.034.264-.098.49-.215.69-.03.05-.075.13-.1.183.05.037.13.082.184.113.2.113.424.242.525.484.1.245.032.497-.03.72-.015.057-.04.145-.048.204.056.023.145.046.204.06.222.06.474.125.635.334s.16.47.16.7c0 .06 0 .153.006.212.06.007.15.007.212.006.23 0 .49-.002.7.16s.275.41.333.634c.017.06.04.15.06.204.06-.01.148-.033.206-.05.222-.06.474-.128.72-.027.242.1.37.326.483.525.03.053.075.134.11.183.055-.023.133-.07.184-.1.2-.116.425-.248.69-.214.26.034.44.218.602.38.044.045.112.113.16.15.047-.036.115-.105.16-.15.16-.162.343-.346.602-.38a.813.813 0 0 1 .46.09.373.373 0 0 1 .475.36l.003.12c.002.134-.068.26-.185.327s-.26.07-.375.002l-.064-.037a1.575 1.575 0 0 0-.212-.112c-.045.033-.12.11-.17.157-.172.174-.386.39-.69.39s-.52-.216-.693-.39c-.048-.048-.124-.125-.17-.157-.053.02-.15.076-.21.11-.21.123-.47.276-.76.198-.294-.08-.444-.343-.566-.556a1.785 1.785 0 0 0-.125-.198c-.057.005-.163.034-.23.052-.235.064-.527.143-.788-.008-.263-.152-.34-.445-.4-.68-.02-.068-.046-.174-.07-.225-.056-.01-.166-.01-.236-.01-.243 0-.545.003-.76-.21s-.21-.518-.21-.76c0-.07 0-.18-.01-.237-.05-.024-.156-.05-.223-.07-.236-.06-.53-.137-.68-.4s-.072-.553-.008-.787c.017-.068.046-.175.05-.23a1.696 1.696 0 0 0-.197-.125c-.212-.12-.477-.27-.555-.565-.078-.29.075-.55.197-.76.036-.06.092-.156.11-.21-.032-.046-.108-.12-.156-.17-.175-.17-.392-.386-.392-.69s.217-.52.39-.693c.05-.048.126-.123.158-.17-.02-.053-.076-.15-.11-.21-.123-.21-.276-.47-.198-.76.08-.293.343-.444.556-.565.06-.034.154-.088.198-.124-.005-.057-.034-.164-.052-.23-.064-.236-.144-.527.007-.788.152-.262.445-.34.68-.4.068-.018.174-.045.225-.07.01-.055.01-.165.01-.235-.002-.243-.004-.546.21-.76s.517-.212.76-.21c.07 0 .18 0 .236-.01.024-.05.05-.157.07-.225.06-.236.137-.53.4-.68.26-.152.552-.072.787-.008.068.018.174.047.23.052.037-.044.09-.14.125-.198.12-.213.272-.477.566-.556.29-.077.55.075.76.197.06.036.156.092.21.112.045-.033.12-.11.17-.157.17-.174.386-.39.69-.39s.52.216.693.39c.047.048.123.125.168.157.054-.02.15-.076.21-.11.21-.123.47-.276.76-.198.295.078.445.343.567.556.034.06.088.154.124.198a1.64 1.64 0 0 0 .23-.052c.235-.064.526-.143.787.007.262.152.34.446.4.682.018.067.045.173.07.224.055.01.165.01.235.01.245 0 .546-.003.76.21s.212.518.21.76c0 .07 0 .18.01.237.05.024.157.05.224.07.236.06.53.137.68.4s.072.552.01.786c-.02.068-.05.175-.053.23.043.037.138.09.198.125.047.026.093.053.137.08a.375.375 0 1 1-.394.638z"/></svg><view id="icon--facebook" viewBox="156 0 50 52"/><svg width="50" height="52" viewBox="-10 -10 50 52" x="156"><path d="M11.268 10.908h-1.246c-.684 0-1.246.574-1.246 1.274v2.544c0 .7.562 1.274 1.246 1.274h1.246v12.726c0 .7.562 1.274 1.246 1.274h2.492c.686 0 1.246-.574 1.246-1.274V16h2.492c.686 0 1.383-.556 1.55-1.236l.64-2.62c.165-.68-.258-1.237-.944-1.237h-3.738V7.09h3.738V1.997h-3.738c-3.738 0-4.984 2.52-4.984 5.093v3.817z"/></svg><view id="icon--gen_direcor" viewBox="206 0 52 52"/><svg width="52" height="52" viewBox="-10 -10 52 52" x="206"><path d="M29.943 29.997H7.396a.376.376 0 0 1-.376-.376V26.7c0-.064.017-.127.05-.184.05-.088 1.162-2.166 2.876-2.82 1.36-.517 3.962-1.128 4.85-1.327v-2.302c0-.07.024-.13.057-.187a24.183 24.183 0 0 1-2.116-2.836c-.11-.142-.718-.972-.718-1.938 0-.79.4-1.322.634-1.564-.063-.83-.15-4.052 2.074-5.774a.346.346 0 0 1 .03-.022c1.104-.69 2.265-1.04 3.45-1.04 1.837 0 3.18.835 3.59 1.123.054-.004.117-.007.19-.007.573 0 1.95.18 2.365 1.834.41 1.64-.16 2.888-.388 3.297l.08.404c.5.192 1.162.696 1.162 1.67 0 1.124-.738 1.805-.998 2.01-.173.337-.852 1.61-1.782 2.61l-.192.208c.043.06.073.13.073.21v2.243a.36.36 0 0 1 .113.083c.978.222 3.46.804 4.767 1.302 1.714.653 3.03 2.73 3.08 2.82.032.055.05.12.05.184v2.92a.376.376 0 0 1-.377.375zm-10.088-.752l-.778-2.83a.377.377 0 0 1 .1-.37l.632-.612-.525-.944H18.16l-.524.943.632.613a.377.377 0 0 1 .1.37l-.777 2.83h2.265zm1.702-6.684v-1.98c-.756.76-1.628 1.4-2.98 1.408a1.836 1.836 0 0 1-.173.008c-.448 0-1.607-.14-2.857-1.37v1.8l2.5 1.31h1.52l1.99-1.176zM10.214 24.4C8.93 24.89 8 26.43 7.772 26.804v2.44h9.04l.775-2.815-.68-.66a.376.376 0 0 1-.066-.45l.588-1.058-2.286-1.2c-.585.13-3.517.8-4.928 1.337zm7.994-16.94c-1.037 0-2.058.307-3.035.914-1.156.905-1.58 2.338-1.72 3.483.42-.497 1.085-.912 2.104-.995.38-.03.732-.054 1.062-.075 1.635-.106 2.622-.17 3.443-.986.67-.664.99-1.187 1.132-1.467-.48-.3-1.577-.873-2.986-.873zm5.416 2.38c-.23-.92-.86-1.2-1.418-1.253.055.442.203 1.485.456 2.273.18.56.54 1.057.813 1.38a3.865 3.865 0 0 0 .148-2.398zm-.05 6.786c.03-.06.075-.11.13-.148.03-.02.75-.524.75-1.448 0-.806-.73-.992-.812-1.01a.38.38 0 0 1-.29-.294l-.13-.65c-.253-.254-.966-1.027-1.275-1.988-.196-.608-.33-1.334-.412-1.87-.215.312-.516.69-.943 1.115-1.02 1.015-2.176 1.09-3.925 1.203-.326.02-.675.044-1.05.074-1.96.16-2.042 1.76-2.044 1.827a.37.37 0 0 1-.156.283.372.372 0 0 1-.144.268c-.018.015-.503.407-.503 1.118 0 .764.56 1.48.567 1.486.01.012.02.025.027.038.012.02 1.183 1.898 2.63 3.38 1.085 1.113 2.047 1.234 2.41 1.234a.714.714 0 0 0 .102-.005.403.403 0 0 1 .05-.004c1.398 0 2.158-.83 3.04-1.793.092-.102.186-.205.282-.307.983-1.056 1.69-2.496 1.697-2.51zm5.993 10.18c-.23-.374-1.36-1.917-2.646-2.407-1.31-.5-3.952-1.112-4.797-1.302l-2.07 1.226.553.996a.376.376 0 0 1-.067.452l-.68.66.774 2.814h8.933v-2.44zM11.324 12.21h-6.24a.376.376 0 0 1 0-.752h6.24a.376.376 0 0 1 0 .752zM4.71 7.83c0-.208.167-.376.375-.376h7.533a.376.376 0 0 1 0 .752H5.085a.376.376 0 0 1-.376-.376zm6.948 2.38H5.084a.376.376 0 0 1 0-.753h6.574a.376.376 0 0 1 0 .752zm3.756-3.863a.376.376 0 0 1-.376-.376v-.15a.377.377 0 0 0-.376-.375H3.152a.377.377 0 0 0-.377.376v8.265c0 .207.17.376.376.376h7.64a.376.376 0 0 1 0 .753H3.15a1.128 1.128 0 0 1-1.126-1.127V5.822c0-.622.505-1.127 1.127-1.127h3.09c.16-1.51 1.443-2.692 2.996-2.692s2.835 1.18 2.997 2.692h2.43c.62 0 1.126.505 1.126 1.127v.15a.376.376 0 0 1-.377.376zM9.237 2.754C8.1 2.754 7.157 3.6 7 4.694h4.475a2.266 2.266 0 0 0-2.238-1.94z"/></svg><view id="icon--gift" viewBox="206 52 52 52"/><svg width="52" height="52" viewBox="-10 -10 52 52" x="206" y="52"><path d="M28.45 16.956H26.44V29.5a.5.5 0 0 1-.502.5H5.872a.5.5 0 0 1-.502-.5V16.955H3.363a.5.5 0 0 1-.502-.5V8.928c0-.278.226-.503.503-.503h4.612c-1.168-.798-2.073-2.04-2.073-3.624 0-1.49.71-2.158 1.306-2.458.677-.34 1.44-.34 1.928-.34.912 0 3.943.45 6.915 5.863 2.97-5.4 5.994-5.863 6.884-5.863.485-.006 1.272 0 1.95.34.597.3 1.307.97 1.307 2.458 0 1.583-.905 2.826-2.073 3.624h4.33c.278 0 .503.225.503.502v7.525a.5.5 0 0 1-.502.5zm-10.537 12.04h7.526v-12.04h-7.527v12.04zm-3.01-12.68c.014.044.028.09.028.14s-.014.093-.027.138v12.403h2.007V9.43h-2.007v6.885zm-8.53 12.68H13.9v-12.04H6.374v12.04zM3.866 9.432v6.523H13.9V9.43H3.864zM9.16 3.01c-.426.002-1.036-.002-1.5.232-.325.163-.755.5-.755 1.56 0 2.38 2.663 3.625 4.09 3.625h3.333c.025-.004.047-.015.073-.015s.05.01.074.015h.74C12.418 3.293 9.696 3.01 9.158 3.01zm16.028 1.793c0-1.06-.43-1.398-.754-1.56-.465-.234-1.075-.236-1.478-.234-.56 0-3.282.283-6.076 5.417h.458c.025-.004.047-.015.073-.015s.05.01.074.015h3.614c1.427 0 4.09-1.245 4.09-3.624zm2.76 4.628H17.912v6.523h10.034V9.43z"/></svg><view id="icon--go_top" viewBox="0 0 52 52"/><svg width="52" height="52" viewBox="-10 -10 52 52"><path d="M16.032 3.987L2.504 28.013H29.56L16.03 3.987zm-.016 7.925l7.01 12.448H9.008l7.008-12.448z"/></svg><view id="icon--graph" viewBox="0 156 52 51.03"/><svg width="52" height="51.03" viewBox="-10.31 -10.31 53.63 52.63" y="156"><path d="M29.143 27.112H3.388a.41.41 0 0 1 0-.818h.608v-4.07a.41.41 0 0 1 .41-.41H8.07a.41.41 0 0 1 .41.41v4.07h2.473V15.676a.41.41 0 0 1 .41-.41h3.256a.41.41 0 0 1 .408.41v10.618H17.5v-7.36a.41.41 0 0 1 .41-.41h3.666a.41.41 0 0 1 .41.41v7.36h2.472v-15.13a.41.41 0 0 1 .41-.41h3.256a.41.41 0 0 1 .41.41v15.13h.607a.41.41 0 0 1 0 .818zm-21.48-4.48h-2.85v3.662h2.85v-3.66zm6.548-6.547h-2.438v10.21h2.44v-10.21zm6.958 3.257H18.32v6.952h2.848v-6.952zm6.55-7.77h-2.44v14.722h2.44V11.572zm-1.375-3.496a1.51 1.51 0 0 1-.77-.214c-.01.02-.015.042-.03.06l-4.48 5.6a.394.394 0 0 1-.122.096 1.516 1.516 0 0 1-.234 1.848 1.52 1.52 0 0 1-1.08.448 1.527 1.527 0 0 1-1.5-1.822l-4.09-2.045c-.017.02-.03.04-.048.06a1.51 1.51 0 0 1-1.85.234c-.017.032-.033.065-.06.093l-4.48 4.48c-.028.027-.06.043-.094.06a1.517 1.517 0 0 1-.234 1.85c-.29.288-.673.448-1.08.448a1.53 1.53 0 0 1-1.08-2.61c.48-.484 1.264-.556 1.845-.23.018-.034.036-.07.065-.098l4.48-4.48c.027-.027.06-.043.093-.06a1.527 1.527 0 0 1 .234-1.85c.577-.578 1.585-.578 2.162 0 .37.373.51.892.418 1.374l4.09 2.045c.016-.02.03-.04.047-.06.484-.483 1.267-.556 1.848-.23.01-.02.017-.044.033-.063l4.48-5.6a.387.387 0 0 1 .12-.1 1.526 1.526 0 0 1 .237-1.844c.577-.578 1.586-.578 2.162 0a1.53 1.53 0 0 1-1.08 2.61zM6.69 17.242a.707.707 0 0 0-1.005 0 .712.712 0 0 0 .502 1.213.707.707 0 0 0 .71-.71.707.707 0 0 0-.208-.502zm6.718-6.718a.707.707 0 0 0-1.005 0 .712.712 0 0 0 0 1.005c.268.268.736.268 1.005 0a.712.712 0 0 0 0-1.006zm6.72 3.36a.71.71 0 1 0-1.005 1.005c.268.268.735.267 1.004 0a.707.707 0 0 0 0-1.006zm6.718-7.84a.707.707 0 0 0-1.005 0 .712.712 0 0 0 0 1.006.728.728 0 0 0 1.006 0 .712.712 0 0 0 0-1.005z"/></svg><view id="icon--home" viewBox="258 0 52 52"/><svg width="52" height="52" viewBox="-10 -10 52 52" x="258"><path d="M29.136 19.086a1.52 1.52 0 0 1-2.158-.094l-.4-.44v9.458c0 .614-1.195 1.118-1.804 1.118h-3.332c-.61 0-.97-.503-.97-1.118v-6.704c0-.614-.64-1.397-1.25-1.397H12.56c-.61 0-1.25.782-1.25 1.396v6.704c0 .614-.36 1.118-.97 1.118H7.007c-.61 0-1.804-.503-1.804-1.118v-9.46l-.4.442c-.57.625-1.536.668-2.158.094s-.664-1.547-.094-2.172L14.766 3.507c.58-.634 1.672-.634 2.25 0l12.215 13.407c.57.625.53 1.598-.093 2.172z"/></svg><view id="icon--map_pin" viewBox="258 52 52 52"/><svg width="52" height="52" viewBox="-10 -10 52 52" x="258" y="52"><path d="M24.824 18.192l-6.986 10.806c-.39.603-1.067 1-1.838 1s-1.45-.397-1.838-1L7.176 18.192A10.457 10.457 0 0 1 5.5 12.5C5.5 6.7 10.2 2 16 2s10.5 4.7 10.5 10.5c0 2.097-.616 4.05-1.676 5.692zM16 4.625c-4.343 0-7.875 3.532-7.875 7.874 0 1.52.434 2.996 1.256 4.267L16 27.007l6.62-10.24a7.837 7.837 0 0 0 1.255-4.268c0-4.344-3.533-7.875-7.875-7.875zm0 12.25c-2.417 0-4.375-1.958-4.375-4.375S13.583 8.125 16 8.125a4.375 4.375 0 0 1 0 8.75zm0-6.125c-.965 0-1.75.786-1.75 1.75s.785 1.75 1.75 1.75 1.75-.785 1.75-1.75c0-.964-.785-1.75-1.75-1.75z"/></svg><view id="icon--nest" viewBox="258 104 52 52"/><svg width="52" height="52" viewBox="-10 -10 52 52" x="258" y="104"><path d="M28.16 29H23.6a1.37 1.37 0 0 1-1.37-1.368v-4.56a1.37 1.37 0 0 1 1.37-1.37h4.56a1.37 1.37 0 0 1 1.368 1.37v4.56A1.37 1.37 0 0 1 28.16 29zm.456-5.93a.456.456 0 0 0-.456-.456H23.6a.456.456 0 0 0-.457.456v4.56c0 .252.204.457.456.457h4.56a.456.456 0 0 0 .456-.456v-4.56zm-2.713-2.913a.456.456 0 0 1-.456-.456V16.23H16.3V19.7a.456.456 0 0 1-.912 0V16.23H6.24V19.7c0 .253-.203.457-.455.457s-.432-.204-.432-.456v-3.72c0-.017.007-.032.008-.048a.453.453 0 0 1-.03-.16c0-.253.203-.457.455-.457h9.603v-2.958a.456.456 0 0 1 .912 0v2.958h9.504c.212 0 .366.148.412.344a.47.47 0 0 1 .12.318V19.7c0 .252-.18.456-.432.456zm-7.78-9.86h-4.56a1.37 1.37 0 0 1-1.368-1.367V4.37A1.37 1.37 0 0 1 13.563 3h4.56a1.37 1.37 0 0 1 1.37 1.37v4.56a1.37 1.37 0 0 1-1.37 1.368zm.458-5.93a.456.456 0 0 0-.455-.455h-4.56a.456.456 0 0 0-.457.456v4.56c0 .252.204.457.456.457h4.56a.456.456 0 0 0 .457-.456V4.367zM9.46 23.07v4.56A1.37 1.37 0 0 1 8.09 29H3.53a1.37 1.37 0 0 1-1.37-1.37v-4.56a1.37 1.37 0 0 1 1.37-1.368h4.56a1.37 1.37 0 0 1 1.368 1.368zm-6.386 0v4.56c0 .252.204.457.456.457h4.56a.456.456 0 0 0 .457-.456v-4.56a.456.456 0 0 0-.456-.456H3.527a.456.456 0 0 0-.456.456zm10.49-1.368h4.562a1.37 1.37 0 0 1 1.368 1.368v4.56A1.37 1.37 0 0 1 18.124 29h-4.56a1.37 1.37 0 0 1-1.37-1.37v-4.56a1.37 1.37 0 0 1 1.37-1.368zm-.455 5.93c0 .25.204.456.456.456h4.56a.456.456 0 0 0 .457-.456v-4.56a.456.456 0 0 0-.456-.457h-4.56a.456.456 0 0 0-.457.456v4.562z"/></svg><view id="icon--owner" viewBox="258 156 52 51.03"/><svg width="52" height="51.03" viewBox="-10.31 -10.31 53.63 52.63" x="258" y="156"><path d="M30.422 30H8.32a.368.368 0 0 1-.37-.37v-2.705a.37.37 0 0 1 .055-.192c.05-.08 1.2-1.974 2.88-2.568 1.582-.56 4.932-1.238 5.073-1.266.192-.04.38.08.43.27l1.378 5.473.612-2.64-.693-.772a.366.366 0 0 1-.057-.405l.722-1.494a.37.37 0 0 1 .332-.207h1.605c.14 0 .27.08.33.208l.723 1.495a.368.368 0 0 1-.058.406l-.693.773.593 2.566 1.086-5.384a.37.37 0 0 1 .433-.287c.142.028 3.49.706 5.073 1.265 1.68.593 2.912 2.488 2.96 2.568a.37.37 0 0 1 .055.192v2.706a.368.368 0 0 1-.367.37zm-14.66-6.31c-.908.19-3.387.73-4.632 1.17-1.254.442-2.208 1.818-2.442 2.172v2.23h8.474l-1.4-5.57zm4.15 1.964l.656-.733-.514-1.062H18.91l-.513 1.063.658.734c.08.09.112.214.084.332l-.76 3.277h2.207l-.76-3.277a.368.368 0 0 1 .084-.332zm10.142 1.38c-.235-.355-1.275-1.733-2.524-2.175-1.237-.438-3.694-.972-4.614-1.165l-1.122 5.567h8.26v-2.23zm-5.193-9.788c-.168.33-.834 1.58-1.746 2.56-.092.098-.183.197-.273.296-.894.977-1.82 1.988-3.5 1.997-.033.002-.09.007-.17.007-.45 0-1.633-.14-2.893-1.432-1.416-1.452-2.535-3.214-2.665-3.422-.108-.14-.704-.953-.704-1.9 0-.775.393-1.296.623-1.534-.06-.815-.146-3.974 2.035-5.662l.03-.02c1.576-.986 3.022-1.485 4.298-1.485.937 0 1.77.266 2.475.79.73.545 1.554 1.323 2.116 2.965.515 1.505.27 2.454.136 2.802v.03l.08.4c.49.19 1.14.684 1.14 1.64 0 1.1-.724 1.768-.98 1.97zm-1.072-6.6c-.496-1.45-1.186-2.112-1.86-2.612-1.416-1.055-3.483-.806-5.926.716-1.134.887-1.548 2.293-1.688 3.415.412-.487 1.065-.895 2.064-.976a33.07 33.07 0 0 1 2.236-.097c.966-.017 1.728-.03 2.538-.26.763-.214 1.448-.146 2.036.203.372.22.653.528.865.84a4.862 4.862 0 0 0-.264-1.23zm.518 3.64a.374.374 0 0 1-.284-.288l-.15-.75c-.004-.02 0-.038 0-.057-.09-.29-.392-1.126-1.065-1.523-.406-.24-.896-.282-1.456-.124-.9.254-1.705.268-2.724.286-.622.01-1.327.023-2.19.093-1.92.157-2 1.725-2.004 1.792a.36.36 0 0 1-.153.278.367.367 0 0 1-.142.264c-.018.014-.493.4-.493 1.096 0 .75.55 1.45.556 1.457a.26.26 0 0 1 .028.038c.012.018 1.16 1.86 2.577 3.314 1.064 1.092 2.008 1.21 2.364 1.21a1.038 1.038 0 0 0 .147-.007c1.37 0 2.117-.814 2.98-1.758.09-.1.184-.2.277-.3.964-1.037 1.657-2.45 1.664-2.463.03-.06.072-.11.127-.145.03-.02.736-.514.736-1.42 0-.79-.714-.973-.796-.99zM13.066 8.62h.297a.368.368 0 0 1 0 .735h-.297a.368.368 0 0 1 0-.736zm0-1.47h.925a.368.368 0 0 1 0 .736h-.924a.368.368 0 0 1 0-.736zm2.132.11a.368.368 0 0 1-.368-.368v-.486h-.057c-.025.005-.05.016-.076.016h-2.153c-.027 0-.052-.01-.08-.016h-.345V9.62c.002.022.01.04.01.063a.523.523 0 0 1-.01.097v6.578c-.002.198-.032.376-.23.376a.396.396 0 0 1-.083-.01c-.014.003-.025.01-.04.01H5.75a.446.446 0 0 1-.086-.01c-.015.002-.03.01-.045.01H2.42c-.203 0-.368-.185-.368-.39v-6.85c0-.203.165-.368.368-.368h.62v-.9c0-.205.164-.34.367-.34h.368v-.852c0-.204.165-.368.368-.368h1.098V5.01c0-.204.165-.308.368-.308h.425v-.364c0-.203.165-.368.368-.368h.328v-1.6c0-.205.165-.37.368-.37H8.33c.203 0 .368.166.368.37v1.6h.328c.203 0 .368.165.368.368v.364h.39c.202 0 .372.103.372.307v4.366h1.243V6.053c0-.203.165-.368.368-.368h.38V4.6c0-.203.164-.384.367-.384h.844V3.004a.368.368 0 0 1 .736 0v1.212h.604c.203 0 .368.18.368.384v1.085h.133c.203 0 .368.165.368.368v.84a.368.368 0 0 1-.368.367zM3.258 9.83h-.47v6.162h2.454V9.865H3.407a.367.367 0 0 1-.15-.034zm.518-.705h1.466v-.502H3.776v.502zm.737-1.723v.484h.73v-.484h-.73zm4.9-1.963h-.39a.368.368 0 0 1-.368-.37v-.378h-.328a.368.368 0 0 1-.368-.368V2.74h-.492v1.584c0 .204-.21.368-.415.368h-.328v.363c0 .204-.12.368-.322.368h-.425v.998H9.41v-.98zm0 1.718H5.986v.98h3.425v-.98zm0 1.717H5.986v.735h3.425v-.735zm0 1.472H5.986v.98h3.425v-.98zm0 1.717H5.986v.735h3.425v-.736zm0 1.47H5.986v.98h3.425v-.98zm0 1.718H5.986v.74h3.425v-.74zm1.984-5.155h-1.243v5.88h1.243v-5.88zm2.93-5.144h-1.462v.732h1.463v-.732zm-9.765 10.31h-.925c-.203 0-.368-.195-.368-.4s.164-.336.367-.336h.925c.203 0 .368.134.368.337s-.165.4-.368.4zm0-1.47h-.925c-.203 0-.368-.18-.368-.383s.164-.353.367-.353h.925c.203 0 .368.15.368.353s-.165.384-.368.384zm0-1.484h-.925c-.203 0-.368-.15-.368-.354s.164-.384.367-.384h.925c.203 0 .368.18.368.384s-.165.353-.368.353z"/></svg><view id="icon--phone" viewBox="0 207.03 52 52"/><svg width="52" height="52" viewBox="-10 -10 52 52" y="207.03"><path d="M16 30C8.268 30 2 23.732 2 16S8.268 2 16 2s14 6.268 14 14-6.268 14-14 14zm8.014-9.49L20.52 18.72c-.14-.072-.31-.008-.377.052l-.41.374c-1.005.922-2.567 1.133-3.783.508a8.365 8.365 0 0 1-3.63-3.622 3.332 3.332 0 0 1 .51-3.777l.373-.406a.337.337 0 0 0 .052-.378L11.46 7.982a1.347 1.347 0 0 0-2.016-.46l-1.062.81a2.928 2.928 0 0 0-1.01 3.23c1.96 6.036 6.708 10.904 12.704 13.023a2.994 2.994 0 0 0 3.068-.702l1.215-1.23a1.34 1.34 0 0 0-.347-2.14z"/></svg><view id="icon--pie" viewBox="52 207.03 52 52"/><svg width="52" height="52" viewBox="-10 -10 52 52" x="52" y="207.03"><path d="M29.5 15.746H19.393a.5.5 0 0 1-.5-.5c0-1.272-.868-2.14-2.14-2.14a.5.5 0 0 1-.5-.5V2.498a.5.5 0 0 1 .5-.5C24.15 2 30 7.85 30 15.244a.5.5 0 0 1-.5.5zM17.253 3.01v9.133c1.423.216 2.385 1.178 2.602 2.603h9.134C28.73 8.298 23.7 3.266 17.25 3.01zm.37 14.25h8.355a.5.5 0 0 1 .5.5 12.2 12.2 0 0 1-3.56 8.622c-.01.01-.013.024-.024.034s-.023.014-.034.023A12.197 12.197 0 0 1 14.24 30C7.492 30 2 24.51 2 17.763s5.49-12.24 12.24-12.24a.5.5 0 0 1 .5.5v8.352a3.427 3.427 0 0 1 2.884 2.888zm7.83 1h-7.82a3.435 3.435 0 0 1-.647 1.542l5.533 5.533a11.18 11.18 0 0 0 2.934-7.073zM13.74 6.548C7.773 6.81 3 11.732 3 17.76 3 23.957 8.042 29 14.24 29c2.918 0 5.572-1.128 7.572-2.96L16.28 20.51a3.403 3.403 0 0 1-2.04.687 3.44 3.44 0 0 1-3.436-3.435c0-1.723 1.28-3.14 2.935-3.384v-7.83zm.5 8.78c-1.343 0-2.435 1.09-2.435 2.433s1.092 2.434 2.434 2.434c1.34 0 2.433-1.092 2.433-2.434s-1.092-2.434-2.434-2.434z"/></svg><view id="icon--puzzle" viewBox="104 207.03 52 52"/><svg width="52" height="52" viewBox="-10 -10 52 52" x="104" y="207.03"><path d="M29.58 15.3a.42.42 0 0 1-.42-.42v-9.1c0-1.62-1.32-2.94-2.94-2.94h-8.54v2.84a3.375 3.375 0 0 1 4.35 3.226 3.374 3.374 0 0 1-4.35 3.227v2.748a.42.42 0 0 1-.84 0v-3.374c0-.148.078-.285.205-.36s.285-.08.415-.01c.366.2.782.304 1.2.304 1.396 0 2.53-1.136 2.53-2.53a2.535 2.535 0 0 0-3.73-2.23.422.422 0 0 1-.62-.37V2.42a.42.42 0 0 1 .42-.42h8.96A3.785 3.785 0 0 1 30 5.78v9.1a.42.42 0 0 1-.42.42zm-2.66-.42V9.933a.42.42 0 0 1 .84 0v4.947a.42.42 0 0 1-.84 0zm-9.8 12.04h4.947a.42.42 0 0 1 0 .84H17.12a.42.42 0 0 1 0-.84zm3.375-10.072a.42.42 0 0 1 .37.62c-.198.366-.302.633-.302 1.052 0 1.395 1.135 2.53 2.53 2.53s2.533-1.134 2.533-2.53c0-.42-.105-.686-.302-1.052a.42.42 0 0 1 .37-.62h3.89a.42.42 0 0 1 .42.42v8.952a3.785 3.785 0 0 1-3.78 3.78h-9.1a.42.42 0 0 1 0-.84h9.1c1.62 0 2.94-1.32 2.94-2.94v-8.532H26.32c.096.317.146.5.146.832 0 1.86-1.513 3.37-3.372 3.37s-3.37-1.51-3.37-3.37c0-.333.05-.515.144-.832h-2.747a.42.42 0 0 1 0-.84h3.375zM14.88 5.08H9.933a.42.42 0 0 1 0-.84h4.947a.42.42 0 0 1 0 .84zm0 10.08h-3.375a.42.42 0 0 1-.37-.62 2.533 2.533 0 0 0-2.23-3.73 2.534 2.534 0 0 0-2.228 3.73.42.42 0 0 1-.37.62H2.42a.42.42 0 0 1-.42-.42V5.78A3.785 3.785 0 0 1 5.78 2h9.1a.42.42 0 0 1 0 .84h-9.1c-1.622 0-2.94 1.32-2.94 2.94v8.54h2.84a3.375 3.375 0 0 1 3.225-4.35 3.375 3.375 0 0 1 3.226 4.35h2.748a.42.42 0 0 1 0 .84zM4.24 22.067V17.27a.42.42 0 0 1 .84 0v4.797a.42.42 0 0 1-.84 0zm-1.82-5.22a.42.42 0 0 1 .42.42v8.953c0 1.62 1.32 2.94 2.94 2.94h8.54v-2.84a3.375 3.375 0 0 1-4.35-3.226 3.375 3.375 0 0 1 4.35-3.227v-2.6a.42.42 0 0 1 .84 0v3.228c0 .148-.078.285-.205.36s-.284.08-.415.01a2.533 2.533 0 0 0-3.73 2.23 2.534 2.534 0 0 0 3.73 2.227.42.42 0 0 1 .62.37v3.888a.42.42 0 0 1-.42.42H5.78A3.785 3.785 0 0 1 2 26.22v-8.952a.42.42 0 0 1 .42-.42z"/></svg><view id="icon--puzzle_2" viewBox="156 207.03 52 52"/><svg width="52" height="52" viewBox="-10 -10 52 52" x="156" y="207.03"><path d="M25.898 30.012h-7.485a.966.966 0 0 1 0-1.93h7.485c1.197 0 2.17-.974 2.17-2.17v-7.486h-1.705a3.723 3.723 0 0 1-3.704 4.06 3.723 3.723 0 0 1-3.704-4.06h-.542a.966.966 0 0 1 0-1.93h1.82a.965.965 0 0 1 .85 1.424 1.79 1.79 0 0 0 1.575 2.636 1.79 1.79 0 0 0 1.576-2.635.963.963 0 0 1 .848-1.425h3.95c.534 0 .966.433.966.966v8.45c0 2.262-1.84 4.103-4.102 4.103zm3.137-15.45a.966.966 0 0 1-.965-.965V6.11c0-1.195-.973-2.17-2.17-2.17h-7.486v1.466c2.162-.196 4.06 1.54 4.06 3.704 0 2.166-1.902 3.903-4.06 3.705v.782c0 .533-.433.966-.965.966s-.966-.433-.966-.966v-2.06a.964.964 0 0 1 1.424-.85 1.79 1.79 0 0 0 2.636-1.576 1.79 1.79 0 0 0-2.636-1.575.963.963 0 0 1-1.424-.85V2.98c0-.533.433-.966.965-.966h8.45a4.106 4.106 0 0 1 4.1 4.1V13.6a.966.966 0 0 1-.964.965zm-14.483 15.45h-8.45c-2.262 0-4.1-1.84-4.1-4.1v-7.486a.965.965 0 0 1 1.93 0v7.485c0 1.197.974 2.172 2.17 2.172h7.486v-1.465c-2.155.2-4.06-1.54-4.06-3.705s1.9-3.897 4.06-3.704v-.782a.965.965 0 0 1 1.932 0v2.06a.965.965 0 0 1-1.424.85 1.79 1.79 0 0 0-2.636 1.575 1.79 1.79 0 0 0 2.636 1.575.967.967 0 0 1 1.424.85v3.71a.966.966 0 0 1-.966.964zm0-15.45a.967.967 0 0 1-.966.967h-1.82a.965.965 0 0 1-.85-1.425A1.79 1.79 0 0 0 9.34 11.47a1.79 1.79 0 0 0-1.577 2.635.967.967 0 0 1-.848 1.425h-3.95A.967.967 0 0 1 2 14.562v-8.45C2 3.85 3.84 2.01 6.1 2.01h7.486a.967.967 0 0 1 0 1.933H6.1c-1.196 0-2.17.973-2.17 2.17V13.6h1.706A3.722 3.722 0 0 1 9.34 9.54a3.72 3.72 0 0 1 3.704 4.06h.542c.533 0 .966.43.966.965z"/></svg><view id="icon--rub" viewBox="208 207.03 52 52"/><svg width="52" height="52" viewBox="-10 -10 52 52" x="208" y="207.03"><path d="M16 29.987C8.29 29.987 2.014 23.712 2.014 16S8.288 2.01 16 2.01c7.713 0 13.987 6.274 13.987 13.987S23.713 29.986 16 29.986zm0-25.953C9.403 4.034 4.036 9.4 4.036 16S9.402 27.964 16 27.964c6.598 0 11.965-5.368 11.965-11.966S22.598 4.033 16 4.033zm2.16 13.275h-3.176v1.89h3.104a1.01 1.01 0 0 1 0 2.023h-3.104v.463a1.01 1.01 0 0 1-2.022 0v-.463h-1.146a1.01 1.01 0 0 1 0-2.022h1.146v-1.89h-1.175a1.01 1.01 0 0 1 0-2.023h1.175v-3.92c-.005-.04-.023-.073-.023-.113 0-.558.452-1.01 1.01-1.01h4.21c1.853 0 3.363 1.584 3.363 3.533s-1.51 3.533-3.364 3.533zm0-5.045h-3.176v3.022h3.175c.738 0 1.34-.677 1.34-1.51s-.602-1.513-1.34-1.513z"/></svg><view id="icon--wiseadvice-logo" viewBox="310 0 52 52"/><svg width="52" height="52" viewBox="-10 -10 52 52" x="310"><path d="M26.83 16.227c.02.39.214.58.595.58a.83.83 0 0 0 .3-.054c.096-.04.15-.08.267-.19l.396.385c-.195.185-.286.245-.45.316-.15.06-.332.095-.537.095-.8 0-1.212-.457-1.212-1.344 0-.817.436-1.328 1.138-1.328.692 0 1.138.49 1.138 1.248v.29H26.83zm.495-.997c-.3 0-.48.2-.496.55h.99c-.02-.355-.194-.55-.495-.55zm-2.286 1.543c.17 0 .265-.05.42-.205l.44.436c-.154.15-.23.2-.37.26a1.17 1.17 0 0 1-.486.096c-.747 0-1.173-.49-1.173-1.358 0-.822.437-1.313 1.174-1.313.18 0 .346.03.486.09s.215.11.37.26l-.44.44c-.15-.154-.256-.204-.42-.204-.342 0-.517.255-.517.747 0 .5.175.752.516.752zm-2.09-2.38c-.225 0-.41-.185-.41-.41a.41.41 0 0 1 .816-.01.41.41 0 0 1-.406.42zm-.326.326h.65v2.61h-.65v-2.61zm.118 4.125c.192 0 .336.162.336.403 0 .285-.174.426-.36.426a.278.278 0 0 1-.244-.124h-.003v.43h-.14v-.857c0-.102-.004-.184-.008-.26h.13l.007.137h.002a.31.31 0 0 1 .282-.154zm-.262.293a.228.228 0 0 0-.01.06v.135a.222.222 0 0 0 .223.228c.152 0 .24-.125.24-.306 0-.16-.083-.295-.235-.295a.23.23 0 0 0-.218.18zm-1.71-1.808l-.962-2.61h.687l.53 1.613.527-1.614h.687l-.958 2.61h-.51zm-.166-3.77a.41.41 0 0 1-.406-.422.41.41 0 1 1 .406.42zm-.616 5.285c.016 0 .028 0 .04.005v.136a.23.23 0 0 0-.048-.005c-.1 0-.174.078-.193.186-.003.02-.007.043-.007.067v.423h-.142v-.546c0-.093 0-.174-.007-.247h.127l.005.156h.006c.036-.108.123-.175.22-.175zm-1.203-1.76a.754.754 0 0 1-.27.204.936.936 0 0 1-.366.07c-.262 0-.502-.086-.652-.237-.11-.11-.2-.3-.226-.47a4.69 4.69 0 0 1-.04-.633v-.08c0-.536.075-.827.266-1.017.15-.15.386-.236.646-.236.14 0 .26.025.37.07.096.04.15.08.257.19V13.76h.652v3.567h-.636v-.246zm-.46-1.81c-.192 0-.312.075-.377.23-.045.116-.065.276-.065.556 0 .512.125.713.44.713.327 0 .447-.2.447-.752 0-.545-.12-.746-.446-.746zM18.128 13a.41.41 0 0 1-.407-.422c0-.216.186-.396.406-.396a.408.408 0 0 1 0 .817zm-.636 5.983h.003l.007-.12h.126c-.003.058-.007.122-.007.22v.46c0 .18-.036.292-.113.36a.42.42 0 0 1-.288.096.52.52 0 0 1-.264-.066l.036-.11a.446.446 0 0 0 .233.062c.148 0 .256-.077.256-.277v-.09h-.003a.282.282 0 0 1-.252.134c-.197 0-.338-.167-.338-.387 0-.27.175-.42.357-.42.137 0 .213.07.247.136zm-.46.275c0 .156.08.285.236.285a.21.21 0 0 0 .2-.148.263.263 0 0 0 .012-.077v-.142a.208.208 0 0 0-.21-.218c-.137 0-.235.117-.235.3zm-1.03-2.154c-.115.11-.17.15-.27.19s-.222.06-.372.06c-.556 0-.882-.3-.882-.812 0-.47.34-.762.892-.762h.616v-.13c0-.29-.145-.41-.496-.41-.23 0-.336.044-.49.215l-.417-.406c.15-.15.22-.206.35-.267.15-.065.332-.095.577-.095.752 0 1.128.31 1.128.922v1.72h-.636v-.227zm-.015-.877h-.517c-.23 0-.366.105-.366.296 0 .2.135.3.41.3.337 0 .472-.13.472-.455v-.14zm-.344-3.41c-.225 0-.41-.185-.41-.41a.41.41 0 0 1 .816-.01.41.41 0 0 1-.406.42zm-1.413 5.676h.144v1.163h-.144v-1.163zm-1.206-1.685a.83.83 0 0 0 .3-.055c.096-.04.15-.08.267-.19l.396.385c-.195.185-.286.245-.45.316-.15.06-.332.095-.537.095-.802 0-1.213-.457-1.213-1.344 0-.817.436-1.328 1.138-1.328.692 0 1.138.49 1.138 1.248v.29h-1.634c.02.392.215.582.596.582zm.396-1.027c-.02-.355-.195-.55-.496-.55s-.48.2-.496.55h.993zm-.26-2.78a.41.41 0 0 1 0-.817c.222 0 .407.18.407.395a.41.41 0 0 1-.406.42zm-1.084 6.183v.474h-.145V19.2c0-.128-.047-.234-.183-.234a.206.206 0 0 0-.194.148.197.197 0 0 0-.01.067v.478h-.144v-.578c0-.082-.002-.15-.007-.215h.128l.008.13h.003c.04-.074.13-.148.262-.148.11 0 .28.066.28.337zM10.184 15.7l.41.04c.502.05.778.317.778.763 0 .55-.426.857-1.188.857-.24 0-.46-.035-.642-.11-.14-.055-.22-.11-.39-.266l.425-.426c.11.095.155.125.25.165.126.05.272.08.432.08.3 0 .476-.1.476-.276 0-.14-.09-.216-.276-.236l-.41-.04c-.512-.05-.763-.285-.763-.72 0-.522.406-.843 1.062-.843.22 0 .45.04.62.105.12.045.186.085.32.2l-.4.406a.528.528 0 0 0-.185-.11 1.24 1.24 0 0 0-.396-.065c-.256 0-.397.09-.397.256 0 .13.085.2.27.22zm.503-2.14a.408.408 0 0 1 0-.817c.22 0 .406.18.406.395a.41.41 0 0 1-.406.42zm-2.332.833c-.225 0-.41-.185-.41-.41a.41.41 0 0 1 .816-.01.41.41 0 0 1-.406.42zM6.312 17.33l-.546-1.64-.546 1.64h-.536l-.802-2.61h.692l.42 1.613.532-1.614h.476l.536 1.613.42-1.614h.688l-.797 2.61h-.537zm2.37 0H8.03v-2.61h.652v2.61zm1.16 1.204c.138 0 .224.03.262.05l-.034.115a.522.522 0 0 0-.223-.047c-.26 0-.43.165-.43.455 0 .27.155.444.423.444a.568.568 0 0 0 .233-.046l.03.113a.704.704 0 0 1-.292.053c-.31 0-.545-.198-.545-.56 0-.346.234-.58.577-.58zm.875.31c.228 0 .382.166.382.41 0 .293-.204.42-.396.42-.215 0-.38-.157-.38-.408 0-.265.174-.42.393-.42zm-.007.722c.138 0 .24-.13.24-.308 0-.134-.066-.305-.236-.305s-.244.157-.244.308c0 .175.1.306.24.306zm1.896 0c.105 0 .154-.053.154-.118 0-.07-.04-.107-.148-.146-.142-.05-.21-.13-.21-.224 0-.128.103-.233.274-.233.08 0 .15.023.195.05l-.035.104a.306.306 0 0 0-.162-.047c-.085 0-.133.05-.133.108 0 .067.047.096.15.135.138.053.21.12.21.24 0 .138-.11.238-.298.238a.45.45 0 0 1-.223-.056l.035-.11a.378.378 0 0 0 .19.057zm.74-.264c0 .15.047.252.178.252a.208.208 0 0 0 .19-.13.217.217 0 0 0 .013-.075v-.488h.144v.577c0 .08.003.153.008.215h-.127l-.007-.13h-.003a.298.298 0 0 1-.262.147c-.125 0-.274-.07-.274-.347v-.464h.144v.44zm1.43-.585l.14-.044v.19h.207v.11h-.206v.428c0 .1.028.155.108.155.04 0 .062-.003.084-.01l.006.108a.338.338 0 0 1-.128.02.204.204 0 0 1-.156-.06c-.04-.043-.056-.114-.056-.207v-.433h-.123v-.11h.123v-.146zm.704-.167c.054 0 .088.04.088.09.002.05-.034.088-.092.088a.085.085 0 0 1-.087-.088c0-.05.037-.09.09-.09zm.072 1.106h-.144v-.793h.144v.793zm.492-.662h.003c.04-.075.13-.15.262-.15.11 0 .28.067.28.338v.474h-.145V19.2c0-.13-.048-.235-.184-.235a.206.206 0 0 0-.193.148.225.225 0 0 0-.01.067v.477h-.144v-.578c0-.083-.002-.15-.007-.216h.128l.008.13zm2.95-.453c.127 0 .227.03.274.05l-.034.118a.576.576 0 0 0-.244-.048c-.27 0-.444.167-.444.444 0 .28.17.446.426.446a.454.454 0 0 0 .19-.03v-.33h-.224v-.114h.364v.53c-.064.024-.19.062-.34.062a.57.57 0 0 1-.412-.146.568.568 0 0 1-.154-.41c0-.33.228-.57.598-.57zm1.62.305c.23 0 .383.165.383.408 0 .294-.203.42-.395.42-.215 0-.38-.156-.38-.407 0-.265.174-.42.393-.42zm-.005.72c.137 0 .24-.128.24-.307 0-.134-.067-.305-.238-.305s-.244.157-.244.308c0 .175.1.306.24.306zm.83-.263c0 .15.047.252.178.252a.208.208 0 0 0 .19-.13.217.217 0 0 0 .013-.075v-.488h.145v.577c0 .08.002.153.006.215h-.127l-.008-.13h-.003a.298.298 0 0 1-.262.147c-.125 0-.274-.07-.274-.347v-.464h.144v.44z"/></svg></svg>