<?xml version="1.0" encoding="utf-8"?><!DOCTYPE svg PUBLIC "-//W3C//DTD SVG 1.1//EN" "http://www.w3.org/Graphics/SVG/1.1/DTD/svg11.dtd"><svg width="429" height="286" viewBox="0 0 429 286" xmlns="http://www.w3.org/2000/svg" xmlns:xlink="http://www.w3.org/1999/xlink"><view id="svg--fna-svg--facebook-ico" viewBox="144 72 46.94 56"/><svg preserveAspectRatio="xMidYMid" width="46.94" height="56" viewBox="-20 -20 46.94 56" x="144" y="72"><defs><style>.aacls-1{fill:#fff;fill-rule:evenodd}</style></defs><path d="M1.422 5.09H.71a.723.723 0 0 0-.712.728v1.454c0 .4.32.728.712.728h.712v7.272c0 .4.32.728.712.728h1.424a.722.722 0 0 0 .712-.728V8h1.424c.392 0 .79-.318.885-.706l.364-1.498c.095-.388-.147-.706-.54-.706H4.27V2.91h2.136V0H4.27C2.134 0 1.422 1.44 1.422 2.91v2.18z" class="aacls-1"/></svg><view id="svg--fna-svg--fixmenu-01" viewBox="356.78 140.34 69 69"/><svg preserveAspectRatio="xMidYMid" width="69" height="69" viewBox="-20 -20 69 69" x="356.78" y="140.34"><defs><style>.bbcls-1{fill:#6c7177;fill-rule:evenodd}</style></defs><path d="M24.752 29.012H17a1 1 0 0 1 0-2h7.752A2.25 2.25 0 0 0 27 24.764v-7.752h-1.767a3.856 3.856 0 0 1-3.836 4.205 3.856 3.856 0 0 1-3.837-4.205H17a1 1 0 0 1 0-2h1.886a1 1 0 0 1 .88 1.475 1.854 1.854 0 0 0 1.63 2.73 1.854 1.854 0 0 0 1.633-2.73 1 1 0 0 1 .877-1.475H28a1 1 0 0 1 1 1v8.752a4.253 4.253 0 0 1-4.248 4.248zm3.248-16a1 1 0 0 1-1-1V4.26a2.25 2.25 0 0 0-2.248-2.248H17V3.53c2.24-.204 4.206 1.594 4.205 3.835 0 2.243-1.97 4.042-4.205 3.837v.81a1 1 0 0 1-2 0V9.877a1 1 0 0 1 1.475-.88 1.855 1.855 0 0 0 2.73-1.632 1.855 1.855 0 0 0-2.73-1.63A1 1 0 0 1 15 4.855V1.01a1 1 0 0 1 1-1h8.752A4.252 4.252 0 0 1 29 4.26v7.752a1 1 0 0 1-1 1zm-15 16H4.248A4.253 4.253 0 0 1 0 24.764v-7.752a1 1 0 0 1 2 0v7.752a2.25 2.25 0 0 0 2.248 2.248H12v-1.517c-2.232.206-4.205-1.594-4.205-3.837 0-2.242 1.97-4.036 4.205-3.836v-.81a1 1 0 0 1 2 0v2.135a1 1 0 0 1-1.475.88 1.854 1.854 0 0 0-2.73 1.63 1.855 1.855 0 0 0 2.73 1.632 1 1 0 0 1 1.475.88v3.84a1 1 0 0 1-1 1zm0-16a1 1 0 0 1-1 1h-1.886a1 1 0 0 1-.88-1.475 1.854 1.854 0 0 0-1.63-2.73 1.855 1.855 0 0 0-1.633 2.728 1 1 0 0 1-.877 1.476H1a1 1 0 0 1-1-1V4.26A4.252 4.252 0 0 1 4.248.01H12a1 1 0 0 1 0 2H4.248A2.25 2.25 0 0 0 2 4.26v7.752h1.767a3.856 3.856 0 0 1 3.836-4.205 3.856 3.856 0 0 1 3.836 4.204H12a1 1 0 0 1 1 1z" class="bbcls-1"/></svg><view id="svg--fna-svg--fixmenu-02" viewBox="356.78 72 70.09 68.34"/><svg preserveAspectRatio="xMidYMid" width="70.09" height="68.34" viewBox="-20 -20 70.09 68.34" x="356.78" y="72"><defs><style>.cccls-1{fill:#6c7177;fill-rule:evenodd}</style></defs><path d="M30.02 8.4l.05 17.355c0 1.49-1.632 2.602-3.017 2.602H2.923c-1.385 0-2.935-1.113-2.935-2.602V8.357l.003-.018.004-.04c.052-1.4 1.16-2.944 2.597-2.944h6.63c.166-2.98 3.05-5.364 6.598-5.364s6.43 2.385 6.597 5.364h4.972c1.435 0 2.575 1.542 2.627 2.94a.245.245 0 0 1 .007.06c0 .01.084.018.084.027 0 .007-.084.012-.084.016zM15.816 1.993c-2.437 0-4.42 1.49-4.595 3.364h9.19c-.175-1.875-2.157-3.364-4.594-3.364zm12.17 6.47v-.01a1.07 1.07 0 0 1-.004-.1c-.026-.505-.447-.996-.597-.996H2.59c-.15 0-.54.492-.566.998 0 .033 0 .065-.004.097v17.302c0 .21.45.603.904.603h24.13c.454 0 .934-.392.934-.602V8.465zm-5 12.894h-16a1 1 0 0 1 0-2h16a1 1 0 0 1 0 2zm0-4h-16a1 1 0 0 1 0-2h16a1 1 0 0 1 0 2zm0-4h-16a1 1 0 0 1 0-2h16a1 1 0 0 1 0 2z" class="cccls-1"/></svg><view id="svg--fna-svg--fixmenu-03" viewBox="285.82 72 67.69 67.69"/><svg preserveAspectRatio="xMidYMid" width="67.69" height="67.69" viewBox="-20 -20 67.69 67.69" x="285.82" y="72"><defs><style>.ddcls-1{fill:#6c7177;fill-rule:evenodd}</style></defs><path d="M13.845 27.677C6.217 27.677.01 21.47.01 13.843.01 6.215 6.218.01 13.846.01c7.627 0 13.832 6.205 13.832 13.833s-6.205 13.834-13.832 13.834zm0-25.667C7.32 2.01 2.01 7.318 2.01 13.843s5.31 11.834 11.835 11.834c6.524 0 11.832-5.31 11.832-11.834 0-6.525-5.308-11.833-11.832-11.833zm2.134 13.13h-3.14v1.87h3.07a1 1 0 0 1 0 2h-3.07v.458a1 1 0 0 1-2 0v-.458H9.704a1 1 0 0 1 0-2h1.133v-1.87H9.676a1 1 0 0 1 0-2h1.162V9.26c-.006-.037-.024-.07-.024-.11a1 1 0 0 1 1-1h4.163c1.833 0 3.326 1.568 3.326 3.495 0 1.926-1.493 3.494-3.327 3.494zm0-4.99h-3.14v2.99h3.14c.73 0 1.325-.67 1.325-1.495 0-.824-.596-1.495-1.327-1.495z" class="ddcls-1"/></svg><view id="svg--fna-svg--fixmenu-04" viewBox="356.78 209.34 68 69"/><svg preserveAspectRatio="xMidYMid" width="68" height="69" viewBox="-20 -20 68 69" x="356.78" y="209.34"><defs><style>.eecls-1{fill:#6c7177;fill-rule:evenodd}</style></defs><path d="M27 29H1a1 1 0 0 1-1-1V16a1 1 0 0 1 1-1h4V4a1 1 0 0 1 1-1h4V1a1 1 0 0 1 1-1h6a1 1 0 0 1 1 1v2h4a1 1 0 0 1 1 1v11h4a1 1 0 0 1 1 1v12a1 1 0 0 1-1 1zm-1-12h-4a1 1 0 0 1-1-1V5h-4a1 1 0 0 1-1-1V2h-4v2a1 1 0 0 1-1 1H7v11a1 1 0 0 1-1 1H2v10h9v-3h6v3h9V17zm-9 3h2v2h-2v-2zm0-4h2v2h-2v-2zm0-4h2v2h-2v-2zm0-4h2v2h-2V8zm6 14h-2v-2h2v2zm-10-2h2v2h-2v-2zm0-4h2v2h-2v-2zm0-4h2v2h-2v-2zm0-4h2v2h-2V8zM9 20h2v2H9v-2zm0-4h2v2H9v-2zm0-4h2v2H9v-2zm0-4h2v2H9V8zM5 20h2v2H5v-2z" class="eecls-1"/></svg><view id="svg--fna-svg--fixmenu-05" viewBox="72 141.57 64 72"/><svg preserveAspectRatio="xMidYMid" width="64" height="72" viewBox="-20 -20 64 72" x="72" y="141.57"><defs><style>.ffcls-1{fill:#6c7177;fill-rule:evenodd}</style></defs><path d="M22.085 18.505L14.1 30.855A2.497 2.497 0 0 1 12 32c-.88 0-1.656-.456-2.1-1.145l-7.985-12.35A11.95 11.95 0 0 1 0 12C0 5.372 5.373 0 12 0s12 5.373 12 12c0 2.397-.704 4.63-1.915 6.505zM12 3c-4.963 0-9 4.036-9 9 0 1.738.496 3.424 1.435 4.877L12 28.58l7.565-11.704A8.958 8.958 0 0 0 21 12c0-4.964-4.038-9-9-9zm0 14a5 5 0 0 1 0-10 5 5 0 0 1 0 10zm0-7c-1.103 0-2 .897-2 2 0 1.102.897 2 2 2s2-.898 2-2c0-1.103-.897-2-2-2z" class="ffcls-1"/></svg><view id="svg--fna-svg--home-ico" viewBox="285.82 199.38 57.81 56.88"/><svg preserveAspectRatio="xMidYMid" width="57.81" height="56.88" viewBox="-20 -20 57.81 56.88" x="285.82" y="199.38"><defs><style>.ggcls-1{fill:#fff;fill-rule:evenodd}</style></defs><path d="M17.485 10.37a.986.986 0 0 1-1.398-.06l-.26-.286v6.128c0 .398-.773.724-1.168.724H12.5c-.395 0-.63-.326-.63-.724V11.81c0-.4-.413-.906-.808-.906H6.746c-.395 0-.81.507-.81.905v4.34c0 .4-.233.725-.63.725H3.15c-.396 0-1.17-.326-1.17-.724v-6.127l-.26.286a.985.985 0 0 1-1.397.06 1 1 0 0 1-.06-1.407L8.173.278c.376-.41 1.084-.41 1.46 0l7.912 8.686a1 1 0 0 1-.06 1.407z" class="ggcls-1"/></svg><view id="svg--fna-svg--phone-icon" viewBox="213.82 0 72 72"/><svg preserveAspectRatio="xMidYMid" width="72" height="72" viewBox="-20 -20 72 72" x="213.82"><defs><style>.hhcls-1{fill:#fff;fill-rule:evenodd}</style></defs><path d="M16 32C7.163 32 0 24.837 0 16S7.163 0 16 0c8.836 0 16 7.163 16 16s-7.164 16-16 16zm9.16-10.845l-3.993-2.05c-.16-.08-.357-.008-.432.06l-.467.428c-1.15 1.054-2.935 1.295-4.325.58a9.557 9.557 0 0 1-4.147-4.14 3.81 3.81 0 0 1 .58-4.315l.427-.464a.383.383 0 0 0 .06-.433L10.81 6.84a1.54 1.54 0 0 0-2.302-.525l-1.214.924a3.345 3.345 0 0 0-1.155 3.69c2.24 6.9 7.666 12.463 14.52 14.884 1.2.426 2.612.1 3.504-.8l1.39-1.406a1.53 1.53 0 0 0-.396-2.448z" class="hhcls-1"/></svg><view id="svg--fna-svg--services-01" viewBox="213.82 72 72 72"/><svg preserveAspectRatio="xMidYMid" width="72" height="72" viewBox="-41.25 -41.25 182.5 182.5" x="213.82" y="72"><defs><style>.iicls-1{fill:#951a37;fill-rule:evenodd}</style></defs><path d="M98.5 47.5A1.5 1.5 0 0 1 97 46V13.5C97 7.71 92.29 3 86.5 3H56v10.146c1.13-.343 2.312-.52 3.5-.52 6.638 0 12.04 5.4 12.04 12.04 0 6.64-5.402 12.04-12.04 12.04-1.188 0-2.37-.177-3.5-.52V46a1.5 1.5 0 0 1-3 0V33.946a1.5 1.5 0 0 1 2.212-1.32 9.05 9.05 0 0 0 4.287 1.08c4.983 0 9.04-4.055 9.04-9.04 0-4.985-4.057-9.04-9.04-9.04a9.042 9.042 0 0 0-4.288 1.08A1.5 1.5 0 0 1 53 15.386V1.5c0-.83.67-1.5 1.5-1.5h32C93.944 0 100 6.054 100 13.5V46a1.5 1.5 0 0 1-1.5 1.5zM89 46V28.333a1.5 1.5 0 0 1 3 0V46a1.5 1.5 0 0 1-3 0zM54 89h17.666a1.5 1.5 0 0 1 0 2.998H54a1.5 1.5 0 0 1 0-3zm12.053-35.97a1.498 1.498 0 0 1 1.32 2.21c-.707 1.31-1.08 2.263-1.08 3.76 0 4.983 4.055 9.038 9.04 9.038 4.984 0 9.04-4.055 9.04-9.04 0-1.495-.374-2.448-1.08-3.757a1.5 1.5 0 0 1 1.32-2.21H98.5c.828 0 1.5.67 1.5 1.5V86.5c0 7.443-6.056 13.5-13.5 13.5H54a1.5 1.5 0 0 1 0-3h32.5C92.29 97 97 92.29 97 86.5V56.028H86.853c.343 1.13.52 1.783.52 2.97 0 6.64-5.402 12.04-12.04 12.04-6.64 0-12.04-5.4-12.04-12.04 0-1.187.177-1.84.52-2.97H54a1.5 1.5 0 0 1 0-3h12.053zM46 11H28.334a1.5 1.5 0 0 1 0-3H46a1.5 1.5 0 0 1 0 3zm0 36H33.947a1.5 1.5 0 0 1-1.32-2.213 9.05 9.05 0 0 0 1.08-4.287c0-4.984-4.055-9.04-9.04-9.04-4.984 0-9.04 4.056-9.04 9.04a9.06 9.06 0 0 0 1.08 4.287A1.5 1.5 0 0 1 15.387 47H1.5A1.5 1.5 0 0 1 0 45.5v-32C0 6.054 6.056 0 13.5 0H46a1.5 1.5 0 0 1 0 3H13.5C7.71 3 3 7.71 3 13.5V44h10.147a12.075 12.075 0 0 1-.52-3.5c0-6.64 5.4-12.04 12.04-12.04 6.64 0 12.04 5.4 12.04 12.04 0 1.187-.177 2.37-.52 3.5H46a1.5 1.5 0 0 1 0 3zM8 71.666V54.53a1.5 1.5 0 0 1 3 0v17.136a1.5 1.5 0 0 1-3 0zM1.5 53.03c.828 0 1.5.67 1.5 1.5V86.5C3 92.29 7.71 97 13.5 97H44V86.85a12.03 12.03 0 0 1-3.5.52c-6.638 0-12.04-5.4-12.04-12.04 0-6.64 5.402-12.04 12.04-12.04 1.188 0 2.37.177 3.5.52v-9.283a1.5 1.5 0 0 1 3 0V66.05a1.5 1.5 0 0 1-2.212 1.32 9.06 9.06 0 0 0-4.287-1.08c-4.983 0-9.04 4.054-9.04 9.04 0 4.984 4.057 9.04 9.04 9.04a9.043 9.043 0 0 0 4.288-1.08A1.5 1.5 0 0 1 47 84.612v13.886a1.5 1.5 0 0 1-1.5 1.5h-32C6.056 100 0 93.942 0 86.5V54.53c0-.83.67-1.5 1.5-1.5z" class="iicls-1"/></svg><view id="svg--fna-svg--services-02" viewBox="0 213.57 72 71.67"/><svg preserveAspectRatio="xMidYMid" width="72" height="71.67" viewBox="-45.3 -45.3 203.57 202.42" y="213.57"><defs><style>.jjcls-1{fill:#1a4895;fill-rule:evenodd}</style></defs><path d="M111.478 111.8H21.44a1.5 1.5 0 0 1-1.5-1.5V98.64c0-.26.067-.514.194-.74.2-.35 4.645-8.65 11.49-11.257 5.426-2.067 15.82-4.507 19.366-5.304v-9.19c0-.278.097-.524.228-.747-4.587-5.24-7.997-10.604-8.45-11.328-.44-.57-2.868-3.882-2.868-7.74 0-3.154 1.602-5.277 2.536-6.246-.25-3.315-.598-16.18 8.284-23.056.04-.03.08-.06.123-.086 4.406-2.755 9.04-4.15 13.775-4.15 7.33 0 12.7 3.33 14.338 4.48.21-.013.464-.024.75-.024 2.292 0 7.797.714 9.45 7.325 1.64 6.555-.64 11.533-1.552 13.167l.322 1.612c1.992.767 4.637 2.78 4.637 6.672 0 4.484-2.95 7.202-3.986 8.018-.687 1.35-3.398 6.435-7.113 10.424-.26.28-.513.557-.768.834.17.244.293.524.293.844v8.955c.17.08.32.19.455.335 3.907.885 13.818 3.212 19.036 5.2 6.846 2.608 12.103 10.907 12.3 11.26.13.224.197.48.197.737v11.66a1.5 1.5 0 0 1-1.5 1.5zm-40.284-3.002l-3.106-11.302a1.5 1.5 0 0 1 .4-1.474l2.526-2.45-2.093-3.768h-4.49l-2.094 3.77 2.525 2.448a1.5 1.5 0 0 1 .4 1.474l-3.104 11.302h9.04zm6.795-26.694v-7.916c-3.02 3.034-6.5 5.6-11.9 5.628-.133.013-.367.03-.693.03-1.787 0-6.416-.554-11.408-5.472v7.197l9.98 5.235h6.067l7.95-4.7zm-45.3 7.342c-5.133 1.955-8.84 8.116-9.752 9.607v9.745H59.04l3.09-11.24-2.71-2.632a1.5 1.5 0 0 1-.267-1.805l2.344-4.22-9.13-4.792c-2.334.523-14.044 3.193-19.676 5.34zM64.618 21.8c-4.14 0-8.218 1.228-12.12 3.653-4.618 3.612-6.306 9.338-6.875 13.907 1.68-1.984 4.336-3.643 8.405-3.975 1.514-.124 2.924-.215 4.242-.3 6.533-.423 10.475-.678 13.752-3.937 2.67-2.656 3.95-4.743 4.52-5.862-1.915-1.2-6.3-3.487-11.924-3.487zm21.627 9.508c-.92-3.683-3.43-4.797-5.66-5.01.218 1.766.808 5.93 1.82 9.077.72 2.242 2.16 4.223 3.247 5.505.782-1.937 1.65-5.34.593-9.572zm-.198 27.096a1.49 1.49 0 0 1 .517-.59c.116-.08 3-2.093 3-5.78 0-3.22-2.915-3.962-3.247-4.036-.58-.13-1.04-.59-1.157-1.173l-.52-2.6c-1.012-1.01-3.858-4.096-5.09-7.932-.78-2.428-1.318-5.328-1.646-7.473-.857 1.248-2.06 2.758-3.767 4.455-4.074 4.052-8.69 4.35-15.673 4.803-1.303.085-2.695.175-4.192.297-7.823.638-8.155 7.024-8.164 7.296-.02.476-.27.87-.625 1.134a1.49 1.49 0 0 1-.575 1.072c-.072.058-2.008 1.624-2.008 4.463 0 3.05 2.24 5.904 2.263 5.932.04.05.076.1.11.154.046.075 4.725 7.578 10.496 13.496 4.333 4.446 8.175 4.927 9.627 4.927.227 0 .368-.014.406-.02a1.86 1.86 0 0 1 .197-.013c5.586 0 8.623-3.317 12.14-7.16.37-.405.747-.816 1.13-1.226 3.926-4.217 6.75-9.967 6.777-10.025zm23.93 40.648c-.912-1.49-5.43-7.65-10.564-9.606-5.23-1.993-15.787-4.437-19.158-5.195l-8.268 4.896 2.208 3.976a1.5 1.5 0 0 1-.267 1.806l-2.712 2.63 3.09 11.242h35.672v-9.746zM37.127 40.78H12.21a1.5 1.5 0 0 1 0-3h24.917a1.5 1.5 0 0 1 0 3zM10.71 23.28c0-.83.672-1.5 1.5-1.5h30.083a1.5 1.5 0 0 1 0 3H12.21a1.5 1.5 0 0 1-1.5-1.5zm27.75 9.5H12.21a1.5 1.5 0 0 1 0-3h26.25a1.5 1.5 0 0 1 0 3zm15-15.423a1.5 1.5 0 0 1-1.5-1.5v-.6c0-.827-.673-1.5-1.5-1.5H4.493c-.827 0-1.5.673-1.5 1.5v33a1.5 1.5 0 0 0 1.5 1.5h30.5a1.5 1.5 0 0 1 0 3h-30.5a4.504 4.504 0 0 1-4.5-4.5v-33c0-2.48 2.018-4.5 4.5-4.5h12.333C17.473 4.725 22.592.01 28.794.01s11.32 4.714 11.968 10.748h9.698c2.482 0 4.5 2.018 4.5 4.5v.6a1.5 1.5 0 0 1-1.5 1.5zM28.794 3.01c-4.545 0-8.306 3.374-8.937 7.748H37.73c-.63-4.374-4.39-7.748-8.936-7.748z" class="jjcls-1"/></svg><view id="svg--fna-svg--services-03" viewBox="72 213.57 72 71.28"/><svg preserveAspectRatio="xMidYMid" width="72" height="71.28" viewBox="-45.84 -45.84 206.37 203.77" x="72" y="213.57"><defs><style>.kkcls-1{fill:#1a9551;fill-rule:evenodd}</style></defs><path d="M114.66 110.7a1.5 1.5 0 0 1-1.496 1.39H28.252a1.5 1.5 0 0 1-1.496-1.39c-.048-.642-.372-6.26 2.808-8.706 2.464-1.895 7.753-5.394 15.494-7.544 5.62-1.56 11.513-3.634 13.762-4.457V82.95c-.023-.022-.13-.046-.154-.068-.033-.01-.067-.007-.1-.02C46.25 77.87 38.29 66.1 38.29 52.878c0-17.85 14.613-32.372 32.575-32.372 17.96 0 32.573 14.522 32.573 32.372 0 13.04-7.81 24.75-19.897 29.828-.12.05-.25.058-.374.075-.082.08-.158.164-.242.24-.082.08.004.147-.08.22v6.754c2.25.823 7.893 2.896 13.513 4.457 7.747 2.15 13.033 5.65 15.495 7.545 3.18 2.447 2.857 8.063 2.81 8.706zM61.82 90.847c2.675 1.445 5.78 2.232 9.045 2.232 3.14 0 6.286-.737 8.896-2.078v-5.41c-3.592 2.362-6.704 2.79-8.396 2.79-.182 0-.35-.006-.498-.013-1.57.076-4.916-.167-9.045-2.985v5.46zm38.618-37.97c0-16.195-13.267-29.37-29.573-29.37-16.307 0-29.574 13.175-29.574 29.37a29.202 29.202 0 0 0 12.564 24.045c-2.536-4.023-3.836-7.812-4.238-9.115-1.168-1.024-4.44-4.31-4.44-8.957 0-4.467 3.83-7.642 5.58-8.858-.093-1.544.027-4.512 1.92-6.782 1.588-1.9 3.995-2.865 7.157-2.865 5.154 0 6.643.91 8.053 2.1.64.54 1.064.897 3.007.932 1.89-.035 2.312-.393 2.952-.932 1.41-1.19 2.9-2.1 8.053-2.1 3.163 0 5.57.964 7.156 2.865 1.895 2.27 2.015 5.238 1.922 6.782 1.75 1.216 5.58 4.39 5.58 8.858 0 4.648-3.274 7.933-4.44 8.957-.402 1.3-1.697 5.073-4.22 9.085 7.77-5.427 12.543-14.31 12.543-24.014zM89.358 66.55a1.5 1.5 0 0 1 .536-.797c.034-.025 3.66-2.873 3.66-6.903 0-3.88-4.862-6.768-4.91-6.796a1.5 1.5 0 0 1-.732-1.57c.004-.028.553-3.312-1.172-5.364-.99-1.178-2.62-1.775-4.843-1.775-4.467 0-5.307.708-6.12 1.393-1.063.897-2.098 1.588-4.885 1.638-2.842-.05-3.877-.74-4.94-1.638-.813-.685-1.653-1.393-6.12-1.393-2.223 0-3.853.597-4.843 1.775-1.726 2.052-1.178 5.336-1.17 5.368a1.507 1.507 0 0 1-.735 1.566c-.046.027-4.912 2.88-4.912 6.796 0 4.03 3.627 6.878 3.663 6.906.258.2.45.48.535.794.024.086 2.41 8.586 8.487 14.283 4.594 4.307 8.447 4.63 9.915 4.538a1.413 1.413 0 0 1 .184 0c1.475.09 5.323-.232 9.915-4.536 6.076-5.697 8.46-14.197 8.486-14.283zm20.663 37.822c-2.286-1.762-7.21-5.017-14.465-7.032-5.3-1.472-10.74-3.382-13.338-4.323-3.27 1.97-7.265 3.062-11.35 3.062-4.138 0-8.18-1.118-11.47-3.135-2.516.914-8.106 2.886-13.535 4.394-7.25 2.013-12.176 5.27-14.466 7.03-1.19.915-1.566 3.1-1.648 4.718h81.924c-.082-1.617-.46-3.804-1.65-4.718zM71.41 56.485c0-.166.017-.336.025-.503h-.897c.007.167.025.337.025.503 0 5.683-4.26 10.14-9.496 10.14-5.236 0-9.496-4.624-9.496-10.307 0-.73.078-1.478.23-2.22.14-.7.756-.952 1.47-.952h.29c.13-.037.26-.08.4-.08h34.01c.143 0 .27.043.4.08h.335c.713 0 1.327.25 1.47.95.15.738.227 1.486.227 2.222 0 5.683-4.26 10.307-9.495 10.307-5.236 0-9.496-4.457-9.496-10.14zm-3.858-.422h-12.97a8.49 8.49 0 0 0-.01.422c0 4.03 2.913 7.14 6.495 7.14 3.582 0 6.496-3.11 6.496-7.14 0-.14-.003-.28-.01-.422zm13.353 7.562c3.582 0 6.496-3.11 6.496-7.14 0-.14-.002-.28-.01-.422H74.42c-.007.14-.01.283-.01.422 0 4.03 2.913 7.14 6.495 7.14zM34.57 48.585c-2.02.622-4.12.937-6.24.937-11.68 0-21.183-9.503-21.183-21.184 0-11.68 9.503-21.182 21.184-21.182 9.886 0 18.586 7.007 20.69 16.66a1.5 1.5 0 0 1-1.147 1.786 1.504 1.504 0 0 1-1.786-1.147c-1.804-8.285-9.272-14.3-17.755-14.3-10.026 0-18.183 8.158-18.183 18.183 0 10.027 8.156 18.184 18.183 18.184 1.822 0 3.624-.27 5.356-.804.792-.245 1.63.2 1.874.993a1.5 1.5 0 0 1-.99 1.876zM22.814 19.558c0-.828.61-1.5 1.438-1.5h7.567c3.16 0 5.73 2.708 5.73 6.035s-2.57 5.973-5.73 5.973h-5.965v.997h5.836c.83 0 1.5.86 1.5 1.687 0 .83-.67 1.313-1.5 1.313h-5.835v4.253c0 .828-.734 1.5-1.563 1.5-.828 0-1.437-.672-1.437-1.5v-4.253h-2.44c-.83 0-1.5-.484-1.5-1.313 0-.828.67-1.687 1.5-1.687h2.44v-.997h-2.492c-.83 0-1.5-.61-1.5-1.438s.67-1.52 1.5-1.52h2.492v-7.35c-.01-.067-.04-.128-.04-.2zm3.04 7.55h5.965c1.504 0 2.73-1.34 2.73-3.015 0-1.673-1.226-3.034-2.73-3.034h-5.965v6.046zm26.6-5.492c-.148-.09-.303-.18-.458-.267-.797-.457-1.7-.97-2.104-1.943-.406-.98-.13-1.99.112-2.88a8.8 8.8 0 0 0 .197-.82c-.223-.085-.58-.178-.816-.24-.89-.232-1.9-.496-2.54-1.332-.646-.84-.64-1.883-.636-2.803 0-.245.002-.613-.024-.85-.237-.025-.603-.022-.848-.022-.92.01-1.965.01-2.804-.634-.837-.643-1.1-1.65-1.332-2.54a8.705 8.705 0 0 0-.242-.82c-.235.038-.586.134-.82.198-.89.243-1.9.518-2.88.112-.97-.402-1.484-1.305-1.937-2.102a8.817 8.817 0 0 0-.45-.73 8.6 8.6 0 0 0-.732.4c-.8.467-1.703.997-2.76.86-1.038-.136-1.767-.873-2.41-1.523-.18-.18-.45-.45-.64-.6-.19.15-.46.423-.638.603-.643.65-1.372 1.386-2.41 1.52-1.06.14-1.962-.392-2.76-.86-.208-.12-.52-.303-.735-.4a8.79 8.79 0 0 0-.448.73c-.455.8-.97 1.702-1.94 2.103-.978.407-1.987.132-2.878-.112a8.56 8.56 0 0 0-.82-.196c-.088.224-.18.58-.243.817-.232.89-.496 1.9-1.332 2.54-.838.644-1.873.64-2.804.635-.242 0-.612-.004-.85.022-.024.237-.022.604-.02.85.004.92.01 1.964-.636 2.802-.643.837-1.65 1.1-2.54 1.332-.238.063-.595.155-.818.242.036.235.13.587.195.82.244.89.52 1.9.113 2.88-.403.97-1.306 1.484-2.102 1.938-.213.122-.536.306-.73.448a9.2 9.2 0 0 0 .4.735c.468.797.998 1.703.86 2.76-.135 1.035-.872 1.765-1.522 2.41-.18.176-.453.447-.603.637.15.19.422.46.602.64.65.642 1.387 1.37 1.522 2.41.137 1.055-.393 1.96-.86 2.76-.12.207-.305.518-.4.734.193.144.515.327.73.45.796.453 1.7.97 2.1 1.94.407.977.13 1.986-.11 2.877-.065.233-.16.585-.198.82.224.087.58.18.818.242.89.23 1.898.495 2.54 1.33.645.84.64 1.884.636 2.805 0 .244-.002.61.024.848.236.026.603.026.848.023.923-.004 1.966-.01 2.804.635.836.644 1.1 1.65 1.332 2.54.062.24.156.597.242.82a8.89 8.89 0 0 0 .82-.196c.89-.243 1.9-.517 2.88-.112.97.402 1.484 1.305 1.938 2.102.122.214.306.536.45.73.215-.096.526-.28.733-.4.8-.468 1.703-.997 2.762-.86 1.037.135 1.766.872 2.41 1.522.177.18.45.453.64.603.19-.15.46-.424.637-.604.643-.65 1.372-1.387 2.41-1.522.668-.088 1.278.093 1.84.356a1.5 1.5 0 0 1 1.903 1.445l.01.476a1.5 1.5 0 0 1-2.245 1.325l-.257-.15c-.245-.143-.633-.37-.85-.447-.182.13-.485.436-.677.63-.69.698-1.55 1.565-2.77 1.565s-2.08-.867-2.77-1.565c-.193-.194-.496-.5-.678-.63-.216.08-.6.304-.846.447-.836.49-1.876 1.1-3.04.79-1.177-.315-1.78-1.374-2.265-2.224-.136-.24-.35-.617-.495-.79-.227.02-.654.136-.926.21-.94.256-2.106.574-3.15-.03-1.05-.61-1.36-1.783-1.605-2.73-.07-.266-.18-.69-.276-.896-.225-.04-.665-.036-.944-.036-.978.005-2.187.012-3.042-.844-.855-.855-.85-2.068-.844-3.042.002-.278.004-.718-.035-.942-.206-.095-.63-.205-.898-.275-.945-.248-2.12-.554-2.727-1.604-.605-1.046-.286-2.213-.03-3.15.073-.27.19-.7.21-.927-.174-.144-.55-.36-.79-.495-.85-.485-1.91-1.088-2.224-2.265-.31-1.16.3-2.203.79-3.04.142-.245.368-.63.445-.846-.13-.183-.433-.484-.63-.677C.866 30.42 0 29.56 0 28.338c0-1.222.868-2.08 1.565-2.772.194-.19.5-.494.63-.676-.078-.216-.304-.6-.447-.845-.49-.838-1.1-1.88-.79-3.042.316-1.175 1.375-1.778 2.225-2.263.24-.137.618-.353.79-.496-.02-.228-.135-.655-.21-.926-.254-.94-.573-2.106.03-3.15.61-1.05 1.785-1.358 2.73-1.604.268-.07.69-.18.897-.276.04-.224.038-.664.036-.943-.005-.974-.01-2.187.845-3.042.855-.856 2.07-.848 3.042-.844.28 0 .72.002.942-.037.095-.206.205-.63.276-.9.247-.942.554-2.118 1.604-2.726 1.045-.605 2.21-.285 3.15-.03.27.075.698.19.925.21.144-.172.36-.55.495-.79.485-.85 1.088-1.91 2.265-2.224 1.16-.31 2.203.3 3.04.79.244.143.63.37.846.447.182-.13.485-.435.677-.63.69-.696 1.55-1.564 2.77-1.564 1.223 0 2.082.868 2.772 1.566.192.193.495.5.677.63.214-.08.6-.304.843-.447.837-.49 1.876-1.1 3.04-.79 1.177.314 1.78 1.373 2.265 2.224.136.237.35.615.495.79.227-.02.655-.138.926-.21.94-.258 2.105-.576 3.15.03 1.05.607 1.357 1.782 1.603 2.727.07.268.18.692.276.897.223.04.663.04.942.036.98.003 2.187-.01 3.042.845.855.856.85 2.068.844 3.042-.003.28-.004.72.035.943.206.095.63.206.898.276.945.246 2.12.553 2.728 1.602.605 1.046.286 2.212.03 3.15-.074.273-.19.7-.21.927.173.145.553.36.793.498.185.105.37.21.546.32a1.5 1.5 0 0 1-1.574 2.553z" class="kkcls-1"/></svg><view id="svg--fna-svg--services-04" viewBox="0 0 72 71.17"/><svg preserveAspectRatio="xMidYMid" width="72" height="71.17" viewBox="-46.58 -46.58 210.22 207.19"><defs><style>.llcls-1{fill:#e18309;fill-rule:evenodd}</style></defs><path d="M115.548 114.022H25.53a1.5 1.5 0 0 1-1.5-1.5v-11.02c0-.276.077-.546.22-.78.2-.328 4.886-8.042 11.728-10.46 6.444-2.275 20.084-5.04 20.66-5.156a1.496 1.496 0 0 1 1.75 1.098l5.614 22.293 2.49-10.752L63.67 94.6a1.5 1.5 0 0 1-.235-1.656l2.94-6.083a1.505 1.505 0 0 1 1.352-.845h6.536c.575 0 1.1.33 1.35.847l2.94 6.084a1.5 1.5 0 0 1-.234 1.655l-2.825 3.146 2.42 10.45 4.424-21.92a1.5 1.5 0 0 1 1.766-1.17c.577.117 14.217 2.882 20.66 5.158 6.844 2.417 11.862 10.13 12.06 10.458.145.236.22.506.22.782v11.02a1.5 1.5 0 0 1-1.5 1.5zm-59.71-25.687c-3.693.775-13.79 2.966-18.86 4.757-5.106 1.804-8.992 7.41-9.947 8.85v9.08h34.51l-5.7-22.687zm16.9 7.992l2.677-2.983-2.094-4.33H68.67l-2.094 4.33 2.678 2.983c.33.366.458.87.344 1.35L66.5 111.023h8.993L72.4 97.678c-.116-.48.012-.985.34-1.35zm41.31 5.617c-.958-1.442-5.192-7.055-10.28-8.852-5.04-1.78-15.042-3.955-18.79-4.742l-4.57 22.673h33.64v-9.08zm-21.15-39.86c-.688 1.35-3.4 6.434-7.114 10.424-.376.404-.745.808-1.112 1.208-3.644 3.98-7.412 8.098-14.262 8.133-.132.01-.366.03-.692.03-1.83 0-6.646-.57-11.777-5.834-5.763-5.912-10.322-13.09-10.85-13.937-.44-.57-2.87-3.883-2.87-7.74 0-3.155 1.603-5.278 2.537-6.247-.25-3.314-.598-16.18 8.284-23.056.04-.03.08-.06.124-.086 6.417-4.01 12.306-6.042 17.504-6.042 3.816 0 7.207 1.083 10.08 3.22 2.978 2.215 6.33 5.382 8.618 12.07 2.097 6.13 1.098 9.996.552 11.41 0 .04.005.08.003.12l.327 1.633c1.992.77 4.637 2.78 4.637 6.674 0 4.484-2.948 7.202-3.985 8.02zM88.528 35.2c-2.02-5.895-4.832-8.593-7.57-10.63-5.77-4.296-14.19-3.285-24.14 2.917-4.617 3.61-6.305 9.337-6.874 13.907 1.678-1.984 4.336-3.643 8.404-3.975 3.605-.296 6.527-.347 9.106-.39 3.933-.07 7.04-.127 10.335-1.057 3.107-.876 5.896-.6 8.29.822 1.512.9 2.657 2.15 3.52 3.415-.097-1.368-.4-3.04-1.073-5.01zm2.11 14.83a1.516 1.516 0 0 1-1.157-1.17l-.61-3.056c-.015-.077 0-.153-.004-.23-.36-1.19-1.594-4.59-4.332-6.207-1.655-.98-3.65-1.15-5.93-.506-3.668 1.036-6.946 1.093-11.096 1.167-2.533.045-5.405.096-8.915.382-7.822.637-8.154 7.024-8.164 7.295-.02.475-.27.87-.625 1.132-.034.42-.234.812-.575 1.073-.074.057-2.01 1.622-2.01 4.46 0 3.052 2.24 5.906 2.264 5.934.04.048.076.1.108.153.047.075 4.727 7.58 10.497 13.496 4.333 4.446 8.176 4.927 9.627 4.927.227 0 .368-.013.406-.017a1.63 1.63 0 0 1 .197-.014c5.586 0 8.624-3.32 12.14-7.16.37-.407.747-.818 1.13-1.227 3.926-4.22 6.75-9.97 6.777-10.026a1.51 1.51 0 0 1 .517-.592c.116-.078 3-2.09 3-5.78 0-3.22-2.915-3.96-3.247-4.035zM44.862 26.955h1.208a1.5 1.5 0 0 1 0 3h-1.207a1.5 1.5 0 0 1 0-3zm0-5.982h3.766a1.5 1.5 0 0 1 0 3H44.86a1.5 1.5 0 0 1 0-3zm8.68.446a1.5 1.5 0 0 1-1.5-1.5v-1.98h-.23c-.104.023-.2.064-.31.064h-8.77c-.11 0-.214-.04-.32-.063h-1.41v13.09c.012.086.04.157.04.253a2.2 2.2 0 0 1-.04.396v26.603c0 .046.006.085.006.132 0 .018-.01.034-.01.052-.005.807-.125 1.53-.935 1.53-.107 0-.22-.012-.333-.035-.056.007-.103.036-.16.036H15.064a1.7 1.7 0 0 1-.35-.042c-.063.01-.118.04-.183.04H1.513c-.828 0-1.5-.753-1.5-1.582v-27.9a1.5 1.5 0 0 1 1.5-1.5h2.52v-3.67c0-.828.67-1.374 1.5-1.374h1.5v-3.474c0-.83.672-1.5 1.5-1.5h4.47V12.25c0-.83.672-1.25 1.5-1.25h1.73V9.52a1.5 1.5 0 0 1 1.5-1.5h1.333V1.5c0-.83.67-1.5 1.5-1.5h5c.827 0 1.5.67 1.5 1.5v6.52h1.333a1.5 1.5 0 0 1 1.5 1.5V11h1.583c.83 0 1.523.42 1.523 1.25v17.783h5.063V16.5c0-.83.67-1.5 1.5-1.5h1.542v-4.418c0-.828.67-1.563 1.5-1.563h3.436V4.08a1.5 1.5 0 0 1 3 0V9.02h2.46c.827 0 1.5.734 1.5 1.562V15h.54c.83 0 1.5.67 1.5 1.5v3.416a1.5 1.5 0 0 1-1.5 1.5zM4.918 31.89H3.012v25.09h9.99V32.026h-7.47c-.22 0-.426-.053-.615-.138zm2.114-2.876h5.972V26.97h-5.97v2.044zm3.002-7.018v1.973h2.97v-1.975h-2.97zM29.982 14h-1.584a1.5 1.5 0 0 1-1.5-1.5v-1.543h-1.334a1.5 1.5 0 0 1-1.5-1.5V3h-2v6.457c0 .83-.86 1.5-1.687 1.5h-1.334v1.48c0 .83-.484 1.5-1.312 1.5h-1.727V18h13.98v-4zm0 7H16.03v3.994h13.95V21zm0 6.994H16.03v2.992h13.95v-2.993zm0 5.993H16.03v3.993h13.95v-3.993zm0 6.993H16.03v2.994h13.95V40.98zm0 5.993H16.03v3.993h13.95v-3.993zm0 6.993H16.03v3.013h13.95v-3.015zm8.083-20.996h-5.063v23.946h5.063V32.97zm11.937-20.95h-5.958V15h5.958v-2.98zM10.23 54.01H6.462c-.828 0-1.5-.797-1.5-1.627 0-.828.672-1.374 1.5-1.374h3.766c.827 0 1.5.544 1.5 1.372 0 .83-.673 1.626-1.5 1.626zm0-5.984H6.462c-.828 0-1.5-.734-1.5-1.563 0-.828.672-1.437 1.5-1.437h3.766c.827 0 1.5.61 1.5 1.437 0 .83-.673 1.563-1.5 1.563zm0-6.045H6.462c-.828 0-1.5-.607-1.5-1.436 0-.83.672-1.562 1.5-1.562h3.766c.827 0 1.5.734 1.5 1.563 0 .83-.673 1.438-1.5 1.438z" class="llcls-1"/></svg><view id="svg--fna-svg--up-icon" viewBox="285.82 139.69 62.19 59.69"/><svg width="62.19" height="59.69" viewBox="-20 -20 62.19 59.69" x="285.82" y="139.69"><path fill="#951A37" d="M11.1-.006L.007 19.7h22.19L11.1-.007zm-.012 6.5l5.75 10.21H5.34l5.748-10.21z"/></svg><view id="svg--fna-svg--why-01" viewBox="72 71.17 72 66.82"/><svg preserveAspectRatio="xMidYMid" width="72" height="66.82" viewBox="-29.37 -29.37 120.75 110.72" x="72" y="71.17"><defs><style>.nncls-1{fill:#fff;fill-rule:evenodd}</style></defs><path d="M59.012 26h-.015v24.98a1 1 0 0 1-1 1H3.985a1 1 0 0 1-1-1V25.997A3 3 0 0 1 .012 23V10.025c0-1.654 1.346-3 3-3h16.98c.424-3.66 3.244-7.028 6.63-7.028H35.4c3.418 0 6.24 3.343 6.64 7.028h16.97c1.654 0 3 1.346 3 3V23c0 1.654-1.346 3-3 3zM4.985 49.98h52.012V26h-6.99v2.972c0 1.654-1.347 3-3 3H42.98c-1.655 0-3-1.346-3-3V26H22.01v4.003c0 1.103-.9 2-2 2h-6.026c-1.103 0-2-.897-2-2V26h-7v23.98zM41.982 24h6.024v-3.016a1 1 0 0 0-1-1h-4.024a1 1 0 0 0-1 1V24zm0 2v2.972a1 1 0 0 0 1 1h4.024a1 1 0 0 0 1-1V26h-6.024zm-27.996 0v4.003h6.026V26h-6.026zm6.025-2v-4.016h-6.023V24h6.025zM35.4 1.996h-8.777c-2.257 0-4.204 2.453-4.603 5.028h17.994c-.367-2.606-2.29-5.028-4.614-5.028zm24.612 8.028a1 1 0 0 0-1-1h-56a1 1 0 0 0-1 1V23a1 1 0 0 0 1 1h8.973v-4.016c0-1.103.367-2 1.47-2h6.556c1.104 0 2 .897 2 2V24h17.973v-3.016c0-1.654 1.158-3 2.812-3h4.212c1.654 0 3 1.346 3 3V24h9.006a1 1 0 0 0 1-1V10.025z" class="nncls-1"/></svg><view id="svg--fna-svg--why-02" viewBox="356.78 0 71.87 72"/><svg preserveAspectRatio="xMidYMid" width="71.87" height="72" viewBox="-29.45 -29.45 120.91 121.16" x="356.78"><defs><style>.oocls-1{fill:#fff;fill-rule:evenodd}</style></defs><path d="M60.176 48.454a6.185 6.185 0 0 1-4.405 1.824 6.162 6.162 0 0 1-3.207-.89.996.996 0 0 1-.603-.302l-.807-.848-17.588-19.22c-.25.215-.502.424-.754.628.18.53.274 1.087.274 1.65 0 1.362-.53 2.643-1.494 3.606-.924.923-2.237 1.453-3.606 1.453-1.367 0-2.68-.53-3.606-1.455L13.185 23.706a5.104 5.104 0 0 1 0-7.21c1.31-1.315 3.463-1.81 5.246-1.22a41.08 41.08 0 0 1 2.983-3.324 41.4 41.4 0 0 1 5.754-4.804 5.07 5.07 0 0 1 1.052-5.684C29.142.54 30.457.008 31.824.008c1.365 0 2.68.53 3.603 1.452l11.194 11.196a5.062 5.062 0 0 1 1.492 3.605 5.07 5.07 0 0 1-1.492 3.61c-1.416 1.415-3.822 1.847-5.682 1.04-.155.228-.313.453-.475.678L60.84 40.235a1 1 0 0 1 .324.694A6.19 6.19 0 0 1 62 44.05a6.18 6.18 0 0 1-1.824 4.404zm-.93-6.814a1.015 1.015 0 0 1-.133-.275L38.45 22.455a1 1 0 0 1-.12-1.343 35.05 35.05 0 0 0 1.453-2.07 1.002 1.002 0 0 1 1.426-.265c1.13.82 3.005.67 3.997-.322a3.084 3.084 0 0 0 .906-2.194c0-.827-.322-1.605-.906-2.19L34.015 2.876c-1.105-1.1-3.28-1.1-4.383.003a3.118 3.118 0 0 0-.323 4 1 1 0 0 1 .17.77.997.997 0 0 1-.44.655c-2.128 1.376-4.277 3.126-6.215 5.063a39.57 39.57 0 0 0-3.292 3.74.997.997 0 0 1-1.267.267c-1.13-.612-2.76-.374-3.667.537a3.1 3.1 0 0 0 0 4.382l11.19 11.194c1.106 1.106 3.28 1.105 4.383 0 .587-.584.91-1.362.91-2.19 0-.52-.13-1.03-.374-1.48a1 1 0 0 1 .264-1.265 39.603 39.603 0 0 0 2.004-1.67 1 1 0 0 1 1.402.07L53.1 47.388c.083.03.162.07.236.123 1.624 1.15 4.004.95 5.424-.47A4.197 4.197 0 0 0 60 44.05c0-.87-.26-1.702-.753-2.41zm-29.44 11.322a7.188 7.188 0 0 1 6.173 7.11v1.16a1 1 0 0 1-1 1H1a1 1 0 0 1-1-1v-1.16a7.19 7.19 0 0 1 6.175-7.11 5.493 5.493 0 0 1 4.733-2.718h14.16a5.498 5.498 0 0 1 4.736 2.718zM7.727 54.31a1 1 0 0 1-.855.59A5.187 5.187 0 0 0 2 60.073v.158h31.978v-.156c0-2.74-2.14-5.01-4.873-5.173a.996.996 0 0 1-.854-.59 3.493 3.493 0 0 0-3.18-2.065H10.908c-1.37 0-2.62.81-3.18 2.066z" class="oocls-1"/></svg><view id="svg--fna-svg--why-03" viewBox="285.82 0 70.96 72"/><svg preserveAspectRatio="xMidYMid" width="70.96" height="72" viewBox="-30.03 -30.03 122.06 124.15" x="285.82"><defs><style>.ppcls-1{fill:#fff;fill-rule:evenodd}</style></defs><path d="M54.817 51.346c-3.12 0-5.756-2.012-6.745-4.798-3.65 7.933-9.934 13.72-17.36 15.53h17.694a1 1 0 0 1 0 2H2.376a1 1 0 0 1 0-2H20.75C8.94 59.196 0 46.262 0 30.61c0-.13.003-.26.007-.388l.005-.202a1 1 0 0 1 1-.982h49.44a1 1 0 0 1 1 .976l.005.178c.004.14.008.278.008.42 0 2.65-.276 5.217-.76 7.677a7.133 7.133 0 0 1 4.112-1.31A7.19 7.19 0 0 1 62 44.162a7.19 7.19 0 0 1-7.183 7.183zM2.002 31.038c.18 16.488 10.756 29.644 23.73 29.644 12.975 0 23.55-13.156 23.73-29.644H2.002zm52.815 7.942a5.19 5.19 0 0 0-5.184 5.183 5.19 5.19 0 0 0 5.184 5.183A5.19 5.19 0 0 0 60 44.163a5.19 5.19 0 0 0-5.183-5.183zm-20.81-26.47c-.194.455-.435 1.02-.8 2.11-.65 1.94.527 2.892.664 2.995a1 1 0 0 1-.594 1.808.985.985 0 0 1-.57-.183c-.882-.623-2.31-2.524-1.394-5.256.392-1.165.66-1.797.858-2.26.268-.628.403-.943.623-2.12.3-1.586-1.396-3.193-1.413-3.21a1 1 0 1 1 1.352-1.472c.103.094 2.533 2.36 2.027 5.052-.26 1.39-.456 1.846-.75 2.536zm-8.035 5.353c.105.47.596.846.776.95.475.277.643.885.372 1.362a1 1 0 0 1-1.35.382c-.147-.08-1.434-.833-1.75-2.26-.353-1.59.61-7.95 1.37-11.75.747-3.74-.16-4.796-.17-4.806-.423-.352-.456-.96-.102-1.384.353-.426 1.008-.458 1.433-.105.308.256 1.784 1.776.8 6.69-.997 4.99-1.57 10.056-1.377 10.924zm-6.34-5.353c-.193.455-.434 1.02-.8 2.11-.65 1.94.53 2.892.666 2.995a1 1 0 0 1-.595 1.808.99.99 0 0 1-.57-.183c-.883-.623-2.31-2.524-1.396-5.256.39-1.165.66-1.797.857-2.26.268-.628.403-.943.623-2.12.3-1.586-1.397-3.193-1.414-3.21a1 1 0 1 1 1.352-1.472c.104.094 2.534 2.36 2.028 5.052-.26 1.39-.455 1.846-.75 2.536z" class="ppcls-1"/></svg><view id="svg--fna-svg--why-04" viewBox="213.82 144 72 66.58"/><svg preserveAspectRatio="xMidYMid" width="72" height="66.58" viewBox="-30.29 -30.29 125.52 114.53" x="213.82" y="144"><defs><style>.qqcls-1{fill:#fff;fill-rule:evenodd}</style></defs><path d="M63.943 53.94H.995a1 1 0 0 1 0-2H2.48v-9.947a1 1 0 0 1 1-1h8.962a1 1 0 0 1 1 1v9.947h6.044V25.99a1 1 0 0 1 1-1h7.96a1 1 0 0 1 1 1v25.95h6.045V33.95a1 1 0 0 1 1-1.002h8.963a1 1 0 0 1 1 1V51.94h6.044V14.958a1 1 0 0 1 1-1h7.96a1 1 0 0 1 1 1V51.94h1.487a1 1 0 0 1 0 2zm-52.5-10.947H4.48v8.947h6.962v-8.947zM27.446 26.99h-5.96v24.95h5.96V26.99zm17.005 7.958h-6.96V51.94h6.96V34.948zm16.006-18.99h-5.96V51.94h5.96V15.958zM57.1 7.414c-.674 0-1.314-.19-1.88-.523-.027.05-.04.104-.076.15L44.196 20.722a.967.967 0 0 1-.3.237 3.697 3.697 0 0 1-.575 4.517 3.712 3.712 0 0 1-2.64 1.095 3.736 3.736 0 0 1-3.666-4.452l-9.996-4.998c-.042.047-.072.1-.117.144a3.714 3.714 0 0 1-2.64 1.096 3.7 3.7 0 0 1-1.88-.523c-.043.08-.083.16-.15.227L11.28 29.015c-.067.068-.15.108-.228.152a3.71 3.71 0 0 1 .522 1.878 3.71 3.71 0 0 1-1.095 2.642 3.712 3.712 0 0 1-2.644 1.095c-.998 0-1.936-.39-2.642-1.095a3.74 3.74 0 0 1 0-5.284c1.18-1.182 3.093-1.36 4.513-.563.045-.084.088-.168.16-.24l10.946-10.946c.068-.068.15-.108.23-.152-.834-1.43-.653-3.295.572-4.52 1.41-1.413 3.875-1.412 5.285 0 .91.91 1.252 2.18 1.024 3.357l9.995 4.996c.04-.046.07-.1.116-.144 1.182-1.183 3.096-1.36 4.517-.562.028-.05.042-.108.08-.156L53.585 5.79a.97.97 0 0 1 .295-.25c-.827-1.428-.643-3.284.578-4.505 1.41-1.413 3.876-1.412 5.285 0a3.74 3.74 0 0 1 0 5.284A3.712 3.712 0 0 1 57.1 7.412zM9.065 29.817a1.722 1.722 0 0 0-1.227-.508c-.465 0-.9.18-1.23.506a1.74 1.74 0 0 0 0 2.457 1.73 1.73 0 0 0 1.23.508c.463 0 .9-.18 1.227-.51.328-.326.51-.762.51-1.226 0-.464-.182-.9-.51-1.228zm16.42-16.42a1.723 1.723 0 0 0-1.226-.51 1.74 1.74 0 0 0-1.23 2.965c.655.657 1.8.657 2.455 0a1.74 1.74 0 0 0 0-2.456zm16.422 8.21a1.72 1.72 0 0 0-1.227-.51 1.737 1.737 0 0 0-1.23 2.965c.658.658 1.8.657 2.457 0 .328-.327.508-.764.508-1.227 0-.464-.18-.9-.508-1.228zM58.327 2.45a1.72 1.72 0 0 0-1.226-.51 1.74 1.74 0 0 0-1.23 2.965c.66.656 1.8.657 2.46 0a1.74 1.74 0 0 0 0-2.456z" class="qqcls-1"/></svg><view id="svg--fna-svg--why-05" viewBox="136 141.57 72 72"/><svg preserveAspectRatio="xMidYMid" width="72" height="72" viewBox="-27.5 -27.5 111 111" x="136" y="141.57"><defs><style>.rrcls-1{fill:#fff;fill-rule:evenodd}</style></defs><path d="M55 27.493H34.784a1 1 0 0 1-1-1c0-2.545-1.736-4.282-4.28-4.282a1 1 0 0 1-1-1V1a1 1 0 0 1 1-1C44.3 0 56 11.7 56 26.493a1 1 0 0 1-1 1zM30.505 2.02v18.267c2.847.433 4.77 2.357 5.204 5.206h18.27C53.463 12.597 43.4 2.533 30.504 2.02zm.74 28.5h16.71a1 1 0 0 1 1 1c0 6.72-2.725 12.815-7.124 17.243-.017.02-.024.048-.045.068-.02.02-.047.03-.068.047C37.29 53.277 31.197 56 24.477 56 10.98 56-.002 45.02-.002 31.52 0 18.025 10.98 7.044 24.48 7.044a1 1 0 0 1 1 1v16.702a6.856 6.856 0 0 1 5.767 5.776zm15.66 2H31.263a6.88 6.88 0 0 1-1.29 3.082l11.065 11.066a22.37 22.37 0 0 0 5.87-14.147zM23.477 9.095C11.55 9.625 2 19.465 2 31.52 2 43.917 12.08 54 24.476 54c5.838 0 11.146-2.256 15.146-5.918L28.557 37.016c-1.144.852-2.547 1.374-4.08 1.374a6.876 6.876 0 0 1-6.87-6.87c0-3.444 2.558-6.278 5.87-6.767V9.093zm1 17.558a4.874 4.874 0 0 0-4.868 4.87 4.874 4.874 0 0 0 4.87 4.868 4.874 4.874 0 0 0 4.867-4.87 4.874 4.874 0 0 0-4.87-4.867z" class="rrcls-1"/></svg><view id="svg--fna-svg--why-06" viewBox="0 141.57 72 72"/><svg preserveAspectRatio="xMidYMid" width="72" height="72" viewBox="-26.87 -26.87 107.75 107.75" y="141.57"><defs><style>.sscls-1{fill:#fff;fill-rule:evenodd}</style></defs><path d="M45.998 45.02h-7.002a1 1 0 0 1-1-1v-7.034a1 1 0 0 1 1-1h7.002a1 1 0 0 1 1 1v7.033a1 1 0 0 1-1 1zm-1-7.034h-5v5.033h5v-5.035zm1.926-6.888a.993.993 0 0 1-.707.293.993.993 0 0 1-.707-.29l-2.685-2.685L40.14 31.1a.993.993 0 0 1-.705.292 1 1 0 0 1-.707-1.707L41.41 27l-2.683-2.685A1 1 0 0 1 40.14 22.9l2.685 2.686L45.51 22.9a1 1 0 0 1 1.414 1.415L44.24 27l2.684 2.684a1 1 0 0 1 0 1.414zM53 54H1a1 1 0 0 1-1-1V28.13a1 1 0 0 1 2 0V52h50V9.01h-8.992v3.293c0 1.798-1.776 3.26-3.574 3.26-1.798 0-3.448-1.462-3.448-3.26V9.01h-3.334a1 1 0 0 1 0-2h3.334V3.26c0-1.798 1.65-3.26 3.448-3.26s3.574 1.462 3.574 3.26v3.75H53a1 1 0 0 1 1 1V53a1 1 0 0 1-1 1zM41.008 3.26c0-.695-.88-1.26-1.574-1.26-.695 0-1.448.565-1.448 1.26v9.043c0 .695.753 1.26 1.448 1.26s1.574-.565 1.574-1.26V3.26zm-9.91 41.404a1 1 0 0 1-1.414 0L27 41.98l-2.685 2.684A1 1 0 0 1 22.9 43.25l2.684-2.684L22.9 37.88a1 1 0 0 1 1.414-1.415L27 39.152l2.684-2.684a1 1 0 0 1 1.414 1.415l-2.684 2.685 2.684 2.684a1 1 0 0 1 0 1.414zm0-13.566a.996.996 0 0 1-1.414 0L27 28.414l-2.685 2.684a.996.996 0 0 1-1.414 0 1 1 0 0 1 0-1.413l6.785-6.783a1 1 0 0 1 1.414 1.415L28.412 27l2.685 2.684a1 1 0 0 1 0 1.414zM7.075 36.466a1 1 0 0 1 1.414 0l2.683 2.685 2.684-2.683a1 1 0 0 1 1.414 1.415l-2.683 2.685 2.684 2.684a1 1 0 1 1-1.413 1.415l-2.684-2.685-2.685 2.684a.998.998 0 0 1-1.414-1.415l2.683-2.685-2.685-2.684a1 1 0 0 1 0-1.413zm7.49-7.336C6.535 29.13 0 22.597 0 14.565 0 6.535 6.534 0 14.565 0c8.03 0 14.565 6.534 14.565 14.565 0 8.032-6.534 14.565-14.565 14.565zm0-27.13C7.635 2 2 7.637 2 14.565c0 6.93 5.636 12.565 12.565 12.565 6.928 0 12.565-5.636 12.565-12.565C27.13 7.637 21.493 2 14.565 2zm.417 14.064a.574.574 0 0 1-.304-.105c-.04.003-.073.02-.113.02H5.52a1 1 0 0 1 0-2h8.462V5.52a1 1 0 0 1 2 0v9.044c0 .552-.448 1.5-1 1.5z" class="sscls-1"/></svg><view id="svg--fna-svg--why-07" viewBox="144 0 69.82 72"/><svg preserveAspectRatio="xMidYMid" width="69.82" height="72" viewBox="-27.44 -27.44 106.88 110.69" x="144"><defs><style>.ttcls-1{fill:#fff;fill-rule:evenodd}</style></defs><path d="M51 29.794h-4v25a1 1 0 0 1-1 1H6a1 1 0 0 1-1-1v-25H1a1 1 0 0 1-1-1v-15a1 1 0 0 1 1-1h9.192C7.865 11.204 6.06 8.724 6.06 5.57c0-2.967 1.416-4.3 2.604-4.9 1.35-.677 2.87-.675 3.842-.676 1.818 0 7.86.897 13.783 11.687C32.204.92 38.232-.004 40.006-.004c.966-.01 2.536 0 3.887.677 1.19.6 2.605 1.933 2.605 4.9 0 3.155-1.806 5.633-4.134 7.224H51a1 1 0 0 1 1 1v15a1 1 0 0 1-1 1zm-21 24h15v-24H30v24zm-6-25.278c.027.09.056.18.056.28 0 .097-.03.187-.056.277v24.72h4V14.796h-4v13.72zM7 53.794h15v-24H7v24zm-5-39v13h20v-13H2zm10.55-12.8c-.847.007-2.062 0-2.988.465-.645.322-1.502.997-1.502 3.11 0 4.742 5.307 7.223 8.152 7.223h6.643c.05-.007.094-.03.145-.03.05 0 .096.023.145.03h1.472c-5.57-10.234-10.995-10.8-12.066-10.8zM44.5 5.57c0-2.112-.857-2.787-1.502-3.11-.927-.466-2.143-.47-2.945-.466-1.114 0-6.542.566-12.11 10.8h.912c.05-.007.094-.03.145-.03.05 0 .096.023.145.03h7.203c2.845 0 8.152-2.48 8.152-7.224zm5.5 9.225H30v13h20v-13z" class="ttcls-1"/></svg><view id="svg--fna-svg--why-08" viewBox="0 71.17 72 70.4"/><svg preserveAspectRatio="xMidYMid" width="72" height="70.4" viewBox="-28.75 -28.75 117.5 114.5" y="71.17"><defs><style>.uucls-1{fill:#fff;fill-rule:evenodd}</style></defs><path d="M57 57H47c-1.654 0-3-1.346-3-3V44c0-1.654 1.346-3 3-3h10c1.654 0 3 1.346 3 3v10c0 1.654-1.346 3-3 3zm1-13a1 1 0 0 0-1-1H47a1 1 0 0 0-1 1v10a1 1 0 0 0 1 1h10a1 1 0 0 0 1-1V44zm-5.947-6.386a1 1 0 0 1-1-1V29H31v7.614a1 1 0 0 1-2 0V29H8.947v7.614a1 1 0 0 1-1 1c-.553 0-.947-.448-.947-1v-8.16c0-.036.015-.067.018-.102a.982.982 0 0 1-.07-.352 1 1 0 0 1 1-1H29v-6.485a1 1 0 0 1 2 0V27h20.835c.465 0 .803.324.903.754.164.18.262.427.262.7v8.16c0 .552-.395 1-.947 1zM35 16H25c-1.654 0-3-1.346-3-3V3c0-1.654 1.346-3 3-3h10c1.654 0 3 1.346 3 3v10c0 1.654-1.346 3-3 3zm1-13a1 1 0 0 0-1-1H25a1 1 0 0 0-1 1v10a1 1 0 0 0 1 1h10a1 1 0 0 0 1-1V3zM16 44v10c0 1.654-1.346 3-3 3H3c-1.654 0-3-1.346-3-3V44c0-1.654 1.346-3 3-3h10c1.654 0 3 1.346 3 3zM2 44v10a1 1 0 0 0 1 1h10a1 1 0 0 0 1-1V44a1 1 0 0 0-1-1H3a1 1 0 0 0-1 1zm23-3h10c1.654 0 3 1.346 3 3v10c0 1.654-1.346 3-3 3H25c-1.654 0-3-1.346-3-3V44c0-1.654 1.346-3 3-3zm-1 13a1 1 0 0 0 1 1h10a1 1 0 0 0 1-1V44a1 1 0 0 0-1-1H25a1 1 0 0 0-1 1v10z" class="uucls-1"/></svg><view id="svg--fna-svg--wiseadvice-logo" viewBox="72 0 72 50.41"/><svg preserveAspectRatio="xMidYMid" width="72" height="50.41" viewBox="-57.09 -57.09 264.87 163.21" x="72"><defs><style>.vvcls-1{fill:#fff;fill-rule:evenodd}</style></defs><path d="M140.678 25.91c.122 2.397 1.32 3.564 3.656 3.564.645 0 1.32-.122 1.843-.337.583-.246.922-.492 1.628-1.168l2.427 2.364c-1.198 1.136-1.75 1.505-2.765 1.936-.922.37-2.027.584-3.287.584-4.916 0-7.435-2.795-7.435-8.234 0-5.007 2.673-8.142 6.974-8.142 4.24 0 6.972 3.01 6.972 7.65v1.783h-10.015zm3.04-6.113c-1.842 0-2.95 1.228-3.04 3.38h6.082c-.122-2.182-1.198-3.38-3.04-3.38zm-14.01 9.462c1.046 0 1.63-.31 2.582-1.26l2.704 2.672c-.953.922-1.413 1.23-2.274 1.598-.89.4-1.873.584-2.98.584-4.577 0-7.188-3.01-7.188-8.325 0-5.04 2.672-8.053 7.188-8.053 1.107 0 2.12.185 2.98.553.86.37 1.32.677 2.274 1.6l-2.704 2.703c-.92-.953-1.567-1.26-2.58-1.26-2.09 0-3.164 1.567-3.164 4.578 0 3.074 1.075 4.61 3.163 4.61zM116.9 14.664a2.53 2.53 0 0 1-2.52-2.52c0-1.38 1.138-2.488 2.52-2.488 1.352 0 2.49 1.107 2.49 2.428 0 1.444-1.107 2.58-2.49 2.58zm-1.997 1.997h3.995V32.67H114.9V16.663zm.727 25.298c1.175 0 2.06.994 2.06 2.472 0 1.747-1.067 2.61-2.21 2.61-.645 0-1.207-.28-1.498-.763h-.022v2.64h-.873v-5.26c0-.625-.02-1.128-.04-1.59h.794l.04.834h.02c.36-.593.933-.944 1.73-.944zm-1.607 1.798a1.4 1.4 0 0 0-.062.363v.834c0 .13.02.253.04.363.16.612.695 1.035 1.33 1.035.93 0 1.475-.763 1.475-1.877 0-.976-.514-1.81-1.447-1.81-.603 0-1.166.43-1.335 1.095zm-10.49-11.088l-5.9-16.007h4.21l3.258 9.892 3.228-9.892h4.21l-5.87 16.007h-3.133zM102.52 9.557c-1.38 0-2.488-1.136-2.488-2.58 0-1.32 1.137-2.428 2.49-2.428 1.382 0 2.518 1.105 2.518 2.487a2.53 2.53 0 0 1-2.52 2.52zM98.74 41.96c.1 0 .172.01.252.03v.834a1.33 1.33 0 0 0-.3-.03c-.623 0-1.066.472-1.186 1.136-.02.12-.04.26-.04.41v2.593h-.875v-3.345c0-.572-.007-1.066-.04-1.517h.776l.03.956h.04c.222-.653.754-1.064 1.346-1.064zm-7.37-10.795c-.707.738-1.044.983-1.658 1.26-.646.276-1.414.43-2.243.43-1.6 0-3.073-.523-3.995-1.444-.676-.675-1.23-1.842-1.383-2.886a28.862 28.862 0 0 1-.246-3.872v-.49c0-3.29.46-5.07 1.63-6.237.92-.922 2.364-1.445 3.962-1.445.86 0 1.598.154 2.274.43.583.247.92.492 1.566 1.168v-7.282h3.994V32.67H91.37v-1.506zm-2.826-11.09c-1.168 0-1.904.46-2.304 1.412-.276.708-.4 1.69-.4 3.41 0 3.134.768 4.363 2.704 4.363 1.997 0 2.734-1.23 2.734-4.61 0-3.347-.737-4.576-2.734-4.576zm-1.2-13.95c-1.38 0-2.488-1.136-2.488-2.58 0-1.322 1.137-2.428 2.49-2.428 1.382 0 2.518 1.106 2.518 2.49a2.53 2.53 0 0 1-2.52 2.518zm-3.89 36.68h.02l.04-.733h.775c-.02.352-.04.744-.04 1.337v2.82c0 1.115-.22 1.798-.695 2.22-.473.443-1.155.583-1.767.583-.584 0-1.226-.14-1.618-.4l.22-.675c.323.2.824.382 1.428.382.904 0 1.566-.472 1.566-1.7v-.542h-.02c-.27.453-.793.814-1.546.814-1.207 0-2.07-1.025-2.07-2.37 0-1.648 1.075-2.58 2.19-2.58.843 0 1.306.44 1.516.842zm-2.813 1.688c0 .954.483 1.748 1.438 1.748.542 0 1.034-.34 1.224-.904a1.46 1.46 0 0 0 .072-.472v-.874c0-.15-.01-.28-.05-.402-.16-.513-.592-.935-1.235-.935-.846 0-1.45.713-1.45 1.84zM74.32 31.288c-.707.676-1.044.922-1.658 1.167-.616.246-1.354.37-2.275.37-3.41 0-5.407-1.844-5.407-4.978 0-2.887 2.09-4.67 5.47-4.67h3.777v-.798c0-1.784-.89-2.52-3.04-2.52-1.415 0-2.06.276-3.012 1.32l-2.55-2.488c.92-.92 1.352-1.26 2.15-1.628.922-.4 2.028-.584 3.533-.584 4.61 0 6.913 1.905 6.913 5.654V32.67h-3.904v-1.383zm-.092-5.376H71.06c-1.412 0-2.242.645-2.242 1.813 0 1.23.83 1.844 2.52 1.844 2.058 0 2.887-.8 2.887-2.798v-.86zm-2.1-20.898a2.53 2.53 0 0 1-2.52-2.52c0-1.382 1.14-2.488 2.52-2.488 1.354 0 2.49 1.106 2.49 2.428 0 1.443-1.106 2.58-2.49 2.58zM63.464 39.8h.884v7.133h-.884V39.8zM56.07 29.475c.644 0 1.32-.122 1.842-.337.583-.246.922-.492 1.628-1.168l2.427 2.365c-1.198 1.136-1.75 1.505-2.765 1.936-.922.37-2.027.585-3.287.585-4.916 0-7.435-2.795-7.435-8.234 0-5.006 2.673-8.14 6.974-8.14 4.24 0 6.974 3.01 6.974 7.65v1.782H52.413c.122 2.397 1.32 3.564 3.656 3.564zm2.425-6.298c-.122-2.18-1.198-3.38-3.04-3.38-1.844 0-2.95 1.23-3.042 3.38h6.082zM56.91 6.124a2.53 2.53 0 0 1-2.518-2.52c0-1.382 1.137-2.488 2.52-2.488 1.352 0 2.488 1.106 2.488 2.428 0 1.444-1.106 2.58-2.49 2.58zM50.256 44.03v2.903h-.885V44.13c0-.783-.29-1.436-1.123-1.436-.582 0-1.035.41-1.186.904-.04.11-.06.26-.06.41v2.925h-.883v-3.546c0-.502-.01-.914-.04-1.316h.784l.05.805h.02c.24-.462.804-.913 1.608-.913.674 0 1.718.403 1.718 2.07zM38.65 22.684l2.518.245c3.072.306 4.762 1.935 4.762 4.67 0 3.38-2.61 5.253-7.28 5.253-1.476 0-2.827-.215-3.934-.676-.86-.338-1.35-.676-2.395-1.63l2.613-2.61c.676.585.952.768 1.537 1.014a7.102 7.102 0 0 0 2.64.493c1.843 0 2.92-.614 2.92-1.69 0-.86-.555-1.32-1.69-1.445l-2.52-.245c-3.134-.308-4.67-1.752-4.67-4.425 0-3.195 2.488-5.162 6.513-5.162 1.35 0 2.765.246 3.81.647.737.275 1.137.52 1.966 1.228l-2.46 2.49c-.49-.4-.706-.524-1.136-.677a7.607 7.607 0 0 0-2.428-.4c-1.566 0-2.426.553-2.426 1.568 0 .8.523 1.23 1.66 1.353zm3.083-13.128a2.53 2.53 0 0 1-2.52-2.52c0-1.38 1.137-2.488 2.52-2.488 1.352 0 2.49 1.106 2.49 2.427 0 1.444-1.108 2.58-2.49 2.58zm-14.298 5.11a2.53 2.53 0 0 1-2.52-2.52c0-1.382 1.138-2.49 2.52-2.49 1.353 0 2.49 1.108 2.49 2.43 0 1.443-1.107 2.58-2.49 2.58zM14.9 32.67l-3.348-10.048L8.204 32.67H4.917L0 16.663h4.24l2.58 9.892 3.258-9.892h2.92l3.286 9.892 2.58-9.892h4.21L18.188 32.67H14.9zm14.532 0h-3.994V16.663h3.994V32.67zm7.11 7.38c.845 0 1.377.183 1.608.304l-.21.712c-.33-.16-.804-.28-1.367-.28-1.587 0-2.642 1.014-2.642 2.792 0 1.656.957 2.722 2.604 2.722.533 0 1.076-.11 1.426-.28l.18.692c-.32.16-.964.33-1.788.33-1.908 0-3.345-1.214-3.345-3.435 0-2.12 1.437-3.556 3.536-3.556zm5.364 1.91c1.398 0 2.342 1.015 2.342 2.5 0 1.8-1.246 2.582-2.422 2.582-1.316 0-2.33-.965-2.33-2.5 0-1.627 1.065-2.58 2.41-2.58zm-.04 4.42c.844 0 1.477-.793 1.477-1.888 0-.824-.41-1.87-1.456-1.87-1.045 0-1.497.966-1.497 1.89 0 1.065.613 1.867 1.476 1.867zm11.623 0c.64 0 .942-.323.942-.723 0-.423-.25-.653-.904-.895-.874-.31-1.286-.793-1.286-1.375 0-.784.632-1.426 1.678-1.426.492 0 .922.14 1.195.303l-.222.643a1.877 1.877 0 0 0-.994-.282c-.523 0-.814.3-.814.663 0 .402.29.583.925.823.844.322 1.276.743 1.276 1.467 0 .853-.663 1.465-1.818 1.465-.534 0-1.026-.14-1.367-.34l.22-.674c.263.17.725.35 1.167.35zm4.54-1.618c0 .925.28 1.547 1.083 1.547.593 0 1.005-.413 1.166-.805.05-.13.08-.292.08-.452V42.07h.882v3.537c0 .502.012.944.04 1.326H60.5l-.05-.794h-.02a1.83 1.83 0 0 1-1.607.9c-.764 0-1.677-.42-1.677-2.127V42.07h.885v2.692zm8.757-3.585l.864-.27v1.164h1.267v.674H67.65v2.622c0 .603.17.944.664.944.242 0 .38-.02.512-.06l.04.662c-.17.07-.442.13-.783.13-.412 0-.744-.14-.955-.38-.25-.26-.342-.694-.342-1.267v-2.652h-.753v-.672h.753v-.892zm4.32-1.025c.33 0 .54.24.54.553.012.3-.21.542-.56.542a.526.526 0 0 1-.533-.542.54.54 0 0 1 .553-.553zm.442 6.78h-.885v-4.86h.884v4.86zm3.012-4.058h.02c.24-.462.804-.913 1.606-.913.673 0 1.718.404 1.718 2.07v2.904h-.883V44.13c0-.783-.292-1.436-1.126-1.436-.584 0-1.036.41-1.187.904-.04.11-.06.26-.06.41v2.925h-.883v-3.546c0-.502-.01-.914-.04-1.316h.783l.05.805zm18.08-2.78c.785 0 1.397.17 1.688.308l-.21.716c-.36-.162-.813-.292-1.496-.292-1.648 0-2.724 1.023-2.724 2.72 0 1.72 1.036 2.733 2.613 2.733.573 0 .964-.08 1.165-.183V44.08h-1.375v-.704h2.23v3.255a6.267 6.267 0 0 1-2.08.375c-1.025 0-1.868-.263-2.53-.895-.585-.564-.945-1.467-.945-2.522.01-2.02 1.395-3.495 3.666-3.495zm9.945 1.867c1.397 0 2.34 1.016 2.34 2.5 0 1.8-1.244 2.583-2.42 2.583-1.316 0-2.33-.965-2.33-2.5 0-1.627 1.065-2.58 2.41-2.58zm-.04 4.42c.844 0 1.477-.792 1.477-1.887 0-.824-.412-1.87-1.457-1.87-1.044 0-1.497.966-1.497 1.89 0 1.065.614 1.867 1.477 1.867zm5.103-1.617c0 .925.282 1.547 1.085 1.547.593 0 1.004-.412 1.166-.804.05-.13.08-.292.08-.452V42.07h.886v3.537c0 .502.01.944.04 1.326h-.783l-.05-.794h-.02a1.83 1.83 0 0 1-1.607.9c-.764 0-1.678-.42-1.678-2.127V42.07h.884v2.692z" class="vvcls-1"/></svg></svg>