<?xml version="1.0" encoding="utf-8"?><svg width="247" height="234" viewBox="0 0 247 234" xmlns="http://www.w3.org/2000/svg" xmlns:xlink="http://www.w3.org/1999/xlink"><view id="svg-why--why-01" viewBox="84.94 82.25 82 71.97"/><svg preserveAspectRatio="xMidYMid" width="82" height="71.97" viewBox="-10 -10 82 71.97" x="84.94" y="82.25"><defs><style>.acls-1{fill:#fff;fill-rule:evenodd}</style></defs><path d="M59.012 26h-.015v24.98a1 1 0 0 1-1 1H3.985a1 1 0 0 1-1-1V25.997A3 3 0 0 1 .012 23V10.025c0-1.654 1.346-3 3-3h16.98c.424-3.66 3.244-7.028 6.63-7.028H35.4c3.418 0 6.24 3.343 6.64 7.028H59.01c1.654 0 3 1.346 3 3V23c0 1.654-1.346 3-3 3zM4.985 49.98h52.012V26h-6.99v2.972c0 1.654-1.347 3-3 3H42.98c-1.655 0-3-1.346-3-3V26h-17.97v4.003c0 1.103-.9 2-2 2h-6.026c-1.103 0-2-.897-2-2V26h-7v23.98zM41.982 24h6.024v-3.016a1 1 0 0 0-1-1h-4.024a1 1 0 0 0-1 1V24zm0 2v2.972a1 1 0 0 0 1 1h4.024a1 1 0 0 0 1-1V26h-6.024zm-27.996 0v4.003h6.026V26h-6.026zm6.025-2v-4.016h-6.024V24h6.025zM35.4 1.996h-8.777c-2.257 0-4.204 2.453-4.603 5.028h17.994c-.367-2.606-2.29-5.028-4.614-5.028zm24.612 8.028a1 1 0 0 0-1-1h-56a1 1 0 0 0-1 1V23a1 1 0 0 0 1 1h8.973v-4.016c0-1.103.367-2 1.47-2h6.556c1.103 0 2 .897 2 2V24h17.972v-3.016c0-1.654 1.158-3 2.812-3h4.212c1.654 0 3 1.346 3 3V24h9.006a1 1 0 0 0 1-1V10.025z" class="acls-1"/></svg><view id="svg-why--why-02" viewBox="84.94 0 82 82.25"/><svg preserveAspectRatio="xMidYMid" width="82" height="82.25" viewBox="-10 -10 82 82.25" x="84.94"><defs><style>.bcls-1{fill:#fff;fill-rule:evenodd}</style></defs><path d="M60.176 48.454a6.185 6.185 0 0 1-4.405 1.824 6.162 6.162 0 0 1-3.208-.89.996.996 0 0 1-.603-.302l-.807-.848-17.588-19.22c-.25.215-.502.424-.754.628.18.53.273 1.087.273 1.65 0 1.362-.53 2.643-1.494 3.606-.924.923-2.237 1.453-3.606 1.453-1.367 0-2.68-.53-3.606-1.455L13.185 23.706a5.104 5.104 0 0 1 0-7.21c1.31-1.315 3.463-1.81 5.246-1.22a41.08 41.08 0 0 1 2.982-3.324 41.4 41.4 0 0 1 5.754-4.804 5.07 5.07 0 0 1 1.052-5.684C29.143.54 30.458.008 31.825.008c1.365 0 2.68.53 3.603 1.452l11.194 11.196a5.062 5.062 0 0 1 1.492 3.605 5.07 5.07 0 0 1-1.492 3.61c-1.416 1.414-3.822 1.846-5.682 1.04-.155.227-.313.452-.475.677L60.84 40.235a1 1 0 0 1 .324.694A6.19 6.19 0 0 1 62 44.05a6.18 6.18 0 0 1-1.824 4.404zm-.93-6.814a1.015 1.015 0 0 1-.133-.275L38.45 22.455a1 1 0 0 1-.12-1.343 35.05 35.05 0 0 0 1.453-2.07 1.002 1.002 0 0 1 1.426-.265c1.13.82 3.006.67 3.998-.322a3.084 3.084 0 0 0 .906-2.194c0-.828-.322-1.606-.906-2.19L34.015 2.875c-1.105-1.1-3.28-1.1-4.383.003a3.118 3.118 0 0 0-.323 4c.16.22.22.5.17.77a.997.997 0 0 1-.44.655c-2.127 1.376-4.276 3.126-6.214 5.063a39.57 39.57 0 0 0-3.292 3.74.997.997 0 0 1-1.267.267c-1.13-.612-2.76-.374-3.667.537a3.1 3.1 0 0 0 0 4.382l11.192 11.194c1.105 1.106 3.28 1.105 4.382 0 .587-.584.91-1.362.91-2.19 0-.52-.13-1.03-.374-1.48a1 1 0 0 1 .265-1.265 39.603 39.603 0 0 0 2.004-1.67 1 1 0 0 1 1.402.07l18.72 20.436c.083.03.162.07.236.123 1.624 1.15 4.004.95 5.424-.47A4.197 4.197 0 0 0 60 44.05c0-.87-.26-1.702-.753-2.41zM29.805 52.962a7.188 7.188 0 0 1 6.174 7.11v1.16a1 1 0 0 1-1 1H1a1 1 0 0 1-1-1v-1.16a7.19 7.19 0 0 1 6.175-7.11 5.493 5.493 0 0 1 4.733-2.718h14.16a5.498 5.498 0 0 1 4.736 2.718zM7.728 54.31a1 1 0 0 1-.855.59A5.187 5.187 0 0 0 2 60.073v.158h31.978v-.157c0-2.74-2.14-5.01-4.873-5.173a.996.996 0 0 1-.854-.59 3.493 3.493 0 0 0-3.18-2.066H10.907c-1.37 0-2.62.81-3.18 2.066z" class="bcls-1"/></svg><view id="svg-why--why-03" viewBox="0 73.94 82 84.09"/><svg preserveAspectRatio="xMidYMid" width="82" height="84.09" viewBox="-10 -10 82 84.09" y="73.94"><defs><style>.ccls-1{fill:#fff;fill-rule:evenodd}</style></defs><path d="M54.817 51.346c-3.12 0-5.756-2.012-6.745-4.798-3.65 7.933-9.934 13.72-17.36 15.53h17.694a1 1 0 0 1 0 2H2.376a1 1 0 0 1 0-2H20.75C8.94 59.196 0 46.262 0 30.61c0-.13.003-.26.007-.388l.005-.202a1 1 0 0 1 1-.982h49.44a1 1 0 0 1 1 .976l.005.178c.004.14.008.278.008.42 0 2.65-.276 5.217-.76 7.677a7.133 7.133 0 0 1 4.112-1.31A7.19 7.19 0 0 1 62 44.163a7.19 7.19 0 0 1-7.183 7.183zM2.002 31.038c.18 16.488 10.756 29.644 23.73 29.644 12.975 0 23.55-13.156 23.73-29.644H2.003zm52.815 7.942a5.19 5.19 0 0 0-5.184 5.183 5.19 5.19 0 0 0 5.184 5.183A5.19 5.19 0 0 0 60 44.163a5.19 5.19 0 0 0-5.183-5.183zm-20.81-26.47c-.194.455-.435 1.02-.8 2.11-.65 1.94.527 2.892.664 2.995a1 1 0 0 1-.595 1.808.985.985 0 0 1-.57-.183c-.882-.623-2.31-2.524-1.394-5.256.392-1.165.66-1.797.858-2.26.268-.628.403-.943.623-2.12.3-1.586-1.396-3.193-1.413-3.21a1 1 0 1 1 1.352-1.472c.103.094 2.533 2.36 2.027 5.052-.26 1.39-.455 1.846-.75 2.536zm-8.035 5.353c.105.47.596.846.776.95.475.277.643.885.372 1.362a1 1 0 0 1-1.35.382c-.147-.08-1.434-.833-1.75-2.26-.353-1.59.61-7.95 1.37-11.75.747-3.74-.16-4.796-.17-4.806-.423-.353-.456-.96-.102-1.385.353-.426 1.008-.458 1.433-.105.307.255 1.783 1.775.8 6.69-.998 4.99-1.57 10.055-1.378 10.923zm-6.34-5.353c-.193.455-.434 1.02-.8 2.11-.65 1.94.53 2.892.666 2.995a1 1 0 0 1-.595 1.808.99.99 0 0 1-.57-.183c-.883-.623-2.31-2.524-1.396-5.256.39-1.165.66-1.797.857-2.26.268-.628.403-.943.623-2.12.3-1.586-1.397-3.193-1.414-3.21a1 1 0 1 1 1.352-1.472c.104.094 2.534 2.36 2.028 5.052-.26 1.39-.455 1.846-.75 2.536z" class="ccls-1"/></svg><view id="svg-why--why-04" viewBox="0 0 84.94 73.94"/><svg preserveAspectRatio="xMidYMid" width="84.94" height="73.94" viewBox="-10 -10 84.94 73.94"><defs><style>.dcls-1{fill:#fff;fill-rule:evenodd}</style></defs><path d="M63.943 53.94H.995a1 1 0 0 1 0-2H2.48v-9.947a1 1 0 0 1 1-1h8.962a1 1 0 0 1 1 1v9.947h6.044V25.99a1 1 0 0 1 1-1h7.96a1 1 0 0 1 1 1v25.95h6.045V33.95a1 1 0 0 1 1-1.002h8.962a1 1 0 0 1 1 1V51.94h6.044V14.958a1 1 0 0 1 1-1h7.96a1 1 0 0 1 1 1V51.94h1.487a1 1 0 0 1 0 2zm-52.5-10.947H4.48v8.947h6.962v-8.947zM27.446 26.99h-5.96v24.95h5.96V26.99zm17.005 7.958h-6.96V51.94h6.96V34.948zm16.005-18.99h-5.96V51.94h5.96V15.958zM57.1 7.414c-.674 0-1.314-.19-1.88-.523-.027.05-.04.103-.076.148L44.196 20.723a.967.967 0 0 1-.3.237 3.697 3.697 0 0 1-.575 4.517 3.712 3.712 0 0 1-2.64 1.095 3.736 3.736 0 0 1-3.667-4.452l-9.996-4.998c-.042.047-.072.1-.117.144a3.714 3.714 0 0 1-2.642 1.096 3.7 3.7 0 0 1-1.878-.523c-.044.08-.084.16-.152.228L11.28 29.015c-.067.068-.15.108-.228.152a3.71 3.71 0 0 1 .522 1.878 3.71 3.71 0 0 1-1.095 2.642 3.712 3.712 0 0 1-2.643 1.095c-.998 0-1.936-.39-2.642-1.095a3.74 3.74 0 0 1 0-5.284c1.18-1.182 3.093-1.36 4.513-.563.045-.084.088-.168.16-.24l10.946-10.946c.068-.068.15-.108.23-.152-.834-1.43-.653-3.295.572-4.52 1.41-1.413 3.875-1.412 5.285 0 .91.91 1.252 2.18 1.024 3.357l9.995 4.997c.04-.046.072-.1.117-.144 1.182-1.183 3.096-1.36 4.517-.562.028-.05.042-.108.08-.156L53.585 5.79a.97.97 0 0 1 .295-.25c-.827-1.428-.643-3.284.578-4.505 1.41-1.413 3.876-1.412 5.285 0a3.74 3.74 0 0 1 0 5.284A3.712 3.712 0 0 1 57.1 7.413zM9.065 29.817a1.722 1.722 0 0 0-1.227-.508c-.465 0-.9.18-1.23.507a1.74 1.74 0 0 0 0 2.457 1.73 1.73 0 0 0 1.23.508c.463 0 .9-.18 1.227-.51.328-.327.51-.763.51-1.227 0-.464-.182-.9-.51-1.228zm16.42-16.42a1.723 1.723 0 0 0-1.226-.51 1.74 1.74 0 0 0-1.23 2.965c.656.657 1.8.657 2.456 0a1.74 1.74 0 0 0 0-2.456zm16.422 8.21a1.72 1.72 0 0 0-1.227-.51 1.737 1.737 0 0 0-1.23 2.965c.658.658 1.8.657 2.457 0 .328-.327.508-.764.508-1.227 0-.464-.18-.9-.508-1.228zM58.327 2.45a1.72 1.72 0 0 0-1.226-.51 1.74 1.74 0 0 0-1.23 2.965c.658.656 1.8.657 2.458 0a1.74 1.74 0 0 0 0-2.456z" class="dcls-1"/></svg><view id="svg-why--why-05" viewBox="166.94 77 76 76"/><svg preserveAspectRatio="xMidYMid" width="76" height="76" viewBox="-10 -10 76 76" x="166.94" y="77"><defs><style>.ecls-1{fill:#fff;fill-rule:evenodd}</style></defs><path d="M55 27.493H34.784a1 1 0 0 1-1-1c0-2.545-1.736-4.282-4.28-4.282a1 1 0 0 1-1-1V1a1 1 0 0 1 1-1C44.3 0 56 11.7 56 26.493a1 1 0 0 1-1 1zM30.505 2.02v18.267c2.847.433 4.77 2.357 5.204 5.206h18.27C53.464 12.597 43.4 2.533 30.505 2.02zm.74 28.5h16.71a1 1 0 0 1 1 1c0 6.72-2.725 12.815-7.124 17.243-.018.02-.025.048-.046.068-.02.02-.047.028-.068.046C37.29 53.276 31.198 56 24.478 56 10.98 56-.003 45.02-.003 31.52 0 18.025 10.98 7.044 24.48 7.044a1 1 0 0 1 1 1v16.702a6.856 6.856 0 0 1 5.767 5.776zm15.66 2H31.263a6.88 6.88 0 0 1-1.29 3.082l11.065 11.066a22.37 22.37 0 0 0 5.87-14.147zM23.477 9.095C11.55 9.624 2 19.464 2 31.52 2 43.917 12.08 54 24.476 54c5.838 0 11.146-2.256 15.146-5.918L28.557 37.016c-1.144.852-2.547 1.374-4.08 1.374a6.876 6.876 0 0 1-6.87-6.87c0-3.444 2.558-6.278 5.87-6.767V9.093zm1 17.558a4.874 4.874 0 0 0-4.868 4.87 4.874 4.874 0 0 0 4.87 4.868 4.874 4.874 0 0 0 4.868-4.87 4.874 4.874 0 0 0-4.87-4.868z" class="ecls-1"/></svg><view id="svg-why--why-06" viewBox="72 158.03 74 74"/><svg preserveAspectRatio="xMidYMid" width="74" height="74" viewBox="-10 -10 74 74" x="72" y="158.03"><defs><style>.fcls-1{fill:#fff;fill-rule:evenodd}</style></defs><path d="M45.998 45.02h-7.002a1 1 0 0 1-1-1v-7.034a1 1 0 0 1 1-1h7.002a1 1 0 0 1 1 1v7.033a1 1 0 0 1-1 1zm-1-7.034h-5v5.033h5v-5.034zm1.926-6.888a.993.993 0 0 1-.707.293.993.993 0 0 1-.707-.292l-2.685-2.684-2.684 2.684a.993.993 0 0 1-.706.293 1 1 0 0 1-.707-1.707L41.41 27l-2.683-2.685A1 1 0 0 1 40.14 22.9l2.685 2.686L45.51 22.9a1 1 0 0 1 1.414 1.415L44.24 27l2.684 2.684a1 1 0 0 1 0 1.414zM53 54H1a1 1 0 0 1-1-1V28.13a1 1 0 0 1 2 0V52h50V9.01h-8.992v3.293c0 1.798-1.776 3.26-3.574 3.26-1.798 0-3.448-1.462-3.448-3.26V9.01h-3.334a1 1 0 0 1 0-2h3.334V3.26c0-1.798 1.65-3.26 3.448-3.26s3.574 1.462 3.574 3.26v3.75H53a1 1 0 0 1 1 1V53a1 1 0 0 1-1 1zM41.008 3.26c0-.695-.88-1.26-1.574-1.26-.695 0-1.448.565-1.448 1.26v9.043c0 .695.753 1.26 1.448 1.26s1.574-.565 1.574-1.26V3.26zm-9.91 41.404a1 1 0 0 1-1.414 0L27 41.98l-2.685 2.684A1 1 0 0 1 22.9 43.25l2.684-2.684L22.9 37.88a1 1 0 0 1 1.414-1.415L27 39.152l2.684-2.684a1 1 0 0 1 1.414 1.415l-2.684 2.685 2.684 2.684c.39.39.39 1.023 0 1.414zm0-13.566a.996.996 0 0 1-1.414 0L27 28.414l-2.685 2.684a.996.996 0 0 1-1.414 0 1 1 0 0 1 0-1.413l6.784-6.783a1 1 0 0 1 1.414 1.415L28.413 27l2.685 2.684a1 1 0 0 1 0 1.414zM7.075 36.466a1 1 0 0 1 1.414 0l2.684 2.685 2.684-2.684a1 1 0 0 1 1.414 1.415l-2.684 2.685 2.684 2.684a1 1 0 1 1-1.414 1.414l-2.684-2.685-2.685 2.684a.998.998 0 0 1-1.414-1.415l2.683-2.684-2.685-2.684a1 1 0 0 1 0-1.414zm7.49-7.336C6.535 29.13 0 22.597 0 14.565 0 6.535 6.534 0 14.565 0c8.03 0 14.565 6.534 14.565 14.565 0 8.032-6.534 14.565-14.565 14.565zm0-27.13C7.635 2 2 7.637 2 14.565c0 6.93 5.636 12.565 12.565 12.565 6.928 0 12.565-5.636 12.565-12.565C27.13 7.637 21.493 2 14.565 2zm.417 14.064a.574.574 0 0 1-.304-.105c-.04.004-.073.022-.113.022H5.52a1 1 0 0 1 0-2h8.462V5.52a1 1 0 0 1 2 0v9.044c0 .552-.448 1.5-1 1.5z" class="fcls-1"/></svg><view id="svg-why--why-07" viewBox="0 158.03 72 75.81"/><svg preserveAspectRatio="xMidYMid" width="72" height="75.81" viewBox="-10 -10 72 75.81" y="158.03"><defs><style>.gcls-1{fill:#fff;fill-rule:evenodd}</style></defs><path d="M51 29.794h-4v25a1 1 0 0 1-1 1H6a1 1 0 0 1-1-1v-25H1a1 1 0 0 1-1-1v-15a1 1 0 0 1 1-1h9.192C7.865 11.204 6.06 8.724 6.06 5.57c0-2.967 1.416-4.3 2.604-4.9 1.35-.677 2.87-.675 3.842-.676 1.818 0 7.86.897 13.783 11.687C32.205.92 38.233-.005 40.007-.005c.966-.01 2.536 0 3.887.677 1.19.6 2.605 1.933 2.605 4.9 0 3.155-1.805 5.633-4.133 7.224H51a1 1 0 0 1 1 1v15a1 1 0 0 1-1 1zm-21 24h15v-24H30v24zm-6-25.278c.027.09.056.18.056.28 0 .097-.03.187-.056.277v24.72h4V14.796h-4v13.72zM7 53.794h15v-24H7v24zm-5-39v13h20v-13H2zm10.55-12.8c-.847.007-2.062 0-2.988.465-.645.323-1.502.998-1.502 3.11 0 4.743 5.307 7.224 8.152 7.224h6.643c.05-.007.094-.03.145-.03.05 0 .096.023.145.03h1.472c-5.57-10.234-10.995-10.8-12.066-10.8zM44.5 5.57c0-2.112-.857-2.787-1.502-3.11-.927-.466-2.143-.47-2.945-.466-1.114 0-6.542.566-12.11 10.8h.912c.05-.007.094-.03.145-.03.05 0 .096.023.145.03h7.203c2.845 0 8.152-2.48 8.152-7.224zm5.5 9.225H30v13h20v-13z" class="gcls-1"/></svg><view id="svg-why--why-08" viewBox="166.94 0 80 77"/><svg preserveAspectRatio="xMidYMid" width="80" height="77" viewBox="-10 -10 80 77" x="166.94"><defs><style>.hcls-1{fill:#fff;fill-rule:evenodd}</style></defs><path d="M57 57H47c-1.654 0-3-1.346-3-3V44c0-1.654 1.346-3 3-3h10c1.654 0 3 1.346 3 3v10c0 1.654-1.346 3-3 3zm1-13a1 1 0 0 0-1-1H47a1 1 0 0 0-1 1v10a1 1 0 0 0 1 1h10a1 1 0 0 0 1-1V44zm-5.947-6.386a1 1 0 0 1-1-1V29H31v7.614a1 1 0 0 1-2 0V29H8.947v7.614a1 1 0 0 1-1 1c-.553 0-.947-.448-.947-1v-8.16c0-.036.015-.067.018-.102a.982.982 0 0 1-.07-.352 1 1 0 0 1 1-1H29v-6.485a1 1 0 0 1 2 0V27h20.835c.465 0 .803.324.903.754.164.18.262.427.262.7v8.16c0 .552-.395 1-.947 1zM35 16H25c-1.654 0-3-1.346-3-3V3c0-1.654 1.346-3 3-3h10c1.654 0 3 1.346 3 3v10c0 1.654-1.346 3-3 3zm1-13a1 1 0 0 0-1-1H25a1 1 0 0 0-1 1v10a1 1 0 0 0 1 1h10a1 1 0 0 0 1-1V3zM16 44v10c0 1.654-1.346 3-3 3H3c-1.654 0-3-1.346-3-3V44c0-1.654 1.346-3 3-3h10c1.654 0 3 1.346 3 3zM2 44v10a1 1 0 0 0 1 1h10a1 1 0 0 0 1-1V44a1 1 0 0 0-1-1H3a1 1 0 0 0-1 1zm23-3h10c1.654 0 3 1.346 3 3v10c0 1.654-1.346 3-3 3H25c-1.654 0-3-1.346-3-3V44c0-1.654 1.346-3 3-3zm-1 13a1 1 0 0 0 1 1h10a1 1 0 0 0 1-1V44a1 1 0 0 0-1-1H25a1 1 0 0 0-1 1v10z" class="hcls-1"/></svg></svg>