<svg xmlns="http://www.w3.org/2000/svg" xmlns:xlink="http://www.w3.org/1999/xlink" preserveAspectRatio="xMidYMid" width="150.688" height="49.031" viewBox="0 0 150.688 49.031">
  <defs>
    <style>
      .cls-1 {
        fill: #fff;
        fill-rule: evenodd;
      }
    </style>
  </defs>
  <path d="M140.678,25.911 C140.800,28.307 141.998,29.474 144.334,29.474 C144.979,29.474 145.655,29.352 146.177,29.137 C146.760,28.891 147.099,28.645 147.805,27.969 L150.232,30.335 C149.034,31.471 148.481,31.840 147.467,32.271 C146.545,32.639 145.440,32.854 144.180,32.854 C139.264,32.854 136.745,30.059 136.745,24.620 C136.745,19.613 139.418,16.478 143.719,16.478 C147.959,16.478 150.693,19.489 150.693,24.129 L150.693,25.911 L140.678,25.911 ZM143.719,19.797 C141.876,19.797 140.769,21.025 140.678,23.176 L146.760,23.176 C146.638,20.995 145.562,19.797 143.719,19.797 ZM129.709,29.259 C130.754,29.259 131.338,28.952 132.290,27.999 L134.994,30.673 C134.041,31.595 133.581,31.902 132.720,32.271 C131.830,32.670 130.847,32.854 129.740,32.854 C125.163,32.854 122.552,29.843 122.552,24.529 C122.552,19.489 125.224,16.478 129.740,16.478 C130.847,16.478 131.860,16.663 132.720,17.031 C133.581,17.400 134.041,17.707 134.994,18.629 L132.290,21.333 C131.369,20.380 130.723,20.074 129.709,20.074 C127.621,20.074 126.546,21.640 126.546,24.651 C126.546,27.723 127.621,29.259 129.709,29.259 ZM116.898,14.666 C115.516,14.666 114.379,13.530 114.379,12.147 C114.379,10.765 115.516,9.658 116.898,9.658 C118.250,9.658 119.387,10.765 119.387,12.086 C119.387,13.530 118.281,14.666 116.898,14.666 ZM114.901,16.663 L118.895,16.663 L118.895,32.670 L114.901,32.670 L114.901,16.663 ZM115.627,41.961 C116.802,41.961 117.686,42.954 117.686,44.432 C117.686,46.179 116.620,47.042 115.476,47.042 C114.832,47.042 114.270,46.762 113.979,46.279 L113.958,46.279 L113.958,48.921 L113.085,48.921 L113.085,43.659 C113.085,43.036 113.065,42.533 113.045,42.071 L113.839,42.071 L113.879,42.905 L113.898,42.905 C114.260,42.312 114.832,41.961 115.627,41.961 ZM114.020,43.758 C113.989,43.869 113.958,43.999 113.958,44.121 L113.958,44.953 C113.958,45.083 113.979,45.206 113.999,45.316 C114.159,45.928 114.692,46.351 115.326,46.351 C116.258,46.351 116.802,45.587 116.802,44.473 C116.802,43.497 116.288,42.663 115.355,42.663 C114.752,42.663 114.189,43.094 114.020,43.758 ZM103.534,32.670 L97.635,16.663 L101.844,16.663 L105.101,26.555 L108.327,16.663 L112.536,16.663 L106.668,32.670 L103.534,32.670 ZM102.521,9.557 C101.139,9.557 100.032,8.421 100.032,6.977 C100.032,5.656 101.169,4.549 102.521,4.549 C103.904,4.549 105.040,5.656 105.040,7.038 C105.040,8.421 103.904,9.557 102.521,9.557 ZM98.741,41.961 C98.841,41.961 98.912,41.970 98.992,41.990 L98.992,42.824 C98.902,42.804 98.812,42.795 98.691,42.795 C98.069,42.795 97.626,43.266 97.506,43.930 C97.485,44.050 97.465,44.191 97.465,44.341 L97.465,46.933 L96.591,46.933 L96.591,43.588 C96.591,43.016 96.582,42.522 96.551,42.071 L97.325,42.071 L97.356,43.025 L97.395,43.025 C97.617,42.372 98.149,41.961 98.741,41.961 ZM91.368,31.164 C90.661,31.902 90.324,32.147 89.710,32.424 C89.064,32.700 88.296,32.854 87.467,32.854 C85.869,32.854 84.395,32.331 83.473,31.410 C82.797,30.734 82.244,29.567 82.090,28.523 C81.968,27.631 81.844,26.309 81.844,24.651 L81.844,24.159 C81.844,20.871 82.305,19.089 83.473,17.923 C84.395,17.001 85.838,16.478 87.436,16.478 C88.296,16.478 89.034,16.632 89.710,16.909 C90.293,17.155 90.631,17.400 91.276,18.076 L91.276,10.794 L95.270,10.794 L95.270,32.670 L91.368,32.670 L91.368,31.164 ZM88.542,20.074 C87.374,20.074 86.638,20.535 86.238,21.486 C85.962,22.194 85.838,23.176 85.838,24.897 C85.838,28.030 86.606,29.259 88.542,29.259 C90.539,29.259 91.276,28.030 91.276,24.651 C91.276,21.303 90.539,20.074 88.542,20.074 ZM87.343,6.124 C85.961,6.124 84.854,4.988 84.854,3.544 C84.854,2.222 85.991,1.116 87.343,1.116 C88.726,1.116 89.862,2.222 89.862,3.605 C89.862,4.988 88.726,6.124 87.343,6.124 ZM83.452,42.804 L83.473,42.804 L83.513,42.071 L84.287,42.071 C84.266,42.422 84.247,42.814 84.247,43.407 L84.247,46.229 C84.247,47.344 84.026,48.027 83.553,48.449 C83.080,48.892 82.398,49.032 81.786,49.032 C81.202,49.032 80.560,48.892 80.168,48.631 L80.389,47.957 C80.711,48.158 81.212,48.339 81.816,48.339 C82.720,48.339 83.382,47.868 83.382,46.640 L83.382,46.098 L83.362,46.098 C83.091,46.551 82.569,46.912 81.816,46.912 C80.609,46.912 79.746,45.887 79.746,44.541 C79.746,42.894 80.821,41.961 81.936,41.961 C82.779,41.961 83.242,42.402 83.452,42.804 ZM80.639,44.492 C80.639,45.446 81.122,46.240 82.077,46.240 C82.619,46.240 83.111,45.898 83.301,45.335 C83.353,45.184 83.372,45.013 83.372,44.863 L83.372,43.989 C83.372,43.839 83.362,43.709 83.322,43.588 C83.162,43.075 82.730,42.653 82.087,42.653 C81.242,42.653 80.639,43.366 80.639,44.492 ZM74.317,31.287 C73.610,31.963 73.273,32.209 72.659,32.454 C72.044,32.700 71.306,32.824 70.385,32.824 C66.975,32.824 64.978,30.980 64.978,27.846 C64.978,24.959 67.068,23.176 70.447,23.176 L74.225,23.176 L74.225,22.378 C74.225,20.595 73.334,19.857 71.184,19.857 C69.770,19.857 69.126,20.135 68.173,21.179 L65.623,18.691 C66.544,17.770 66.975,17.431 67.773,17.062 C68.695,16.663 69.801,16.478 71.306,16.478 C75.915,16.478 78.219,18.383 78.219,22.132 L78.219,32.670 L74.317,32.670 L74.317,31.287 ZM74.225,25.911 L71.061,25.911 C69.648,25.911 68.818,26.555 68.818,27.723 C68.818,28.952 69.648,29.567 71.337,29.567 C73.396,29.567 74.225,28.767 74.225,26.770 L74.225,25.911 ZM72.127,5.013 C70.745,5.013 69.608,3.876 69.608,2.494 C69.608,1.111 70.745,0.005 72.127,0.005 C73.480,0.005 74.616,1.111 74.616,2.433 C74.616,3.876 73.510,5.013 72.127,5.013 ZM63.463,39.801 L64.347,39.801 L64.347,46.933 L63.463,46.933 L63.463,39.801 ZM56.069,29.474 C56.714,29.474 57.390,29.352 57.912,29.137 C58.495,28.891 58.834,28.645 59.540,27.969 L61.967,30.335 C60.769,31.471 60.216,31.840 59.202,32.271 C58.280,32.639 57.175,32.854 55.915,32.854 C50.999,32.854 48.480,30.059 48.480,24.620 C48.480,19.613 51.153,16.478 55.454,16.478 C59.694,16.478 62.428,19.489 62.428,24.129 L62.428,25.911 L52.413,25.911 C52.535,28.307 53.733,29.474 56.069,29.474 ZM58.495,23.176 C58.373,20.995 57.297,19.797 55.454,19.797 C53.611,19.797 52.504,21.025 52.413,23.176 L58.495,23.176 ZM56.911,6.124 C55.529,6.124 54.392,4.988 54.392,3.605 C54.392,2.222 55.529,1.116 56.911,1.116 C58.264,1.116 59.400,2.222 59.400,3.544 C59.400,4.988 58.294,6.124 56.911,6.124 ZM50.255,44.029 L50.255,46.933 L49.370,46.933 L49.370,44.130 C49.370,43.347 49.079,42.694 48.246,42.694 C47.664,42.694 47.211,43.105 47.060,43.598 C47.020,43.709 47.001,43.859 47.001,44.009 L47.001,46.933 L46.116,46.933 L46.116,43.387 C46.116,42.885 46.106,42.473 46.075,42.071 L46.860,42.071 L46.909,42.874 L46.930,42.874 C47.170,42.412 47.733,41.961 48.537,41.961 C49.211,41.961 50.255,42.363 50.255,44.029 ZM38.649,22.685 L41.168,22.930 C44.240,23.237 45.930,24.866 45.930,27.601 C45.930,30.980 43.319,32.854 38.649,32.854 C37.174,32.854 35.823,32.639 34.716,32.178 C33.857,31.840 33.365,31.502 32.321,30.549 L34.932,27.938 C35.608,28.523 35.884,28.706 36.469,28.952 C37.237,29.259 38.127,29.444 39.110,29.444 C40.953,29.444 42.029,28.830 42.029,27.755 C42.029,26.894 41.475,26.433 40.339,26.309 L37.820,26.065 C34.686,25.757 33.150,24.313 33.150,21.640 C33.150,18.445 35.638,16.478 39.663,16.478 C41.014,16.478 42.428,16.724 43.472,17.125 C44.210,17.400 44.610,17.646 45.439,18.353 L42.981,20.842 C42.489,20.442 42.275,20.318 41.845,20.165 C41.138,19.920 40.278,19.766 39.417,19.766 C37.851,19.766 36.991,20.318 36.991,21.333 C36.991,22.132 37.513,22.562 38.649,22.685 ZM41.733,9.557 C40.350,9.557 39.214,8.421 39.214,7.038 C39.214,5.656 40.350,4.549 41.733,4.549 C43.085,4.549 44.222,5.656 44.222,6.977 C44.222,8.421 43.115,9.557 41.733,9.557 ZM27.435,14.666 C26.053,14.666 24.916,13.530 24.916,12.147 C24.916,10.765 26.053,9.658 27.435,9.658 C28.788,9.658 29.924,10.765 29.924,12.086 C29.924,13.530 28.818,14.666 27.435,14.666 ZM14.901,32.670 L11.552,22.622 L8.204,32.670 L4.917,32.670 L0.001,16.663 L4.241,16.663 L6.821,26.555 L10.078,16.663 L12.997,16.663 L16.284,26.555 L18.864,16.663 L23.073,16.663 L18.189,32.670 L14.901,32.670 ZM29.432,32.670 L25.438,32.670 L25.438,16.663 L29.432,16.663 L29.432,32.670 ZM36.543,40.051 C37.387,40.051 37.919,40.233 38.150,40.354 L37.940,41.066 C37.609,40.906 37.136,40.786 36.573,40.786 C34.986,40.786 33.931,41.800 33.931,43.578 C33.931,45.234 34.886,46.300 36.533,46.300 C37.066,46.300 37.609,46.189 37.959,46.019 L38.140,46.712 C37.819,46.872 37.176,47.042 36.352,47.042 C34.444,47.042 33.007,45.828 33.007,43.607 C33.007,41.488 34.444,40.051 36.543,40.051 ZM41.906,41.961 C43.304,41.961 44.248,42.975 44.248,44.461 C44.248,46.261 43.002,47.042 41.826,47.042 C40.510,47.042 39.496,46.077 39.496,44.541 C39.496,42.915 40.561,41.961 41.906,41.961 ZM41.866,46.379 C42.710,46.379 43.343,45.587 43.343,44.492 C43.343,43.668 42.932,42.623 41.887,42.623 C40.842,42.623 40.390,43.588 40.390,44.511 C40.390,45.577 41.003,46.379 41.866,46.379 ZM53.489,46.379 C54.132,46.379 54.433,46.057 54.433,45.657 C54.433,45.234 54.183,45.004 53.529,44.762 C52.656,44.452 52.244,43.969 52.244,43.387 C52.244,42.603 52.876,41.961 53.922,41.961 C54.414,41.961 54.844,42.101 55.117,42.262 L54.895,42.905 C54.705,42.783 54.352,42.623 53.901,42.623 C53.378,42.623 53.087,42.924 53.087,43.286 C53.087,43.688 53.378,43.869 54.012,44.109 C54.855,44.432 55.287,44.853 55.287,45.577 C55.287,46.430 54.624,47.042 53.469,47.042 C52.936,47.042 52.444,46.901 52.103,46.701 L52.324,46.028 C52.585,46.199 53.047,46.379 53.489,46.379 ZM58.031,44.762 C58.031,45.687 58.311,46.309 59.114,46.309 C59.707,46.309 60.119,45.898 60.280,45.506 C60.330,45.375 60.360,45.214 60.360,45.054 L60.360,42.071 L61.243,42.071 L61.243,45.607 C61.243,46.109 61.255,46.551 61.283,46.933 L60.501,46.933 L60.450,46.139 L60.431,46.139 C60.199,46.531 59.687,47.042 58.823,47.042 C58.059,47.042 57.146,46.621 57.146,44.914 L57.146,42.071 L58.031,42.071 L58.031,44.762 ZM66.788,41.177 L67.652,40.906 L67.652,42.071 L68.918,42.071 L68.918,42.743 L67.652,42.743 L67.652,45.365 C67.652,45.968 67.823,46.309 68.315,46.309 C68.557,46.309 68.696,46.290 68.827,46.249 L68.868,46.912 C68.696,46.983 68.425,47.042 68.084,47.042 C67.672,47.042 67.340,46.901 67.129,46.661 C66.879,46.401 66.788,45.968 66.788,45.395 L66.788,42.743 L66.035,42.743 L66.035,42.071 L66.788,42.071 L66.788,41.177 ZM71.108,40.152 C71.439,40.152 71.649,40.393 71.649,40.705 C71.660,41.006 71.439,41.247 71.088,41.247 C70.776,41.247 70.555,41.006 70.555,40.705 C70.555,40.393 70.786,40.152 71.108,40.152 ZM71.550,46.933 L70.666,46.933 L70.666,42.071 L71.550,42.071 L71.550,46.933 ZM74.563,42.874 L74.583,42.874 C74.824,42.412 75.387,41.961 76.189,41.961 C76.863,41.961 77.908,42.363 77.908,44.029 L77.908,46.933 L77.025,46.933 L77.025,44.130 C77.025,43.347 76.733,42.694 75.899,42.694 C75.316,42.694 74.864,43.105 74.713,43.598 C74.674,43.709 74.653,43.859 74.653,44.009 L74.653,46.933 L73.770,46.933 L73.770,43.387 C73.770,42.885 73.759,42.473 73.730,42.071 L74.513,42.071 L74.563,42.874 ZM92.644,40.093 C93.428,40.093 94.040,40.263 94.331,40.402 L94.120,41.118 C93.759,40.956 93.307,40.826 92.624,40.826 C90.976,40.826 89.900,41.849 89.900,43.547 C89.900,45.265 90.936,46.279 92.513,46.279 C93.086,46.279 93.477,46.199 93.678,46.098 L93.678,44.080 L92.303,44.080 L92.303,43.376 L94.532,43.376 L94.532,46.631 C94.141,46.772 93.367,47.004 92.453,47.004 C91.428,47.004 90.585,46.741 89.922,46.109 C89.338,45.546 88.978,44.643 88.978,43.588 C88.987,41.567 90.373,40.093 92.644,40.093 ZM102.588,41.961 C103.985,41.961 104.929,42.975 104.929,44.461 C104.929,46.261 103.684,47.042 102.508,47.042 C101.192,47.042 100.178,46.077 100.178,44.541 C100.178,42.915 101.243,41.961 102.588,41.961 ZM102.547,46.379 C103.392,46.379 104.025,45.587 104.025,44.492 C104.025,43.668 103.613,42.623 102.568,42.623 C101.524,42.623 101.071,43.588 101.071,44.511 C101.071,45.577 101.684,46.379 102.547,46.379 ZM107.651,44.762 C107.651,45.687 107.932,46.309 108.735,46.309 C109.328,46.309 109.739,45.898 109.901,45.506 C109.951,45.375 109.981,45.214 109.981,45.054 L109.981,42.071 L110.865,42.071 L110.865,45.607 C110.865,46.109 110.876,46.551 110.904,46.933 L110.122,46.933 L110.071,46.139 L110.052,46.139 C109.820,46.531 109.308,47.042 108.445,47.042 C107.681,47.042 106.767,46.621 106.767,44.914 L106.767,42.071 L107.651,42.071 L107.651,44.762 Z" class="cls-1"/>
</svg>
